<svg id="Layer_1" enable-background="new 0 0 512 512" height="512" viewBox="0 0 512 512" width="512" xmlns="http://www.w3.org/2000/svg" xmlns:xlink="http://www.w3.org/1999/xlink"><linearGradient id="SVGID_1_" gradientUnits="userSpaceOnUse" x1="256" x2="256" y1="0" y2="512"><stop offset="0" stop-color="#2af598"/><stop offset="1" stop-color="#009efd"/></linearGradient><path d="m40 289c0 11.046-8.954 20-20 20s-20-8.954-20-20 8.954-20 20-20 20 8.955 20 20zm30 100c-11.046 0-20 8.954-20 20s8.954 20 20 20 20-8.954 20-20c0-11.045-8.954-20-20-20zm-50-40c-11.046 0-20 8.954-20 20s8.954 20 20 20 20-8.954 20-20c0-11.045-8.954-20-20-20zm0 80c-11.046 0-20 8.954-20 20s8.954 20 20 20 20-8.954 20-20c0-11.045-8.954-20-20-20zm100-80c-11.046 0-20 8.954-20 20s8.954 20 20 20 20-8.954 20-20c0-11.045-8.954-20-20-20zm276.85-348.994c-49.339-.376-97.808 16.664-136.526 47.963-37.288 30.144-63.977 72.091-75.353 118.352l-45.236 87.851c-6.825 13.256-6.266 28.769 1.497 41.499s21.299 20.329 36.21 20.329h1.558v57c0 33.084 26.916 60 60 60h59v79h40v-119h-99c-11.028 0-20-8.972-20-20v-97h-41.559c-.37 0-1.354 0-2.059-1.156s-.255-2.03-.085-2.36l48.036-94.606c18.693-80.084 91.605-137.878 172.667-137.878 44.176.332 85.127 17.023 116 44.247v-50.175c-34.099-21.876-73.721-33.755-115.15-34.066zm-326.85 308.994c-11.046 0-20 8.954-20 20s8.954 20 20 20 20-8.954 20-20c0-11.045-8.954-20-20-20zm382-141c-33.084 0-60 26.916-60 60h40c0-11.028 8.972-20 20-20 10.841 0 20 9.388 20 20.5 0 12.748-6.561 27.314-17.549 38.964-10.048 10.653-22.786 17.536-32.451 17.536v40c21.079 0 43.513-10.967 61.549-30.089 18.081-19.17 28.451-43.375 28.451-66.411 0-33.36-26.916-60.5-60-60.5z" fill="url(#SVGID_1_)"/></svg>