<svg id="Layer_1" enable-background="new 0 0 512 512" height="512" viewBox="0 0 512 512" width="512" xmlns="http://www.w3.org/2000/svg" xmlns:xlink="http://www.w3.org/1999/xlink"><linearGradient id="SVGID_1_" gradientUnits="userSpaceOnUse" x1="256" x2="256" y1="0" y2="512"><stop offset="0" stop-color="#2af598"/><stop offset="1" stop-color="#009efd"/></linearGradient><path d="m49.305 272.484c-.169.329-.62 1.203.085 2.359.705 1.157 1.689 1.157 2.059 1.157h41.544v97c0 11.028 8.986 20 20.014 20h98.986v119h-39.986v-79h-59c-33.084 0-60-26.916-60-60v-57h-1.559c-14.91 0-28.446-7.6-36.209-20.328-7.763-12.729-8.323-28.243-1.498-41.499l45.239-87.853c11.376-46.26 38.064-88.208 75.353-118.352 38.718-31.298 87.209-48.363 136.524-47.961 38.855.292 76.116 10.769 108.726 30.115-2.024 2.815-4.119 5.801-6.226 8.907-6.034 8.893-11.101 17.188-15.267 25.028-25.777-15.068-55.674-23.813-87.533-24.052-81.567-.584-154.426 57.371-173.215 137.872zm396.694-56.532c.001.217.008.432.008.649-.015 26.627-6.404 52.73-18.989 77.585-20.941 41.357-32.011 88.38-32.011 135.985v81.829h39.986v-81.829c0-41.357 9.592-82.132 27.711-117.915 15.445-30.501 23.285-62.677 23.304-95.633.002-3.427-.081-6.84-.237-10.241-12.124 5.76-25.581 9.15-39.772 9.57zm-77.992 10.048c0-8.565-2.431-23.534-23.45-54.513-10.439-15.386-20.764-27.785-21.198-28.305l-15.353-18.388-15.353 18.388c-.434.52-10.758 12.918-21.198 28.305-21.019 30.979-23.45 45.948-23.45 54.513 0 33.084 26.916 60 60 60s60.002-26.916 60.002-60zm-56.653-32.207c15.97 23.506 16.636 31.931 16.653 32.229-.012 11.018-8.979 19.978-20 19.978-11.028 0-20-8.972-20-19.97.003-.082.468-8.415 16.654-32.237 1.119-1.647 2.241-3.261 3.347-4.824 1.105 1.563 2.227 3.177 3.346 4.824zm191.653-77.793c0-8.565-2.431-23.534-23.45-54.513-10.439-15.386-20.764-27.785-21.198-28.305l-15.353-18.388-15.353 18.388c-.434.52-10.758 12.918-21.198 28.305-21.019 30.979-23.45 45.948-23.45 54.513 0 33.084 26.916 60 60 60s60.002-26.916 60.002-60zm-56.653-32.207c15.97 23.506 16.636 31.931 16.653 32.229-.012 11.018-8.979 19.978-20 19.978-11.028 0-20-8.972-20-19.97.003-.082.468-8.415 16.654-32.237 1.119-1.647 2.241-3.261 3.347-4.824 1.105 1.563 2.227 3.177 3.346 4.824z" fill="url(#SVGID_1_)"/></svg>