<?xml version="1.0"?>
<svg xmlns="http://www.w3.org/2000/svg" id="Outline" height="512px" viewBox="0 0 512 512" width="512px"><g><path d="m506.254 204.962a38.413 38.413 0 0 0 -16.219-26.333 38.759 38.759 0 0 0 -43.792-.329 164.531 164.531 0 0 1 -33.361 17.5 168.2 168.2 0 0 0 -19.741-36.823 85.766 85.766 0 0 1 41.759-23.284 48.526 48.526 0 1 0 -58.6-58.6 85.754 85.754 0 0 1 -23.293 41.767 168.139 168.139 0 0 0 -43.737-22.214 211.161 211.161 0 0 1 10.461-26.176 43.46 43.46 0 1 0 -81.942-11.078 277.721 277.721 0 0 1 3.728 29.23 166.692 166.692 0 0 0 -66.937 20.388c-13.171-15.171-22.242-34.369-26.246-55.652a48 48 0 1 0 -66.251 52.964c19.876 8.589 36.607 21.678 48.511 37.878a167.39 167.39 0 0 0 -26.6 40.236 132.891 132.891 0 0 1 -30.9-19.342 38.74 38.74 0 0 0 -61.349 16.228 38.421 38.421 0 0 0 1.76 30.786 38.879 38.879 0 0 0 23.64 19.732 38.4 38.4 0 0 0 16.408 1.2 123.826 123.826 0 0 1 35.972.338 170.021 170.021 0 0 0 -1.525 22.622 166.749 166.749 0 0 0 28.516 93.667l-5.81 7.263c-10.634 13.292-26.267 22.07-44.019 24.709a56 56 0 0 0 -32.868 93.351 55.58 55.58 0 0 0 40.053 18.019c.382.007.762.011 1.143.011a55.994 55.994 0 0 0 55.45-48.437 67.188 67.188 0 0 1 24.889-43.517l6.979-5.583a166.578 166.578 0 0 0 88.174 28.422 59.891 59.891 0 0 1 -6.493 30.405 38.741 38.741 0 0 0 34.617 55.99 39.616 39.616 0 0 0 4.118-.216 38.741 38.741 0 0 0 26.251-62.643 59.76 59.76 0 0 1 -12.658-28.283 166 166 0 0 0 55.828-25.4 204.962 204.962 0 0 1 34.986 56.32 48 48 0 1 0 63.663-62.609 226.129 226.129 0 0 1 -56.838-35.617 166.287 166.287 0 0 0 30.019-95.852c0-3.271-.1-6.561-.287-9.848a132.817 132.817 0 0 1 36.4 2.211 38.739 38.739 0 0 0 46.145-43.4zm-114.4-124.11a32.526 32.526 0 1 1 39.289 39.289 101.885 101.885 0 0 0 -47.941 26.14q-5.475-6.346-11.574-12.155c-1.928-1.83-3.911-3.595-5.919-5.327a101.887 101.887 0 0 0 26.15-47.947zm-303.425 10.783a31.608 31.608 0 0 1 -12.259-9.378 32 32 0 1 1 49.99-39.964 31.61 31.61 0 0 1 6.449 14.024c4.36 23.169 14.081 44.242 28.206 61.228a169.814 169.814 0 0 0 -18.876 15.1c-13.463-17.535-31.876-31.662-53.51-41.01zm208.055 365.779a22.731 22.731 0 1 1 -38.151 4.035 75.9 75.9 0 0 0 8.186-37.769q7.115-.433 14.1-1.455a75.768 75.768 0 0 0 15.865 35.189zm178.239-225.308a22.612 22.612 0 0 1 -11.385.586c-23.1-4.759-48.441-3.676-73.29 3.131l-5.625 1.541 4.227 15.436 5.624-1.541q6.747-1.848 13.515-3.065c.132 2.607.211 5.216.211 7.81a150.432 150.432 0 0 1 -25.817 84.771c-2.083-2.124-4.127-4.277-6.1-6.485l-3.24-3.621-11.924 10.67 3.24 3.62c21.277 23.78 48.253 43.007 80.18 57.145a32 32 0 1 1 -42.448 41.748c-12.98-30.691-31.184-56.652-54.108-77.162l-6.447-5.769-10.668 11.924 6.447 5.768q1.917 1.716 3.785 3.489a152.1 152.1 0 0 1 -165.4 2.855l40.246-32.2-9.994-12.494-60.389 48.309a83.119 83.119 0 0 0 -30.75 53.864 40 40 0 0 1 -69.04 21.695 40.186 40.186 0 0 1 -.15-54.059 39.578 39.578 0 0 1 23.623-12.607c21.76-3.239 40.994-14.085 54.158-30.541l48.537-60.672-12.494-9.994-32.2 40.246a150.843 150.843 0 0 1 -23.047-80.504 153.9 153.9 0 0 1 1.225-19.307q5.531 1.5 11.026 3.442l7.711 2.747 5.369-15.072-7.711-2.748c-23.465-8.36-47.786-11.078-70.333-7.855a22.741 22.741 0 0 1 -24.518-30.383 22.741 22.741 0 0 1 35.993-9.51c18.01 15.226 40.787 26.4 65.864 32.3l5.677 1.337 3.668-15.574-5.678-1.337c-4.55-1.071-9.007-2.341-13.363-3.781a151.9 151.9 0 0 1 123.285-85.618 228.879 228.879 0 0 1 -5.875 54.813l-1.14 4.886 15.578 3.648 1.145-4.884c7.839-33.437 8.382-69.292 1.614-106.568a27.506 27.506 0 0 1 -.238-8.191 27.464 27.464 0 1 1 52.02 15.186c-14.943 31.053-23.014 66.735-23.34 103.188l-.044 5.015 16 .141.044-5.015a236.979 236.979 0 0 1 6.892-54.81 152.284 152.284 0 0 1 92.747 88.626c-4.216 1.086-8.451 1.977-12.7 2.647l-6.677 1.053 2.493 15.805 6.676-1.053c23.337-3.68 46.146-12.954 67.794-27.567a22.743 22.743 0 0 1 35.222 15.68 22.822 22.822 0 0 1 -15.703 24.865z" data-original="#000000" class="active-path" data-old_color="#000000" fill="#FFFFFF"/><path d="m272.174 255.34c-1.268-11.415-6.832-22.567-15.666-31.4s-19.987-14.4-31.4-15.667c-12.079-1.34-23.026 2.213-30.825 10.01s-11.351 18.745-10.01 30.825c1.269 11.415 6.833 22.567 15.667 31.4s19.987 14.4 31.4 15.666a44.892 44.892 0 0 0 4.941.277c10.107 0 19.164-3.568 25.882-10.287 7.798-7.797 11.354-18.744 10.011-30.824zm-21.323 19.51c-4.289 4.289-10.588 6.215-17.744 5.42-7.817-.868-15.578-4.8-21.853-11.078s-10.21-14.036-11.079-21.853c-.8-7.152 1.131-13.454 5.422-17.744 3.658-3.658 8.776-5.6 14.638-5.6a28.19 28.19 0 0 1 3.106.175c7.817.869 15.578 4.8 21.853 11.079s10.21 14.036 11.078 21.853c.794 7.156-1.131 13.458-5.421 17.748z" data-original="#000000" class="active-path" data-old_color="#000000" fill="#FFFFFF"/><path d="m322.366 231.178a23.869 23.869 0 0 0 -27.188 27.188 33.967 33.967 0 0 0 9.965 20.047 33.3 33.3 0 0 0 23.227 10.087 24.084 24.084 0 0 0 17.287-6.847c10.275-10.275 8.82-28.45-3.244-40.515a33.971 33.971 0 0 0 -20.047-9.96zm11.977 39.165c-3.965 3.969-12.158 2.483-17.887-3.244a18.2 18.2 0 0 1 -5.376-10.5c-.2-1.767-.181-5.077 2.132-7.389a8.358 8.358 0 0 1 6.014-2.21 12.379 12.379 0 0 1 1.374.077 18.2 18.2 0 0 1 10.5 5.375c5.726 5.732 7.212 13.923 3.243 17.891z" data-original="#000000" class="active-path" data-old_color="#000000" fill="#FFFFFF"/><path d="m294.616 293.888a24.776 24.776 0 0 0 -21.318 3.1 33.973 33.973 0 0 0 -13.508 17.852c-5.426 16.176 1.368 33.1 15.146 37.718a22.692 22.692 0 0 0 7.231 1.176c11.631 0 23.1-8.746 27.6-22.133 5.421-16.172-1.373-33.091-15.151-37.713zm-.023 32.628c-2.576 7.68-9.245 12.666-14.57 10.875s-7.639-9.781-5.063-17.46a18.21 18.21 0 0 1 7-9.491 10.244 10.244 0 0 1 5.343-1.741 6.928 6.928 0 0 1 2.221.359c5.326 1.784 7.645 9.78 5.069 17.458z" data-original="#000000" class="active-path" data-old_color="#000000" fill="#FFFFFF"/><path d="m176 168h16v16h-16z" data-original="#000000" class="active-path" data-old_color="#000000" fill="#FFFFFF"/><path d="m336 176h16v16h-16z" data-original="#000000" class="active-path" data-old_color="#000000" fill="#FFFFFF"/><path d="m248 368h16v16h-16z" data-original="#000000" class="active-path" data-old_color="#000000" fill="#FFFFFF"/><path d="m360 288h16v16h-16z" data-original="#000000" class="active-path" data-old_color="#000000" fill="#FFFFFF"/><path d="m272 200h16v16h-16z" data-original="#000000" class="active-path" data-old_color="#000000" fill="#FFFFFF"/><path d="m144 256h16v16h-16z" data-original="#000000" class="active-path" data-old_color="#000000" fill="#FFFFFF"/><script xmlns="" class="active-path"/></g> </svg>
