<?xml version="1.0"?>
<!--
************* Copyright (c) 2017 Pareto Softare, LLC DBA Simplemaps.com *******************		
************* Free for Commercial Use, full terms at  http://simplemaps.com/resources/svg-license ************
************* Attribution is appreciated! http://simplemaps.com ***************************
-->
<svg baseprofile="tiny" fill="#7c7c7c" height="1360" stroke="#ffffff" stroke-linecap="round" stroke-linejoin="round" stroke-width="2" version="1.2" viewbox="0 0 1000 1360" width="1000" xmlns="http://www.w3.org/2000/svg">
 <path d="M391.5 624.8l-1.8 3.1-0.7 0.8-7.8 2.6-0.9 0.5-0.5 0.4 0.1 0.3 0.6 0.6 1.4 0.9 0.3 0.4-0.1 0.8-0.4 1.1-0.4 1.3-0.3 1-0.1 0.5-0.3 1.1-0.5 1.3-0.5 0.8-0.5 0.7-1.2 0.9-0.5 0.8-0.4 0.8-0.5 1.3-0.3 0.6-0.4 0.4-1.4 0.9-1.4 1.2-0.8 0.6-1.2 0.4-2.1 1.3-0.9 1-0.5 1.2-0.1 0.9 0 0.9-0.1 0.6-0.4 1.4-0.5 0.4-1.2-0.3-0.6 0.2-3.8 3.1-0.5 0.1-0.9 0-4-0.8-2.1-1.7-0.5-0.8-0.1-0.5 0.2-1.7 0.1-0.6-0.2-1.7-0.7-1-0.4-0.4-0.4-0.2-0.8 0.1-1.5-0.8-2.2-1.6-0.9-0.5-0.7-0.2-1.7 0.9-4.5 1.2-5.6 2.9-0.4 0.4-0.4 0.8-0.1 0.8 0 0.4 0.2 0.7 1 1.3 0.4 0.9 0.1 0.8 0.3 2-0.1 1.6 0.1 0.7 0.4 0.2 2.3 0.4 0.6 0.4 0.3 0.5 0 0.7-0.3 0.7-0.5 1.5-0.4 0.5-0.4 0.3-4.5 0.2-1.1 0.5-2.8 2.1-0.8 0.1-2.3-0.7-0.5-0.3-1.1-0.2-0.6 0-1.4 0.2-2.6 0.9-2.3 0.3-1.8-0.1-0.8 0.2-2.5 1.2-2.1 0.5-0.6 0.5 0 0.3-0.7 1.1-1.2 0.7-0.9 0.8-0.3 1.2-0.3 0.4-3.6 3.7-2.3 3-0.6 1.1-1.1 2.4-0.3 1 0.1 0.5 0.4 0.4 0.4 0.5 0.7 0.4 0.4 0.4 0.2 0.5 0.2 1.2 0.2 0.5 0.4 0.4 0.5 0.3 1 0.1 0.5 0 0.6-0.3 0.3-0.3 0.6-1.1 0.5-0.5 0.5-0.2 2.2-0.2 2.3-0.6 2.4-1.8 0.5-0.2 0.5-0.1 0.4 0.2 0.2 0.2 0.1 0.5 0 0.3-0.4 1.1 0 0.5 1 0.5 0.3 0.4 0.5 2.2 0.2 0.9 0.6 2.9 0.1 0.8 0.7 3.5 0.1 1.1 0 1.1-0.2 0.9-3.5 3.9-2.2 3-0.2 0.4-0.1 0.5 0.2 0.4 0.9 1.6 0.2 0.4 0 0.9-0.1 0.4-0.2 0.3-2.8 1.5-1.4 1.2-0.3 0.1-0.5 0-3.4-0.9-11.2 0.1-0.4 1.4 0.4 0.8 0.4 0.7 0.8 1.5 0.2 0.8 0.1 0.5-0.2 0.7-0.1 1 0.1 1.1 0.7 2.4 0.2 1 0 0.6-0.7 1.3-1.2 1.4-0.4 1-0.4 1-0.6 1.1-0.2 0.7-0.3 0.5-0.5 0.3-0.9 0.2-0.7 0.8-1.3 3.1-1 1.9-0.1 1.3 0 2.7-0.2 0.7-0.3 0.4-0.3 0-1.2-0.3-0.6 0-1.9 1.3-2.9 2.8-0.4 0.6 0.1 0.9 0 0.8-0.3 0.7-2.2 1.8-0.6 0.3-0.5 0.2-1.5 0.1-1.5 0.2-1.8-0.3-0.6-0.5-1-2.2-0.3-0.4-0.4-0.2-1.3 0.1-0.7 0.4-1.4 1.7-4.7 4.2-0.6 1.1-0.3 0.3-2.1 1.5-0.3 0.5-0.8 2.2-5.2 4.5-0.6 0.7-0.1 0.7 0.2 0.5 0.7 0.4 0.1 0.5 0 0.7 0.3 0.4 2.4 1.9 0.5 0.5 0.3 0.5 0.1 0.6-0.6 4.5-0.3 1.4-0.3 0.4-0.3 0.3-1.1 0.2-0.8 0.8-1 2.4-3.1-1.9-1.2-0.3-0.6 0-2.7 1.3-0.6 0.1-0.3-0.4-0.2-1.3-0.3-0.9-0.2-0.6-1.8-3.2-4.6-6-1.1-2.2-0.1-0.7 0.1-1.3 0.3-1.6 0-1.5-0.2-1.3-0.6-2.8-0.4-1.1-0.3-0.6-0.3-0.1-0.6 0.1-1.4 0.7-0.7 0.1-0.9-0.5-1.2-1-3.3-3.7-0.8-0.8-2.9-1-1-0.6-0.4-0.4-0.2-0.6 0.3-1.5 0.2-0.7 0.3-0.7 0.5-1.6 0.4-2.5-6.4-1.7-1.4 0.4-3.4 3.3-0.2 0.8-0.1 1.1 0.4 4.3 0.1 0.8 0.4 1 0.4 0.3 0.2 0.6 0.2 0.8 0.1 1.9-0.1 0.8-0.3 0.5-0.4 0-2.5-1-0.7 0.4-1.7 2.1-0.6 0.5-4.1 2.5 2 2.1 0.5 1 0.1 0.8 0 1-0.3 0.8-0.3 0.2-0.5 0.2-0.3 0-0.4-0.4-0.3-0.5-0.6 0.5-1 1.8-0.3 0.4-0.4 0.2-3.4 1.3-1.1 0.6-0.4 0.5-0.4 0.6-0.4 1.3-0.4 0.5-0.4 0.3-1.9-0.4-1.1 0.1-0.9 0.4-3.4 2.1-9.1 2.5-4.1-0.3-2.6 0.7-0.7 0.9 0 0.2 0.4 0.6 0 0.4-0.1 1.3 0 0.6 0.1 1.3-0.1 0.8-0.7 1.1-0.2 0.8-0.2 0.7 0.1 1-0.1 0.5-0.2 0.3-2.9 2.2-0.5 0.2-5 1.5-1.3 0.2-6.1-0.4-0.4-0.5-0.1-0.6-0.3-0.7-0.3-0.4-0.8-0.4-0.7-0.2-0.3 0-0.3 0.2-0.3 0.9-0.9 2.1-0.8 0.3-2.6 2.8-1.2 0.3-2.3-0.9-0.5 0.1-0.3 0.2-0.2 0.7-0.3 0.7-0.6 0.9-0.7 0.4-0.5 0.1-0.4 0-1.7-1-1.4-0.1-1.1 0.4-5.7 4.1-3 1.2-2 0.2-0.9 0.3-0.6 0.3-0.3 0.5-0.2 0.5-0.7 1.3-1.6 2-2.6 0.8-0.5 0.6 0.1 0.8 0.2 0.7 0.1 1.2 0.1 1.6-0.2 3.4-0.8 1.5-0.8 1-1 0.2-0.5 0-0.7-0.1-0.7-0.3-0.7-0.4-0.7-0.6-0.6-1.1-0.7-1.3-0.1-0.5-0.7-0.1-4.1 1.6-1.8 1.1 0 0.3 0.1 0.8 0.1 0.7-0.1 1-0.6 1.5-0.3 0.9 0 0.6 0.1 0.3 0.3 0.3 1.5 0.6 0.6 0.6 0.3 0.8-0.1 2 0.2 1.6 0.2 1.3 0.3 0.7 0.2 0.6 1 1.5 0.3 0.6 0.2 0.6 0.2 1-0.2 0.7-0.2 0.5-0.3 0.2-2.7 0.5-5.7 1.9-1.8-0.4-1.4-1.7-0.7-0.7-1.2-0.8-0.9 0.1-0.6 0.5-0.8 0.7-1.6 0.8-1.1 0-0.6-0.1-0.2-0.4 0.2-0.4 0.6-1.2-0.3-0.6-0.7-0.6-1.9-1-0.9-0.3-0.5-0.1-0.8 0.5-0.6 0.2-4.4 0.7-0.5 0.2-0.2 0.2-4.9 3.6-1.8 0.7-0.7 0.2-0.4-0.3-0.4-1.9-0.3-0.5-0.4-0.5-1.8-0.9-0.6-0.6-0.3-0.4-0.1-0.4-0.5-0.9-0.8-0.7-0.5-0.2-0.5 0.1-0.5 0.5-0.2 0.4 0.1 0.9 3.5 5.7 0.3 0.6-0.1 0.5-0.6 0.5-2.4 1.1-2.7 0-0.1-1.1-3.8-6.6-0.1-2 0.7-2.3 0.8-4 0.1-2.8-0.4-0.6-0.8-0.2-1-1.5-0.5-1.8-0.4-1.5 0.3-1.4 1.2-1.2-2-0.1-4.7-1.1-1.6-0.8-0.5-0.3-0.5 0.3-3.7 1.2-1.1-0.1-0.9-0.7-0.9-1.9-0.9-0.8 0.9-1.5-1.3-0.1-0.9-0.4-0.1-0.8 0.9-1.3-1.9-2.3 2-3.1 3.5-2.9 2.4-1.5 0-0.6 1.2-1.5 0.8-1.5-0.2-1-7.6-0.2-2.2-1.2-1.3-2.5 1.5-0.9-6.6-10.2-2.1-2.1-1.8-0.1-4.3 1.2-1.5-0.2-0.4-1.4 0.4-1.9-0.1-1.6-1.8-1-0.1-0.3 0-0.6 0.2-0.3 0.2-2.3-0.7-1-1.1-0.8-0.8-1.4-0.4-2.2 1.6 0.4 1.6-1.5 0.5-2-0.2-1.6-0.1-1.5 1-1.7 1.5-0.9 2.4 0.2 1.2-1.4 0.7-1.8 0-1.4-0.9-3.5 0.2-1.2 0.6-0.9 0.2-0.7-3.6-1.2-2.5-1.7-0.9-0.9-0.2-1.3-0.2-2.5 0.4-1.5 0.7-1.4-0.2-0.9-3.9 0.4-2.9-0.9-1.5-0.2-1.5 0.4-2.8 1.4-1.5 0.3-0.1-4.4-1.7-4.9-0.6-4.1 3-1.6 1.6 0.9 1.2 1.6 1.5 1.4 2-0.2 1.3-1.5 2.1-4.4 1.5-1.7 10.1-7.9 6.2-3.4 1.6-2.2-2.3-2.1 2.5-2.1 0.9-0.5-2.5-0.8-5.5 3.7-2.5-1.4-0.8-3.2 0.3-3.9 0.9-3.5 1.2-1.9 2.3-2.8 5.5-10.3 1.2-1.1 2.7-2 1.1-1.5 0.6-2.2 0.3-3.8 0.7-1.5-1.7-2 0.2-3.2 0.8-3.7 0.4-3.5-0.5-3.2-0.8-5.7-4.4-5.1-7.2-10-0.5-2.2 0.6-2.5 1.3-3.9-7.4-3.2-2.5-3.2 1.4-5-1-1.1-2.5-1.9-1.2-0.6-3.2 0.1-1.1-0.4 0.1-1.9 2.5-2.4 0.1-3.6-1.4-3.4-2.5-1.9 0.4-1.6 1.8-1.3 4.4-0.8 2.2-0.9 2.2-1.7 1.6-0.8 4.4-1.2 3.5 1 4.3 1.1-1.4-2.4-4.1-4.2-1.3-1.1 3.7-2 3.5 1.7 3.5 2.8 3.7 1.5 3.4-0.7 0.9 0.1 0.7 0.8 1.2 2.1 0.5 0.6 4.2 0.7 1.8 1 0.3 2.8 4.1-1.2 0.4-1.7-0.9-4 7 2 2.2 0 1.8-0.8 5.4-4.1 10.8-3.7 9.7-0.3 2.9-1.6 2.5-3.1 2.5-4.5 0.9-1 0.8-0.1 0.6-0.6 0.1-2.1-0.3-1.2-0.5-0.9-2.9-3-7.1-4-2.3-0.7-1.8-1.2-0.2-2.7 0.8-1.8 0.9-0.5 1.2-0.1 1.3-0.6 0.9-1.2 0.8-2.2 0.6-1 1.9-1.9 1.7-1 7.1-0.8 1.3-1.3 2.4-4.9 2.2-2.2 4.6-2.1 2.2-1.9 2.6-4.2 1.1-1.4 4.9-2.9 0.3-0.9-0.3-0.6 2.9 0.2 4.5-1.9 1.5-1.2 0.8-0.8 0.6-0.5 15-0.7 4.5-1 5.2-3.6 1.6-1.5 0.6-0.3 0.4-0.3 2.8-0.6 1.2-0.6 0.8-0.6 5.6-5.7 5-4.3 0.6-0.3 1.5-0.3 0.7 0 2.1 0.4 0.3-0.1 0.5-0.6 0.5-0.9 0.3-0.3 0.3-0.2 0.5-1.3 0.7-2.6 0.4-0.9 0.5-0.7 0.7-0.3 0.1-0.3-0.2-0.4-0.8-1-0.8-0.4-0.3-1-0.2-0.6 1.3-5.7 0.6-0.8 0.2-0.3 0.5-0.2 0.4 0 7.8 2.4 0.8 0.7 0.4 0.9 0.3 1 0.9 6.1 0.3 0.6 0.4 0.5 2.7 1 7.4 4.6 0.3 0.4 1.2 1.5 0.7 0.3 0.7 0.1 7.2-2.8 0.5 0 0.7 0.3 0.5 1 1 1.2 1 0.9 1.4 2.1 2.1 3.8 1 1.6 0.3 0.5 0.1 0.5-0.4 0.3-0.4 0.2-3.3 0.5-0.5 0.2-0.2 0.4-0.1 0.5 0.3 1.1 0.3 0.9 0.7 1 0.6 1.1 0 0.5-0.2 0.5-0.7 1-2 2.1-0.4 0.6 0 0.6 0.3 0.8 0.6 1.2 0.1 0.5 0 0.5-0.2 0.7-0.7 1.1-1.4 1.6-0.4 0.6 0 0.5 0.3 0.8 0.5 0.4 0.8 0.3 1 0.1 1.1 0.2 0.3 0.8 0.2 1.1 0.4 0.5 0.5 0.3 1.4 0 2-0.4 1.3 0.1 2 0.7 0.5 0.3 0.4 0.3 0 0.7-0.4 1.1-1.1 2.3-0.7 2.2 0 0.9-0.3 1-0.4 0.8-1.2 0.3-1.4 0.1-2.1 0.4-2.7 1.3-1.9 1.5-1.3 1.4-0.2 1 1 2 0.4 1.1 0.9 2.9 0.3 0.2 0.5 0.3 3.1 1 1.8 1.1 0.5 0.5 0.5 0 0.6-0.4 4.7-4.5 1.7-0.9 3.9-0.7 4 1.5 7.6-2.9 2-1.2 1.3-1.2 0.7-1.2 1.9-2.3 3.5-3.1 13.8 4 0.7-0.2 0.6-0.4 0.2-0.2 0.3-0.6 0.9-2.6 0.3-0.8 0.5-0.5 4.4-2.8 1-0.9 0.6-0.6 0.6-0.9 0.6-1.1 0.5-1.2 0.2-0.7-0.1-0.4-1.2-1-2.3-1.6-0.2-0.1-0.3-1.7-0.2-6.4 0.2-6.5-0.1-3.1-0.4-3.1-0.7-3-1-2.8-0.6-1.3-0.8-1-3.2-2.3-7-3.3-0.8-1.2-0.6-0.9-2.2-7.3 2.5 0.9 2.5 0 0.4 0.1 0.8 0.4 1 0.3 6.1-0.8 1.9-0.9 0.8-0.7 0.4-0.6 0.2-0.6 0.9-4.4 0.2-0.6 0.2-0.3 0.7-0.6 1-0.6 1.2-1 0.5-0.5 2.2-0.3 5.4 0.1 1.7-0.3 5.4-2.7 1.2 0 1.8 0.8 0.9 0.9 0.9 0.7 3 5.5 0.3 1.6 0.1 1.1 0 0.7-0.3 1.7 0 0.8 0 0.8 0.2 0.6 0.4 0.8 0.1 0.5-0.1 0.6-0.3 1.9-0.1 1 0.1 0.9 0.2 1.1 0.4 0.7 1.2 0.3 11.2 1.2 3.5-0.4 3.2-1.2 0.7-0.4 7.3-1.6 0.5-0.8 0.3-0.5 1.6-5.1 1.1-2.4 0.6-0.8 2.9-3 6-3.2 0.5-0.2 0.6 0.2 0.6 0.3 1.5 2.3 0.6 0.5 0.4 0.3 0.4 0.1 0.9 0.2 0.3 0.3 0 0.6-0.5 1.3-0.4 0.7-0.6 0.5-1 0.8-0.3 0.3 0.2 1.7 1.9 6-3.5 5.8-1.9 4.2-0.5 0.6-1.2 0.5-0.6 0.3-0.9 0.8-0.9 0.1-2.5-0.3-0.6 0.1-0.5 0.2-0.4 0.5-0.3 0.7-0.7 1.8-0.2 1.2-0.4 4.9-0.2 1.6-0.3 1-0.2 0.6 0 0.4 0 0.6 0.4 0.8 0.3 0.3 0.4 0.3 2 0.5 3.6 1.7 2.4 0.5 0.7 0.4-0.3 0.4-2.3 1.7-0.8 0.7-0.3 0.9 0 0.5 0.4 1 0.4 1 0.2 1.5-0.2 0.4-0.5 0.2-2.4-0.2-3.4 1 0.7 1.8 1 2.4 0.2 0.6 0.2 0.9 0 1.2-0.2 0.4-0.5 0.8-0.4 1-0.1 0.5 0.2 0.2 0.6-0.1 1.3-0.4 1.6-0.2 1.4 0.1 2.2-0.3 7.8 1.1 0.8 0.5 0.4 0.6-0.1 0.8-0.6 1.5 0.1 0.9 0.9 1 3 1.3 1.3 1.7 0.1 1.1 0 0.7-0.1 0.5-1.2 2.1-0.1 0.6 0.1 0.6 0.9 2.9 1.3 3.1 0.1 0.5-0.2 1-0.4 0.9-0.3 0.4-0.6 0.5-0.7 0.4-0.2 0.5 0 0.8-0.2 0.5-0.4 0.4 0.5 0.5 1 0.7 2.7 1.4 1 0.2 0.5-0.2 0-0.3 0.1-0.5 0.4-0.7 0.6-0.5 0.5-0.1 1 0 4.2 1.9 0.1 0.4-0.1 1-1.2 4.8-0.6 1.1-0.5 0.5-0.8 0.8-0.2 0.3 0.2 0.2 0.6 0 2.8-0.5 1.5 0.1 2.5 1.3 0.6 0.9 0.4 0.9 0.2 0.9 0.2 1.3-0.2 2-1.6 4.6 1.1 0.2 1.1-0.2 2-0.9 0.6-0.1 4.8 0.2 2.5-0.4 1.1-0.4 0.7-0.4 0.6-0.2 0.3 0.2 0.4 0.3-0.3 1.1-0.3 0.6-0.5 1-1.1 1.3-0.1 0.4 0 0.4 0.4 0.6 0.6 0 0.9 0.3 0.3 0.3 0.1 0.5-0.8 0.8-0.1 0.6-0.1 0.8 0.1 1.9-0.1 1.4-0.7 2.2-1 2.6-0.3 0.5-0.6 0.8-0.6 0.6-1.5 0.8-0.4 0.5-0.3 1.2-0.4 0.9-0.7 0.8-0.2 0.3-0.1 0.8 0 1 0 1.1 0.3 2.1 0.1 0.9 0 0.5-0.6 0.8-0.1 0.6 0.1 0.8 0.2 1.3-0.1 0.6-0.3 0.4-0.7 0.5-0.3 0.3-0.2 0.4-0.2 0.6-0.1 0.9 0 1 0.1 0.6 0.3 0.9 0.3 0.3 1.6 0.1 5.1-1.6z" id="DEU1572" name="Nordrhein-Westfalen">
 </path>
 <path d="M409.7 1308.7l-1.4-0.7-4.6-0.9-1.6-0.9-1.8-2.2-0.7-1.7-0.4-1.6-0.4-1.4-1-1.3-1.1-0.7-3.4-0.4-5.9-3-2-0.4-4.7-0.1-2-0.6-10.5-6.9-0.4-0.7-0.7-3.6-0.6-1.4-0.8-0.4-3-0.6-11.3-8.2-4.3-0.7 0.8 1.6 3.6 3.8 2 1.4 4.3 1.8 2 1.3 1.4 2.1 0.8 2.2 0.6 2.3 0.9 2.4 2.4 3.7 0.1 1.5-2.5 0.3-6 0-12.1-1.4-2.1 0.8-1.7 1.9-4 1.3-4.2 0.4-2.7-0.7-3.2-2.4-1.6-1.6 0-1.1 2-0.5-2.8-2.7-3.6-2.1-2.9-0.1-1 3.2 0.9 1-5.7 0.1-0.5-2.3-0.9-1.1-0.4-1.3 0.3-1.1 1.5-2.2 0.3-0.6-0.8-1.6-1-0.2-1.2 0.2-1.1-0.2-0.9-1.3-0.8-1.9-1.1-1.6-1.4-0.5-1 1.1-0.5 3.5-1.4 0.9-1-0.8-0.4-2-0.1-2.1-0.2-1.1-2-1-2.7-0.1-1.7 1 1 2.5-1.7 0.9-5.8 1.2-1.3-0.1-0.8 0.5-1.5 2.2-0.5 1.2-0.8 3.2-1.2 1.1-2.7 1.5-1.1 1.3-0.1 1.2 0.4 1.1 0.3 1.4-0.7 1.8 1.7 0.6 0.6 0.1 2.8 2.1 2.2 1.3 1.9-0.1 1.7-0.8 1.5-1.1 1.6-0.8 5.3-0.9 1.5 0.2 1.7 0.8 1 0.1-0.6 3.8-0.7-0.4-0.1-1-0.1-0.2-0.4 0-0.6 0.2-0.4 0.3-0.3 0.9 0.2 0.8 0.3 0.6 0 0.6-0.1 1.1 0.1 1.1-0.2 1.2-0.7 1.3-1.4 0.5-1.2-1.5-1.3-2.2-1.7-1.6-3.3 0.3-3.3 2.3-1.3 2.7-0.1 0.8-3.4 0.6-6.9-0.1-4.2-1.1-1-0.7-0.8-1.5-0.6-1.6-0.6-0.7-1.2-0.1-2.8-0.9-2 0-5.9 1-0.5 0.4-0.6 0.8-0.7 0.7-2 0.6-2.4 1.3-0.9 0.7-0.9 1.1-0.4 0.8-0.5 0.7-1.1 0.7-4.9 1.1-14.1 0-0.3-0.7-0.2-1.5-0.4-1.5-0.6-0.7-7.1-0.4-1.5-0.8-2 3.1-1.7 2.1-2.1 1.2-9 1.8-2.4-0.3-5.6-3 2.8 0.1 1.2-1.2 1.4-4-2.5 0.3-5.5 1.6 0.4-1.6 0.3-0.6-0.3-1.5-0.5-0.9-0.7-0.6-0.7-0.8-2.4-4.9-1.5-2.1-1.6-0.8-0.4-0.8-0.4-1.7-0.3-3.5 0.4-1 1.8-1.9 0.6-1.1 0.1-2.6-1.4-5.7 0.3-2.2 1.6-5.3 0.6-0.8 1.5-0.8 0.2-1.8-0.6-3 0.1-0.7-0.2-0.9 0.1-0.6 0.4-0.7 0.7-0.7 0.4-0.8 0.7-1.7 0.2-0.7-0.1-2.6 0.6-2.2 2.9-3.1 1-2-0.2-5-4.7-8.3-0.4-6.8 0.7-3.2 0.7-2.4 0.8-1.5 0.8-1 0.5-1.3 0.2-2.3 0.8-2 6.8-9.7 1.2-2.4 0.7-2.7 0.2-3.4 0.7-3.4 1.8-1.4 2-1.1 1.5-2.4 0.1-2.3-0.5-2.2-0.7-2.1-0.4-2 0.2-2.1 0.7-4.4 0.6-1.8 0.8-1.6 0.7-1.1 0.5-1.6 0.2-3.1 0.6-1.5 1.3-1.3 2.7-2.2 0-1.1-1.3-3.5 0.1-5.7 0.9-5.4 4.6-7.2 1.2-0.9 1.8-0.6 1.7-1.4 3-3.6 1.3-0.9 1.4-1.4 1.2-1.5 0.5-1.3 0.1-3.2 0.6-1.5 1.2-0.4 3.1 0 0.8-0.3 0.6-0.6 0.3-0.9 0.2-1.5 0.5-0.9 0.5-0.5 0.3-0.4 0.9 0 4-2.2 0.7-0.6 1.3-2.3 5-13.6 3.3-6.5 2.3-2.5 3.3-1.2 3.5-3.8 2.3-3.6 8-16.6 0.5-1.6 2.1-15.9 0.7-2.9 1.2-1.2 1.3-0.7 7.6-8.9 0.3-2.1-2.5-0.9 0.2-1.4 3.9-8.9 0-1.7-0.7-2.7-0.1-1.4 0.2-0.3 1-2.7 0.3-0.3-1.1-2-1.8-0.6-2-0.2-1.8-0.8 0-1.1 2.3-1.2 0-1.1-1.5-3.1-2.4-7.2-2.1-3.5 0.9-4.1 3.6-1.5 0.9-0.1 0.4 0.1 1.4 0.4 2.6 2.1 7.4 7.7 2.3-0.7 1-0.8 1.3-0.5 0.4-0.2 0.3-0.4 0.2-0.7 0-1-0.3-1.2-1-3.9 0-0.3-0.8-3.4 0-0.5 0.4-0.4 7.6-2 0.5 0 0.3 0.3 0 1.1 0.3 0.4 1.1 1.6 0.2 0.9-0.1 0.6-0.6 1.2 0 0.4 0.5 1.8 1.3 3.3 0.3 0.5 0.5 0.8 0.8 0.7 3 2 2.1 1 1.8 0.3 2.3-0.2 0.5 0 0.4 0.2 0.5 0.8 0.4 1.4 0.5 0.7 0.5 0.3 1.4 0.1 5.4-0.6 0.3 0.8 0 0.4-0.1 0.9-0.5 1.3-0.4 0.6-0.8 1.1-0.3 0.2-0.4 0-0.6-0.4-0.5-0.5-0.6-0.8-0.3 0-0.4 0.2-1.7 2-0.2 0.5-0.2 0.5-0.1 0.6 0.1 1.4 0.4 2.6-0.1 0.9-0.5 0.5-1.1 0.6-0.2 0.2-0.3 0.4-0.2 0.9-0.1 1.3 0.1 0.5 0.2 0.4 0.4 0.3 1.5 0.5 0.9 0 0.8 0.5 0.7-0.2 1-0.7 1.9-2.1 1.3-1.8 0.3-0.9 0.4-2 0.2-0.4 0.2-0.3 0.3-0.1 0.4 0.3 0.1 0.9 0.2 0.3 0.4 0.1 0.7-0.2 2.2-1.5 0.4-0.7 0.1-0.6-0.2-1.1-0.5-1.1-0.5-0.8-0.6-0.9-0.1-0.5 0.3-0.4 2.5-2.7 0-0.4 0.5-0.2 5.8-0.1 0.9 0.1 0.3 0.1 1.4 0.3 1.1-0.4 2.5-2.5 0.9-0.1 1.1 0.2 1.3-0.2 0.6 0.2 0.2 0.2 0.8 1.1 0.3 0.3 0.6 0.2 0.6-0.2 0-0.5-0.2-0.8-1-1.9-1.1-1.6-0.2-0.4-0.5-1.2-0.5-0.7-1.8-2-0.4-0.7-0.1-0.5 0.1-0.4 0.6-0.3 1.5 1.4 0.6 0.1 0.2 0 1-1.7 0.9 0.7 0.3 0 6.2-1.3 1.6 0.3 6.6-0.1 0.6-0.2 0.5-0.4 0.5-0.9 0.2-0.6 0.4-1.4 0.2-0.4 0.3-0.4 1-1 0.2-0.2-0.4-2.7 0.3-0.7 0.5-0.5 1.6-0.9 0.8-0.3 0.9-0.1 1.5 0.1 1.2-0.3 3.1-1.4 0.6 0.3 1.3 1.4 0.6 0.2 0.5-0.1 2-1.9-0.4-1.2-0.4-0.8 0-0.8 1.3-6.8-0.4-0.5-0.3-0.3-2.1-0.9-0.8 0.2-0.3 0.4-0.1 0.3-0.3 1.3-0.3 0.5-0.2 0.4-0.8 0.4-0.8-0.1-0.2-0.4 0-0.7 0.4-1.2 0.1-0.6-0.2-0.6-0.3-0.4-0.6-0.3-3.7-0.6-0.9-0.3-0.6-0.6-0.1-1.2 0.6-0.9 0.2-0.9-0.8-2.7 0.6-0.9 1.1-1.2 1.2-0.8 1.4-0.4 5.3 0.3 3.9-1.4 3.9-0.6 2 0.1 5.9 2.7 1.3 0.2 1.3-0.4 0.6-0.4 3 2 1.1-0.3 1.9-0.7 0.9-0.6 0.5-0.4 0.4-0.2 0.3 0.1 0.4 0.3 0.2 0.7 0 0.4-0.1 0.4-0.6 0.8-0.1 0.5 0.1 0.9 0.3 0.9 0 0.6-0.6 1.3 0 0.5 0 0.6 0.2 0.9-0.2 0.6-0.5 0.3-0.3 0.6 0.2 0.8-0.1 0.7-0.8 1.7-0.1 0.7 0.1 0.4 0.5 0.4 0.8 0.6 1 0.4 1.5 0.2 0.7-0.2 0.5-0.4 0.2-0.8 0.1-1.1 0.2-0.9 0.3-0.2 1.2-0.6 0.3-0.3 0.4-1.1 0.3-0.2 0.3 0 0.2 0.3 0.1 0.7 0.1 0.9 0.1 1 1.1 2.4 0.5 0.4 0.5-0.2 0.3-0.3 0.6-1.1 2.2-2.1 0.4-0.4 0.5-0.4 1.7-0.7 0.9-0.6 0.5 0.4 0.7 1.1 3.1 3.8 0.1 0.3 0.1 1.1-0.1 3.5 0.1 1.4 0.2 0.6 0.5 0.7 3.8 4.1 0.5 0.8 0.2 0.5 0.1 0.7-0.3 0.8-0.1 0.4-0.9 0.9-0.9 1.4-0.2 0.5-0.1 1.1 0.2 0.9-0.1 0.9-0.5 0.7-1.5 1.6-0.3 0.5 0 0.5 0.3 0.5 0.8 0.5 0.6 0.1 1-0.5 0.4-0.6 0.2-0.6 0.2-1.1 0.2-0.4 0.4-0.3 1.1-0.4 0.4-0.4 0.3-0.6 0.6-0.8 0.7-0.6 0.4-0.1 0.4 0.2 0.5 0.5 0.2 0.7-0.3 0.8-0.4 0.6 0 0.3 1.5 1.2 0.4 0.7 0.2 2.2 0.2 1.4 0 0.8 0 0.8-0.2 0.8 0 0.7 0 0.7 0.5 3.3 0 0.8 0.2 0.2 1 0.2 7.8-0.2 0.9-0.5 1.1-0.8 3.1-3.5 0.2-0.5-0.1-0.9-0.1-0.4-1-1.3 0.5-0.7 2.6-2.1 1.2 0.6 0.6 0.5 0.1 0.6-0.7 1.8 0 0.3 0.2 0.4 0.8 0.5 0.7 0.3 0.9-0.1 0.3 0.2 0.5 0.4 0.1 0.4 0 0.6-0.3 0.9-0.6 1.3 0.2 0.9 1.1 2.4-0.8 2.8-0.4 0.8-0.7 0.8-0.2 0.3-0.1 0.4 0.3 0.3 2.1 0.8 0.5 0.2 0.4 0.6 3.1 7.8 0.1 0.4-0.2 0.3-0.8-0.2-0.6-0.2-0.6-0.4-0.8 0.1-0.5 0.1-1.9 2.4-0.1 3-0.2 0.6 0 1 0.3 1.2 1 1.4 0.8 0.5 0.5 0.3 0.7 0.1 0.3 0.3 0.2 0.4 0 0.6-0.8 2.3 0.1 0.6 0.3 0.9 0.7 1.6 0.3 0.9-0.1 1.1-0.2 0.3-0.3 0.2-0.5 0-1-0.5-0.9-0.6-0.4 0.1-0.2 0.7 0.1 0.6 0.3 0.6 1.5 1.7 0.1 0.7 0 2.8 0.2 0.6 0.4 0.6 0.7 0.8 0.3 0.4 0.2 0.4-0.3 0.6-0.4 0.3-0.5 0-0.4 0.3 0.1 0.3 0.3 0.4 0.9 0.8 1.9 1.4 0.9 0.8 2.2 3.2 1.5 1.5 0.5 0 1.2-0.8 0.8-0.1 0.5 0.2 1.7 1.7 0.2 0.2 0.1 0.7 0.1 0.9-0.2 1.9-0.2 0.7-0.2 0.6-0.3 0.5-0.3 0.9-0.4 0.4-0.7 0.3-0.9 0-0.4 0.1-0.3 0.4 0.2 0.4 0.4 0.3 1.2 0.7 1 0.4 0.5 0 0.3 0.5-0.4 1.3 0 0.4 0.4 0.7 1.7 1.4 0 1-0.1 0.5-0.3 0.7 0 0.5 0.3 0.3 0.5 0.3 2 0.7 0.5 0.1 0.8-0.1 0.8 0.2 1.9 1.2 0.6 0.1 1.3 0 0.3 0.3 0.3 0.5 0.4 1.3 0.4 1.6 0.6 0.9 4.6 3.8 0.8 1.7 1.9 2.2 0.2 0.3 0.4 1.4 0.3 0.4 0.6 0.5 0.5 0.7 0.5 1.5 0.5 1.5 0.1 0.5-0.1 0.5-0.9 0.7-1.2 0.4-0.3 0.2 0 0.4 1.1 1 0.1 0.7 0 1.2-0.4 4.5-0.5 1.6 0.1 0.8 0.9 1.5 0.2 0.5 0 0.5-0.1 0.7-0.5 2.1-0.3 0.6-0.7 0.6-0.4 0.4-0.2 0.7 0 1 0.1 2.2 0 0.9-0.2 0.5-0.4 0.5-0.2 0.5-0.1 0.8 0 0.9 0.1 0.8 0.1 0.5 0.8 1 2.1 1.1 0.8-0.1 0.4 0.3 0.4 0.9 0.2 1.1 2 3.7-4.7 4.4-1.5 0.8-0.3-0.2-0.3-0.6-0.1-0.4 0.1-0.7 0.6-1.3-0.1-0.9 0.1-0.5 0.4-0.1 0.3-0.5-0.3-0.5-0.3-0.3-0.4-0.2-0.5 0-0.7 0.6-5 5.7-0.4 0.3-0.3 0.1-0.4-0.3-0.7-1.2-0.8-2-0.4-0.5-0.5-0.2-2.3 0.2-0.6-0.2-0.4-0.2-0.5-0.4-0.9-1.1-0.6-0.5-0.4 0.1-0.4 0.5-0.8 1.4-1.4 1.7-0.1 1.9 0.5 1.2 0.4 0.6 0.5 0.6 0.2 0.4 0.2 0.6 0.4 0.6 0.4 0.3 0.6 0.2 0.7 0.4 0.5 0.5 0.6 0.6 0.6 0.6 0.9 0.5 0.4 0.5 0.1 1-0.5 0.6-0.2 0.3-0.9 0.3-0.6 0.3-0.2 0.6 0 0.7 0.2 0.7 0.3 0.6 0.5 1 0.3 1.2 0.1 1 0 0.8-0.2 1-1.1 3.1-0.1 1 0.3 0.4 0.6 0.4-0.5 0.2-4.2 0.2-0.9 0.3-0.6 0.4-0.6 0.8-0.4 0.7-0.3 1.9-10.6 6.4-0.6-0.1-0.6-0.4-0.2-0.6-0.1-1-0.3-0.9-0.4-0.4-0.3-0.2-0.6 0-0.4 0.1-1.4 1-0.8 0.7-0.3 0.2-2 0.5-1.3 0.1-0.4 0.1-0.6 0.5-0.9 1-0.5 0.7-0.6 1.3 0 0.6 0.1 0.7 0.3 0.9-0.8 0.6-6.1 8.5 1 1.8 1 0 0.3 0.1 0.2 0.3 2 4.5 1.5 2.6 1.5 2.3 0.5 0.9 1.7 5.9 4.3 19.8 2.9 6.6 0.4 2.1 0.1 1.8-0.3 4.3-0.8 3.6-3.2 9-0.8 0.5-0.6 0.6-0.3 0.5 0 0.6 0.2 1 0.9 1.9 0.2 0.4 1.3 1.3 0.1 0.6-0.1 3.9-0.2 1.2-0.1 0.8-0.5 0.7-0.1 0.5-0.3 2-0.3 0.7-0.6 0.6-0.4 0.5 0 0.2 0.2 0.6 0.5 0.2 0.5-0.1 0.2-0.1 0.3 0.1 0.6 1.2 0.4 1.5 2 4.6-1 0.5-0.2 0.3-0.4 0.9-0.6 0.6-1.8 0-0.4 0.1-0.4 0.5-0.5 0.9-0.2 0.5 0.1 0.5 0.7 0.7 0.8 0.6 0.3 0.7 0.3 0.7 0.5 0.4 0.9 0 0.2 0.1 0.4 0.7 0.1 0.7 0.1 4.7 0.4 3 0.4 1.7 0.4 1.1 0.1 0.4 0 0.5-0.1 0.8-0.4 1-0.2 0.3-0.4 0.2-1-0.1-2-0.8-0.4 0-0.2 0.4-0.2 0.7-0.1 2.4-1.1 1.3-0.7-1.3-0.4-1-0.5-1.9-0.3-0.4-0.6-0.2-0.7-0.2-1.3 0.1-2.7 0.8-2.3 1.3-2 0.8-1.8 0.4-2.6 0.1-2.6-0.7-3.6-1.6-0.8-0.2-1.3 0.4-2 1.1-8.1 7.3-4.9 2.5-3.1-1.1-0.7 0-1.7 0.8-0.4 0.7-0.2 0.7-0.5 0.3-0.8 0.3-3 0.6-0.8 0.4-0.5 0.7z" id="DEU1573" name="Baden-Württemberg">
 </path>
 <path d="M446.9 671.6l-2.1 1.7-0.4 0.8-0.3 1.2 0 0.7 0.4 1.4 0.2 1.1 0.1 0.4 0.2 0.4 0.6 0.6 0.3 0.4 0.3 0.9 0.3 1.6-0.1 1.6 0.2 0.7 0.4 0.2 0.4-0.1 0.5 0.2 0.7 0.5 0.8 1.4 0.7 0.6 0.6 0.4 0.5 0 1.2-0.1 0.3 0.1 2.4 1 1.7 0.2 1 0.4 0.3 0.5 0.2 0.5-0.6 1.4 0 0.9 0.3 0.6 0.2 0.4 1.8 1.4 0.2 0.8 0.3 2 0.3 0.5 0.5 0.3 0.4 0.1 0.5 0.1 0.7 0.5 0.4 0.2 0.6 0.1 0.7 0.3 0.6 0.2 1.1 0.1 0.6 0.2 1 0.7 0.7 0.3 0.6 0.1 1-0.1 1 0.2 1.5 0.9 1.2 1.1 2.1 1.2 1.5 0.6 0.2 0.3 0 0.7-0.3 0.9-1.7 2.1-0.6 1.7-0.1 0.8 0 1-0.5 3.6-0.5 0.7-0.2 0-0.2-0.3-0.1-0.8-0.3-0.3-0.6-0.5-0.1-0.4 0.2-0.6-0.1-0.4-0.9-1.2-0.4-0.5-0.8-0.1-1.1 0.1-2.4 0.7-0.7 0.5-0.2 0.3 0.7 0.6 0.2 0.3 0.5 1.3 0.2 0.4 0.3 0.2 0.4 0.1 2 0.4 0.4 0.3 0 0.8-0.4 1.5-1.4 2.3-0.6 1.4-0.3 1.2-0.3 1.7 0 1 0.1 0.6 0.4 0.1 1.1 0.1 0.4 0.1 0.4 0.3 0.6 0.6 0.3 0.2 0.5 0.1 1.4 0.1 0.4 0.2 0.2 0.3 0.4 0.8 0.8 1.1 0.2 0.5 0.2 0.8-0.1 0.6-1.6 3.7-0.3 0.5-0.3 0.2-2.5-0.2-2.4 0.5-1.1-0.1-0.4-0.2-0.6-0.4-0.2-0.6 0.2-0.8-0.1-0.4-0.2-0.1-0.3 0-1.2 0.5-0.3 0-1.2-0.5-3.3 0-1.3 0.3-2.7 2-0.3 2.3 0.3 1.1 0.7 0.6 0.5 0.7 0.6 1.2 0.3 2.1-0.1 0.9-0.4 0.5-1.7 0.5-1.3 0.2-3.9-0.4-0.3-0.1-0.4-0.4-0.4-0.2-0.5 0.1-0.8 0.2-0.3 0.5-0.1 0.5-0.1 1.1 0.2 0.5 0.3 0.3 0.4 0 0.3-0.3 0.5-0.6 0.3 0.2 0.2 0.6-0.1 2 0.1 0.9 0.3 0.4 0.4 0 0.3-0.2 0.6-0.7 0.2-0.4 0.4-0.6 0.6-0.5 0.6-0.1 0.4 0 0.5 0.2 1.1 0.8 1.3 1.1 0.3 0.5 0.4 0.7 0.5 1.6 0.4 0.6 0.9 1.1-2.9 3.5-0.4 0.6-0.3 0.8 0.4 1.3-0.1 1.7-0.3 0.6-0.5 0.3-0.5 0-0.7 0.2-1 0.5-0.6 0.3-2.2 0.3-1.6 0.7-0.6 0.4-0.3 0.4 0 0.9-0.5 1.3-0.2 0.5-0.1 1.1 0.3 1.5 0.2 1.4-0.2 0.4-0.2 0-0.5-0.4-0.3 0.1-0.5 0.3-0.5 0.2-0.6 1.6 1.2 1.4 0.4 0.8 0 0.4 0 1-0.1 1.1-0.1 0.6-0.4 1-1.5 2.7-0.4 1.2-0.1 0.8 0.2 0.8 0 0.4-0.7 1-0.3 0.4-0.8 0.4-0.4 0.4-0.6 0.7-0.7 1.5-0.3 0.9-0.1 0.9 0.1 0.8-0.1 1.5 0.2 1.1 0.3 0.5 0.5 0.1 0.8-0.3 0.8-0.4 0.4 0 0.5 0.1 1.7 1.2 0.9 0.3 1 0.2 0.5-0.1 0.4-0.1 0.3-0.3 0.3-0.9 0.4-0.8-0.1-0.3-0.2-0.5-0.9-1-0.2-0.4-0.1-0.5 0.1-0.5 0.4-0.7 0.4-0.2 1.7-0.5 0.8-0.4 1.4-0.9 0.7-0.3 0.8-0.1 0.4 0.1 1.8 0.6 1.9 0.2 1.1 0.3 0.5 0.3 0.4 0.3 0.2 0.5 1.2 3.1 0.3 4-0.4 0.7-0.3-0.3-0.5 0.1-0.7 0.4-1.1 1.2-0.3 0.7 0 0.6 0.2 0.3 0.2 1.1-0.2 3 0.1 1.1 0.2 0.8 0.7 1.9-0.1 0.8-0.9 3-0.2 1-0.2 0.7 0.1 0.4 0.3 0.5 0.8 0.1-0.7 1.8-0.3 1.1-0.2 0.4-2.3 3.9-1.1 2.3-1.3 2.1-2.2 1.9-6.8 4-6.4 2.6-1.3 0.1-0.9 0-0.5-0.1-0.7-0.3-0.9-0.8-0.6-0.7-0.8-1.2-0.3-0.3-0.5-0.3-0.4 0.1-1.3 0.7-0.5 0.2-1.4 2-2.6 9.4 0.4 2.4 0.2 1.6 0.1 1.5-0.1 1.6-0.4 0.7-0.7 0.7-1.8 1.2-1.9 0.9-1.1 0.2-1.5 0.7-0.7 0.8-0.9 1.2-0.8 2.3 0 1.2 0.2 0.9 0.6 0.6-0.5 0.7-3.3 1.1-2 0.7-1.6 0-0.8-0.3-0.3-0.3-0.4-0.2-0.9 0-1.7 0.5-0.2 0-0.5-0.4-0.5-0.8-0.3-0.4-0.5-0.2-0.3 0-1 0.6-0.4 0-0.6-0.2-1-0.4-0.3 0.1-0.2 0.4-0.1 1.1 0.3 3.4-0.1 0.7-0.8 2.4-0.2 1.3 0.1 0.7 0.3 0.4 0.3 0.2 1.9 0.2 0.3 0.1 0.4 0.5 0 0.3-0.2 0.6-1.3 2.6-0.3 0.9-0.2 0.9 0.1 0.5 0.6 3.1-0.3 0.6-0.8 0.8-6.6 2.8-1.7 0.3-2.6-0.4-0.7-0.9-0.7-1.1-0.2-0.4-0.5-1.4-0.3-0.7-0.7-0.8-1.1-0.7-4.2-2-0.6 0-1.4 0.1-0.5-0.1-1.1-0.4-4.9-0.1-1.1-0.3-0.6 0-0.7 0-3.4 1-0.5 0.3-0.2 0.3-0.1 0.7 0 1.3-0.3 0.5-1.8 2.3-1.6 1.1-0.8 0.4-0.3 0 0.2-0.7 0.7-1.1 0-0.5-0.2-0.2-1.5-0.5-0.6-0.3-1.4-1.2-0.4-0.2-0.7-0.1-0.3 0.1-5.5 2.6-3.6 0.8-0.5 0.3-0.6 0.4-0.4 0.7-0.2 0.6 0 0.8-0.1 2.5 0 0.6-0.2 0.7-0.3 0.3-0.4 0.2-0.5 0.1-0.4-0.2-0.3 0.2-1 1.3-0.3 0.4 0.8 0.5 0.9 0.7 0.6 0.1 0.5-0.6 1-0.2 1.1 0.2 0.5 0.6 0.1 0.3 0.6 3.7 1 1.7-0.1 1.9 0.5 1.3 0.8 1.5 0.1 0.3-0.5 0.3-2.3-0.9-0.2 12.5 0.1 0.7 1.4 4.2 1 2.8 1.4 4.4 0.4 0.5 0.2 0.7 0.3 0.4 0.2 0 0.3-0.2 0.9-1.6 0.5-0.5 0.4 0.1 0.2 0.6 0 0.7-0.3 1.3 0 1.1 0.1 1.1 0.5 1.7 0.4 0.8 0.5 0.7 0.5 0.3 0.5 0.1 0.5-0.1 0.4-0.2 0.9-0.1 0.7 0.4 0.3 0.5 0.2 0.6 0 0.6-0.5 1-1.5 2-0.3 0.7 0 0.7 0.3 0.6 0.9 0.6 1.7 0.7 0.3 0.5-0.1 0.6-1.4 3-0.3 0.8-0.1 0.7 0 0.7 0.4 1.4 0 0.5-0.2 0.3-0.6 0.7-1 0.5-0.4 0.1-1.2 0.1-0.5 0.2-0.1 0.9 0.2 1.4 1.1 4.5 0.1 1-0.3 0.8-0.6 0.7-0.4 0.2-0.9 0.8-1.1 1.2-0.9 1.2 0 0.6 0.4 0.7 2.2 2 1.5 2.7-1 1.7-0.2 0-0.6-0.1-1.5-1.4-0.6 0.3-0.1 0.4 0.1 0.5 0.4 0.7 1.8 2 0.5 0.7 0.5 1.2 0.2 0.4 1.1 1.6 1 1.9 0.2 0.8 0 0.5-0.6 0.2-0.6-0.2-0.3-0.3-0.8-1.1-0.2-0.2-0.6-0.2-1.3 0.2-1.1-0.2-0.9 0.1-2.5 2.5-1.1 0.4-1.4-0.3-0.3-0.1-0.9-0.1-5.8 0.1-0.5 0.2 0 0.4-2.5 2.7-0.3 0.4 0.1 0.5 0.6 0.9 0.5 0.8 0.5 1.1 0.2 1.1-0.1 0.6-0.4 0.7-2.2 1.5-0.7 0.2-0.4-0.1-0.2-0.3-0.1-0.9-0.4-0.3-0.3 0.1-0.2 0.3-0.2 0.4-0.4 2-0.3 0.9-1.3 1.8-1.9 2.1-1 0.7-0.7 0.2-0.8-0.5-0.9 0-1.5-0.5-0.4-0.3-0.2-0.4-0.1-0.5 0.1-1.3 0.2-0.9 0.3-0.4 0.2-0.2 1.1-0.6 0.5-0.5 0.1-0.9-0.4-2.6-0.1-1.4 0.1-0.6 0.2-0.5 0.2-0.5 1.7-2 0.4-0.2 0.3 0 0.6 0.8 0.5 0.5 0.6 0.4 0.4 0 0.3-0.2 0.8-1.1 0.4-0.6 0.5-1.3 0.1-0.9 0-0.4-0.3-0.8-5.4 0.6-1.4-0.1-0.5-0.3-0.5-0.7-0.4-1.4-0.5-0.8-0.4-0.2-0.5 0-2.3 0.2-1.8-0.3-2.1-1-3-2-0.8-0.7-0.5-0.8-0.3-0.5-1.3-3.3-0.5-1.8 0-0.4 0.6-1.2 0.1-0.6-0.2-0.9-1.1-1.6-0.3-0.4 0-1.1-0.3-0.3-0.5 0-7.6 2-0.4 0.4 0 0.5 0.8 3.4 0 0.3 1 3.9 0.3 1.2 0 1-0.2 0.7-0.3 0.4-0.4 0.2-1.3 0.5-1 0.8-2.3 0.7-7.4-7.7-2.6-2.1-1.4-0.4-0.4-0.1-0.9 0.1-3.6 1.5-1.8-5.2-2.7-5.2-1.6-3.9 0.2-4.5 1.8-3.2 3-2.1 3.5-0.7 2.4-2.9 1.4-2.3 0.3-1.7-1.5-0.6-2.2 0.5-2 0.2-0.9-1.8-0.2-1.2-0.6-1.3-2-3.8-0.4-1.5-0.3-1.4-0.4-1.7-1-2.4-2.5-3.7-0.9-2.1 1.7-5.9-2.2-5.7-11.6-13.3-1.7-1.1-1.3-0.3-3 0.1-13.6 4.6-4.2 3.3-5.2 2.7-4.7 1.6-4.4 0.1-2-2.9-0.3-2.1-0.8-1.4-7.1-6.4-1-0.4-0.5-0.4 4.3-3.4 2-0.9 1.1-1 0.4-0.6 0.1-1.5 0.1-0.8 0.3-0.9 0.8-1.5 0.5-0.5 0.5-0.1 0.4 0.1 0.6 0.1 0.6 0 0.9-0.3 0.6-0.2 0.4 0.1 0.4 0.3 0.6 0.8 0.9 0.7 0.7 0.3 0.2-0.1 0.2-1.6 0.2-0.7 0.5-1.6 0.1-0.8-0.2-0.4-0.3-0.2-2.1-1.2-0.7-0.8-0.4-0.6-0.1-1.2 0.2-1.5 1.3-3 0.7-1.2 0.7-0.7 1.8-0.9 1.5-1 3-1.4 0.7-0.9 0.7-0.6 0.5 0.2 0.6 0.6 0.4 0.6 0.5 0.3 0.5 0.3 0.7 0.1 0.5-0.4 0.4-0.8 1.2-1.9 0.2-0.4-0.1-0.4-1-1.2 0.1-1 0.4-1.2 0.4-0.5 0.4-0.3 5.5 0.2 1.8-0.4 0.8-0.7 0.2-0.5 0.1-1.1-0.1-0.4-0.3-0.9-1.3-4.3-0.7-1.5-0.2-0.1-1-0.6-1.1-1.1-0.7-1.4-2-4.7-0.6-0.9-1.9-0.9-0.2-0.4-0.1-0.6-0.1-0.7-0.3-0.3-0.3-0.2-4.6-1.1-0.5-0.4-0.3-0.4 0.2-0.8 1.4-1.1 0.5-1.7 0.4-1.8 0.5-1.4 1.6-1.7 0.4-0.8-0.1-0.2-1.1-0.5-0.6-0.6-0.3-0.6-0.2-1.7 0.3-5.6 0.4-2.1 0.5-0.2 0.7-0.4 0.6-0.7 1.1-1.6 0.5-0.6 0.7-0.5 1.2-0.3 1-0.1 0.5 0.1 0.4 0.3 1.8 2.4 0.7 0.5 1.1 0.1 0.4 0 0.8-0.3 1.7-1.3 0.5-0.5 0.4-0.8 1.7-4.4 1.1-2.8-0.4-0.5-0.1-0.4-1-0.5-0.3-0.6-0.4-0.9-0.4-2.6-0.5-1.5-1.5-3.3-0.2-0.7 0.2-1 0.5-1 0.4-1 0.5-2.9 1-2.4 0.8-0.8 1.1-0.2 0.3-0.3 0.3-0.4 0.3-1.4 0.6-4.5-0.1-0.6-0.3-0.5-0.5-0.5-2.4-1.9-0.3-0.4 0-0.7-0.1-0.5-0.7-0.4-0.2-0.5 0.1-0.7 0.6-0.7 5.2-4.5 0.8-2.2 0.3-0.5 2.1-1.5 0.3-0.3 0.6-1.1 4.7-4.2 1.4-1.7 0.7-0.4 1.3-0.1 0.4 0.2 0.3 0.4 1 2.2 0.6 0.5 1.8 0.3 1.5-0.2 1.5-0.1 0.5-0.2 0.6-0.3 2.2-1.8 0.3-0.7 0-0.8-0.1-0.9 0.4-0.6 2.9-2.8 1.9-1.3 0.6 0 1.2 0.3 0.3 0 0.3-0.4 0.2-0.7 0-2.7 0.1-1.3 1-1.9 1.3-3.1 0.7-0.8 0.9-0.2 0.5-0.3 0.3-0.5 0.2-0.7 0.6-1.1 0.4-1 0.4-1 1.2-1.4 0.7-1.3 0-0.6-0.2-1-0.7-2.4-0.1-1.1 0.1-1 0.2-0.7-0.1-0.5-0.2-0.8-0.8-1.5-0.4-0.7-0.4-0.8 0.4-1.4 11.2-0.1 3.4 0.9 0.5 0 0.3-0.1 1.4-1.2 2.8-1.5 0.2-0.3 0.1-0.4 0-0.9-0.2-0.4-0.9-1.6-0.2-0.4 0.1-0.5 0.2-0.4 2.2-3 3.5-3.9 0.2-0.9 0-1.1-0.1-1.1-0.7-3.5-0.1-0.8-0.6-2.9-0.2-0.9-0.5-2.2-0.3-0.4-1-0.5 0-0.5 0.4-1.1 0-0.3-0.1-0.5-0.2-0.2-0.4-0.2-0.5 0.1-0.5 0.2-2.4 1.8-2.3 0.6-2.2 0.2-0.5 0.2-0.5 0.5-0.6 1.1-0.3 0.3-0.6 0.3-0.5 0-1-0.1-0.5-0.3-0.4-0.4-0.2-0.5-0.2-1.2-0.2-0.5-0.4-0.4-0.7-0.4-0.4-0.5-0.4-0.4-0.1-0.5 0.3-1 1.1-2.4 0.6-1.1 2.3-3 3.6-3.7 0.3-0.4 0.3-1.2 0.9-0.8 1.2-0.7 0.7-1.1 0-0.3 0.6-0.5 2.1-0.5 2.5-1.2 0.8-0.2 1.8 0.1 2.3-0.3 2.6-0.9 1.4-0.2 0.6 0 1.1 0.2 0.5 0.3 2.3 0.7 0.8-0.1 2.8-2.1 1.1-0.5 4.5-0.2 0.4-0.3 0.4-0.5 0.5-1.5 0.3-0.7 0-0.7-0.3-0.5-0.6-0.4-2.3-0.4-0.4-0.2-0.1-0.7 0.1-1.6-0.3-2-0.1-0.8-0.4-0.9-1-1.3-0.2-0.7 0-0.4 0.1-0.8 0.4-0.8 0.4-0.4 5.6-2.9 4.5-1.2 1.7-0.9 0.7 0.2 0.9 0.5 2.2 1.6 1.5 0.8 0.8-0.1 0.4 0.2 0.4 0.4 0.7 1 0.2 1.7-0.1 0.6-0.2 1.7 0.1 0.5 0.5 0.8 2.1 1.7 4 0.8 0.9 0 0.5-0.1 3.8-3.1 0.6-0.2 1.2 0.3 0.5-0.4 0.4-1.4 0.1-0.6 0-0.9 0.1-0.9 0.5-1.2 0.9-1 2.1-1.3 1.2-0.4 0.8-0.6 1.4-1.2 1.4-0.9 0.4-0.4 0.3-0.6 0.5-1.3 0.4-0.8 0.5-0.8 1.2-0.9 0.5-0.7 0.5-0.8 0.5-1.3 0.3-1.1 0.1-0.5 0.3-1 0.4-1.3 0.4-1.1 0.1-0.8-0.3-0.4-1.4-0.9-0.6-0.6-0.1-0.3 0.5-0.4 0.9-0.5 7.8-2.6 0.7-0.8 1.8-3.1 0.9 0.9 2-1.9 1.7 0 0.5 0.3 0.3 0.7 0 1.1 0.1 1.1 0.1 0.4 0.3 0.4 0.5 0.3 0.9 0.3 1.5 0.1 0.7-0.1 0.5-0.3 1.1-1.3 0.8-0.5 0.4 0.1 0.3 0.3 0.4 0.8 0.5 0.6 1.4 0.6 0.9 0.2 0.8 0 1.3-0.3 1.2-0.6 0.5 0 0.3 0.2 0.2 1 0.3 0.7 0.3 0.5 2.2 1 0.4 0.6 0.3 0.7 0.3 1.6 0.7 1.7 2.1 2.3-0.9 2-0.7 0.2-0.3-0.1-2.6-2.1-0.5-0.1-0.5 0.3-0.1 0.4 0 0.5 0.1 0.6 1.1 1.9-0.1 0.3-0.4 0.2-0.4 0-0.8-0.2-0.7-0.4-0.4-0.1-0.3 0.5-0.1 1 0 1.9-0.1 1-0.3 0.7-0.3 0.3-0.4 0.1-1 0.1-0.2 0.4 0.2 1.2 2.2 4.9 0.7 1.1 0.5 0.5 0.8 0.4 0.3 0.3 0.1 0.4-0.2 0.5-0.7 0.8-0.1 0.4 0.1 0.5 0.5 0.7 0.2 0.7 0 1-0.3 1.4 0.5 4.4-0.3 0.8-0.4 0.5-3.1 0.4-0.8 0.3-0.4 0-0.8-0.3-0.4 0-0.3 0.2-0.5 1-0.3 0.4-0.9 0.9-0.1 0.6 0.2 0.8 0.7 1.4 0.1 0.8-0.1 0.4-0.4 0.2-0.5 0-1-0.3-1.7-0.7-0.3-0.1 0.1 0.5 0.6 1 3 2.8 1.9 0.5 7.6 3.4 0.7 0.1 0.7-0.1 1.5 0.8 3.1 4.1 1.2 0.2 0.3 0 0.9-0.5 3.1-2.8 0.8-1 0.4-0.7 0-0.7 0-0.6 0.3-0.4 0.5-0.4 0.4-0.8 0.1-0.5-0.6-0.6-0.5 0-0.5 0.3-1.2 1.1-0.5 0.6-0.4-0.1-0.9-0.6-2.6-2.8-0.4-0.6-0.3-0.8 0-0.7 0.1-0.2 4.6-2.7 1.4-1.1 2.6-0.8 0.7-0.7 0.3-0.5-0.3-0.6-0.3-0.7 0-0.7 0.5 0 0.8 0.2 2 1.1 0.7 0.6 0.5 0.7 0.8 2.1 0.5 0.9 0.8 0.8 0.5 0 0.5-0.2 0.8-1 0.3-0.5 0-0.5-1.4-3-0.1-0.5 0.1-0.7 0.3-0.3 0.4-0.1 1.4 0 0.3-0.1 0.7-0.9 0.7-0.4 0.4 0 0.3 0.3 0.1 1 0.1 1.4 0.9 1 3.8 2.8z" id="DEU1574" name="Hessen">
 </path>
 <path d="M295.7 345.5l0.7 0.1 2-0.6 0.6 0 3 1.9 6.4 2.6 1.5 0.4 1.1-0.1 0.3-0.1 0.3-0.3 0.5-0.1 2.4-0.2 1.4 0.2 0.2 0.2 0.2 0.4 0 0.8 0.2 0.5 0.6 0.5 2.4 1.5 0.5 0.2 3.1-0.1 1.3 0.3 0.2 0.2 1.6 1.6 2.2 1.6 3.7 1.9 1 0.2 0.9-0.3 0.2-0.2 0.3-0.6 0.3-1.1 0.5-1.2 0.5-0.8 0.5-0.4 0.3 0 0.4 0.2 1.1 1.1 2.5 3 0.3 0.4 0 0.5-0.4 0.4-1.2 1.1-0.3 0.8 0.4 1.1 2.7 2.8 0.2 0.6 0.2 0.6-0.2 0.4-0.8 1-0.2 0.8-0.3 1.1-0.1 2.5-0.1 1-0.2 0.6-1.6 1.9-3.8 2.7-0.9 0.5-5.3-4.1-0.1 0.3 0.1 1.1-0.3 0.4-0.6 0.3-1.5 0.5-1-0.1-1.1-0.3-5.2-3.3-0.6-0.2-0.3 0-1.1 0.4-4.3 0.8-1.6-0.3-0.2-0.3 0-5.2-0.1-0.6-0.2-0.5-0.8-0.4-4.2-5-1.7-2.7-0.3-0.6-0.2-0.9 0-0.5-0.2-3.3-1.6-3.1-0.7-0.6-2.3 0.2-1.3-0.1-2.5-1.8-4.5-1.9-1-2-0.3-1.1-0.6-1.3 2.5-0.4 1.2 0.3 3.3 2.2z m-0.3-56.1l0.9-4.9-0.5-0.9-2.8-7.2-0.9-1.1-1.1-2.4-0.4-1.3 5.3 2 2.4 0.4 4.5-0.2 0.6 0.2 0.1 0.4-0.7 0.9-0.3 0.5-0.3 1.2 0.1 1 0.3 0.9 0.9 1.8 0.4 1.4 0.7 3.8 0.1 1.3-0.1 1.2-0.1 1-0.2 0.6-1.7 2.6-2.3 2.2-0.3 0.1-0.5-0.4-0.7-1.5-0.3 0-0.8 0.2-0.6-0.5-1.7-3.3z" id="DEU1575" name="Bremen">
 </path>
 <path d="M97.8 278.7l0.8 1.1 0.8 1.7-1-0.5-1.4-1.7-0.9-0.4-1.1 0.2-1.6 0.9-0.7 0.2-2-1-1.4-2.2-0.5-2.1 1.3-1 8.3-2.5 4.1-0.4 1.4 2.9-2.4 0.4-3.8 1.6-2 0.5 0 1.1 1.2 0.5 0.9 0.7z m19.6-11.7l-3.1 3.5-1.7-0.7-1.3-1.3-0.1-1.9 0.2-0.6 0.5-0.2 0.6-0.5 2 0 2.4 1 0.5 0.7z m46.2-14.9l-0.2 0.2-0.3 0-5 2-13.3 1.8-4.4-1.2 5-3 5.8-1 12.4 0.3 0 0.9z m8.3-2l1.4 1.1-0.3 0.7-0.4 0.3-0.9 0.3-4.3-1.4-1.6 0.1 1.8-1.3 2.2-0.3 2.1 0.5z m81.5 1.5l-1.7 1.7-0.5 0.4-1-0.2-0.6-0.5-0.6 0-1.2 0.7 0-1.2 1.4-2.4 2.1-1 2.5 0.4 2.3 1.7-1.6 0-1.1 0.4z m-59.2-4.6l-0.8 0.3-7.9-0.2-3.7 0.9-0.3 3.2-3.2 0.2-0.9-0.9-0.4-2.5 0.5-2.1 1.4-0.9 3.3-0.1 9.7-0.1 2.2 1.4 0.1 0.8z m18.6-4.7l-2.4 1.5-3.1 1.3-3.1 0.2-2.7-1.7-1 1.4-0.9 0.7-0.9 0-0.9-0.8 2.8-3.5 4.6-1 9.2 0.6 0 1.3-1.6 0z m14.2-3l2.9 1.8-1-0.2-1.2 0.1-4.6-1-1.9 0.1-0.2 2.2-2.1-1.5 0.5-1.2 1.9-0.7 2.3-0.3 1.8 0.2 1.6 0.5z m199.7 45l0.1 0.7 0.4 6.6 1 1 0.2 0.4 0.1 0.7 0.2 0.4 0.3 0.3 0.7 0.5 0.3 0.4 0.2 0.6 0.5 1.7 0.5 1.1 0.6 1.2 0.7 1 0.8 1 3.6 3.4 0.4 0.2 0.4-0.3 1.4-2 0.6-0.5 0.8-0.3 0.6 0.1 0.4 0.3 0.6 1 0.3 1.9 0.1 1.7 0 0.6 0.4 0.5 0.7 0 2.1-1.2 0.7-0.1 0.6 0.1 2 1.4 0.7 0.1 1.1-0.2 2.8-1.2 1.8-1.1 0.3-0.3 0.1-0.4-0.2-1.3 0.3-0.4 0.7-0.4 4.1-1.4 0.8-0.1 1.7 2.1 1.3 1 2.2 0.7 1.3 1.4 1.1 1.7 1.8 1.2 1.8 0.4 6-0.4 0.2-0.5 2.5-3.2 1-0.7 1.1-0.3 4.6 0 2.5 0.1 3.9 1.5 15.4 9.4 4.5 1.5 3.4-1.4 8.1-0.4 3.8 1 2.3 3 0.3 2.6 0.1 2.9 0.5 2.4 1.8 1 2.1 0.5 1.2 1.3 2.3 3.2 3.5 2.9 9.9 5.7 11.9 11.3 3.1 2 1 1.2 1.3 0.8 1.1-0.8 1-1.3 1.7-1.1 0.9-1 1.2-0.9 1.3-0.3 1 0.6 0.6 1 0.6 1.2 0.9 1.2 1.1 2 0.8 0.1 1.4-1.5 1.1-0.8 0.8 0.8 0.8 1.2 1.8 1.1 0.7 1 1.3 2.4 1.8 3.4 4 4.7 1.8 1.2 2.3 0.4 2.1-0.6 3.5-2.5 2.3-0.5 2.5 0.8 3.3 3.4 2 0.7 2.5 0.4 5.3 2.1-2.1 6-1.1 0.7-1.4 0.1-0.9-0.4-0.6-0.1-1.1 0.2-0.6 0.6-0.3 0.5-0.5 1.6-0.1 0.5-0.5 3.6 0 1.7 0.1 1 0.3 0.9 0.2 1-0.4 0.4-2.1 0.1-1 0.2-6.3 6.1-0.4 0.2-3.8 1-6.6 2.9-2.2 0.1-0.9-0.4-0.6 0.2-0.7 0.4-0.9 0.8-0.7 0.2-0.5 0-0.5-0.3-0.5-0.6-0.3-0.9-0.4-0.3-1.3-0.5-0.4-0.3-0.5-0.7-0.4-0.3-5.3-0.9-6.3 0.4-0.9-0.1-1.9-1.1-3.3-0.9-1.8-0.1-2.2 0.2-1.3 0.6-0.4 0.5-0.3 0.8-0.2 1.1-0.1 1.4-0.2 0.6-0.2 0.4-2.1 1.6-1 1.4-2.1 1.1-3 1-1.7 0.9-1.4 0.3-4.7-0.3-5.1 0.4-3.7 1.5-0.3 0.5 0.2 1 0 0.6-0.3 0.9-0.1 0.6 0 0.5 0.3 1.5 0 1-0.3 1.6 0 1.1 0.3 0.9 0.4 0.8 1.2 2.8 0.5 0.6 1.4 1.4 0.2 0.4 0.1 1.4 0.2 1.1 0.5 2.1 0.5 0.8 0.6 0.4 1.1 0 0.8 0.4 0.9 0.6 1.1 2.3 4.1 8.3 3.8 5.7 0.9 1 0.6 0.2 0.4-0.2 1.3-1.2 0.3-0.2 0.6-0.1 0.7 0 1 0.6 0.4 0.5 0.1 0.6-0.4 0.8-0.5 0.7-1.8 2-0.5 0.8-0.2 1 0 2.8 0 0.9 0.3 1.6 0.2 0.9 0.3 0.6 0.8 1 0.6 0.6 3 4.9 0.6 1.2 0.2 0.8-0.3 0.2-0.5 0-2-0.5-0.5 0-0.9 0.2-0.8 0.4-0.6 0.7-0.3 0.8 0 0.7-0.4 0.8-0.2 0.5-0.1 0.7-0.2 1.9 7.8 10.5 0.5 0.5 1 0.6 1.4 0.4 3.2 2.7 0.4 0.6 0.3 0.8-0.3 1.3-0.1 1.1-0.3 0.5-0.3 0.3-1.8 0.5-3.1 0.4-1.1 0.5-0.8 0.4-0.2 0.3 0.1 1.6 0.3 0.8 0.3 0.2 0.9 0.3 0.7 0.5 0.4 0.5 0.2 1.2 0.5 0.6 0.3 0.7 0 0.5-0.2 0.4-1.2 1-0.5 0.7-0.2 0.4 0.1 0.4 1.3 2.1 0.7 0.8 0.4 0.3 0.5 1 0.3 0.3 0.4 0.1 0.8-0.2 0.6 0.2 0.1 0.5 0 1.4 0.2 1.2 0.3 0.1 0.4-0.6 0.3-0.7 0.6-0.1 0.5 0.7 0.1 0.6 0.1 0.7 0 1.7-0.2 0.9-0.5 0.8-0.7 0.4-1.6 0.3-2.2 1-0.9 0.9-0.9 2.2-0.2 0.7 0 0.5 0.7 1.4 0.5 0.6 0.8 0.4 0.5 0.1 0.4 0 0.5 0.2 0.5 0.6 0.3 1.9 0 0.9-0.1 0.7-0.9 1.6-0.5 0.8-0.6 0.6-2.6 2.3-2.3 1.3-3.8 1.2-0.7 0.4-0.3 0.5-0.1 0.5 0.1 0.6 0.3 0.2 1.7 1.3 0.2 0.3 0.2 1.1-0.1 1.5-0.2 0.7-0.3 0.6-0.3 0.3-0.8 0.3-1.1 0.1-5.3-0.2-2.2 0.3-2.8 1.2-14.5 0-6.2 1-0.9 0.3-0.1 0.4 0.1 1.4-0.1 0.5-0.9 0.9-0.9 1.2-1.4 1.3-0.8 0.3-0.6 0.1-3.2-0.4-0.6 0.3-0.4 0.4 0 0.8 0.2 0.6 1.5 2 0.3 0.6 0.1 1.4 2.8 1.4 0.3 0.4 0.7 1 0.5 0.3 0.6 0.2 0.8-0.3 0.3 0.1 0.1 0.3-0.2 0.4-0.2 0.3-1.7 0.7-0.3 0.2-0.6 0.8-0.4 1.6-0.2 1.7 0.2 0.7 1.9 1.2 0.3 0.4 0.4 0.8 0.3 2.7 0 0.9-0.1 0.5-0.7 0.9-0.3 0.9-0.3 0.4-0.3 0.2-0.8 0.4-0.4 0.3-0.4 0.5-0.4 0.8-0.3 0.4-0.4 0.4-1.5 0.6-0.5 0.6-0.2 0.5 0 2.5-0.3 4.5 0 0.8 0.2 0.7 0.3 2.1 0.3 1.2 0.6 0.5 0.8 0.9 0.5 0.7 0.7 0.5 1.1 0.8 0.3 0.5 0.3 0.7 0.4 1.8 0.2 0.5 0.9 1.2 0.6 1.8 0.3 0.3 1.2 1.1 0.4 0.4 0.3 0.7 0.4 1.6 0.1 0.9 0 4.1 3.1 5.7-5.3 3-1.9 2.3-0.2 1 0.6 1.1 0.7 1.1 1 1.2 0.2 0.2 0.2 0.4 0.1 0.7-0.2 1.5-0.3 0.6-0.6 0.2-0.7-0.4-1.5-1.7-0.7 0-0.9 0.1-5.2 2.7-0.5 0.1-3.4 0.2-1.3-0.1-3.9-3.3-5.2-2.8-1-0.2-0.8 0.4-1.5 0.3-1.7 0-0.7 0.2-0.4 0.2-0.1 0.7 0.4 0.7 0.2 0.5 0 0.5-0.2 1-0.2 1-1.2 3.2-0.8 1.1-1.7 1.3-0.4 0.5-0.1 0.5-0.5 0.6-1 0.4-1.8 1.2-0.6 0.6-0.3 0.5-0.1 0.7-0.3 1.2-0.4 0.4-0.5 0.2-0.4 0.1-4.7 3-0.8 0.4-1 0-0.5-0.2-0.5-0.5-0.1-0.7-0.4-0.3-0.5-0.1-1.1 0.1-0.6 0.3-0.4 0.3-0.5 0.7-0.1 0.4 0 0.6 0.2 0.6-0.2 0.8-0.8 1.6-0.5 0.5-0.5 0.3-1.5 0.4-0.3 0.3 0 0.6 0.3 0.9-5.4-0.2-1.7 0.4-0.6 1-0.6 0.8-0.5 0.1-0.3-0.2-2.2-1.9-0.5 0-0.5 0.8-0.5 0.6-1.6 0.8-0.6 0.5-1.3 1.5-5.5 4.6-3.8-2.8-0.9-1-0.1-1.4-0.1-1-0.3-0.3-0.4 0-0.7 0.4-0.7 0.9-0.3 0.1-1.4 0-0.4 0.1-0.3 0.3-0.1 0.7 0.1 0.5 1.4 3 0 0.5-0.3 0.5-0.8 1-0.5 0.2-0.5 0-0.8-0.8-0.5-0.9-0.8-2.1-0.5-0.7-0.7-0.6-2-1.1-0.8-0.2-0.5 0 0 0.7 0.3 0.7 0.3 0.6-0.3 0.5-0.7 0.7-2.6 0.8-1.4 1.1-4.6 2.7-0.1 0.2 0 0.7 0.3 0.8 0.4 0.6 2.6 2.8 0.9 0.6 0.4 0.1 0.5-0.6 1.2-1.1 0.5-0.3 0.5 0 0.6 0.6-0.1 0.5-0.4 0.8-0.5 0.4-0.3 0.4 0 0.6 0 0.7-0.4 0.7-0.8 1-3.1 2.8-0.9 0.5-0.3 0-1.2-0.2-3.1-4.1-1.5-0.8-0.7 0.1-0.7-0.1-7.6-3.4-1.9-0.5-3-2.8-0.6-1-0.1-0.5 0.3 0.1 1.7 0.7 1 0.3 0.5 0 0.4-0.2 0.1-0.4-0.1-0.8-0.7-1.4-0.2-0.8 0.1-0.6 0.9-0.9 0.3-0.4 0.5-1 0.3-0.2 0.4 0 0.8 0.3 0.4 0 0.8-0.3 3.1-0.4 0.4-0.5 0.3-0.8-0.5-4.4 0.3-1.4 0-1-0.2-0.7-0.5-0.7-0.1-0.5 0.1-0.4 0.7-0.8 0.2-0.5-0.1-0.4-0.3-0.3-0.8-0.4-0.5-0.5-0.7-1.1-2.2-4.9-0.2-1.2 0.2-0.4 1-0.1 0.4-0.1 0.3-0.3 0.3-0.7 0.1-1 0-1.9 0.1-1 0.3-0.5 0.4 0.1 0.7 0.4 0.8 0.2 0.4 0 0.4-0.2 0.1-0.3-1.1-1.9-0.1-0.6 0-0.5 0.1-0.4 0.5-0.3 0.5 0.1 2.6 2.1 0.3 0.1 0.7-0.2 0.9-2-2.1-2.3-0.7-1.7-0.3-1.6-0.3-0.7-0.4-0.6-2.2-1-0.3-0.5-0.3-0.7-0.2-1-0.3-0.2-0.5 0-1.2 0.6-1.3 0.3-0.8 0-0.9-0.2-1.4-0.6-0.5-0.6-0.4-0.8-0.3-0.3-0.4-0.1-0.8 0.5-1.1 1.3-0.5 0.3-0.7 0.1-1.5-0.1-0.9-0.3-0.5-0.3-0.3-0.4-0.1-0.4-0.1-1.1 0-1.1-0.3-0.7-0.5-0.3-1.7 0-2 1.9-0.9-0.9-5.1 1.6-1.6-0.1-0.3-0.3-0.3-0.9-0.1-0.6 0-1 0.1-0.9 0.2-0.6 0.2-0.4 0.3-0.3 0.7-0.5 0.3-0.4 0.1-0.6-0.2-1.3-0.1-0.8 0.1-0.6 0.6-0.8 0-0.5-0.1-0.9-0.3-2.1 0-1.1 0-1 0.1-0.8 0.2-0.3 0.7-0.8 0.4-0.9 0.3-1.2 0.4-0.5 1.5-0.8 0.6-0.6 0.6-0.8 0.3-0.5 1-2.6 0.7-2.2 0.1-1.4-0.1-1.9 0.1-0.8 0.1-0.6 0.8-0.8-0.1-0.5-0.3-0.3-0.9-0.3-0.6 0-0.4-0.6 0-0.4 0.1-0.4 1.1-1.3 0.5-1 0.3-0.6 0.3-1.1-0.4-0.3-0.3-0.2-0.6 0.2-0.7 0.4-1.1 0.4-2.5 0.4-4.8-0.2-0.6 0.1-2 0.9-1.1 0.2-1.1-0.2 1.6-4.6 0.2-2-0.2-1.3-0.2-0.9-0.4-0.9-0.6-0.9-2.5-1.3-1.5-0.1-2.8 0.5-0.6 0-0.2-0.2 0.2-0.3 0.8-0.8 0.5-0.5 0.6-1.1 1.2-4.8 0.1-1-0.1-0.4-4.2-1.9-1 0-0.5 0.1-0.6 0.5-0.4 0.7-0.1 0.5 0 0.3-0.5 0.2-1-0.2-2.7-1.4-1-0.7-0.5-0.5 0.4-0.4 0.2-0.5 0-0.8 0.2-0.5 0.7-0.4 0.6-0.5 0.3-0.4 0.4-0.9 0.2-1-0.1-0.5-1.3-3.1-0.9-2.9-0.1-0.6 0.1-0.6 1.2-2.1 0.1-0.5 0-0.7-0.1-1.1-1.3-1.7-3-1.3-0.9-1-0.1-0.9 0.6-1.5 0.1-0.8-0.4-0.6-0.8-0.5-7.8-1.1-2.2 0.3-1.4-0.1-1.6 0.2-1.3 0.4-0.6 0.1-0.2-0.2 0.1-0.5 0.4-1 0.5-0.8 0.2-0.4 0-1.2-0.2-0.9-0.2-0.6-1-2.4-0.7-1.8 3.4-1 2.4 0.2 0.5-0.2 0.2-0.4-0.2-1.5-0.4-1-0.4-1 0-0.5 0.3-0.9 0.8-0.7 2.3-1.7 0.3-0.4-0.7-0.4-2.4-0.5-3.6-1.7-2-0.5-0.4-0.3-0.3-0.3-0.4-0.8 0-0.6 0-0.4 0.2-0.6 0.3-1 0.2-1.6 0.4-4.9 0.2-1.2 0.7-1.8 0.3-0.7 0.4-0.5 0.5-0.2 0.6-0.1 2.5 0.3 0.9-0.1 0.9-0.8 0.6-0.3 1.2-0.5 0.5-0.6 1.9-4.2 3.5-5.8-1.9-6-0.2-1.7 0.3-0.3 1-0.8 0.6-0.5 0.4-0.7 0.5-1.3 0-0.6-0.3-0.3-0.9-0.2-0.4-0.1-0.4-0.3-0.6-0.5-1.5-2.3-0.6-0.3-0.6-0.2-0.5 0.2-6 3.2-2.9 3-0.6 0.8-1.1 2.4-1.6 5.1-0.3 0.5-0.5 0.8-7.3 1.6-0.7 0.4-3.2 1.2-3.5 0.4-11.2-1.2-1.2-0.3-0.4-0.7-0.2-1.1-0.1-0.9 0.1-1 0.3-1.9 0.1-0.6-0.1-0.5-0.4-0.8-0.2-0.6 0-0.8 0-0.8 0.3-1.7 0-0.7-0.1-1.1-0.3-1.6-3-5.5-0.9-0.7-0.9-0.9-1.8-0.8-1.2 0-5.4 2.7-1.7 0.3-5.4-0.1-2.2 0.3-0.5 0.5-1.2 1-1 0.6-0.7 0.6-0.2 0.3-0.2 0.6-0.9 4.4-0.2 0.6-0.4 0.6-0.8 0.7-1.9 0.9-6.1 0.8-1-0.3-0.8-0.4-0.4-0.1-2.5 0-2.5-0.9 2.2 7.3 0.6 0.9 0.8 1.2 7 3.3 3.2 2.3 0.8 1 0.6 1.3 1 2.8 0.7 3 0.4 3.1 0.1 3.1-0.2 6.5 0.2 6.4 0.3 1.7 0.2 0.1 2.3 1.6 1.2 1 0.1 0.4-0.2 0.7-0.5 1.2-0.6 1.1-0.6 0.9-0.6 0.6-1 0.9-4.4 2.8-0.5 0.5-0.3 0.8-0.9 2.6-0.3 0.6-0.2 0.2-0.6 0.4-0.7 0.2-13.8-4-3.5 3.1-1.9 2.3-0.7 1.2-1.3 1.2-2 1.2-7.6 2.9-4-1.5-3.9 0.7-1.7 0.9-4.7 4.5-0.6 0.4-0.5 0-0.5-0.5-1.8-1.1-3.1-1-0.5-0.3-0.3-0.2-0.9-2.9-0.4-1.1-1-2 0.2-1 1.3-1.4 1.9-1.5 2.7-1.3 2.1-0.4 1.4-0.1 1.2-0.3 0.4-0.8 0.3-1 0-0.9 0.7-2.2 1.1-2.3 0.4-1.1 0-0.7-0.4-0.3-0.5-0.3-2-0.7-1.3-0.1-2 0.4-1.4 0-0.5-0.3-0.4-0.5-0.2-1.1-0.3-0.8-1.1-0.2-1-0.1-0.8-0.3-0.5-0.4-0.3-0.8 0-0.5 0.4-0.6 1.4-1.6 0.7-1.1 0.2-0.7 0-0.5-0.1-0.5-0.6-1.2-0.3-0.8 0-0.6 0.4-0.6 2-2.1 0.7-1 0.2-0.5 0-0.5-0.6-1.1-0.7-1-0.3-0.9-0.3-1.1 0.1-0.5 0.2-0.4 0.5-0.2 3.3-0.5 0.4-0.2 0.4-0.3-0.1-0.5-0.3-0.5-1-1.6-2.1-3.8-1.4-2.1-1-0.9-1-1.2-0.5-1-0.7-0.3-0.5 0-7.2 2.8-0.7-0.1-0.7-0.3-1.2-1.5-0.3-0.4-7.4-4.6-2.7-1-0.4-0.5-0.3-0.6-0.9-6.1-0.3-1-0.4-0.9-0.8-0.7-7.8-2.4-0.4 0-0.5 0.2-0.2 0.3-0.6 0.8-1.3 5.7 0.2 0.6 0.3 1 0.8 0.4 0.8 1 0.2 0.4-0.1 0.3-0.7 0.3-0.5 0.7-0.4 0.9-0.7 2.6-0.5 1.3-0.3 0.2-0.3 0.3-0.5 0.9-0.5 0.6-0.3 0.1-2.1-0.4-0.7 0-1.5 0.3-0.6 0.3-5 4.3-5.6 5.7-0.8 0.6-1.2 0.6-2.8 0.6-0.4 0.3-0.6 0.3-1.6 1.5-5.2 3.6-4.5 1-15 0.7-0.6 0.5-0.8 0.8-1.5 1.2-4.5 1.9-2.9-0.2-0.6-1.1-1-3.8 0.1-3.3 0.7-2.7 2.2-5.1 0.9-6.5-1.5-4.6-6.6-10.8-0.7 0.3-0.7 1.2-1 1-2.7 0.8-2.9 0.2-3-0.5-5.7-2.2-8.6-1.2-2.8-1.4-2.2-2.5-0.7-2.7-0.1-3.1-0.4-3.2-1.3-2.8 1.8-0.2 6-3.1-3.6-3-0.7-1.2-0.1-1.4 0.5-1.5 0.2-1.6-0.9-1.9 3.9-2.8 3.6-1.1 10.3-0.2 5.8 1.7 5.4-0.8 1.6 0.7 3.9 1.3 2-3.9 0.8-6.3 1-19.4 0.9-6.1 2-5.4 8.9-14.2 2.4-6 1-5.8 0.1-6.5-1-12.9-0.4-1.6-0.5-1-0.4-1.1-0.1-2.2 0.3-1.5 1.5-4 0.8-3.1 0.3-2.8-0.1-2.9-0.3-5.2 1-0.6 1.3-1.3 0.9-1.4 1-1.9 0.4-2.2-0.8-2 2.7-4.2 1.5-0.7 2.5-0.1 2.4 0.6 3.7 2.4 2.1 0.9-2.6-3.9-4.3-1.6-24.8-0.9-4-2-1.6-5.1-0.1-13.5 0.5-3.1 2.1-5.5 0.5-2.8 0.9-1.6 2.1 0 4.4 1 0.6-1.5 1-0.6 0.8-1.8-0.2-2.3-0.9-1.3-3.2-1.6-1.4-1.5-0.3-2.4 1.6-2 3.5-2.4 3.9-4.5 2.2-1.5 4-4.2 8.6-3.4 16.7-1.9 1.2 0.9 1.2 1.6 2.5 0.6 16.1-3.4 32.6-4.6 8.8 2.6 0 1.3-0.8 5.2 3.1 6.7 4.5 5.8 3.6 2.5 0 1.1-0.9 2.4 1.7 0.8 2.4 0.7 1.2 1.9-0.3 3.3-1.1 1.7-2.3 1.8-2 1-4.3 0.4-1.9 1.2 2 6.1 1 2.3 1.5 1.6 1.4-0.7 1.2-0.5 1.8 0 1.3 0.7 2.1 2.5 0.8 0.5 0.9 0.7 0.8 1.8 1.2 1.7 1.5 0.8 1.9-0.1 1.3-0.3 1.2-0.7 1.3-1.3 2.3-3.9 2.4-6.3 0.6-6.2-3.1-3.7-4.3 1.1-2.3-0.4 0.2-2.6 0.9-3.1 0.8-6.2 0.9-2.6 1.5-1.5 1.8-0.8 4.6-0.2 2.1 1 1.6 2.2 1.3 2.5 1.3 1.8 4.4 2.3 9.3 1.8 4.2 2.1 0 1.3-2.6 2.3-2.4 2.9-1.7 3.9-0.7 5.4 0.1 10.2 0.7 4.5 1.4 3.4 0.3-4.5-1.1-11.4 0.1-5.4 1.7-4 2.4-1.8 2.3-2.2 0.1-0.3 1.7 3.3 0.6 0.5 0.8-0.2 0.3 0 0.7 1.5 0.5 0.4 0.3-0.1 2.3-2.2 1.7-2.6 0.2-0.6 0.1-1 0.1-1.2-0.1-1.3-0.7-3.8-0.4-1.4-0.9-1.8-0.3-0.9-0.1-1 0.3-1.2 0.3-0.5 0.7-0.9-0.1-0.4-0.6-0.2-4.5 0.2-2.4-0.4-5.3-2-0.5-1.5-0.8-3.5-1.6-4.2-0.3-3 0.2-3.1 0.7-2.7 4.1-10.3 2.9-11.1 1.8-4.9 1.6-2.4 2.1-2 2.4-1.5 2.5-0.5 2.2 0.1 1.3 0.6 2.7 3.1 3.9 3.2 4.1 2.2 8.5 2.1 4.7-0.1 7.9-2 4.3 0.4 2.1-2.5 8.6-2.1 8.6 0.1 1.9-1.3 1.5 1.1 1.8 0.3 3.7-0.2 0.9 0.7 2.4 3.1 10.6 18.8 4.4 5.2 3 2.5 1.5 2 1.5 5.5 7.5 11.1 1.7 1.5 2 0.9 2.6 0.3 1.3 0.7 6.5 4.5 7.3 1.6z m-131 61.2l-3.3-2.2-1.2-0.3-2.5 0.4 0.6 1.3 0.3 1.1 1 2 4.5 1.9 2.5 1.8 1.3 0.1 2.3-0.2 0.7 0.6 1.6 3.1 0.2 3.3 0 0.5 0.2 0.9 0.3 0.6 1.7 2.7 4.2 5 0.8 0.4 0.2 0.5 0.1 0.6 0 5.2 0.2 0.3 1.6 0.3 4.3-0.8 1.1-0.4 0.3 0 0.6 0.2 5.2 3.3 1.1 0.3 1 0.1 1.5-0.5 0.6-0.3 0.3-0.4-0.1-1.1 0.1-0.3 5.3 4.1 0.9-0.5 3.8-2.7 1.6-1.9 0.2-0.6 0.1-1 0.1-2.5 0.3-1.1 0.2-0.8 0.8-1 0.2-0.4-0.2-0.6-0.2-0.6-2.7-2.8-0.4-1.1 0.3-0.8 1.2-1.1 0.4-0.4 0-0.5-0.3-0.4-2.5-3-1.1-1.1-0.4-0.2-0.3 0-0.5 0.4-0.5 0.8-0.5 1.2-0.3 1.1-0.3 0.6-0.2 0.2-0.9 0.3-1-0.2-3.7-1.9-2.2-1.6-1.6-1.6-0.2-0.2-1.3-0.3-3.1 0.1-0.5-0.2-2.4-1.5-0.6-0.5-0.2-0.5 0-0.8-0.2-0.4-0.2-0.2-1.4-0.2-2.4 0.2-0.5 0.1-0.3 0.3-0.3 0.1-1.1 0.1-1.5-0.4-6.4-2.6-3-1.9-0.6 0-2 0.6-0.7-0.1z" id="DEU1576" name="Niedersachsen">
 </path>
 <path d="M698.9 723.4l7-0.7 16.8 5.1 0.9 5.2 0.3 0.7 3 5.1 1.1 2.6 1.5 1.5 1.5 0.8 1.5 0.6 3.1 1.8 2.6 4.2 2.3 4.9 0 1.3-1.2 0.5-0.6 0.5-0.3 0.4-1 1.6-0.8 0.9-0.3 0-0.3-0.3-0.4-0.8-0.5-0.2-0.4-0.1-0.8 0.4-0.5 0-3.5-0.4-2.4 0.2-0.5-0.1-1.6-0.7-0.3 1.5-0.5 0.5-4.1 2.3-2.3 2.6-1.9 3-0.8 0.1 0-0.4-0.4-0.3-0.8-0.2-3.1 0.3-0.8 0.2-0.7 0.4-2.7 2.4-0.9 0.6-7.9 2.3-0.2 1.8 1.4 1.5 1.8 0.7 0.3 0.6 0 0.5-0.2 0.4-0.8 0.9-0.7 1-0.4 0.2-0.4 0.1-0.6 0-0.6 0.3-0.6 0.6-0.8 2-0.2 0.9 0.1 0.7 0.8 0 0.6-0.2 0.5 0 0.5 0.2 0.7 0.6 0.1 0.6-0.1 0.6-0.2 0.6-0.2 1.2 0.2 0.9 0.5 1.5 0.7 1.3 0.8 0.4 0.4 0.2 1 0 1.5-0.1 1 0.4-2.2 3.9-0.4 0.5-0.9 0.9-3.3 2.6-0.7 0.3-2.7 0.2-2.1-0.4-1.9 0-0.5 0.2-0.4 0.5-0.7 1-1.9 2.4 0.1 3.4-0.2 1.1-0.5 1.6-0.5 0.6-0.4 0.4-1.1 0.2-1.3 0.6-0.5 0.1-0.5 0-0.4-0.2-0.6-0.6-0.9-0.3-1.7 0.4-2.4 4.1-1.1 1-0.5 0-1-0.1-0.8-0.4-0.3-0.5-0.8-1.2-0.2-0.2-0.6-0.2-1-0.3-0.8 0.2-0.5 0.2-0.2 0.3-0.6 1.2-1.5 1.7-2.5 2-1.2 1.6-0.7 1.5-0.2 0.9 0 0.7 0.2 0.4 0.3 0.3 1.3 1 0.3 0.5 0.2 0.7 0.1 1.5-0.3 0.7-0.9 0.9-0.1 0.6 0 0.8-0.2 0.5-0.3 0.3-1.8 0.6-0.9 0.6-0.7 0.7-0.3 0.5 0 0.5 0.9 1.4-2.6 1.4-1 0.7-0.5 0.3-2 0.5-1.2 0.5-0.3 0.3-0.7 0.4-0.6-0.1-0.2-0.5 0.1-0.4 0.2-0.4-0.2-0.3-0.3-0.2-1.2-0.4-0.9-0.7-0.4-0.8-0.6-0.1-0.7 0-1.8 0.2-0.8 0.2-0.5 0.9-1.9 0.6-12.8 2.7-3.3-1.3-1.4-0.1-0.9 0.1-0.4 0.2-0.3 0.4-0.3 0.9-0.2 0.3-0.3 0.3-0.4 0.2-1.5 0.2-0.8 0.3-0.6-0.2-0.9-0.4-1.7-1.5-0.9-0.5-0.7-0.6-0.3-0.4-0.1-2.5-0.2-1.4-0.2-0.5-0.3-0.4-0.7-0.3-0.5-0.1-0.5 0.2-0.4 0.2-0.5-0.1-0.5-0.2-0.9-1-1-0.9-1.1-0.5-0.2-0.8-0.1-0.7 0.2-5.8 0.7-0.5 1-0.7 0.2-0.3 0.1-0.4-0.3-1-1-1.8-1.8-0.5-6.9-0.4-1 1.2-0.8 0.3-0.6 0.4-0.4 0.7-0.2 1.4-0.3 0.5-2.3 1.4-2.1 0.5-3 1.5 0.5 1.8 0.4 0.9 0 0.7-0.3 0.6 0.2 0.8 0.4 1 0.1 0.4 0.2 1.4 0 0.6-0.4 3 0 0.6 0.2 0.5 0.4 0.7 0.1 0.5-0.1 0.7 0.1 0.5 0.2 0.4 0.8 1 0.3 0.8 0.1 1.4 0.3 1.2-0.2 0.5-0.8 0.2-0.3 0.2 0 1.1 0.2 0.9-0.1 0.5-1 2.2-0.2 0.8 0 0.6 0.6 1.1 0.2 0.4 0 0.6-0.2 0.7-0.7 1.1-0.3 1 0.2 1.3 0 0.7-0.2 0.3-0.4 0.3-0.8 0-2.5-0.7-0.5-0.4-1-0.9-0.5 0.3-1.1 2-5.4-5.1-0.8-1.3 2.1-2.5 0.2-0.5 0-0.4-0.3-0.8-0.5-0.7-0.4-0.7-0.9-1.5-0.3-0.2-0.4-0.2-0.7 0.1-0.3-0.2-0.4-0.7-0.3-1-0.3-0.3-0.4 0.1-1.2 0.3-0.4 0.4-0.6 0.8-0.3 0.3-0.4 0.1-1.5 0.2-0.5 0.1-1.5 0.7-0.5 0-0.4-0.3-0.5-0.9-0.6-0.6-0.8-0.5-2.9-0.4-0.4 0.2-0.2 1.3-0.2 0.6-0.3 0.2-0.6-0.5-0.5-0.4-3.7-5.5-0.8-0.2-0.9 0.1-2.8 1-0.4 0-0.6-0.1-0.4-0.6-0.4-0.7-0.3-0.3-0.6-0.3-0.7 0.1-0.5 0.3-0.8 0.4-2-0.4-0.4 0.1-0.4 0.1-1.4 1-0.4 0.2-0.8 0.2-0.6-0.1-1-0.5-0.6-0.1-0.5 0.3-0.5 0.6-1.6 2.6-0.5 1-0.3 0.4-0.4 0.2-0.6-0.1-1.5-0.7-0.9 0.1-0.5 0.6-0.5 0.9-0.4 4 0.1 1.1 0.5 0.7 0.8 0.7 1.2 0.5 1.3 0.9 0.2 0.2 1.3 1.5 0.6 0.5 0.9 0.2 1.9-0.1 0.8 0.3 0.2 0.4 0.4 1.2 0.6 0.7 0.8 0.4 1.9 0.5 0.4 0.2 0.4 0.8 0.2 0.9 0.1 1-0.1 0.6-0.2 0.8-0.5 0.7-0.6 0.2-0.7 0-1.3-0.3-1.5-0.8-0.5-0.1-3.5 0.8-0.8 0-0.6-0.1-0.7-0.5-0.4-0.1-0.5 0-0.8 0.9-0.5 3.6 0 1.8-0.2 0.4-0.5 0.1-0.7-0.1-1.5-0.9-1.4-1.1-2.7-0.8-4.9 0-0.9-1-0.5-0.9-0.1-0.8 0.3-0.5 0.1-0.5 0-0.7-1-1.9-0.4-1-0.1-0.6 0.2-0.8 0.2-0.6 0.1-0.9 0.2-0.6 0-0.8-0.1-1.1-0.5-2.1-0.2-1.1 0-0.8-0.1-0.6-0.4-0.5-1.5-0.8-0.9-1.1-1.5-3.2-1.8 0.3-1 0.8-0.5 0.1-1-0.2-1.4-0.1-0.3-0.1-0.2-0.4 0.1-0.6-0.1-0.5-0.2-0.5-3-2.5-0.5-0.6-0.4-0.6-0.3-0.8-0.3-0.9-0.3-0.3-0.7 0.2-1 0.4-1 0.2-2.1-0.2-0.4-0.3-0.4-0.3-0.6-1 0-0.6 0.1-0.5 0.8-0.9 0.1-0.4-0.2-0.6-2.9-2.4-0.5-0.5-0.4-0.7-0.5-0.7-0.5-0.6-1.6-1.3-0.2-0.4-0.2-0.4 0.1-1.6-0.1-0.8-0.4-1-0.1-0.4-0.5-0.6-1-0.5-8.8-3-0.7-0.5-0.4-0.5-0.2-0.9-0.4-1.2-0.2-1-0.3-0.4-0.3-0.4-0.7-0.5-0.6-0.9-0.6-0.3-1-0.1-5.3 0.5-0.6-0.1-0.4-0.3-0.3-0.7 0.1-1-0.1-0.5-0.2-0.3-1.8 1.3-5.9 6.7-0.8-0.1-0.3-0.5-0.1-0.4 0.2-0.7 0.2-1 0.9-3 0.1-0.8-0.7-1.9-0.2-0.8-0.1-1.1 0.2-3-0.2-1.1-0.2-0.3 0-0.6 0.3-0.7 1.1-1.2 0.7-0.4 0.5-0.1 0.3 0.3 0.4-0.7-0.3-4-1.2-3.1-0.2-0.5-0.4-0.3-0.5-0.3-1.1-0.3-1.9-0.2-1.8-0.6-0.4-0.1-0.8 0.1-0.7 0.3-1.4 0.9-0.8 0.4-1.7 0.5-0.4 0.2-0.4 0.7-0.1 0.5 0.1 0.5 0.2 0.4 0.9 1 0.2 0.5 0.1 0.3-0.4 0.8-0.3 0.9-0.3 0.3-0.4 0.1-0.5 0.1-1-0.2-0.9-0.3-1.7-1.2-0.5-0.1-0.4 0-0.8 0.4-0.8 0.3-0.5-0.1-0.3-0.5-0.2-1.1 0.1-1.5-0.1-0.8 0.1-0.9 0.3-0.9 0.7-1.5 0.6-0.7 0.4-0.4 0.8-0.4 0.3-0.4 0.7-1 0-0.4-0.2-0.8 0.1-0.8 0.4-1.2 1.5-2.7 0.4-1 0.1-0.6 0.1-1.1 0-1 0-0.4-0.4-0.8-1.2-1.4 0.6-1.6 0.5-0.2 0.5-0.3 0.3-0.1 0.5 0.4 0.2 0 0.2-0.4-0.2-1.4-0.3-1.5 0.1-1.1 0.2-0.5 0.5-1.3 0-0.9 0.3-0.4 0.6-0.4 1.6-0.7 2.2-0.3 0.6-0.3 1-0.5 0.7-0.2 0.5 0 0.5-0.3 0.3-0.6 0.1-1.7-0.4-1.3 0.3-0.8 0.4-0.6 2.9-3.5-0.9-1.1-0.4-0.6-0.5-1.6-0.4-0.7-0.3-0.5-1.3-1.1-1.1-0.8-0.5-0.2-0.4 0-0.6 0.1-0.6 0.5-0.4 0.6-0.2 0.4-0.6 0.7-0.3 0.2-0.4 0-0.3-0.4-0.1-0.9 0.1-2-0.2-0.6-0.3-0.2-0.5 0.6-0.3 0.3-0.4 0-0.3-0.3-0.2-0.5 0.1-1.1 0.1-0.5 0.3-0.5 0.8-0.2 0.5-0.1 0.4 0.2 0.4 0.4 0.3 0.1 3.9 0.4 1.3-0.2 1.7-0.5 0.4-0.5 0.1-0.9-0.3-2.1-0.6-1.2-0.5-0.7-0.7-0.6-0.3-1.1 0.3-2.3 2.7-2 1.3-0.3 3.3 0 1.2 0.5 0.3 0 1.2-0.5 0.3 0 0.2 0.1 0.1 0.4-0.2 0.8 0.2 0.6 0.6 0.4 0.4 0.2 1.1 0.1 2.4-0.5 2.5 0.2 0.3-0.2 0.3-0.5 1.6-3.7 0.1-0.6-0.2-0.8-0.2-0.5-0.8-1.1-0.4-0.8-0.2-0.3-0.4-0.2-1.4-0.1-0.5-0.1-0.3-0.2-0.6-0.6-0.4-0.3-0.4-0.1-1.1-0.1-0.4-0.1-0.1-0.6 0-1 0.3-1.7 0.3-1.2 0.6-1.4 1.4-2.3 0.4-1.5 0-0.8-0.4-0.3-2-0.4-0.4-0.1-0.3-0.2-0.2-0.4-0.5-1.3-0.2-0.3-0.7-0.6 0.2-0.3 0.7-0.5 2.4-0.7 1.1-0.1 0.8 0.1 0.4 0.5 0.9 1.2 0.1 0.4-0.2 0.6 0.1 0.4 0.6 0.5 0.3 0.3 0.1 0.8 0.2 0.3 0.2 0 0.5-0.7 0.5-3.6 0-1 0.1-0.8 0.6-1.7 1.7-2.1 0.3-0.9 0-0.7-0.2-0.3-1.5-0.6-2.1-1.2-1.2-1.1-1.5-0.9-1-0.2-1 0.1-0.6-0.1-0.7-0.3-1-0.7-0.6-0.2-1.1-0.1-0.6-0.2-0.7-0.3-0.6-0.1-0.4-0.2-0.7-0.5-0.5-0.1-0.4-0.1-0.5-0.3-0.3-0.5-0.3-2-0.2-0.8-1.8-1.4-0.2-0.4-0.3-0.6 0-0.9 0.6-1.4-0.2-0.5-0.3-0.5-1-0.4-1.7-0.2-2.4-1-0.3-0.1-1.2 0.1-0.5 0-0.6-0.4-0.7-0.6-0.8-1.4-0.7-0.5-0.5-0.2-0.4 0.1-0.4-0.2-0.2-0.7 0.1-1.6-0.3-1.6-0.3-0.9-0.3-0.4-0.6-0.6-0.2-0.4-0.1-0.4-0.2-1.1-0.4-1.4 0-0.7 0.3-1.2 0.4-0.8 2.1-1.7 5.5-4.6 1.3-1.5 0.6-0.5 1.6-0.8 0.5-0.6 0.5-0.8 0.5 0 2.2 1.9 0.3 0.2 0.5-0.1 0.6-0.8 0.6-1 1.7-0.4 5.4 0.2-0.3-0.9 0-0.6 0.3-0.3 1.5-0.4 0.5-0.3 0.5-0.5 0.8-1.6 0.2-0.8-0.2-0.6 0-0.6 0.1-0.4 0.5-0.7 0.4-0.3 0.6-0.3 1.1-0.1 0.5 0.1 0.4 0.3 0.1 0.7 0.5 0.5 0.5 0.2 1 0 0.8-0.4 4.7-3 0.4-0.1 0.5-0.2 0.4-0.4 0.3-1.2 0.1-0.7 0.3-0.5 0.6-0.6 1.8-1.2 1-0.4 0.5-0.6 0.1-0.5 0.4-0.5 1.7-1.3 0.8-1.1 1.2-3.2 0.2-1 0.2-1 0-0.5-0.2-0.5-0.4-0.7 0.1-0.7 0.4-0.2 0.7-0.2 1.7 0 1.5-0.3 0.8-0.4 1 0.2 5.2 2.8 3.9 3.3 1.3 0.1 3.4-0.2 0.5-0.1 5.2-2.7 0.9-0.1 0.7 0 1.5 1.7 0.7 0.4 0.6-0.2 0.3-0.6 0.2-1.5-0.1-0.7-0.2-0.4-0.2-0.2-1-1.2-0.7-1.1-0.6-1.1 0.2-1 1.9-2.3 5.3-3 1.8 1.1 9.8-0.3 0.7 0.2 0.9 0.4 2.4 1.6 0.9 0.4 0.5 0.1 2.7 0 1.4 1.3 3.6 1.5 1.4 0.1 0.5 0.4 0.4 0.6 0.5 1.5 0.2 0.9 0 0.8-0.4 0.5-0.5 0.3-0.5 0-0.4-0.1-0.9-0.5-0.8-0.1-0.4 0.2-0.3 0.3-0.2 0.4 0.1 1 0.4 1.4 1.1 3 0.7 1.3 0.6 0.8 0.7 0.5 0.3 0.5 0.1 0.7-0.3 2.8 0 0.5 0.4 1.2 1.3 2.7 1 1.4 0.1 0.5 0.1 0.6-0.7 3.4-0.1 1.3 0 1.4 0.9 1.7 2.8 1.7 16.9 2 4.6-0.1 10.1 1.5 2.8 1 5.7 4.5 3 5.7 6.2 9.3-0.9 2.1-1 1.5-1.3 1.2-2.7 1.6-4.9 0.8-0.7 0.3-0.6 0.7-0.4 0.5-0.4 0.9 0.3 0.9 0.9 1.2 2.5 1.6 2.3 0.9 1.2 1.2 2.3 4 0.6 2.3 0.2 1.3 0 1 0 0.7-0.2 0.4-0.7 0.3-0.3 0.5 0.3 2 0.4 1.2 0.5 0.9 0.6 0.6 1.2 0.6 0.6 0.2 6 0.3 0.4-0.1 0.8-0.5 0.9-0.8 0.7-0.4 0.5-0.2 5 0.8 2.9-0.2 2.1 0.3 0.8-0.1 0.9-0.4 2.2-0.5 0.5 0.1 0.7 0.3 1.7 1.2 0.4 0.6 0.3 0.8 0 1.6 0.2 1.8 0.9 1.7 0.3 1.2 0.6 0.8 0.7 1.1 0.1 0.5 0.3 1.5 0.4 0.8 0.5 0.5 0.7 0.5 0.8 0.3 1.4-1.1 8.8-0.6 0.9-0.2 1.3 0.2 2.4 1.8 5.3 2.5 1 0.8 0.6 0.7 0.5 1.2 0.2 0.8 0.5 0.7 0.4 0.4 3.6 2 0.2 1.5 0.3 0.3 0.7 0 3.7-0.4 2-0.6 0.3-0.2 0.9 0 5.7 2 0.6 0 0.6-0.1 1-0.6 0.9-0.8 0.5 0 0.6 0.2 2 2 0.8 0.6 0.8 1.5 0.9 0.1 2-1.7-0.4-1.4 0.2-1.5 3.1-3.8 0.7-1 2.6-4.8 0-0.5 0-0.7-0.5-1.1-0.5-0.5-0.5-0.4-1.7-0.7-0.2-0.6 0-1.1 0.5-2.5 1.7-3 0.2-0.4-0.2-1.3z" id="DEU1577" name="Thüringen">
 </path>
 <path d="M488.1 305.4l-4.6 0-1.1 0.3-1 0.7-2.5 3.2-0.2 0.5-6 0.4-1.8-0.4-1.8-1.2-1.1-1.7-1.3-1.4-2.2-0.7-1.3-1-1.7-2.1-0.8 0.1-4.1 1.4-0.7 0.4-0.3 0.4 0.2 1.3-0.1 0.4-0.3 0.3-1.8 1.1-2.8 1.2-1.1 0.2-0.7-0.1-2-1.4-0.6-0.1-0.7 0.1-2.1 1.2-0.7 0-0.4-0.5 0-0.6-0.1-1.7-0.3-1.9-0.6-1-0.4-0.3-0.6-0.1-0.8 0.3-0.6 0.5-1.4 2-0.4 0.3-0.4-0.2-3.6-3.4-0.8-1-0.7-1-0.6-1.2-0.5-1.1-0.5-1.7-0.2-0.6-0.3-0.4-0.7-0.5-0.3-0.3-0.2-0.4-0.1-0.7-0.2-0.4-1-1-0.4-6.6-0.1-0.7 6 1.4 1.4-0.6-1.3-2.4-4.1-2.4-4.5-0.5 0.9-3.6 0.2-1.1 0.1-1.2 0.2-1 1-1.2 0.2-0.4 0.2-1.4 0.2-0.5 0.4-0.1 0.5 0 1.3 0.4 0.9 0.5 0.2 0.3 0.9 0.6 0.3 0.3 0.1 0.6-0.3 1.5-0.2 1.4 0.1 0.3 0.2 0.4 0.8 0.4 1.4-0.8 10.7-8.9 2.8-0.8 3 0.6 0.4 0 0.6-0.3 0.5-0.5 1-2.8 0.5-0.8 0.6-0.4 1.3-0.4 0.8-0.2 0.7 0 1.4 0.3 0.9-0.6 0.5-0.5 1.4-5.9 0.4-0.7 0.5-0.4 0.4-0.2 0.3-0.1 5.4 1.3 0.6-0.1 0.6-0.3 1.9-1.8 0.7-0.4 0.5-0.1 0.6 0.1 0.5 0.2 0.2 0.2 0.1 0.5-0.2 0.9-0.2 0.5-1.2 1.7-1.1 2.2-0.4 1.2-0.2 0.5 0.2 0.4 0.3 0.7 3.9 2.9 0.1 0.1 0.1 1 0 1.2 0.3 1 0.6 0.5 0.4 0.3 0.3 0.5 0.2 0.7-0.2 1.4-0.2 0.6-0.3 1-0.2 0.6-0.2 2.3-0.1 2.5-0.2 0.7-0.5 0.5-1.1 0.4-1.9 0.5-0.5 0.5-0.1 0.6 0.2 0.9 0.7 3 0.1 1.6 0 1.2 0.2 1 0.3 0.6 1.2 0.7 1.8 0.5 1 1.1 2.7 4.4 2.4 1.3 0.8 0.8 3.8 4.1 0.3-0.1 0.6 0 0.3 0.9 0.5 3.3z" id="DEU1578" name="Hamburg">
 </path>
 <path d="M309.8 192.1l-0.4 1-1.4-0.4-1.1-1.7-0.4-1.1-0.1-0.9 0.4-1.6 0.4-0.5 0.9-0.8 0.9-0.1 0 1-0.1 0.9 0.2 0.8 0.4 0.8 0.6 0.4 0 0.5-0.3 0.9 0 0.8z m-85.5-24.6l-0.5 0.4-0.2-0.8-0.5-0.1-0.3-0.9-0.5-0.5-0.6-0.6 1.6-0.2 0.6 0.8 0.4 1.9z m107.1-53.8l-4.8 0.3-2.2-0.8-1.2-2.1 1.2-0.6 0.2-1.1-0.5-1.1-0.9-0.9 3.4-3.3 3.9-1.8 4.3-0.3 4.8 1.3-0.5 0.3-0.3 0.5 0 0.9 0.1 1-2 1.9-1.4 2.3-1.6 2.2-2.5 1.3z m257.7-1.9l6.3 12.1-13.6-2.3-2 1.1 0.5 0.8 0.4 0.3-4.3 0.3-2.9-0.5-1.2-1.5 0.2-3.8-0.5-1.5-1.6-0.6-2.8-0.1-1.2 0.4-0.8 1.1-0.8 0-0.4-1.3-0.4-0.8-0.5 0-1.3 0.8-0.3-2.6 3-7.6 4.3-4.2 5.2-0.9 9.3 4.1 2.8 2.4 0.9 1.1 1.7 3.2z m-281.5-4.4l-3.1 1.8-2.4-0.1-1.4-1.2-1.1-2.7 0.7-3 1.9-1.5 0.8-0.4 0.8-0.5 7-3 0.2 2-0.9 4.6-2.5 4z m-33.6-39.1l-0.2 0.2-0.3-0.1-0.3 0.3-1.2 1.2-1.1 1.4 5.4 10.3 2.1 1.2-1.5 1.3-3.7 1.3-2.5-2.3-2.1-3.8-2.1-2.9 3.1-6 2-2.1 2.4-0.9 0 0.9z m23.2 2.9l-0.9 1.3-1.5 0.5-1.8-0.2-1.7-0.7-0.9-0.8-2.9 1.1-3.5-1.1-6.3-3.9 2.1-4 2.5-2.4 2.9-1.2 3.7-0.3 6 0.4 2.5 1.5 2 3.4 0 1.3-0.9 1.5-1.3 3.6z m253.8 137l-0.1 0.7-0.1 4.8 0.4 0.5 0.3 0.7 1.1 0.8 4.3 1.4 0 0.3-0.3 0.1-0.7 0.6-0.6 0.4-3 0.6-0.5 0-0.3-0.1-0.4-0.5-0.1-0.7 0.3-0.7-0.1-0.5-1.4-0.4-0.3-0.2-0.7-0.1-2.6 1.8-5.4 5-2.1 1.3-2.2 1-0.6 0.5-0.4 0.4-0.9 2-0.1 0.5-0.3 1.6-0.1 0.8 0.3 0.8 0.9 2.2 0.1 0.5 0.3 1.6 0.2 1.2 0.4 2.1-0.1 1.9-0.3 1.5-0.9 4.2-0.1 0.5 0.3 0.5 0.9 0.1 1 0 3 0.9 0.4 0.3 0.9 1.1 0.8 1.5 2.4 3.1 1.1 1.1 0.9 0.5 1.5-0.4 0.8 0 1 0.2 2 0.7 1.2 0.8 1.4 1.5 0.5 0.7 0.3 0.7 0 1 0.1 1.2 1 1.7 0.1 1-0.1 1 0.1 1-0.4 0.9-0.5 0.7-0.9 0.4 0.1 3.1 1.3 5 0.1 1.2-0.1 0.8-0.3 0.2-0.8 0.5 0.1 0.1 0.8 0.2 0.4 0.3-0.5 0.7-0.6 0.5-0.7 1.3-0.5 0.6-0.5 0.2-0.3-0.3-0.2-0.3-0.3-1.6-0.1-0.5-0.4-0.9-0.2-0.3-0.4-0.3-0.4-0.2-0.5 0-4.9 0.8-0.5-0.1-0.4-0.1-0.9-0.5-0.9 0-0.4 0.3-0.1 0.5 0 0.5 0.3 1.5 0.2 1 0 0.6-0.1 0.7-0.7 1.7-0.2 0.6-0.1 0.5-0.2 1.6 0.1 0.6-0.2 0.3-1.7 1-4.9 3.9-0.5 0.2-1.1 0.2-2.1 0.9-1.9 0.3-0.4 0.3-0.3 0.4-0.4 1.2-0.1 0.7-0.3 1-0.4 0.4-0.5 0.2-1.3-0.5-0.6 0-0.8 0.2-1.6 0.8-0.6 0.5-0.5 0.6-0.1 0.5-0.9 5.7-0.1 1.2 0.1 1.1-0.2 0.7-0.4 1.2-1.1 1.8-1.2 1.7-3.4 1.4-4.5-1.5-15.4-9.4-3.9-1.5-2.5-0.1-0.5-3.3-0.3-0.9-0.6 0-0.3 0.1-3.8-4.1-0.8-0.8-2.4-1.3-2.7-4.4-1-1.1-1.8-0.5-1.2-0.7-0.3-0.6-0.2-1 0-1.2-0.1-1.6-0.7-3-0.2-0.9 0.1-0.6 0.5-0.5 1.9-0.5 1.1-0.4 0.5-0.5 0.2-0.7 0.1-2.5 0.2-2.3 0.2-0.6 0.3-1 0.2-0.6 0.2-1.4-0.2-0.7-0.3-0.5-0.4-0.3-0.6-0.5-0.3-1 0-1.2-0.1-1-0.1-0.1-3.9-2.9-0.3-0.7-0.2-0.4 0.2-0.5 0.4-1.2 1.1-2.2 1.2-1.7 0.2-0.5 0.2-0.9-0.1-0.5-0.2-0.2-0.5-0.2-0.6-0.1-0.5 0.1-0.7 0.4-1.9 1.8-0.6 0.3-0.6 0.1-5.4-1.3-0.3 0.1-0.4 0.2-0.5 0.4-0.4 0.7-1.4 5.9-0.5 0.5-0.9 0.6-1.4-0.3-0.7 0-0.8 0.2-1.3 0.4-0.6 0.4-0.5 0.8-1 2.8-0.5 0.5-0.6 0.3-0.4 0-3-0.6-2.8 0.8-10.7 8.9-1.4 0.8-0.8-0.4-0.2-0.4-0.1-0.3 0.2-1.4 0.3-1.5-0.1-0.6-0.3-0.3-0.9-0.6-0.2-0.3-0.9-0.5-1.3-0.4-0.5 0-0.4 0.1-0.2 0.5-0.2 1.4-0.2 0.4-1 1.2-0.2 1-0.1 1.2-0.2 1.1-0.9 3.6-5.3-0.7-4-1.6-7.8-5.1-3.6-4-1.3-5.9-0.3-5-0.4-3.2-1.1-1-5.1-2.9-1.6-0.6-2.7-2.4-2.5-5.6-1.8-5.9-0.1-3.7-4-1.6-6.9-5.9-4.1-2.6-4-0.9-13.9-0.3-4.1-2-2.8-0.7-1.2 0.8-1.2 1.9-2.5-0.9-3.8-2.9-3.7-4.5-9-18.4 4.2-1.9 2.1-0.2 2.6 0.7 4.2 2.9 2.4 0.8 2.4-1.1 0.8-2.1 0.9-3.6 0.6-4 0-2.9-1.3-1.9-2-1.8-1.5-1.9 0.3-2.1 0-1.2-2.7-0.8-3.8 0.7-3.5 1.7-2 2.2-0.7 0-3-5.2-1.9-4.1-0.3-0.9 0.9-3.8 1.6-3.2 1.2-2.9-0.8-2.9 0-1.2 1.4-1.1 4.6-1.3 1.8-0.2 1.2-0.9 1.7-2.3 1.7-3 1.1-2.8-2.5 0.5-4.1 3.6-2.4 1 0.2-0.6 0.4-1.4 0.2-0.6-3.3 0.4-5.7 1.8-3.4 0.4-3.8-0.7-1.7 0.7-3.6 3.5-1.3 0.4-2.9-1-3.1-2.9-2.3-4.1-0.3-4.8 1.6-2 2.9-1.3 3.4-0.7 2.5 0.1 0-1.2-1.9-0.5-1.5-1.4-1.5-0.5-1.7 2.4-0.9-2.1 0.3-2.1 1-2 1.1-1.5 2.3 1 8.8-2.4 12 0 2.8-0.7 2.3-1.5 4.6-4.1 4.2-2 1.8-1.4 0.7-3.1 0-4.5-2.7-4.3-8.9-9.7-1.3-2-0.5-2-1-0.8-2.3 0-2.3 0.7-1.2 0.8-0.7-1.4 3.7-2.5-3.8-10.3-1.4-2.6-3.1-2-5.9-5.1-3.7-1.9 0-1.3 0.6-3.4-1.4-3.8-2.1-3.8-1.5-3.3-0.6-5 0.5-4.3 1.5-5.5 3.8 1.2 4 0.2 7.4-2.8 2.5-0.4 8.7 1.5 8.6 3.5 23.1 5.5 1.8 1.6 0.5 1.9 0.3 2.6 0.8 2.3 1.9 0.8 8 0 1.6-0.3 1.1-1.1 1.5-0.4 1.2-1.1 2-0.5 2.2 2.1 1.8 0.2 1.7-0.6 1.5 0 6.5-3.3 2-2.5 2.7-1.1 1.4-2.5 1.4-1.1 0.3 6.8 5.3 1.9 6.7 0.4 4.5 2 1.9 1.5 2.9 1.2 2.5 1.8 1.2 3.3 1.2 1.8 2.9-0.5 4.9-1.9-0.4-4 2.6-0.1 3.5 2.2 2.5 3.2 1.5 6.4 0.7 1.5 1 1.4 2 2.2-1.4 1.1-1.4-0.2-1.4-0.6-1-0.3 0.1 0.4-2.7 2.2-0.4 0-0.7 0.5-0.5-0.1-0.2 0.5-0.1 1.7 1.6 0.1 2.9-0.9 2.8-0.1 1.6 2.2 1.2-1 1.3-0.1 0.6 1.1-0.8 2.7 0.5 2.6 0.1 3.7-0.6 7.8-0.6 3.3-0.7 2.7-1.1 2.1-1.3 2-3.5 3.3-4.4 2.5-4.7 1.5-4.6 0.5 0 1.3 4.7 2.5 26.3-6.3 2 0.7 6.6 5.8-2.2 2.2 0 2 0.9 2.3 0.6 3-0.7 2.5-1.5 2.3-2 1.7-1.9 0.6 0.3 0.4 0.4 0.3 0 0.6-0.7 1.2 1.2 1.3 0.3 1.6-0.4 1.7-1.1 1.8 2.4-0.9 1.8-2.2 2.6-5.8 1.4-6.2 0.8-1.6 1.1-0.7 4.1-0.5 1.5-0.8 0.7-1 0.6-1.1 1-1 1.3-0.4 4.6 0.4 2.4 1.2 6.6 5.3 17.1 7.7 9.7 9.2 4.5 1.1 5-0.9 3.7-2.3 6.2-5.9 3.6-2.3 3.7-1.6 9.1-1.2 0 1.3-2 0.1-2.7 0 1.9 0.9 1.9-0.6 2.5 1.8 7.7-4.8 3.4 1.3-4 4.6-1.2 1.8-0.7-0.5-1.6-0.8 1.2 3.1 1 7.4 0.8 3.6-0.8 2.3 0.1 3.2 0.7 5.3-0.4 3.2-1.1 1.7-1 1.2-0.5 1.6-12.6 8.3-4.4 5.6-1.9 1.2-4.4 1.6-0.9-0.1-0.9 0.9-0.7-0.6-0.8-0.8-1-0.1-0.8 0.6-0.5 0.5-4.2 6.5-1.1 1.3 0 1.1 1.5 3.7 1.6 2.6 2 1.8 3 0.9 4.2-0.4 1.1 0.4 0.8 1.9 0.1 2.2 0.4 1.7 1.6 0.5 0.4 0.1z m-274-174.7l5.2 1.3 23.8-1.2-2.8 2.2-13.6-0.8-1.7 0.9-3 2.4-1.6 0.5-7.5 0-0.7-0.4-1-1.7-0.9-0.4-1 0-0.7 0.3-3.3 2.3-0.6 0.6-0.3 1.3-0.1 3.8-0.4 0.7 0.4 10.4-0.3 3.3-0.5 2.6-0.7 0.6-0.7-2.7-0.1-5 1.2-20.5 1.1-4 8.2-23.2 4.6-5.8 5.2 2.8-6.7 0.3-0.8 1 3 0.3 0.9 2.3-1 2.6-4.4 2.5-2.1 3.1-1.1 3.8 1 3.5-0.7 6.8 3.7 3.5z" id="DEU1579" name="Schleswig-Holstein">
 </path>
 <path d="M249.4 792.4l-0.5 2.9-0.4 1-0.5 1-0.2 1 0.2 0.7 1.5 3.3 0.5 1.5 0.4 2.6 0.4 0.9 0.3 0.6 1 0.5 0.1 0.4 0.4 0.5-1.1 2.8-1.7 4.4-0.4 0.8-0.5 0.5-1.7 1.3-0.8 0.3-0.4 0-1.1-0.1-0.7-0.5-1.8-2.4-0.4-0.3-0.5-0.1-1 0.1-1.2 0.3-0.7 0.5-0.5 0.6-1.1 1.6-0.6 0.7-0.7 0.4-0.5 0.2-0.4 2.1-0.3 5.6 0.2 1.7 0.3 0.6 0.6 0.6 1.1 0.5 0.1 0.2-0.4 0.8-1.6 1.7-0.5 1.4-0.4 1.8-0.5 1.7-1.4 1.1-0.2 0.8 0.3 0.4 0.5 0.4 4.6 1.1 0.3 0.2 0.3 0.3 0.1 0.7 0.1 0.6 0.2 0.4 1.9 0.9 0.6 0.9 2 4.7 0.7 1.4 1.1 1.1 1 0.6 0.2 0.1 0.7 1.5 1.3 4.3 0.3 0.9 0.1 0.4-0.1 1.1-0.2 0.5-0.8 0.7-1.8 0.4-5.5-0.2-0.4 0.3-0.4 0.5-0.4 1.2-0.1 1 1 1.2 0.1 0.4-0.2 0.4-1.2 1.9-0.4 0.8-0.5 0.4-0.7-0.1-0.5-0.3-0.5-0.3-0.4-0.6-0.6-0.6-0.5-0.2-0.7 0.6-0.7 0.9-3 1.4-1.5 1-1.8 0.9-0.7 0.7-0.7 1.2-1.3 3-0.2 1.5 0.1 1.2 0.4 0.6 0.7 0.8 2.1 1.2 0.3 0.2 0.2 0.4-0.1 0.8-0.5 1.6-0.2 0.7-0.2 1.6-0.2 0.1-0.7-0.3-0.9-0.7-0.6-0.8-0.4-0.3-0.4-0.1-0.6 0.2-0.9 0.3-0.6 0-0.6-0.1-0.4-0.1-0.5 0.1-0.5 0.5-0.8 1.5-0.3 0.9-0.1 0.8-0.1 1.5-0.4 0.6-1.1 1-2 0.9-4.3 3.4 0.5 0.4 1 0.4 7.1 6.4 0.8 1.4 0.3 2.1 2 2.9 4.4-0.1 4.7-1.6 5.2-2.7 4.2-3.3 13.6-4.6 3-0.1 1.3 0.3 1.7 1.1 11.6 13.3 2.2 5.7-1.7 5.9 0.9 2.1 2.5 3.7 1 2.4 0.4 1.7 0.3 1.4 0.4 1.5 2 3.8 0.6 1.3 0.2 1.2 0.9 1.8 2-0.2 2.2-0.5 1.5 0.6-0.3 1.7-1.4 2.3-2.4 2.9-3.5 0.7-3 2.1-1.8 3.2-0.2 4.5 1.6 3.9 2.7 5.2 1.8 5.2-0.9 4.1 2.1 3.5 2.4 7.2 1.5 3.1 0 1.1-2.3 1.2 0 1.1 1.8 0.8 2 0.2 1.8 0.6 1.1 2-0.3 0.3-1 2.7-0.2 0.3 0.1 1.4 0.7 2.7 0 1.7-3.9 8.9-0.2 1.4 2.5 0.9-0.3 2.1-7.6 8.9-1.3 0.7-1.2 1.2-0.7 2.9-2.1 15.9-0.5 1.6-8 16.6-2.3 3.6-3.5 3.8-3.3 1.2 0-0.1-1.2-1.2-10.7-2.2-17.3-9.2-1.9-0.3-6.2 0.7-9.1-2.7-1.2 0.4-2.6 1.4-1.3 0.3-1-0.1-2.3-0.9-1.2-0.2-1.4 0.3-1.3 0.6-1.3 0.3-1.5-0.3-1-0.9-1.1-2.2-0.8-1-2.4-1.2-4.7-0.9-2.4-1.5-1.4-1.8-2.5-4-1.5-1.6 0.2-0.5 0.2-0.4 0.8-0.5-0.7-2.5-2-0.7-4.7-0.3-0.4-1.9-2.1-0.1-2.2 0.6-0.2-0.5-2.2 0.1-2.1-1.8-3.8-4.3-0.1-0.3-0.2-1.7-0.2-0.9-0.4-1.4 0-0.8 0.2-0.7 0.8-1.7 0.5-0.1 0.7 0.1 0.5 0 0.6-0.3 0.7-0.8 0.7-1.2 0.4-1.3 0.1-1.2 0.3-1.2 0.6-0.8 0.7-0.6 0.4-0.5 0.1-0.7 0.3-1.8 0.2-0.5 0.5-0.6 1.3-0.9 0.4-0.5 0.4-0.6 0.5-1 0.1-0.6-0.1-0.5-0.4-0.8 0.2-0.9 0.6-1.2-0.6-1.5-1-0.6-2.7-1-5.4-0.9-1.1-0.7 0.5-0.9-0.3-0.7-1.8-2.3-2.6-3.1-0.7-2.6 0.5-0.8 0.4-0.1 0.6-0.5 2.1-2.7 0.9-0.8 0.8-0.5 1.1-0.6 0.4-0.5 0-0.8-0.1-1.2-0.2-0.9-0.7-0.2-0.4-0.1-0.3-0.5-0.1-0.8 0-2.2-0.1-1.5-1.3-2.5-0.6-2.1-0.1-2.6-0.6-0.3-0.6 0.5-0.7 0.6-0.9 0.6-1 0.4-2.1 0.5-1.1-0.2-0.7-0.2-0.6-0.7-4-2.9-2.4-2.3-0.6-0.2-6.6-0.3-0.7-0.2-0.6-0.4-6.6-3.7-2.2 1.6-0.8 0.2-1-0.8-1.5-0.7-0.7-0.1-0.6 0.2-8.4 5.5-16 7.4-1.7 0.3-0.4 0.1-2.5-0.3-7.1 3.3-12.5-0.7-14.5 1.4-0.9 0.1 0.2-1.6 0-5.4 0.6-1.8 1.7-2.6 2.8-3.5 1.1-2.3 0.8-1.2 0.3-0.7-0.1-1.2-0.6-0.6-0.7-0.5-0.2-0.5 1.7-2.4 8-5.2-0.2-0.4-0.8-0.8 0.4-0.9 0.5-0.2 0.9 0.4-0.7-1.1-0.6-1.2-0.2-1.4 0.1-1.5 1-0.9 0.1-0.7-0.3-0.7 0-1.2 0.5-3.7 0.2-0.1 0-1.4 0.2-0.2-0.5-0.7-0.5 0-3.3-1-5.2 0-1.9-0.5-1.9-1.2-3.1-3-1.8-1.1-1-0.1-1.6 1-0.9 0-0.1-0.6-1.1-2.9-0.5-0.9-1.6-1.1-3.7-1.6-1.7-1.8-3.6-8.6-1.9-3-1.1 2.3-0.9-1.5-1.6-4.8-1.9-2.8-0.5-1.4 0.3-1.9-0.7-3.5-0.7-1.4-1.2-0.7 1.1-2 0.4-0.5-0.9 0-0.2-0.1 0.7-4.8 0.5-2.3 0.7-2.5 1-1.2 0.3-1.1-0.3-1-1.1-0.9 0.2-0.9 0.4-1.9 0.2-0.5 0.9-0.6 2.2-0.2 0.8-0.5 0.6-1.6 0.1-2-0.6-1.9-1.5-1.6 1.2-1.5 2.4-1.7 1.1-1.7 2.3-1.1 4.6-1.3 2-1.8-0.4-1.5 0.2-1.7 0.7-1.7 1.1-1.3 1.5-0.9 1.2 0.1 1.2 0.5 1.5 0.3 2.9-0.5 1.3-1.5-0.1-1.3 2.7 0 2.4-1.1 0.6-0.5 0.1-0.5-0.3-0.6-3.5-5.7-0.1-0.9 0.2-0.4 0.5-0.5 0.5-0.1 0.5 0.2 0.8 0.7 0.5 0.9 0.1 0.4 0.3 0.4 0.6 0.6 1.8 0.9 0.4 0.5 0.3 0.5 0.4 1.9 0.4 0.3 0.7-0.2 1.8-0.7 4.9-3.6 0.2-0.2 0.5-0.2 4.4-0.7 0.6-0.2 0.8-0.5 0.5 0.1 0.9 0.3 1.9 1 0.7 0.6 0.3 0.6-0.6 1.2-0.2 0.4 0.2 0.4 0.6 0.1 1.1 0 1.6-0.8 0.8-0.7 0.6-0.5 0.9-0.1 1.2 0.8 0.7 0.7 1.4 1.7 1.8 0.4 5.7-1.9 2.7-0.5 0.3-0.2 0.2-0.5 0.2-0.7-0.2-1-0.2-0.6-0.3-0.6-1-1.5-0.2-0.6-0.3-0.7-0.2-1.3-0.2-1.6 0.1-2-0.3-0.8-0.6-0.6-1.5-0.6-0.3-0.3-0.1-0.3 0-0.6 0.3-0.9 0.6-1.5 0.1-1-0.1-0.7-0.1-0.8 0-0.3 1.8-1.1 4.1-1.6 0.7 0.1 0.1 0.5 0.7 1.3 0.6 1.1 0.7 0.6 0.7 0.4 0.7 0.3 0.7 0.1 0.5 0 1-0.2 0.8-1 0.8-1.5 0.2-3.4-0.1-1.6-0.1-1.2-0.2-0.7-0.1-0.8 0.5-0.6 2.6-0.8 1.6-2 0.7-1.3 0.2-0.5 0.3-0.5 0.6-0.3 0.9-0.3 2-0.2 3-1.2 5.7-4.1 1.1-0.4 1.4 0.1 1.7 1 0.4 0 0.5-0.1 0.7-0.4 0.6-0.9 0.3-0.7 0.2-0.7 0.3-0.2 0.5-0.1 2.3 0.9 1.2-0.3 2.6-2.8 0.8-0.3 0.9-2.1 0.3-0.9 0.3-0.2 0.3 0 0.7 0.2 0.8 0.4 0.3 0.4 0.3 0.7 0.1 0.6 0.4 0.5 6.1 0.4 1.3-0.2 5-1.5 0.5-0.2 2.9-2.2 0.2-0.3 0.1-0.5-0.1-1 0.2-0.7 0.2-0.8 0.7-1.1 0.1-0.8-0.1-1.3 0-0.6 0.1-1.3 0-0.4-0.4-0.6 0-0.2 0.7-0.9 2.6-0.7 4.1 0.3 9.1-2.5 3.4-2.1 0.9-0.4 1.1-0.1 1.9 0.4 0.4-0.3 0.4-0.5 0.4-1.3 0.4-0.6 0.4-0.5 1.1-0.6 3.4-1.3 0.4-0.2 0.3-0.4 1-1.8 0.6-0.5 0.3 0.5 0.4 0.4 0.3 0 0.5-0.2 0.3-0.2 0.3-0.8 0-1-0.1-0.8-0.5-1-2-2.1 4.1-2.5 0.6-0.5 1.7-2.1 0.7-0.4 2.5 1 0.4 0 0.3-0.5 0.1-0.8-0.1-1.9-0.2-0.8-0.2-0.6-0.4-0.3-0.4-1-0.1-0.8-0.4-4.3 0.1-1.1 0.2-0.8 3.4-3.3 1.4-0.4 6.4 1.7-0.4 2.5-0.5 1.6-0.3 0.7-0.2 0.7-0.3 1.5 0.2 0.6 0.4 0.4 1 0.6 2.9 1 0.8 0.8 3.3 3.7 1.2 1 0.9 0.5 0.7-0.1 1.4-0.7 0.6-0.1 0.3 0.1 0.3 0.6 0.4 1.1 0.6 2.8 0.2 1.3 0 1.5-0.3 1.6-0.1 1.3 0.1 0.7 1.1 2.2 4.6 6 1.8 3.2 0.2 0.6 0.3 0.9 0.2 1.3 0.3 0.4 0.6-0.1 2.7-1.3 0.6 0 1.2 0.3 3.1 1.9z" id="DEU1580" name="Rheinland-Pfalz">
 </path>
 <path d="M166.3 1049.2l-0.4 0.1-1.8 1.1-0.5 0.8-0.8 2.4-0.6 0.9-0.8 0.4-2.2 0.3-1 0.3-0.7 0.9-1.1 2.3-0.6 0.7-0.7-0.1-3-1.4-9.3-0.1-1.7-0.6-1.8-0.9-4.1-3-0.6-0.1-1 1 0.1 0.9 0.3 0.9-0.1 0.8-3.4 2.2-2.4-1.9-1.2-4.6 0-5.9-2.3-0.1-6.8-3.9-1.2-0.1-3.2 0.3-4.5-1.1-1.1 0.3-0.7 2.3 0.9 2.7 0.4 2.8-1.9 2.5-1.4 0.3-4.2-1.6-4.9 0-1.3-0.6-1.4-2.3 0.4-2 0.5-2.2-0.7-2.6-0.4 0-1.5 1-0.5 0-0.3-0.6-0.2-1.3-0.4-1.1-0.9-3-0.5-0.5-1.5-0.6-0.6-0.4-0.1-0.7 0.2-1.7-0.1-0.7-7.3-7-1.8-2.2-0.7-2 0.6-1.5 2-0.1 0.4-1.3-0.3-1-5.3-5.7-0.8-1.1 0.2-0.1 0-0.9-0.3-1.4-0.7-1.4-1.8-1.8-10-5-1.2-0.2-0.9 0.3-2.1 1.5-1.1 0.2-1-0.1 0-1.2-0.3-5.1 0.7-5.4 0.9-0.1 14.5-1.4 12.5 0.7 7.1-3.3 2.5 0.3 0.4-0.1 1.7-0.3 16-7.4 8.4-5.5 0.6-0.2 0.7 0.1 1.5 0.7 1 0.8 0.8-0.2 2.2-1.6 6.6 3.7 0.6 0.4 0.7 0.2 6.6 0.3 0.6 0.2 2.4 2.3 4 2.9 0.6 0.7 0.7 0.2 1.1 0.2 2.1-0.5 1-0.4 0.9-0.6 0.7-0.6 0.6-0.5 0.6 0.3 0.1 2.6 0.6 2.1 1.3 2.5 0.1 1.5 0 2.2 0.1 0.8 0.3 0.5 0.4 0.1 0.7 0.2 0.2 0.9 0.1 1.2 0 0.8-0.4 0.5-1.1 0.6-0.8 0.5-0.9 0.8-2.1 2.7-0.6 0.5-0.4 0.1-0.5 0.8 0.7 2.6 2.6 3.1 1.8 2.3 0.3 0.7-0.5 0.9 1.1 0.7 5.4 0.9 2.7 1 1 0.6 0.6 1.5-0.6 1.2-0.2 0.9 0.4 0.8 0.1 0.5-0.1 0.6-0.5 1-0.4 0.6-0.4 0.5-1.3 0.9-0.5 0.6-0.2 0.5-0.3 1.8-0.1 0.7-0.4 0.5-0.7 0.6-0.6 0.8-0.3 1.2-0.1 1.2-0.4 1.3-0.7 1.2-0.7 0.8-0.6 0.3-0.5 0-0.7-0.1-0.5 0.1-0.8 1.7-0.2 0.7 0 0.8 0.4 1.4 0.2 0.9 0.2 1.7 0.1 0.3 3.8 4.3 2.1 1.8 2.2-0.1 0.2 0.5z" id="DEU1581" name="Saarland">
 </path>
 <path d="M659.8 838.5l2.9-0.3 0.9 0.4 0.6 1 0.4 0.6 1.2 1.9 2.2 1.5 0.4 0.8-0.2 0.9-0.1 0.7 0.5 3.4 0.3 0.4 1.1 0.4 4.4 3 0.9 0.3 0.4 0.1 1.5-0.2 3.1 0.9 0.8 1.5-2.7-0.2 2.5 2.6 0.9 1.5 0.4 2.4-0.2 2.2-0.8 0.8-1.1 0.8-1.4 2 1.2 2 5.3 3.4 2.7 2.9 1.2 1.9 0.9 2.1 0.3 2.5-0.8 3.9 0.1 2.5 0.9 2.6 1.6 1.4 1.7 1 1.6 1.4 1 1.7 0.2 1.7 0 1.5 0.4 1.1 16.4 8.9 0.1 0 1.7 1.6 4 0.4 1.8 1.8 0.3 2.5-0.7 2.2-0.2 1.9 4.5 2.6 1.5 0.6 0.7 1.2-0.3 3.3-0.9 2.6-2.5 4.6-0.8 2.7-2.2-0.7-0.6 2.4-0.1 3.5-0.3 2.8-1.8 1.7-4.5 2-1.3 2.5 0.6 1.8 1.1 2.1 2.3 3.3 1.5 1.4 1.7 1.1 3.6 1.8 1.5 0.8 0.9 1.7 0.1 2.3-0.9 2 0.2 0.3 0.9 0.4-0.5 1.3-0.1 0.4 1.1 1.4 2.6 1.4 1.2 1.3 0.7 1.8 0.5 3.7 0.5 2 0.7 2 0.7 1.5 0.8 1.3 1.2 1.2 1.2 0.4 1.2-0.2 0.8 0.7 0.1 2.8 0.3 5.5 0.6 2.7 1.2 2.4 2.2 1.8 5 2.4 2.2 2.3 3.5 8 1.8 1.7 2.1 0.8 6.4 1 2.1-0.3-0.5-2.2 1.5-0.4 4.1 1.1 1.9 1 1.6 1.3 3 3.2 1.9 0.8 0.6 1.4 0.2 1.6 0.5 1.6 3.4 4.1 1.4 0.8 10.2 13.9 1.4 3.3 1.8 2.8 3 1.8 6.6 0.3 2.2 0.8 1.3 1.2 3.3 4.4 4.7 4.7 1.2 2.9 0 4.7 1.6 2.5 3.1 3 3.5 2.5 2.5 1.2 1.1-2.9 1.1-1.8 1.5-0.7 2.5 0.5 1.9 1.2 1.8 1.5 1.9 1 2-0.2 0.2 3.1 1.2 3 1.7 2.6 1.9 1.9 2 0.9 4.1 0.7 1.5 0.8 2.5 4 5.3 10.5 2.1 2.2-3.2 6.9-0.3 1.6 0.6-0.2 1.1 2.3 0.6 0.5 1.3 0.6-1.4 1.4-0.3 2 0.6 5.3-0.1 2.8-0.3 2.3-0.7 2.2-1.9 4.1-0.5 0.7-0.9 0.9-0.9 0.4-2.2 0.4-0.4-0.1-0.9 1.9-1 4.4-0.2-0.3-4.5-2-1.7-2.6-1.7-1.3-1.9-1-11.3-3.2-3.6 0.5-3.6 1.3-1 1-0.6 1.1 0.1 0.6 0.3 0.7 0.5 3 1 1.6 0.2 1.4-0.3 1.6-1.5 3.1-0.5 1.5-0.2 1.6 0.2 4.6-0.2 1.7-0.5 1.2-0.5 0.8-0.2 0.8-0.6 3.5-1.5 2.6-10.7 9.3-3.6 2.1-15 2.6-11.3 4.5-1.8 1.2-4 4-3.5 1.9-1.7 1.4 0.1 0.4-6 1.1-1.6 0.9-1 1.1-2 3.2-1.4 1.6-4.4 3.1-0.4 0.5-1.6 2.4-0.6 0.3-0.7 0-0.7 0.2-0.7 1.2-0.2 2.2 0.5 2.2 1 1.9 1 1.6 7.7 8.1 1.6 3.6 0.3 2 0.6 1.7 0.9 1.3 2.6 1.6 2.2 2.2 0.9 0.5 1.8 1.8 3.7 8.6 2.4 3.5 0.5 0.5-7.1 11.4-0.5 1.2-0.3 1.1 0 1-0.2 1.1-0.7 1.1-2 3.2 1.7 1.8 6.1 1.1 1.6-0.3 2.8-1.2 1.7 0.3 1.3 1 1.4 1.6 2.1 3.7 0.9 2.3 0.3 2.1-0.1 2-0.2 1.9-0.3 0.4-1.3 3.2-0.1 0.4-1.7 2.3-0.3-0.1 0.1 3.7 0.1 0.1-1 2.6-0.3 0.5 0 2.8 0.1 1 0.2 0.9 0.4 0.8 0.3 1 0 1.3-3.1 3.7-0.8 0.7-1.1 0-0.7-0.4-0.6-0.6-1.1-0.6-1.1 0-0.9 0.5-0.9 0.3-1.2-0.4-5.4-4.1-4.9-5.5-0.9-0.7-1.1-0.4-1.6-0.3-2.7-2.2-0.6-3.9 1.3-3.8 3-1.5-2.2-2.1-2.8-1.8-1.7-2.1 1.1-2.9-1.8 0.3-6.2-1.6-3.8 0-3.9 0.9-2.1 1.1-4.8 4.3-1.7 0.8-2.3 0.4-2.3 0-1.5-0.8-3.2-2.6-0.9-1-0.6-1.4-1.1-3.4-0.6-1-1.7-0.3-4.3 1.6-1.9 0.3-6.3-1.3-2.3 0.3-2.5 1.3-1.1 0.2-1.1-1-0.6-1.8 0.3-1.1 0.7-1 0.4-1.2 0.3-1.8 0.3-0.7-0.2 0.1-1.6 0.7-1 0.5-2.6 2.2-1.7 0.7 0.2 1.4 0.4 0.9 0.8 1 0.9 0.9 0.5 0.4 0.3 0.9 0.2 4.3-0.1 1.5-0.4 1-3.1 4-0.9 0.2-25-1.1-9.1 1.9-1.3 0.7-1 2.8-1.2 0.3-6.1-1.2-8.9-0.1-4.7-0.9-2-0.1-0.4 0.5-3 2.6-0.8 1.7-0.8 3.8-0.6 1.5-2 2.2-2.3 0.9-5.1 0.9-2.5-0.8-2.7-0.4-2.4 0.6-5.2 5.9 1.4 0.4 1.1 0.8 0.5 1.2-1 1.6-1.7 0.7-4.8 0.1-2 0.7-2.1 2-1.4 1.9-1.6 1.7-2.4 1.1-2.6-0.3 0.3-4.4-2.4-1-2.7 0.8-7.1 4.9-2.1 0.7-11.4-0.2-1.5-0.9-1.1-2.2 0.2 0 0.4-0.7 0.2-1.1 0-1.1-0.3-0.7-5.5-5.9-5.6-2.6-0.7-1.3 3.5-2.4 0.9-1.1-2.5-1.9-1.1-0.7-1.5-0.1-1.6 0.5-4.4 2-3.2 0.4-0.9-0.3-0.6-0.8-0.3-0.8-0.5-0.5-14.3-5.5-2.7 0-1.5 1.1-2.2 3.1-1.4 1.1-1.2 0.2-4.7-0.7-1.7-0.8-0.9-0.6-0.5-0.8-0.2-1.4 0.4-1 0.5-0.8 0.1-0.6-0.4-1.5-0.4-0.3-0.9 0.3-1.8 0.4-1.6 0.6 0.1 1.4 1 1.8 0.7 1.8-0.1 1.5-1.1 6.4 1.5 0.8 0.9 1.1 0.6 1.4 0.5 2 0 3.5-1 3.6-1.6 3.2-1.8 2.4-0.9 0.7-2.3 0.8-1.1 0.7-0.7 1-2.4 4.9-2 2.7-2.1 1.9-4.9 3-2.3 0.9-8.7 1.1-0.5-0.3 0.5-1 1-1.8 0.4-0.3 1.4-0.4 0.6-0.6 0.2-1 0-1-0.3-1 2-6 0.1-2.9-2-1.1-4.8 0.9-1.3 1.4-0.5 0.4-0.5 0-1.1-0.7-0.6-0.1-1.4 0.7-0.8 0.6-0.8 0.1-1-1.1-0.6-1.5-0.1-1.7-0.3-1.7-1.2-1.4 2.5-1.9 0.5-1.7-1-1.9-5.3-7.9-1.3 0.6-0.9 0.8-1 0.5-1.2-0.8-0.2-0.9 0-1-1-2.1-1.3-1.4-1.2-1.5-0.3-2.7-1.3 1.1-1.6 0.3-3.3-0.3-3.2-1.2-0.6 0.2-1.3 0.8-0.9 0.1-2.2-1.1-0.4-1.8 0.2-1.9-0.4-1.9-1.3-1.4-1.5-0.6-1.6 0.2-1.6 0.8-2.4 2.8-1.3 3-4.6-1.2-4.6-3.3-2.9-1.5 0.5-0.7 0.8-0.4 3-0.6 0.8-0.3 0.5-0.3 0.2-0.7 0.4-0.7 1.7-0.8 0.7 0 3.1 1.1 4.9-2.5 8.1-7.3 2-1.1 1.3-0.4 0.8 0.2 3.6 1.6 2.6 0.7 2.6-0.1 1.8-0.4 2-0.8 2.3-1.3 2.7-0.8 1.3-0.1 0.7 0.2 0.6 0.2 0.3 0.4 0.5 1.9 0.4 1 0.7 1.3 1.1-1.3 0.1-2.4 0.2-0.7 0.2-0.4 0.4 0 2 0.8 1 0.1 0.4-0.2 0.2-0.3 0.4-1 0.1-0.8 0-0.5-0.1-0.4-0.4-1.1-0.4-1.7-0.4-3-0.1-4.7-0.1-0.7-0.4-0.7-0.2-0.1-0.9 0-0.5-0.4-0.3-0.7-0.3-0.7-0.8-0.6-0.7-0.7-0.1-0.5 0.2-0.5 0.5-0.9 0.4-0.5 0.4-0.1 1.8 0 0.6-0.6 0.4-0.9 0.2-0.3 1-0.5-2-4.6-0.4-1.5-0.6-1.2-0.3-0.1-0.2 0.1-0.5 0.1-0.5-0.2-0.2-0.6 0-0.2 0.4-0.5 0.6-0.6 0.3-0.7 0.3-2 0.1-0.5 0.5-0.7 0.1-0.8 0.2-1.2 0.1-3.9-0.1-0.6-1.3-1.3-0.2-0.4-0.9-1.9-0.2-1 0-0.6 0.3-0.5 0.6-0.6 0.8-0.5 3.2-9 0.8-3.6 0.3-4.3-0.1-1.8-0.4-2.1-2.9-6.6-4.3-19.8-1.7-5.9-0.5-0.9-1.5-2.3-1.5-2.6-2-4.5-0.2-0.3-0.3-0.1-1 0-1-1.8 6.1-8.5 0.8-0.6-0.3-0.9-0.1-0.7 0-0.6 0.6-1.3 0.5-0.7 0.9-1 0.6-0.5 0.4-0.1 1.3-0.1 2-0.5 0.3-0.2 0.8-0.7 1.4-1 0.4-0.1 0.6 0 0.3 0.2 0.4 0.4 0.3 0.9 0.1 1 0.2 0.6 0.6 0.4 0.6 0.1 10.6-6.4 0.3-1.9 0.4-0.7 0.6-0.8 0.6-0.4 0.9-0.3 4.2-0.2 0.5-0.2-0.6-0.4-0.3-0.4 0.1-1 1.1-3.1 0.2-1 0-0.8-0.1-1-0.3-1.2-0.5-1-0.3-0.6-0.2-0.7 0-0.7 0.2-0.6 0.6-0.3 0.9-0.3 0.2-0.3 0.5-0.6-0.1-1-0.4-0.5-0.9-0.5-0.6-0.6-0.6-0.6-0.5-0.5-0.7-0.4-0.6-0.2-0.4-0.3-0.4-0.6-0.2-0.6-0.2-0.4-0.5-0.6-0.4-0.6-0.5-1.2 0.1-1.9 1.4-1.7 0.8-1.4 0.4-0.5 0.4-0.1 0.6 0.5 0.9 1.1 0.5 0.4 0.4 0.2 0.6 0.2 2.3-0.2 0.5 0.2 0.4 0.5 0.8 2 0.7 1.2 0.4 0.3 0.3-0.1 0.4-0.3 5-5.7 0.7-0.6 0.5 0 0.4 0.2 0.3 0.3 0.3 0.5-0.3 0.5-0.4 0.1-0.1 0.5 0.1 0.9-0.6 1.3-0.1 0.7 0.1 0.4 0.3 0.6 0.3 0.2 1.5-0.8 4.7-4.4-2-3.7-0.2-1.1-0.4-0.9-0.4-0.3-0.8 0.1-2.1-1.1-0.8-1-0.1-0.5-0.1-0.8 0-0.9 0.1-0.8 0.2-0.5 0.4-0.5 0.2-0.5 0-0.9-0.1-2.2 0-1 0.2-0.7 0.4-0.4 0.7-0.6 0.3-0.6 0.5-2.1 0.1-0.7 0-0.5-0.2-0.5-0.9-1.5-0.1-0.8 0.5-1.6 0.4-4.5 0-1.2-0.1-0.7-1.1-1 0-0.4 0.3-0.2 1.2-0.4 0.9-0.7 0.1-0.5-0.1-0.5-0.5-1.5-0.5-1.5-0.5-0.7-0.6-0.5-0.3-0.4-0.4-1.4-0.2-0.3-1.9-2.2-0.8-1.7-4.6-3.8-0.6-0.9-0.4-1.6-0.4-1.3-0.3-0.5-0.3-0.3-1.3 0-0.6-0.1-1.9-1.2-0.8-0.2-0.8 0.1-0.5-0.1-2-0.7-0.5-0.3-0.3-0.3 0-0.5 0.3-0.7 0.1-0.5 0-1-1.7-1.4-0.4-0.7 0-0.4 0.4-1.3-0.3-0.5-0.5 0-1-0.4-1.2-0.7-0.4-0.3-0.2-0.4 0.3-0.4 0.4-0.1 0.9 0 0.7-0.3 0.4-0.4 0.3-0.9 0.3-0.5 0.2-0.6 0.2-0.7 0.2-1.9-0.1-0.9-0.1-0.7-0.2-0.2-1.7-1.7-0.5-0.2-0.8 0.1-1.2 0.8-0.5 0-1.5-1.5-2.2-3.2-0.9-0.8-1.9-1.4-0.9-0.8-0.3-0.4-0.1-0.3 0.4-0.3 0.5 0 0.4-0.3 0.3-0.6-0.2-0.4-0.3-0.4-0.7-0.8-0.4-0.6-0.2-0.6 0-2.8-0.1-0.7-1.5-1.7-0.3-0.6-0.1-0.6 0.2-0.7 0.4-0.1 0.9 0.6 1 0.5 0.5 0 0.3-0.2 0.2-0.3 0.1-1.1-0.3-0.9-0.7-1.6-0.3-0.9-0.1-0.6 0.8-2.3 0-0.6-0.2-0.4-0.3-0.3-0.7-0.1-0.5-0.3-0.8-0.5-1-1.4-0.3-1.2 0-1 0.2-0.6 0.1-3 1.9-2.4 0.5-0.1 0.8-0.1 0.6 0.4 0.6 0.2 0.8 0.2 0.2-0.3-0.1-0.4-3.1-7.8-0.4-0.6-0.5-0.2-2.1-0.8-0.3-0.3 0.1-0.4 0.2-0.3 0.7-0.8 0.4-0.8 0.8-2.8-1.1-2.4-0.2-0.9 0.6-1.3 0.3-0.9 0-0.6-0.1-0.4-0.5-0.4-0.3-0.2-0.9 0.1-0.7-0.3-0.8-0.5-0.2-0.4 0-0.3 0.7-1.8-0.1-0.6-0.6-0.5-1.2-0.6-2.6 2.1-0.5 0.7 1 1.3 0.1 0.4 0.1 0.9-0.2 0.5-3.1 3.5-1.1 0.8-0.9 0.5-7.8 0.2-1-0.2-0.2-0.2 0-0.8-0.5-3.3 0-0.7 0-0.7 0.2-0.8 0-0.8 0-0.8-0.2-1.4-0.2-2.2-0.4-0.7-1.5-1.2 0-0.3 0.4-0.6 0.3-0.8-0.2-0.7-0.5-0.5-0.4-0.2-0.4 0.1-0.7 0.6-0.6 0.8-0.3 0.6-0.4 0.4-1.1 0.4-0.4 0.3-0.2 0.4-0.2 1.1-0.2 0.6-0.4 0.6-1 0.5-0.6-0.1-0.8-0.5-0.3-0.5 0-0.5 0.3-0.5 1.5-1.6 0.5-0.7 0.1-0.9-0.2-0.9 0.1-1.1 0.2-0.5 0.9-1.4 0.9-0.9 0.1-0.4 0.3-0.8-0.1-0.7-0.2-0.5-0.5-0.8-3.8-4.1-0.5-0.7-0.2-0.6-0.1-1.4 0.1-3.5-0.1-1.1-0.1-0.3-3.1-3.8-0.7-1.1-0.5-0.4-0.9 0.6-1.7 0.7-0.5 0.4-0.4 0.4-2.2 2.1-0.6 1.1-0.3 0.3-0.5 0.2-0.5-0.4-1.1-2.4-0.1-1-0.1-0.9-0.1-0.7-0.2-0.3-0.3 0-0.3 0.2-0.4 1.1-0.3 0.3-1.2 0.6-0.3 0.2-0.2 0.9-0.1 1.1-0.2 0.8-0.5 0.4-0.7 0.2-1.5-0.2-1-0.4-0.8-0.6-0.5-0.4-0.1-0.4 0.1-0.7 0.8-1.7 0.1-0.7-0.2-0.8 0.3-0.6 0.5-0.3 0.2-0.6-0.2-0.9 0-0.6 0-0.5 0.6-1.3 0-0.6-0.3-0.9-0.1-0.9 0.1-0.5 0.6-0.8 0.1-0.4 0-0.4-0.2-0.7-0.4-0.3-0.3-0.1-0.4 0.2-0.5 0.4-0.9 0.6-1.9 0.7-1.1 0.3-3-2-0.6 0.4-1.3 0.4-1.3-0.2-5.9-2.7-2-0.1-3.9 0.6-3.9 1.4-5.3-0.3-1.4 0.4-1.2 0.8-1.1 1.2-0.6 0.9 0.8 2.7-0.2 0.9-0.6 0.9 0.1 1.2 0.6 0.6 0.9 0.3 3.7 0.6 0.6 0.3 0.3 0.4 0.2 0.6-0.1 0.6-0.4 1.2 0 0.7 0.2 0.4 0.8 0.1 0.8-0.4 0.2-0.4 0.3-0.5 0.3-1.3 0.1-0.3 0.3-0.4 0.8-0.2 2.1 0.9 0.3 0.3 0.4 0.5-1.3 6.8 0 0.8 0.4 0.8 0.4 1.2-2 1.9-0.5 0.1-0.6-0.2-1.3-1.4-0.6-0.3-3.1 1.4-1.2 0.3-1.5-0.1-0.9 0.1-0.8 0.3-1.6 0.9-0.5 0.5-0.3 0.7 0.4 2.7-0.2 0.2-1 1-0.3 0.4-0.2 0.4-0.4 1.4-0.2 0.6-0.5 0.9-0.5 0.4-0.6 0.2-6.6 0.1-1.6-0.3-6.2 1.3-0.3 0-0.9-0.7-1.5-2.7-2.2-2-0.4-0.7 0-0.6 0.9-1.2 1.1-1.2 0.9-0.8 0.4-0.2 0.6-0.7 0.3-0.8-0.1-1-1.1-4.5-0.2-1.4 0.1-0.9 0.5-0.2 1.2-0.1 0.4-0.1 1-0.5 0.6-0.7 0.2-0.3 0-0.5-0.4-1.4 0-0.7 0.1-0.7 0.3-0.8 1.4-3 0.1-0.6-0.3-0.5-1.7-0.7-0.9-0.6-0.3-0.6 0-0.7 0.3-0.7 1.5-2 0.5-1 0-0.6-0.2-0.6-0.3-0.5-0.7-0.4-0.9 0.1-0.4 0.2-0.5 0.1-0.5-0.1-0.5-0.3-0.5-0.7-0.4-0.8-0.5-1.7-0.1-1.1 0-1.1 0.3-1.3 0-0.7-0.2-0.6-0.4-0.1-0.5 0.5-0.9 1.6-0.3 0.2-0.2 0-0.3-0.4-0.2-0.7-0.4-0.5-1.4-4.4-1-2.8-1.4-4.2-0.1-0.7 0.2-12.5 2.3 0.9 0.5-0.3-0.1-0.3-0.8-1.5-0.5-1.3 0.1-1.9-1-1.7-0.6-3.7-0.1-0.3-0.5-0.6-1.1-0.2-1 0.2-0.5 0.6-0.6-0.1-0.9-0.7-0.8-0.5 0.3-0.4 1-1.3 0.3-0.2 0.4 0.2 0.5-0.1 0.4-0.2 0.3-0.3 0.2-0.7 0-0.6 0.1-2.5 0-0.8 0.2-0.6 0.4-0.7 0.6-0.4 0.5-0.3 3.6-0.8 5.5-2.6 0.3-0.1 0.7 0.1 0.4 0.2 1.4 1.2 0.6 0.3 1.5 0.5 0.2 0.2 0 0.5-0.7 1.1-0.2 0.7 0.3 0 0.8-0.4 1.6-1.1 1.8-2.3 0.3-0.5 0-1.3 0.1-0.7 0.2-0.3 0.5-0.3 3.4-1 0.7 0 0.6 0 1.1 0.3 4.9 0.1 1.1 0.4 0.5 0.1 1.4-0.1 0.6 0 4.2 2 1.1 0.7 0.7 0.8 0.3 0.7 0.5 1.4 0.2 0.4 0.7 1.1 0.7 0.9 2.6 0.4 1.7-0.3 6.6-2.8 0.8-0.8 0.3-0.6-0.6-3.1-0.1-0.5 0.2-0.9 0.3-0.9 1.3-2.6 0.2-0.6 0-0.3-0.4-0.5-0.3-0.1-1.9-0.2-0.3-0.2-0.3-0.4-0.1-0.7 0.2-1.3 0.8-2.4 0.1-0.7-0.3-3.4 0.1-1.1 0.2-0.4 0.3-0.1 1 0.4 0.6 0.2 0.4 0 1-0.6 0.3 0 0.5 0.2 0.3 0.4 0.5 0.8 0.5 0.4 0.2 0 1.7-0.5 0.9 0 0.4 0.2 0.3 0.3 0.8 0.3 1.6 0 2-0.7 3.3-1.1 0.5-0.7-0.6-0.6-0.2-0.9 0-1.2 0.8-2.3 0.9-1.2 0.7-0.8 1.5-0.7 1.1-0.2 1.9-0.9 1.8-1.2 0.7-0.7 0.4-0.7 0.1-1.6-0.1-1.5-0.2-1.6-0.4-2.4 2.6-9.4 1.4-2 0.5-0.2 1.3-0.7 0.4-0.1 0.5 0.3 0.3 0.3 0.8 1.2 0.6 0.7 0.9 0.8 0.7 0.3 0.5 0.1 0.9 0 1.3-0.1 6.4-2.6 6.8-4 2.2-1.9 1.3-2.1 1.1-2.3 2.3-3.9 0.2-0.4 0.3-1.1 0.7-1.8 5.9-6.7 1.8-1.3 0.2 0.3 0.1 0.5-0.1 1 0.3 0.7 0.4 0.3 0.6 0.1 5.3-0.5 1 0.1 0.6 0.3 0.6 0.9 0.7 0.5 0.3 0.4 0.3 0.4 0.2 1 0.4 1.2 0.2 0.9 0.4 0.5 0.7 0.5 8.8 3 1 0.5 0.5 0.6 0.1 0.4 0.4 1 0.1 0.8-0.1 1.6 0.2 0.4 0.2 0.4 1.6 1.3 0.5 0.6 0.5 0.7 0.4 0.7 0.5 0.5 2.9 2.4 0.2 0.6-0.1 0.4-0.8 0.9-0.1 0.5 0 0.6 0.6 1 0.4 0.3 0.4 0.3 2.1 0.2 1-0.2 1-0.4 0.7-0.2 0.3 0.3 0.3 0.9 0.3 0.8 0.4 0.6 0.5 0.6 3 2.5 0.2 0.5 0.1 0.5-0.1 0.6 0.2 0.4 0.3 0.1 1.4 0.1 1 0.2 0.5-0.1 1-0.8 1.8-0.3 1.5 3.2 0.9 1.1 1.5 0.8 0.4 0.5 0.1 0.6 0 0.8 0.2 1.1 0.5 2.1 0.1 1.1 0 0.8-0.2 0.6-0.1 0.9-0.2 0.6-0.2 0.8 0.1 0.6 0.4 1 1 1.9 0 0.7-0.1 0.5-0.3 0.5 0.1 0.8 0.5 0.9 0.9 1 4.9 0 2.7 0.8 1.4 1.1 1.5 0.9 0.7 0.1 0.5-0.1 0.2-0.4 0-1.8 0.5-3.6 0.8-0.9 0.5 0 0.4 0.1 0.7 0.5 0.6 0.1 0.8 0 3.5-0.8 0.5 0.1 1.5 0.8 1.3 0.3 0.7 0 0.6-0.2 0.5-0.7 0.2-0.8 0.1-0.6-0.1-1-0.2-0.9-0.4-0.8-0.4-0.2-1.9-0.5-0.8-0.4-0.6-0.7-0.4-1.2-0.2-0.4-0.8-0.3-1.9 0.1-0.9-0.2-0.6-0.5-1.3-1.5-0.2-0.2-1.3-0.9-1.2-0.5-0.8-0.7-0.5-0.7-0.1-1.1 0.4-4 0.5-0.9 0.5-0.6 0.9-0.1 1.5 0.7 0.6 0.1 0.4-0.2 0.3-0.4 0.5-1 1.6-2.6 0.5-0.6 0.5-0.3 0.6 0.1 1 0.5 0.6 0.1 0.8-0.2 0.4-0.2 1.4-1 0.4-0.1 0.4-0.1 2 0.4 0.8-0.4 0.5-0.3 0.7-0.1 0.6 0.3 0.3 0.3 0.4 0.7 0.4 0.6 0.6 0.1 0.4 0 2.8-1 0.9-0.1 0.8 0.2 3.7 5.5 0.5 0.4 0.6 0.5 0.3-0.2 0.2-0.6 0.2-1.3 0.4-0.2 2.9 0.4 0.8 0.5 0.6 0.6 0.5 0.9 0.4 0.3 0.5 0 1.5-0.7 0.5-0.1 1.5-0.2 0.4-0.1 0.3-0.3 0.6-0.8 0.4-0.4 1.2-0.3 0.4-0.1 0.3 0.3 0.3 1 0.4 0.7 0.3 0.2 0.7-0.1 0.4 0.2 0.3 0.2 0.9 1.5 0.4 0.7 0.5 0.7 0.3 0.8 0 0.4-0.2 0.5-2.1 2.5 0.8 1.3 5.4 5.1 1.1-2 0.5-0.3 1 0.9 0.5 0.4 2.5 0.7 0.8 0 0.4-0.3 0.2-0.3 0-0.7-0.2-1.3 0.3-1 0.7-1.1 0.2-0.7 0-0.6-0.2-0.4-0.6-1.1 0-0.6 0.2-0.8 1-2.2 0.1-0.5-0.2-0.9 0-1.1 0.3-0.2 0.8-0.2 0.2-0.5-0.3-1.2-0.1-1.4-0.3-0.8-0.8-1-0.2-0.4-0.1-0.5 0.1-0.7-0.1-0.5-0.4-0.7-0.2-0.5 0-0.6 0.4-3 0-0.6-0.2-1.4-0.1-0.4-0.4-1-0.2-0.8 0.3-0.6 0-0.7-0.4-0.9-0.5-1.8 3-1.5 2.1-0.5 2.3-1.4 0.3-0.5 0.2-1.4 0.4-0.7 0.6-0.4 0.8-0.3 1-1.2 6.9 0.4 1.8 0.5 1 1.8 0.3 1-0.1 0.4-0.2 0.3-1 0.7-0.7 0.5-0.2 5.8 0.1 0.7 0.2 0.8 1.1 0.5 1 0.9 0.9 1 0.5 0.2 0.5 0.1 0.4-0.2 0.5-0.2 0.5 0.1 0.7 0.3 0.3 0.4 0.2 0.5 0.2 1.4 0.1 2.5 0.3 0.4 0.7 0.6 0.9 0.5 1.7 1.5 0.9 0.4 0.6 0.2 0.8-0.3 1.5-0.2 0.4-0.2 0.3-0.3 0.2-0.3 0.3-0.9 0.3-0.4 0.4-0.2 0.9-0.1 1.4 0.1 3.3 1.3 12.8-2.7 1.9-0.6 0.5-0.9 0.8-0.2 1.8-0.2 0.7 0 0.6 0.1 0.4 0.8 0.9 0.7 1.2 0.4 0.3 0.2 0.2 0.3-0.2 0.4-0.1 0.4 0.2 0.5 0.6 0.1 0.7-0.4 0.3-0.3 1.2-0.5 2-0.5 0.5-0.3 1-0.7 2.6-1.4z" id="DEU1591" name="Bayern">
 </path>
 <path d="M833.5 448.3l0.1 0.9-0.2 1.6-0.1 1 0 0.8 0 1 0.4 0.7 7.2 8.4 2.3 1.8 1.4 0.5 0.9 0.9 1.6 0.8 2.3 0.3 0.1 1.4-2.5 6-0.2 1.3 0.3 0.6 4.1-0.4 1.5 0.7 2 2.6 4.3 2 0.7 0.6 1 1.1 0 0.6-0.2 0.4-1.1 0.9-0.1 1.2 0 1.1-0.2 0.7-0.3 0.6-1.9 1.6-0.4 0.5-0.5 0.6-0.4 1.2 0 1 0.3 1.6-0.1 0.9-0.1 0.7-0.2 0.4-0.4 0.5-0.4 0.3-2.5 0.8-0.7 0.6-1.4 3.1-1 0-0.2-0.5 0-0.4-0.2-2.4-0.4-2.7-0.6-1.1-0.6-0.4-1.2 0.1-0.6 0-2.7-0.9-2.1-1.2-4.1-1.7-0.9 0-0.6 0.2-0.6 0.7-0.6 0.3-0.9 0.1-1.2-0.2-0.5-0.3-0.4-0.6-0.3-0.6-0.5-1.2-0.6-0.3-0.5-0.2-1 0.2-1.7 0.6-0.7 0.5-0.2 0.4-0.1 0.5 0.1 1 0.2 0.9 0.1 1-0.2 1.3-3.5-0.1-2-0.9-0.4-0.5-0.7-1.1-1.2-1.1-0.6-0.8-0.3-0.2-1 0.2-2.6 1-0.9-0.3-0.6-1.4-0.4-0.7-0.2-0.2-0.9 0.5-3 1.2-0.6 0.1-0.5 0-0.9-1.1-1.4-0.8-0.8-0.3-0.6 0-4.5 2.2-0.6 0.6-0.4 0.6-0.7 0.3-3.8-0.8-1.1-0.5-1.8-1.4-0.4-0.4 0-0.5 0.2-0.3 1-1.3 0.3-0.5 0-0.7 0.2-0.4 0.6-0.6 0.4-0.4 0-0.2-0.5-1.1-0.1-0.4-0.2-1 0-0.6 0.2-1.1 0.2-1.1 0.4-0.9 0.3-0.3 0.8-0.4 0.3-0.3 3-3.5 0-1-1.7-3.1 0.2-5 0.5-2.6 0.1-1.6-0.1-1-0.3-0.7 0.1-0.5 0.7-1.8 0.6-0.4 0.8 0.3 4.6 2.1 1-0.1 0-0.4-0.2-0.6-0.3-0.6-0.3-0.8 0-0.6 0.2-1 1-2.9 0.3-0.3 3.2-0.4 1-0.6 1.2-1.1 0.4-0.9 0.4-0.8 0.3-1 0.3-0.3 0.4-0.2 1.2 0 0.3 0.1-0.3 0.6-0.1 0.3 0.4 0.8 0.1 0.4-0.1 1.7 0.2 0.4 0.6 0.6 1.8 0.8 4.1 0.3 1.1-0.3 0.6-0.2 0.2-0.4 0.1-0.4 0.6-1.1 2.6-2.1 2.1 1.4 0.7-0.1 0.5-1.1 0.3-0.4 2.5-2.4 0.6-0.1 0.3 0.4 0.3 0.7 0.5 0.6 1.7 1.6 0.2 0.3z" id="DEU1599" name="Berlin">
 </path>
 <path d="M785.6 630.8l-1.9-0.5-2.3-2.4-0.8-0.6-0.7-0.3-0.8 0.3-0.5 0.3-0.7 0.7-1.4 0.3-1.5-1.9-2.4-1.2-1.3-0.2-1.7-0.6-1.3-1-1.2-2.6-3.2 0.3-1 1.5-5.7 4.8-2.1 1-3.1-1.4-4.1-0.6-1.6 0.9-1.1 1.9-0.8 1.7-0.8 0.9-1.5 1.1-0.7 0.1-0.5-0.1-0.5-0.8-0.5-0.1-10.5 1.8-1.4-1-7.9-0.5-0.8 0.1-1 0.5-0.4 3.3-0.2 0.7-0.3 0.8-0.5 0.2-8 0.9-5.5 2.7-0.9 0.2-3.3-0.4-1.7-0.7-1-0.6-0.8-0.3-0.3 0.3-0.2 0.4-0.3 1.6-0.3 0.8-0.3 0.4-3 2.4 0 8.2-0.5 2-0.7 0.5-0.3 0.3-0.6 1.2-0.3 0.3-1.2 0.9-0.5 0.5-0.1 0.5 0.2 1.1 0 2 0.1 0.5 0.4 0.7 0.5 1.3 0.4 4-0.1 2.8 0.4 1.4 0.5 0.9 0.7 1.9 0.2 1.4-0.1 1.2-0.1 0.9-0.3 1.1-0.3 0.4-0.7 0.4-1.6 0.1-0.6 0.3-0.7 0.8-1 1.9-0.4 1-0.1 0.9 0.1 1.1 0.4 0.7 0.4 1.3 0.1 3.6 2.1 2.9 0.4 1.7 0.4 5.1-0.1 0.5-0.3 0.9-0.2 0.4-0.4 0.8-0.7 0.8 0.1 1.3 1 0.5 2.3 0.6-0.5 4.7 1 2.1 2 1.7 0.5 0.6 0.1 0.7 0 0.8 0.3 1.4 0.3 0.6 0.5 0.4 4.6 0.9 0.2 1.3-0.2 0.4-1.7 3-0.5 2.5 0 1.1 0.2 0.6 1.7 0.7 0.5 0.4 0.5 0.5 0.5 1.1 0 0.7 0 0.5-2.6 4.8-0.7 1-3.1 3.8-0.2 1.5 0.4 1.4-2 1.7-0.9-0.1-0.8-1.5-0.8-0.6-2-2-0.6-0.2-0.5 0-0.9 0.8-1 0.6-0.6 0.1-0.6 0-5.7-2-0.9 0-0.3 0.2-2 0.6-3.7 0.4-0.7 0-0.3-0.3-0.2-1.5-3.6-2-0.4-0.4-0.5-0.7-0.2-0.8-0.5-1.2-0.6-0.7-1-0.8-5.3-2.5-2.4-1.8-1.3-0.2-0.9 0.2-8.8 0.6-1.4 1.1-0.8-0.3-0.7-0.5-0.5-0.5-0.4-0.8-0.3-1.5-0.1-0.5-0.7-1.1-0.6-0.8-0.3-1.2-0.9-1.7-0.2-1.8 0-1.6-0.3-0.8-0.4-0.6-1.7-1.2-0.7-0.3-0.5-0.1-2.2 0.5-0.9 0.4-0.8 0.1-2.1-0.3-2.9 0.2-5-0.8-0.5 0.2-0.7 0.4-0.9 0.8-0.8 0.5-0.4 0.1-6-0.3-0.6-0.2-1.2-0.6-0.6-0.6-0.5-0.9-0.4-1.2-0.3-2 0.3-0.5 0.7-0.3 0.2-0.4 0-0.7 0-1-0.2-1.3-0.6-2.3-2.3-4-1.2-1.2-2.3-0.9-2.5-1.6-0.9-1.2-0.3-0.9 0.4-0.9 0.4-0.5 0.6-0.7 0.7-0.3 4.9-0.8 2.7-1.6 1.3-1.2 1-1.5 0.9-2.1-6.2-9.3-3-5.7-5.7-4.5-2.8-1-10.1-1.5-4.6 0.1-16.9-2-2.8-1.7-0.9-1.7 0-1.4 0.1-1.3 0.7-3.4-0.1-0.6-0.1-0.5-1-1.4-1.3-2.7-0.4-1.2 0-0.5 0.3-2.8-0.1-0.7-0.3-0.5-0.7-0.5-0.6-0.8-0.7-1.3-1.1-3-0.4-1.4-0.1-1 0.2-0.4 0.3-0.3 0.4-0.2 0.8 0.1 0.9 0.5 0.4 0.1 0.5 0 0.5-0.3 0.4-0.5 0-0.8-0.2-0.9-0.5-1.5-0.4-0.6-0.5-0.4-1.4-0.1-3.6-1.5-1.4-1.3-2.7 0-0.5-0.1-0.9-0.4-2.4-1.6-0.9-0.4-0.7-0.2-9.8 0.3-1.8-1.1-3.1-5.7 0-4.1-0.1-0.9-0.4-1.6-0.3-0.7-0.4-0.4-1.2-1.1-0.3-0.3-0.6-1.8-0.9-1.2-0.2-0.5-0.4-1.8-0.3-0.7-0.3-0.5-1.1-0.8-0.7-0.5-0.5-0.7-0.8-0.9-0.6-0.5-0.3-1.2-0.3-2.1-0.2-0.7 0-0.8 0.3-4.5 0-2.5 0.2-0.5 0.5-0.6 1.5-0.6 0.4-0.4 0.3-0.4 0.4-0.8 0.4-0.5 0.4-0.3 0.8-0.4 0.3-0.2 0.3-0.4 0.3-0.9 0.7-0.9 0.1-0.5 0-0.9-0.3-2.7-0.4-0.8-0.3-0.4-1.9-1.2-0.2-0.7 0.2-1.7 0.4-1.6 0.6-0.8 0.3-0.2 1.7-0.7 0.2-0.3 0.2-0.4-0.1-0.3-0.3-0.1-0.8 0.3-0.6-0.2-0.5-0.3-0.7-1-0.3-0.4-2.8-1.4-0.1-1.4-0.3-0.6-1.5-2-0.2-0.6 0-0.8 0.4-0.4 0.6-0.3 3.2 0.4 0.6-0.1 0.8-0.3 1.4-1.3 0.9-1.2 0.9-0.9 0.1-0.5-0.1-1.4 0.1-0.4 0.9-0.3 6.2-1 14.5 0 2.8-1.2 2.2-0.3 5.3 0.2 1.1-0.1 0.8-0.3 0.3-0.3 0.3-0.6 0.2-0.7 0.1-1.5-0.2-1.1-0.2-0.3-1.7-1.3-0.3-0.2-0.1-0.6 0.1-0.5 0.3-0.5 0.7-0.4 3.8-1.2 2.3-1.3 2.6-2.3 0.6-0.6 0.5-0.8 0.9-1.6 0.1-0.7 0-0.9-0.3-1.9-0.5-0.6-0.5-0.2-0.4 0-0.5-0.1-0.8-0.4-0.5-0.6-0.7-1.4 0-0.5 0.2-0.7 0.9-2.2 0.9-0.9 2.2-1 1.6-0.3 0.7-0.4 0.5-0.8 0.2-0.9 0-1.7-0.1-0.7-0.1-0.6-0.5-0.7-0.6 0.1-0.3 0.7-0.4 0.6-0.3-0.1-0.2-1.2 0-1.4-0.1-0.5-0.6-0.2-0.8 0.2-0.4-0.1-0.3-0.3-0.5-1-0.4-0.3-0.7-0.8-1.3-2.1-0.1-0.4 0.2-0.4 0.5-0.7 1.2-1 0.2-0.4 0-0.5-0.3-0.7-0.5-0.6-0.2-1.2-0.4-0.5-0.7-0.5-0.9-0.3-0.3-0.2-0.3-0.8-0.1-1.6 0.2-0.3 0.8-0.4 1.1-0.5 3.1-0.4 1.8-0.5 0.3-0.3 0.3-0.5 0.1-1.1 0.3-1.3-0.3-0.8-0.4-0.6-3.2-2.7-1.4-0.4-1-0.6-0.5-0.5-7.8-10.5 0.2-1.9 0.1-0.7 0.2-0.5 0.4-0.8 0-0.7 0.3-0.8 0.6-0.7 0.8-0.4 0.9-0.2 0.5 0 2 0.5 0.5 0 0.3-0.2-0.2-0.8-0.6-1.2-3-4.9-0.6-0.6-0.8-1-0.3-0.6-0.2-0.9-0.3-1.6 0-0.9 0-2.8 0.2-1 0.5-0.8 1.8-2 0.5-0.7 0.4-0.8-0.1-0.6-0.4-0.5-1-0.6-0.7 0-0.6 0.1-0.3 0.2-1.3 1.2-0.4 0.2-0.6-0.2-0.9-1-3.8-5.7-4.1-8.3-1.1-2.3-0.9-0.6-0.8-0.4-1.1 0-0.6-0.4-0.5-0.8-0.5-2.1-0.2-1.1-0.1-1.4-0.2-0.4-1.4-1.4-0.5-0.6-1.2-2.8-0.4-0.8-0.3-0.9 0-1.1 0.3-1.6 0-1-0.3-1.5 0-0.5 0.1-0.6 0.3-0.9 0-0.6-0.2-1 0.3-0.5 3.7-1.5 5.1-0.4 4.7 0.3 1.4-0.3 1.7-0.9 3-1 2.1-1.1 1-1.4 2.1-1.6 0.2-0.4 0.2-0.6 0.1-1.4 0.2-1.1 0.3-0.8 0.4-0.5 1.3-0.6 2.2-0.2 1.8 0.1 3.3 0.9 1.9 1.1 0.9 0.1 6.3-0.4 5.3 0.9 0.4 0.3 0.5 0.7 0.4 0.3 1.3 0.5 0.4 0.3 0.3 0.9 0.5 0.6 0.5 0.3 0.5 0 0.7-0.2 0.9-0.8 0.7-0.4 0.6-0.2 0.9 0.4 2.2-0.1 6.6-2.9 3.8-1 0.4-0.2 6.3-6.1 1-0.2 2.1-0.1 0.4-0.4-0.2-1-0.3-0.9-0.1-1 0-1.7 0.5-3.6 0.1-0.5 0.5-1.6 0.3-0.5 0.6-0.6 1.1-0.2 0.6 0.1 0.9 0.4 1.4-0.1 1.1-0.7 2.1-6 4.8-1.3 1.1 0.7 0.1 1.6-0.6 1.8-0.9 0.9 1.5 0.8 3.6 0.1 1.2 1 0.8 2.3 0.2 1.7 0.5 1.1 1.9 0.3 1.1-0.4 2.8-1.6 1.7-0.4 3.3 5.1 1.5 1.2 3.4 0.2 1.3 0.8-0.5 2.1-1.3 1.9-0.2 0.8 7 4.8 1.1 0.4 2 0.3 1.5 0.5 2.9 1.8 1.9 0.4 1.6-0.7 2.8 0.1 7.6-1 0.4 0.1 0.4 0.3 0.8 0.8 0.5 1.3-0.1 2.1 1.6 0.2 1.1-0.1 3.8-1.1 0.4-0.1 0.5 0.2 1.4 0.6 1.2 0.4 0.6 0.7 0.6 1.3 2.1 6.9 0 1.2-0.4 2-3.6 3-0.2 0.5-0.1 0.7 0.3 1.3 0.3 0.7 0.3 0.6 0.5 0.5 0.2 0.6 0 0.5-0.4 0.6-1.1 1-0.4 0.8-0.1 0.5 0 0.6 0.3 0.8 0.9 1.4 0.3 0.5 0.2 0.8 0.2 1.3 0.3 0.6 0.3 0.4 1 0.9 0.4 0.4 0.2 0.5 0 1.5-0.2 1.7-1.1 3.4-0.7 1.4-0.5 0.8-1.2 0.7-0.9 0.3-2.1-0.1-0.5 0-0.3 1.1-0.2 1.8-0.2 4.2-0.3 1.8-0.2 1.2-2.9 4.5-0.1 0.3 0.1 0.4 0.6 0.2 0.6 0 1-0.2 1.1 0 0.5 0.1 0.3 0.3 0.1 0.4-0.8 1-0.3 0.4-0.6 0.7-0.1 0.5 0 0.7 0.2 0.9 0.2 0.6 0.7 0.7 1.3 0.4 1.5-0.3 0.9-0.4 0.6-0.6 0.5-0.7 0.2-0.5 0.2-1.6 0.2-0.5 0.3-0.3 0.3-0.2 0.6 0 0.6 0.2 0.8 0.7 0.6 0.8 1.6 2.8 0.6 0.5 0.6 0.1 0.7-0.3 0.9 0.1 0.9-0.2 0.8-0.4 0.3 0 0.1 0.3-0.5 1.1-0.2 0.7-0.1 1.3 0.1 1.4-0.2 1.2-1.3 2.3-1 2.7-0.6 1-1.2 0.8-0.2 0.3 0 0.4 0.2 0.6 0.7 1.1 0.2 0.4 0 0.7-0.1 0.9-0.8 2.4-0.4 1-1.3 2.5-0.2 0.4 0 0.5 0.2 0.8 0 0.6-0.4 1.3 0.2 1.4 0.3 1.4 0.1 0.5-0.2 0.7-1.3 2.4-0.3 0.9-0.4 1.5-0.8 1.7-0.1 0.5-0.1 0.9 0 1.3 0.3 2.8 0.6 0.9 0.6 0.6 1.1 0.1 0.4 0.3 0.3 0.6 0.4 1 0.6 0.9 0.3 0.3-0.4 0.9-2.5 2.7-1.4 4.4-0.8 1.3-0.2 0.6 0 0.5 0.9 2.8 1 2.1 0.3 0.5 2.9 2.8 0.7 2.4 0.4 0.6 0.4 0.4 2.2 1.1 2 2.2 6.8 9.3 0.3 1.2 0 1 0.1 0.9 0.6 0.7 1 0.9 3.2 2.2 1.3 1.2 0.5 0.3 0.7 0.1 1.3 0 0.6-0.2 0.5-0.4 0.4-0.9 0.2-0.3 0.3-0.3 0.5 0 0.5 0.2 0.6 0.5 2.2 3 5.1 4 1.9 1.1 5 1.1 1.5-1.5 1.4-0.9 1.3-0.6 0.5-0.6 0.3-0.6 0-0.5 0.2-0.4 0.6-0.1 0.7 0.1 4.2 2.4 9.7 6.1 1.2 0.3 4.2 0.5 1.6 1.1 0.5 1.2 0.9 2.8 0.5 0.3 0.9 0.2 5 0.1 2.2 0.4 1.2 0.6 1.3 1.2 0.6 0.9 0.5 1 0.8 0.8 6.1 4.3 2 0.8 7.2-0.9 0.8 0.2 1 1.2 0.5 0.5 0.8 0.4 0.5-0.7 0.9-1.7 0.6-0.5 0.6-0.2 3.6 0.3 2.1 0.9-0.9 2.2-3.8 4.2-3.3 5.3-0.6 1.2-0.1 1.3 0 4.6 0.2 1.3 0.6 2 1.1 1.8 0.8 2-0.4 2.1-3 4.1-6.5 5.2-0.9 0.9-2.3 4.1z" id="DEU1600" name="Sachsen-Anhalt">
 </path>
 <path d="M785.6 630.8l1.3 0.4 3 3.8 1.5 1 0.9 0.4 0.5-0.2 0.7-0.5 0.4 0.1 0.4 0.2 1.4 1.2 1.3 0.9 0.3 0.5 0.3 0.7-0.2 1.3-0.2 0.8-0.3 0.5 0 1.1 1.1 1.5 2.3 1.4 0.4 0.8 0.3 1.1 0.6 2.5 0.2 1.2 0 1-0.3 0.8-0.4 0.4-1.2 0.7-0.4 0.7 0.3 1.1 0.7 0.6 0.2 1.5-0.3 1.9 0.1 2.5-0.5 1.8-0.6 0.8-1.2 1.1-0.2 0.4-0.2 0.4 0 0.5 0.3 1.3 0.6 1.5 0.6 0.5 0.7-1 0.6-0.5 0.5-0.7 1.2 0.2 0.5-1.1 1.4 0.3 0.8 0.4 1.4 2.4 2-0.6 10-3.5 1.7-0.8 1-1.1 1.1-0.4 1.4 0.1 5.1 2.5 1.6 1.3 0.8 1.1 1.3 0.7 1.5 1.2 1.8 2.7 1.3 0.5 1.3-0.3 1-0.1 1.5 0.2 5 1.7 12.7 0.9 3.8 0.4 18.8-2.4 0.8 0.3 1.1 0.2 0.5 0.3 0.6-0.2 0.4-0.2 1.9-3.2 6.1-8.8 1.7-4 0.2-1.4 0-1.3 0.7-1.3 4.2-5.6 1.4-1.2 4.3-2.5 6.8-1.6 5.2 0.7 3.9 1.4 3.7 2.5 4.2-1 14.4-7.2 4.7-1.4 2.3-0.1 2.4 0.5 2.7 1.6 4.7 2 4.7 0.2 0.3 1.8 2.4 2.6 7.2 2.4 2.3 1.6 2.4 1.4 5.1 1.6 2.5 1.1 1.7 1.4 2 2.1 1.1 2.4-0.9 2.2 1.1 12 0 0.2 0.5 3.1 0.3 1.2 2 3.5 2.4 3 1.6 3.4-0.5 5 0.4 0.6 0.4 0.4-1.9 3.7-1.4 4.7-0.9 4.8-0.2 4.4-0.2 2.2-0.7 1.2-0.8 0.8-0.6 1.2-0.2 1.7 0 3.3-0.4 2-4.8 12.4-5.5 13.1-3.9 4.3-1.5 2.6 0 3.2-1.8 4.6-1 2-1.1 1.2-1.7 0.5-2.4-0.1-4-0.9-4.2-3.2-1.5-0.8-3.8-1.1-0.5-1.3 0.4-3.1 1.8-4.3 0.6-2.3-0.6-2-1.3 0-6 2.5-1.2-1 0.6-2.1 1.3-2.5 0.8-2.1 0.2-2.6-0.3-1.6-0.9-1.4-1.3-1.6-1.3-1.1-3-0.7-1.3-1-1-1.4-0.4-1-0.2-1.1-0.7-1.4-0.9 2.4-1.2 0.6-4-0.2-3 1.4-1.2-0.1-1.2-0.6-0.7-1-0.6-0.9-0.8-0.8-4.1-1.3-3.4 0.5-2.7 2.7-1.5 5-1.2 1.8 1.3 0.8 3.7 0.5 2.1 0.9-0.1 0.3-1 0.7-0.1 1.8 2.8 2.7 4 1.2 2.9 1.7-0.6 4.3-3.2 2.7-8.6-0.7-3.9 0.9-1.2 1.1-1.9 3-1.4 1.3-16.9 7.8-2.1 0.2-4-0.6-2.1 0.5-1.2 0.8-1.7 2.2-1.1 0.8-1.4 0.2-1-0.3-0.9 0-1 1.3-0.5 1.6 0.1 1.5 0.3 1.2-0.1 0.9-0.7 1.1-0.6 0.2-0.7 0-3.1 2-2 0.4-5-0.6-2.4 0.3-4.1 1.5-2.1 0.4-9.8 0-4.9 0.9-4.5 2.7 1.3 2.7-0.4 2.3-1.5 1.9-1.8 1.3 0.6 1.4-0.1 1-0.6 0.8-1.1 0.7-1.9 2.3-1.8 1.7-2 0.5-2.5-1.2-0.7-0.9-1.5-2.6-0.6-0.6-1.3-0.5-0.3 0.2-0.1 0.6-0.7 0.7-4 2.9-0.7 1.1-1.1 3.5-2.3 1.2-1.8-0.8-1.8-1.3-2.1-0.2-3.6 9.7-1.6 2.9-2.7 2-5.7-0.3-3.1 1-1 0.3-1 0.1-1-0.1-1-0.3-0.8-0.6-0.9-0.2-0.9 0.2-0.9 0.6-0.7 7-0.7 3.1-1.6 1.9-3.2 3.2-3.8-0.2-10-6.2-1-0.3-0.9 0.2-1.6 1.1-0.6 0.2-2-0.3-1.7 0.2-1.8 0.6-1.4 1.4-2.4 3.7-1.2 1.2-1.4 0.2-5.9-1.1-8.1 0.6-4.4 1.3-3.8 3.3-0.4 0.9-0.2 0.8-0.3 0.8 0.2 0.9 0 0.7-0.2 0.6-0.4 0.2-1 0-0.4 0.2-1.3 1.2-3.2 1.8-1.2 1.2-3.4 6.1-1.2 1.3-1.2 0.9-0.9 1.3-0.3 2.7-2.1 2.8-0.6 1.6-0.4 3 0.4 2.1 0.6 1.8 0 1.5-1.5 1.1-1.9-0.2-1.1-1.7-1.3-4.7-0.1-0.9-0.2-1-0.4-1.1-0.5-0.6-1.9-1.9-0.3-0.4-0.1-0.4 0.1-0.4 0.6-0.5 0.3-0.1 0.5-0.9 0-0.8-0.3-0.6-0.8-0.5-3.1-0.1-1.6-0.4-1.2-1.1-0.5-1.4 0.1-2.9-0.7-1.6-2.1-1.4-5.2-0.4-0.8-1.5-3.1-0.9-1.5 0.2-0.4-0.1-0.9-0.3-4.4-3-1.1-0.4-0.3-0.4-0.5-3.4 0.1-0.7 0.2-0.9-0.4-0.8-2.2-1.5-1.2-1.9-0.4-0.6-0.6-1-0.9-0.4-2.9 0.3-0.9-1.4 0-0.5 0.3-0.5 0.7-0.7 0.9-0.6 1.8-0.6 0.3-0.3 0.2-0.5 0-0.8 0.1-0.6 0.9-0.9 0.3-0.7-0.1-1.5-0.2-0.7-0.3-0.5-1.3-1-0.3-0.3-0.2-0.4 0-0.7 0.2-0.9 0.7-1.5 1.2-1.6 2.5-2 1.5-1.7 0.6-1.2 0.2-0.3 0.5-0.2 0.8-0.2 1 0.3 0.6 0.2 0.2 0.2 0.8 1.2 0.3 0.5 0.8 0.4 1 0.1 0.5 0 1.1-1 2.4-4.1 1.7-0.4 0.9 0.3 0.6 0.6 0.4 0.2 0.5 0 0.5-0.1 1.3-0.6 1.1-0.2 0.4-0.4 0.5-0.6 0.5-1.6 0.2-1.1-0.1-3.4 1.9-2.4 0.7-1 0.4-0.5 0.5-0.2 1.9 0 2.1 0.4 2.7-0.2 0.7-0.3 3.3-2.6 0.9-0.9 0.4-0.5 2.2-3.9-1-0.4-1.5 0.1-1 0-0.4-0.2-0.8-0.4-0.7-1.3-0.5-1.5-0.2-0.9 0.2-1.2 0.2-0.6 0.1-0.6-0.1-0.6-0.7-0.6-0.5-0.2-0.5 0-0.6 0.2-0.8 0-0.1-0.7 0.2-0.9 0.8-2 0.6-0.6 0.6-0.3 0.6 0 0.4-0.1 0.4-0.2 0.7-1 0.8-0.9 0.2-0.4 0-0.5-0.3-0.6-1.8-0.7-1.4-1.5 0.2-1.8 7.9-2.3 0.9-0.6 2.7-2.4 0.7-0.4 0.8-0.2 3.1-0.3 0.8 0.2 0.4 0.3 0 0.4 0.8-0.1 1.9-3 2.3-2.6 4.1-2.3 0.5-0.5 0.3-1.5 1.6 0.7 0.5 0.1 2.4-0.2 3.5 0.4 0.5 0 0.8-0.4 0.4 0.1 0.5 0.2 0.4 0.8 0.3 0.3 0.3 0 0.8-0.9 1-1.6 0.3-0.4 0.6-0.5 1.2-0.5 0-1.3-2.3-4.9-2.6-4.2-3.1-1.8-1.5-0.6-1.5-0.8-1.5-1.5-1.1-2.6-3-5.1-0.3-0.7-0.9-5.2-16.8-5.1-7 0.7-4.6-0.9-0.5-0.4-0.3-0.6-0.3-1.4 0-0.8-0.1-0.7-0.5-0.6-2-1.7-1-2.1 0.5-4.7-2.3-0.6-1-0.5-0.1-1.3 0.7-0.8 0.4-0.8 0.2-0.4 0.3-0.9 0.1-0.5-0.4-5.1-0.4-1.7-2.1-2.9-0.1-3.6-0.4-1.3-0.4-0.7-0.1-1.1 0.1-0.9 0.4-1 1-1.9 0.7-0.8 0.6-0.3 1.6-0.1 0.7-0.4 0.3-0.4 0.3-1.1 0.1-0.9 0.1-1.2-0.2-1.4-0.7-1.9-0.5-0.9-0.4-1.4 0.1-2.8-0.4-4-0.5-1.3-0.4-0.7-0.1-0.5 0-2-0.2-1.1 0.1-0.5 0.5-0.5 1.2-0.9 0.3-0.3 0.6-1.2 0.3-0.3 0.7-0.5 0.5-2 0-8.2 3-2.4 0.3-0.4 0.3-0.8 0.3-1.6 0.2-0.4 0.3-0.3 0.8 0.3 1 0.6 1.7 0.7 3.3 0.4 0.9-0.2 5.5-2.7 8-0.9 0.5-0.2 0.3-0.8 0.2-0.7 0.4-3.3 1-0.5 0.8-0.1 7.9 0.5 1.4 1 10.5-1.8 0.5 0.1 0.5 0.8 0.5 0.1 0.7-0.1 1.5-1.1 0.8-0.9 0.8-1.7 1.1-1.9 1.6-0.9 4.1 0.6 3.1 1.4 2.1-1 5.7-4.8 1-1.5 3.2-0.3 1.2 2.6 1.3 1 1.7 0.6 1.3 0.2 2.4 1.2 1.5 1.9 1.4-0.3 0.7-0.7 0.5-0.3 0.8-0.3 0.7 0.3 0.8 0.6 2.3 2.4 1.9 0.5z" id="DEU1601" name="Sachsen">
 </path>
 <path d="M930.3 323.4l0.8 3.4 0.1 1.6 0.1 3.3 0.4 1.8 0.6 1.1 1.7 1.4 0.4 1 1.4 1.4-2.8 5.6-0.8 1.2-1.2 0.6-1 1.6-0.8 2.2-0.3 2.5 0.4 2.9 0.6 2.6 0.3 2.6-3.3 10.3-0.3 1.5-1.5 3.3-3.3 3.5-6.4 5.1-6.6 3.5-5.3 3.9 0 1.1 0.6 1.9 1.4 6.4 0.2 2.2-0.4 3.4-1.2 2.2-2.9 2.5 1.3 2.6 1.9 1.5 2.3 0.7 2.4 0.2 2.2 0.9 3.5 4.2 3 1.6 11.6 8.6 1.6 2 3.8 7.4 1.1 1.1 2.1 0.9 3.1 4.3 6.5 2.6 7 7.9 3.3 2.8-3 6.4-0.8 4.1 2 1.9 0.5 1.9-1.8 4.2-2.7 4.2-5.6 5 0.6 7.1 2.6 7.8 2.3 5.1-0.7 3.3 2.5 2.7 3.7 1.9 3.1 0.8 3 1.3 1.7 3.1 0 3.7-2.2 2.8 0 1.1 1.6 2.5-0.4 2.5-1.2 3.2-0.6 4.6 1.1 2.6 7 5.3-2 2.5-0.8 1.5-0.4 1.6-0.2 1.6-0.4 1.7-2.4 4.3-0.6 1.7-0.3 10.8-1 3.4-1.6 3.2-2 2.7-6.3 6.4-1.4 3 0.3 3.8 1.8 2.7 2 1.4 1.5 2 0.4 4.7 1.1 4.4 2.5 2.9 5.3 4.4 1.4 3.1 1 4.4 0.2 4.6-1.3 3.6-2.1 3.3-0.9 3.4 0.3 1.3-4.7-0.2-4.7-2-2.7-1.6-2.4-0.5-2.3 0.1-4.7 1.4-14.4 7.2-4.2 1-3.7-2.5-3.9-1.4-5.2-0.7-6.8 1.6-4.3 2.5-1.4 1.2-4.2 5.6-0.7 1.3 0 1.3-0.2 1.4-1.7 4-6.1 8.8-1.9 3.2-0.4 0.2-0.6 0.2-0.5-0.3-1.1-0.2-0.8-0.3-18.8 2.4-3.8-0.4-12.7-0.9-5-1.7-1.5-0.2-1 0.1-1.3 0.3-1.3-0.5-1.8-2.7-1.5-1.2-1.3-0.7-0.8-1.1-1.6-1.3-5.1-2.5-1.4-0.1-1.1 0.4-1 1.1-1.7 0.8-10 3.5-2 0.6-1.4-2.4-0.8-0.4-1.4-0.3-0.5 1.1-1.2-0.2-0.5 0.7-0.6 0.5-0.7 1-0.6-0.5-0.6-1.5-0.3-1.3 0-0.5 0.2-0.4 0.2-0.4 1.2-1.1 0.6-0.8 0.5-1.8-0.1-2.5 0.3-1.9-0.2-1.5-0.7-0.6-0.3-1.1 0.4-0.7 1.2-0.7 0.4-0.4 0.3-0.8 0-1-0.2-1.2-0.6-2.5-0.3-1.1-0.4-0.8-2.3-1.4-1.1-1.5 0-1.1 0.3-0.5 0.2-0.8 0.2-1.3-0.3-0.7-0.3-0.5-1.3-0.9-1.4-1.2-0.4-0.2-0.4-0.1-0.7 0.5-0.5 0.2-0.9-0.4-1.5-1-3-3.8-1.3-0.4 2.3-4.1 0.9-0.9 6.5-5.2 3-4.1 0.4-2.1-0.8-2-1.1-1.8-0.6-2-0.2-1.3 0-4.6 0.1-1.3 0.6-1.2 3.3-5.3 3.8-4.2 0.9-2.2-2.1-0.9-3.6-0.3-0.6 0.2-0.6 0.5-0.9 1.7-0.5 0.7-0.8-0.4-0.5-0.5-1-1.2-0.8-0.2-7.2 0.9-2-0.8-6.1-4.3-0.8-0.8-0.5-1-0.6-0.9-1.3-1.2-1.2-0.6-2.2-0.4-5-0.1-0.9-0.2-0.5-0.3-0.9-2.8-0.5-1.2-1.6-1.1-4.2-0.5-1.2-0.3-9.7-6.1-4.2-2.4-0.7-0.1-0.6 0.1-0.2 0.4 0 0.5-0.3 0.6-0.5 0.6-1.3 0.6-1.4 0.9-1.5 1.5-5-1.1-1.9-1.1-5.1-4-2.2-3-0.6-0.5-0.5-0.2-0.5 0-0.3 0.3-0.2 0.3-0.4 0.9-0.5 0.4-0.6 0.2-1.3 0-0.7-0.1-0.5-0.3-1.3-1.2-3.2-2.2-1-0.9-0.6-0.7-0.1-0.9 0-1-0.3-1.2-6.8-9.3-2-2.2-2.2-1.1-0.4-0.4-0.4-0.6-0.7-2.4-2.9-2.8-0.3-0.5-1-2.1-0.9-2.8 0-0.5 0.2-0.6 0.8-1.3 1.4-4.4 2.5-2.7 0.4-0.9-0.3-0.3-0.6-0.9-0.4-1-0.3-0.6-0.4-0.3-1.1-0.1-0.6-0.6-0.6-0.9-0.3-2.8 0-1.3 0.1-0.9 0.1-0.5 0.8-1.7 0.4-1.5 0.3-0.9 1.3-2.4 0.2-0.7-0.1-0.5-0.3-1.4-0.2-1.4 0.4-1.3 0-0.6-0.2-0.8 0-0.5 0.2-0.4 1.3-2.5 0.4-1 0.8-2.4 0.1-0.9 0-0.7-0.2-0.4-0.7-1.1-0.2-0.6 0-0.4 0.2-0.3 1.2-0.8 0.6-1 1-2.7 1.3-2.3 0.2-1.2-0.1-1.4 0.1-1.3 0.2-0.7 0.5-1.1-0.1-0.3-0.3 0-0.8 0.4-0.9 0.2-0.9-0.1-0.7 0.3-0.6-0.1-0.6-0.5-1.6-2.8-0.6-0.8-0.8-0.7-0.6-0.2-0.6 0-0.3 0.2-0.3 0.3-0.2 0.5-0.2 1.6-0.2 0.5-0.5 0.7-0.6 0.6-0.9 0.4-1.5 0.3-1.3-0.4-0.7-0.7-0.2-0.6-0.2-0.9 0-0.7 0.1-0.5 0.6-0.7 0.3-0.4 0.8-1-0.1-0.4-0.3-0.3-0.5-0.1-1.1 0-1 0.2-0.6 0-0.6-0.2-0.1-0.4 0.1-0.3 2.9-4.5 0.2-1.2 0.3-1.8 0.2-4.2 0.2-1.8 0.3-1.1 0.5 0 2.1 0.1 0.9-0.3 1.2-0.7 0.5-0.8 0.7-1.4 1.1-3.4 0.2-1.7 0-1.5-0.2-0.5-0.4-0.4-1-0.9-0.3-0.4-0.3-0.6-0.2-1.3-0.2-0.8-0.3-0.5-0.9-1.4-0.3-0.8 0-0.6 0.1-0.5 0.4-0.8 1.1-1 0.4-0.6 0-0.5-0.2-0.6-0.5-0.5-0.3-0.6-0.3-0.7-0.3-1.3 0.1-0.7 0.2-0.5 3.6-3 0.4-2 0-1.2-2.1-6.9-0.6-1.3-0.6-0.7-1.2-0.4-1.4-0.6-0.5-0.2-0.4 0.1-3.8 1.1-1.1 0.1-1.6-0.2 0.1-2.1-0.5-1.3-0.8-0.8-0.4-0.3-0.4-0.1-7.6 1-2.8-0.1-1.6 0.7-1.9-0.4-2.9-1.8-1.5-0.5-2-0.3-1.1-0.4-7-4.8 0.2-0.8 1.3-1.9 0.5-2.1-1.3-0.8-3.4-0.2-1.5-1.2-3.3-5.1-1.7 0.4-2.8 1.6-1.1 0.4-1.9-0.3-0.5-1.1-0.2-1.7-0.8-2.3-1.2-1-3.6-0.1-1.5-0.8 0.9-0.9 0.6-1.8-0.1-1.6-1.1-0.7-4.8 1.3-5.3-2.1-2.5-0.4-2-0.7-3.3-3.4-2.5-0.8-2.3 0.5-3.5 2.5-2.1 0.6-2.3-0.4-1.8-1.2-4-4.7-1.8-3.4 2.4-0.3 2.5 0.5 3.6 0 2.5 1.2 2.1 0.3 0.1-2.6 0.4-2 1.7-0.8 3.5 0 3.1 1.7 2.8 1.7 2.9-0.3 2.2-1.7 0.8-2.9-0.5-1.3-0.3-3.1-0.3-1.2-0.6-1-0.8-1-0.3-1.3 0.7-1.8 4.8-4.5 2.1-1.4 5.9-2.2 3.8-0.3 1.3 0.5 3.4 2.8 1.4 3.2 2.2-1.5 2.3-0.8 2.4 0 3.4 0.3-0.4-2.6-2.1-1.7 0.9-0.6 1-0.4 3 0.7 2.5-3.1 4.2-2.1 1.9-0.5 2 0.9 2.2-2.2 1.9-1.5 1.7-0.2 1-2.9 0.2-2.5 2.8-2 1.6-2.9 0.6 0 1-0.4 1.9-1 1.6-0.3 0.9-0.3 0.5 0 0.6 0.2 1.7 1.9 0.4 0.2 0.8-0.3 0.4-0.3 2.2-1.8 0.8-0.3 0.6 0 0.6 0.1 0.6 0.4 0.8 1 0.9 2.1 0.8 1.2 0.8 0.4 6.9 1.7 3.9 2.3 0.7 0.4 3.3 2.6 0.4 0.5 0.6 0.6 0.2 0.4 0.7 0.6 3.1 1.8 0.3 0.3 1 1.6 0.3 0.3 0.7 0.3 1 0.1 3.9-0.3 1.7-0.6 1.6-0.2 11.6 2.9 0.6 0.1 1.4 0.7 3 3 4.5 1.3 2.7 0.1 1 0.6 0.2 2.6 0 1.2 0.2 0.9 0.5 0.6 0.6 0.3 0.5 0.2 0.8 0 4.8-1.1 1.5 0.1 0.8 0.2 0.7 0.4 1.6 1.3 0.7 0.4 0.9 0 1.7-0.1 0.8-0.3 1.1-0.4 0.7-0.1 2.9-0.1 0.9-0.2 0.5-0.3 0.4-0.3 0.4 0 0.4 0.4 0.3 0.8-0.2 0.5-0.3 0.4-0.7 0.5-0.5 0.7 0.2 0.6 0.6 0.5 2.6 1.1 2.8-0.4 2.8-2.8 0.5-0.8 1.1-1.4 0.6-0.5 3.2-2.1 1.5-1.4 1-0.7 0.3-0.4 0.5-0.7 0.2-0.7 0.3-1.4 0.2-0.4 0.9-0.9 1-0.5 0.6-0.4 0.3-0.6 0.3-0.3 0.5-0.4 0.9-0.3 0.7 0.1 0.8 0.4 1.4 1.8 0.7 1.4 0.3 0.4 1.4 0.7 3 0 0.4-1.9 0.1-1.3 0.2-0.5 0.3-0.9 1.1-2.4 0.5-0.9 1.3-1.2 1.7-0.9 2.9-0.3 2.3 0.5 2.4 1.1 2 1.3 2 0.5 1.9-0.7 5.7-4.6 1.2-0.4 1.2-1.2 1.4-1.9 1.5-4.2 2.1-4.5 0.6-3.4 0.8-2 1.5-1.5 2-1.1 3.9-0.1 2.5-2.3 2-3.7 6.6-5.7 3.9-0.6 3.7 0.3 3.2-1.4-0.5-2.3-2.7-5.2 0.2-3.4 1.8 0.3 2.8 4.3 5 2 0.2 4 3.1 5.7 0.6 2.5 1.7 2.6 7.6-0.6 6.5 0.5 2.3 0.9 2.8 0.6 2.2-3.1 2.7-0.6 3.9 2 4.5-0.3 2.6 0.6 0.1 4.8-0.5 3.4-1.7 4-3.9 6.2-9.1 6.2-0.1 1.4 0 2.2 4.5 0.7 4.2 1 7.1 0.7 1.6-1.1 0.6-2.6 2.9-1.4 3.1-3.9 7.3-4.6z m-96.8 124.9l-0.2-0.3-1.7-1.6-0.5-0.6-0.3-0.7-0.3-0.4-0.6 0.1-2.5 2.4-0.3 0.4-0.5 1.1-0.7 0.1-2.1-1.4-2.6 2.1-0.6 1.1-0.1 0.4-0.2 0.4-0.6 0.2-1.1 0.3-4.1-0.3-1.8-0.8-0.6-0.6-0.2-0.4 0.1-1.7-0.1-0.4-0.4-0.8 0.1-0.3 0.3-0.6-0.3-0.1-1.2 0-0.4 0.2-0.3 0.3-0.3 1-0.4 0.8-0.4 0.9-1.2 1.1-1 0.6-3.2 0.4-0.3 0.3-1 2.9-0.2 1 0 0.6 0.3 0.8 0.3 0.6 0.2 0.6 0 0.4-1 0.1-4.6-2.1-0.8-0.3-0.6 0.4-0.7 1.8-0.1 0.5 0.3 0.7 0.1 1-0.1 1.6-0.5 2.6-0.2 5 1.7 3.1 0 1-3 3.5-0.3 0.3-0.8 0.4-0.3 0.3-0.4 0.9-0.2 1.1-0.2 1.1 0 0.6 0.2 1 0.1 0.4 0.5 1.1 0 0.2-0.4 0.4-0.6 0.6-0.2 0.4 0 0.7-0.3 0.5-1 1.3-0.2 0.3 0 0.5 0.4 0.4 1.8 1.4 1.1 0.5 3.8 0.8 0.7-0.3 0.4-0.6 0.6-0.6 4.5-2.2 0.6 0 0.8 0.3 1.4 0.8 0.9 1.1 0.5 0 0.6-0.1 3-1.2 0.9-0.5 0.2 0.2 0.4 0.7 0.6 1.4 0.9 0.3 2.6-1 1-0.2 0.3 0.2 0.6 0.8 1.2 1.1 0.7 1.1 0.4 0.5 2 0.9 3.5 0.1 0.2-1.3-0.1-1-0.2-0.9-0.1-1 0.1-0.5 0.2-0.4 0.7-0.5 1.7-0.6 1-0.2 0.5 0.2 0.6 0.3 0.5 1.2 0.3 0.6 0.4 0.6 0.5 0.3 1.2 0.2 0.9-0.1 0.6-0.3 0.6-0.7 0.6-0.2 0.9 0 4.1 1.7 2.1 1.2 2.7 0.9 0.6 0 1.2-0.1 0.6 0.4 0.6 1.1 0.4 2.7 0.2 2.4 0 0.4 0.2 0.5 1 0 1.4-3.1 0.7-0.6 2.5-0.8 0.4-0.3 0.4-0.5 0.2-0.4 0.1-0.7 0.1-0.9-0.3-1.6 0-1 0.4-1.2 0.5-0.6 0.4-0.5 1.9-1.6 0.3-0.6 0.2-0.7 0-1.1 0.1-1.2 1.1-0.9 0.2-0.4 0-0.6-1-1.1-0.7-0.6-4.3-2-2-2.6-1.5-0.7-4.1 0.4-0.3-0.6 0.2-1.3 2.5-6-0.1-1.4-2.3-0.3-1.6-0.8-0.9-0.9-1.4-0.5-2.3-1.8-7.2-8.4-0.4-0.7 0-1 0-0.8 0.1-1 0.2-1.6-0.1-0.9z" id="DEU3487" name="Brandenburg">
 </path>
 <path d="M615.4 196.7l-3.2 9.7-1.1 1.7-1.4 0.1-0.1-1.3 0.8-3.3-0.5-2.1-0.9 0-0.6 1.5 0.5 2.6-1.6 1.3-1.7 0-1.8-1.1-1.7-1.5 1.6-4.2 4-3.4 4.5-1.5 3.2 1.5z m4.6-6.3l-0.6 0-0.6-3.4 0-0.4 0.6-1.4 7.4-3.6 1.5-1.4-1.9 2.6-5 4.6-1.4 3z m290.6 22l-1.8 4.9-0.9 0.7-1.1 0.3 1.9 2.3 0.9 2.9-12.3 1.4-2.5-0.3-1.8-1.3-2.5 2.9-3.2 1.8-6.2 1.7-6.9 0.1-3.8-1.1-2-2.8 1.4-0.5 2.2-1.7 3.5-0.8 3.8-2.2 1-1.1 0.8-5.3-4-7.7 0.3-4.8 5.4 0.4 2 0.8-0.8 1.3 0.3 1.1-0.9 3.6-0.1 2.9 1.7-3 1.4-0.8 4.4 0-0.6 0.5-0.4 0.4-0.3 0.7-0.2 1.1 3.7 1.1-0.9-2.4 1.4-4.5-0.2-5-1.5-3.1-2.5 1.1-0.9-3-1.2-2.5-1.4-2-1.8-1.4-2.1-0.5-2.2 0.5-1.1 1.4 1 2.3 0 1.4-1 0.5-0.9 1.2-0.8 1.4-0.4 1.4-0.6 0.4-3.8 1.4 0.2-2.5 0.8-1.5 0.9-1.1 0.3-1.2-0.6-2.3-0.8-0.2-0.9 0.7-3.5 1.5-1.6 2.2-1.5 1.5-2.2-0.9 0.8-3.5 3-6.2 0.6-4.8-0.9-2.9-4.5-4.7-1.3-2.1 1-2.1 1.7-1.7 2-0.8 2 0.8 1 1.8 2.2 6.1 1.3 2.4 2.9 3 7.1 4.2 4.2 1.6 3.3 2 19.1 21.1 1.9 1.5z m19.7 111l-7.3 4.6-3.1 3.9-2.9 1.4-0.6 2.6-1.6 1.1-7.1-0.7-4.2-1-4.5-0.7 0-2.2 0.1-1.4 9.1-6.2 3.9-6.2 1.7-4 0.5-3.4-0.1-4.8-2.6-0.6-4.5 0.3-3.9-2-2.7 0.6-2.2 3.1-2.8-0.6-2.3-0.9-6.5-0.5-7.6 0.6-1.7-2.6-0.6-2.5-3.1-5.7-0.2-4-5-2-2.8-4.3-1.8-0.3-0.2 3.4 2.7 5.2 0.5 2.3-3.2 1.4-3.7-0.3-3.9 0.6-6.6 5.7-2 3.7-2.5 2.3-3.9 0.1-2 1.1-1.5 1.5-0.8 2-0.6 3.4-2.1 4.5-1.5 4.2-1.4 1.9-1.2 1.2-1.2 0.4-5.7 4.6-1.9 0.7-2-0.5-2-1.3-2.4-1.1-2.3-0.5-2.9 0.3-1.7 0.9-1.3 1.2-0.5 0.9-1.1 2.4-0.3 0.9-0.2 0.5-0.1 1.3-0.4 1.9-3 0-1.4-0.7-0.3-0.4-0.7-1.4-1.4-1.8-0.8-0.4-0.7-0.1-0.9 0.3-0.5 0.4-0.3 0.3-0.3 0.6-0.6 0.4-1 0.5-0.9 0.9-0.2 0.4-0.3 1.4-0.2 0.7-0.5 0.7-0.3 0.4-1 0.7-1.5 1.4-3.2 2.1-0.6 0.5-1.1 1.4-0.5 0.8-2.8 2.8-2.8 0.4-2.6-1.1-0.6-0.5-0.2-0.6 0.5-0.7 0.7-0.5 0.3-0.4 0.2-0.5-0.3-0.8-0.4-0.4-0.4 0-0.4 0.3-0.5 0.3-0.9 0.2-2.9 0.1-0.7 0.1-1.1 0.4-0.8 0.3-1.7 0.1-0.9 0-0.7-0.4-1.6-1.3-0.7-0.4-0.8-0.2-1.5-0.1-4.8 1.1-0.8 0-0.5-0.2-0.6-0.3-0.5-0.6-0.2-0.9 0-1.2-0.2-2.6-1-0.6-2.7-0.1-4.5-1.3-3-3-1.4-0.7-0.6-0.1-11.6-2.9-1.6 0.2-1.7 0.6-3.9 0.3-1-0.1-0.7-0.3-0.3-0.3-1-1.6-0.3-0.3-3.1-1.8-0.7-0.6-0.2-0.4-0.6-0.6-0.4-0.5-3.3-2.6-0.7-0.4-3.9-2.3-6.9-1.7-0.8-0.4-0.8-1.2-0.9-2.1-0.8-1-0.6-0.4-0.6-0.1-0.6 0-0.8 0.3-2.2 1.8-0.4 0.3-0.8 0.3-0.4-0.2-1.7-1.9-0.6-0.2-0.5 0-0.9 0.3-1.6 0.3-1.9 1-1 0.4-0.6 0-1.6 2.9-2.8 2-0.2 2.5-1 2.9-1.7 0.2-1.9 1.5-2.2 2.2-2-0.9-1.9 0.5-4.2 2.1-2.5 3.1-3-0.7-1 0.4-0.9 0.6 2.1 1.7 0.4 2.6-3.4-0.3-2.4 0-2.3 0.8-2.2 1.5-1.4-3.2-3.4-2.8-1.3-0.5-3.8 0.3-5.9 2.2-2.1 1.4-4.8 4.5-0.7 1.8 0.3 1.3 0.8 1 0.6 1 0.3 1.2 0.3 3.1 0.5 1.3-0.8 2.9-2.2 1.7-2.9 0.3-2.8-1.7-3.1-1.7-3.5 0-1.7 0.8-0.4 2-0.1 2.6-2.1-0.3-2.5-1.2-3.6 0-2.5-0.5-2.4 0.3-1.3-2.4-0.7-1-1.8-1.1-0.8-1.2-0.8-0.8-1.1 0.8-1.4 1.5-0.8-0.1-1.1-2-0.9-1.2-0.6-1.2-0.6-1-1-0.6-1.3 0.3-1.2 0.9-0.9 1-1.7 1.1-1 1.3-1.1 0.8-1.3-0.8-1-1.2-3.1-2-11.9-11.3-9.9-5.7-3.5-2.9-2.3-3.2-1.2-1.3-2.1-0.5-1.8-1-0.5-2.4-0.1-2.9-0.3-2.6-2.3-3-3.8-1-8.1 0.4 1.2-1.7 1.1-1.8 0.4-1.2 0.2-0.7-0.1-1.1 0.1-1.2 0.9-5.7 0.1-0.5 0.5-0.6 0.6-0.5 1.6-0.8 0.8-0.2 0.6 0 1.3 0.5 0.5-0.2 0.4-0.4 0.3-1 0.1-0.7 0.4-1.2 0.3-0.4 0.4-0.3 1.9-0.3 2.1-0.9 1.1-0.2 0.5-0.2 4.9-3.9 1.7-1 0.2-0.3-0.1-0.6 0.2-1.6 0.1-0.5 0.2-0.6 0.7-1.7 0.1-0.7 0-0.6-0.2-1-0.3-1.5 0-0.5 0.1-0.5 0.4-0.3 0.9 0 0.9 0.5 0.4 0.1 0.5 0.1 4.9-0.8 0.5 0 0.4 0.2 0.4 0.3 0.2 0.3 0.4 0.9 0.1 0.5 0.3 1.6 0.2 0.3 0.3 0.3 0.5-0.2 0.5-0.6 0.7-1.3 0.6-0.5 0.5-0.7-0.4-0.3-0.8-0.2-0.1-0.1 0.8-0.5 0.3-0.2 0.1-0.8-0.1-1.2-1.3-5-0.1-3.1 0.9-0.4 0.5-0.7 0.4-0.9-0.1-1 0.1-1-0.1-1-1-1.7-0.1-1.2 0-1-0.3-0.7-0.5-0.7-1.4-1.5-1.2-0.8-2-0.7-1-0.2-0.8 0-1.5 0.4-0.9-0.5-1.1-1.1-2.4-3.1-0.8-1.5-0.9-1.1-0.4-0.3-3-0.9-1 0-0.9-0.1-0.3-0.5 0.1-0.5 0.9-4.2 0.3-1.5 0.1-1.9-0.4-2.1-0.2-1.2-0.3-1.6-0.1-0.5-0.9-2.2-0.3-0.8 0.1-0.8 0.3-1.6 0.1-0.5 0.9-2 0.4-0.4 0.6-0.5 2.2-1 2.1-1.3 5.4-5 2.6-1.8 0.7 0.1 0.3 0.2 1.4 0.4 0.1 0.5-0.3 0.7 0.1 0.7 0.4 0.5 0.3 0.1 0.5 0 3-0.6 0.6-0.4 0.7-0.6 0.3-0.1 0-0.3-4.3-1.4-1.1-0.8-0.3-0.7-0.4-0.5 0.1-4.8 0.1-0.7 1.3 0 0.5-0.1 1.4-1.1 3.2-3.3 1.8-0.7 2.1-0.5 5.8-3.1 13.2-1.8 1 0.4 0.7 1.1 0.7 2.6 0.8 1.3 3.9 1 0.6 1-0.6 4.2 0.3 1.9 1.4 0.8 3.2 0.2 0.9-0.2 4.4-3.8 0.8 0.6 1.2 2.6 0.6 0.6 4.6 0 0 0.6 4.2 5.3 0.8 0.5 1.3 0 0.1-1.9 1.1-3 0.8-3.7-0.4-3 0.8-1.3 1-0.8 0.9-0.3-0.2-0.8-0.2-2.1-0.2-0.9 3.7-3.8 0-1.3-0.8 0 0-1.2 2.8 1.2 1 0 2.2-1.7 1.9-4.9 1.5-1 0.8-0.4 0.8-0.8 0.5-1.1 0.5-1.4 0.1-0.9-0.8-0.7 0-1 0.3-0.9 0.9-1.1 2.6-4.9 3.5-2.4 4.3-0.7 9.1 1.7 25.9-5.6 4.1-2.7 0.5 5.4-0.4 5.1 0.3 4.4 2.5 3-1.1-2.2-0.5-4.9-0.6-1.8 1.2-2.1 3.1-1.8 0.9-2.5-1.2-0.2-1.2 0.2-1.1 0.5-1 0.7 0.8-1.7 3.7-4.9 2.2-2 2.6-4.4 1.6-1 1.4-0.4 8.2-4.5 4.1-3.5 1.6-1.9 3.9-7.6 6.6-9.5 0.7-1.8 4.5-7.9 1.7-4.9 1.3-1.6 2.2-1.1 0 1.1-0.8 0 2.4 3.8 4.7 1.9 24.7 0 4.1 2 2.5-1.4 3.2 0.7 1.3 2.1-2.7 2.5-2.7 0.6-11.7-1-4.6-1.7-2.9-0.4-0.9 0.4-1.1 1.7-0.6 0.4-2.3 0-2.8-0.5-1 0.6-0.7 2.5-0.7-1.4-0.5 0.4-1 0.8-0.7 0.2 0.2 1.6 0.4 0.7 0.7 0.2 0.2 0.3-0.1 0.2 0 0.8-2.1-1.1-2.3 0.2-2 1.3-1 2.2-1.7-2.3-2.2-1-3.9-0.4-1.8 0.8-1.5 2.2-0.7 2.9 0.6 2.9-1.5-0.3-0.7-0.3-0.7-0.7-0.8 1.3 0.7 2.2-0.5 2.2-1.4 1.7-1.8 0.4 0.8 2.5 0.9 2 0.3 1.7-1.3 1.4 4.8 3.3 2.6 0.7 2.4-1.4-1.7 0-1.3-0.6-2.3-2 0.8-2.2 1-1.6 2.7-2.7 0.7-0.4 1.2-0.4 0.4-0.3 0.3-0.9 0.2-2.4 0.2-0.8 1.8-1.5 7.1-3.5-1.5-1.1-0.7-0.1 0-1.3 2.1-0.8 0.7 0.1 0.9 0.7 0-1.3 2 1.8 3.3-0.8 5.9-3.4-0.2-0.6-0.3-1.5-0.2-0.6 1.1-0.8 1.3-0.6 1.3-0.1 1.4 0.1 0 1.4-1.7 0.4-1.1 1.5-0.6 2.1-0.3 2.4 1.4-2.4 0.5-1.2 0.4-1.5 0.9 1.8 1.2 1.6 1.2 0.6 1.2-1.5 1.3 1.2 1.1-0.1 1.1-0.9 1-1.3 0.3 1.4 0.5 1.4 0.7 1.2 1.8 2.4 0.4 0.3 0.4-0.2 1.1-0.3 2.1 0.2 1.1-0.3 1.2-1.1 1-1.5 1.1-3.1 1-1.8 2.7-2.8 4.4-2.8 4.3-1.6 2.7 0.8-1.3 1.3-0.1 2.3 0.8 2.4 1.3 1.8 4.7 2.4 1.3 1.3-2 3.7 0.4 2.8 3.1 5.1 0.3 2 0 2 0.3 1.6 1.2 0.6 4.9 0 0 1.4-1 0.1-0.7 0.3-1.3 0.8 3.6-0.4 5.7 3.3 3.8 0.9 2.8 1.5 3.5 7.4 3 2.7-1.7 1.2-1.3 1.3 2.7 0 4.1-2.1 2.1 0.8-0.8 2.2-0.5 0.9-0.9 0.7 1.3 0.8 0.8-0.4 0.7-0.6 1 0.2 0.6 1 1.6 4.2 1.3 2.8 1.6 2.2 2.1 1.3 2.5 0.1 0-1.3-0.9-0.8-1.2-2.2-0.9-0.8 0-1.3 13.4-2.6 3.2-1.5 5.6-3.8 3.1-1.1 0.5 1-0.2 0.8-0.7 0.6-1.1 0.3 0 1.1 3.3 1.8 8.7 7.2 0 1.3-1.6 2.7-0.9 3.6-1.3 3.3-3 1.8 1.3 1 3.2 4.1 1.1 1.9 0.7 0.4 3.1 1.4 0.7 0.5 0.5 1.3 0.3 1.3 0.3 0.9 0.2 0.6-0.2 0.9 0 0.7 0.4 0.3 1.6-0.1 0.3 0.1 0.6 0.5 0.7 0.4 0.7 0.3 0.6 0.1 1.3 0.7 0.2 1.8-0.7 2-1.2 1.8-7.8 6.4-1.1 2.4 1 2.3 2 1 2 0.4 0.9 0.7 0.7 2 1.6 2.4 1.8 1.5 1.1-0.2 8 6.7 3.6 0.9 1.8 2.2 0.4 0.4 2.7-0.2 0.8 0.2 2.7 1.6 1.3 0.6 8.8 0.6 3-0.9 1.3-2.6 0.8-0.5 1.8 0.3 1.5 1.6 0.4 2.9-0.9 1.4-5.1 3.7 1.4 0.8 1.6 0.5 1.7 0.3 0.9-0.1 0.1 5.1-0.4 2.9 1.6 3.6 2.3 7.1 0.2 1.8-0.3 6.8 0.1 4 0.8 3.8 2.6 4.1 1.1 3.8 2.3 3.9 1.2 9.4 2.2 10.7z m-134.3-234.2l0 1.8-0.4-0.3-0.4-0.1 0 2.6-0.7 0 0-3.9-2.6 2.2-0.7 3.1-0.1 3.7-1 3.8-0.8 1.1-1.6 1.3-0.6 1.5-0.4 1.8-0.2 1.9-0.2 4-0.7 0 0-2.6 0.3-4.3 3.4-12.3 0.8-4.8 0.8-1.3 1.7-0.5 1.5 0 1.3 0.2 0.6 1.1z m25.5-9.7l-0.9 2.6 0.3 3.4 1 2.7 1.4 2 1.8 1.6 4.6 1.5 14.1-2.7 4.8 1.1 3.3 3.6 0.7 4.9-2.8 4.5-4.8 3.3-2.4 2.3-1 2.7 0.4 3.2 0.9 3.3 1.2 2.8 1.2 1.6 2.2 1.2 5.2 1.2 2.2 1.7 2.9 5.3 1.9 2.5 2.6 1-1.4 1-1.4 1.8-1.1 2.4-0.4 3.1 0 2.9-0.4 1.2-1.1-0.1-2.4-0.8 1.3 0 1-0.6 0.5-1.3-0.5-2-0.7 0-1.2 1.3-1.6 0.6-1.8 0-1.3-0.6 0-1.3 4-1.7 1.7-1.3 0.9-2.2-5.7 0.4-2.5 0.8 3.9-2.7 2-0.9 0-1.3-2.9-0.3-1.5 0.2-1.1 0.8-1.5 1.7-0.9-0.4-0.8-1.3-1.3-0.7-10.8 1.3-1.9 1.2-5.8 5.1-1.2 2-1.3 2.8-2.6 0.6-2.4 1.3-0.5 4.9 1.5-1.2 0.1-1-0.3-0.2-0.5-0.2 5.2-0.9 0.8 0.3 0.8 4.3-0.2 1.9-1.8 0.9-3.1-0.5-3.4-1.3-3.9-2.5 0.9-1 0.6-2.2 1.1-2.8-1.6 0.9-0.7 0.8-0.7 0.9 0.5 0.5 0.3 0.7-2.2-0.2-1.1 0.2-0.8 0.7-1 0.5-1.1-0.7-1-1.1-0.7-0.6-1.6-0.3-1.9-0.9-1.2-1.6 0.6-2.4-1.6-0.5-3.3 1.7-1.1 0.1-0.7-1.4 0.6-1.3 1.5-0.6 1.6 0.7 0-1.1-6.7-5.2 1.5-4 2.1-3.4 2.8-1.2 3.3 2.2 0.8-1.3 1.2 1.2 1.5-0.2 3.3-2.3-1.7-0.2-1.3-1.2-0.6-1.8 0.5-2 0-1.2-1.5-0.1-0.8-0.9-0.6-1-1.2-0.5-4.8 1.3 1.9-3.9 0.8-1 3-0.8 3.2-1.7 2.3-0.4 0-1.3 0.8-0.4 0.6-0.9-3-1.2-1.3-0.8-0.9-1.7 0.8-0.8 0.2-0.6-0.1-1.3-3.3 1.3-1.9 0.2-0.9-0.8-0.2-0.6-0.5-0.2-0.5-0.4-0.2-1.5-0.2-1.6-0.4-1-0.7-0.4-1 0 2.5-1.2 8.4-1.2 1.8 0.4 0.6 1.1 1.2 0.5 1.3 1 0.6 2.4 0.4 1.4 0.9-0.7 0.4-2.2-0.9-2.9 1.6-2.2 1.9-2.1 2.1-1.5 1.8-0.7-1.2 3.8-0.8 1.7-0.9 1 0.6 0 0.6 0.1 0.6 0.4 0.4 0.9-0.5 0.9-1 2.7 1.6 0.1 1.2-0.4 1-1.2 0.7-2.1-1-0.3-1-0.8-1-0.3 0-1.3 1.5-1.4 1.2 2.5 2 2.5 1.2 2.6-0.7 2.8 2.2 3.1 2.7 1 5.6-0.1-0.8-1.4 1.1-2.5 0.5-0.8 0.7-0.6 0-1.4-0.8-2.6-0.6-1.3-0.9-1.1 0-1.3 0.6-0.4 0.4-0.4 0.4-0.4 0.9-0.2 0-1.1-1.4 0.1-0.8 0.8-0.7 1-0.8 0.6-1.2 0.2-3.7-0.2-0.6-0.6-0.6-1.3-0.7-1.3-1.1-0.6-1.6-0.4-0.7-0.9-0.4-1.2-0.7-1.4-1.3-1.8-0.2-0.8-1.5 1.2-0.8 0.9-1.8 2.5-2.5 1.5-1.9 2.1-1.9 1.4-2.2-0.7-0.4-2.2 0.8-3.5 1.4-3.1 1.5-1.4 0.4-0.8 0.4-1.8 0.3-1.8-0.4-0.8-4.8 1.3-1.6 1.1-0.7-0.2 0-2.2 0.7-1.2 1.1-1.3 1.3-0.9 15-4.4 3-0.1 2.9 1.6 0 1.2-1.7 1.3-2.3 1.3-1.9 1.8z" id="DEU3488" name="Mecklenburg-Vorpommern">
 </path>
 <circle cx="42.5" cy="653.8" id="0">
 </circle>
 <circle cx="920.9" cy="582.4" id="1">
 </circle>
 <circle cx="829.6" cy="737.1" id="2">
 </circle>
</svg>