<?xml version="1.0"?>
<!--
************* Copyright (c) 2017 Pareto Softare, LLC DBA Simplemaps.com *******************		
************* Free for Commercial Use, full terms at  http://simplemaps.com/resources/svg-license ************
************* Attribution is appreciated! http://simplemaps.com ***************************
-->
<svg baseprofile="tiny" fill="#7c7c7c" height="1039" stroke="#ffffff" stroke-linecap="round" stroke-linejoin="round" stroke-width="2" version="1.2" viewbox="0 0 1000 1039" width="1000" xmlns="http://www.w3.org/2000/svg">
 <path d="M782.7 58.1l0 3.2 1.1 0.9 0.2 1.9 0.7 1.8-0.7 2.1-1.9 2.4-2.2 2.4-2.4 1.9-2.3 0.8-1.9 0.3-1.2 0.1-1.2 0.9-1 1.1-2.8 1.6-2.6 2.5-1.3 0.4-1.5 1.3-3.2 0.8-2.4 1.3-3.2 1.3-4.6 0.6-5.2 1.9-3.8 3.9-3-0.7-4.3 0.3-2.6 0.5-1.9-0.9-2.5-0.8-1.9-2.2-2.5-2.3-1.4-1.8-1.6-0.5-2.9 0.7-1.3-0.3-1.7-0.1-4.1-4.4-3.5-2.4-1.7-1.4-2.3-0.7-6.1-1.2-2.6-0.8-2.3-1.3-2.3-0.1-1.9-0.4-1.5-0.6-1.7-1-1.3 0.2-3.2 0.8-4-0.3 2.7-9.4 11.4-28.8 0.3-1.5 0.1-1.9 0.3-1 1.3-3.1 1.3-4.1 0.3-1.4 0.9-1.2 0.1-0.7 0.4-3.6 0.5-1.8 0.5-1.2 1.2-1.3 2.2-0.3 5.7 0.8 0.8-0.1 1.7-1.7 1.9-1.2 1.1-0.3 0.8 0.4 1.1-0.5 1.5-0.1 1.4 0.4 1.1 0.7 3.7-2.2 1-1 2.3-2.6 1.1-1 1.3-0.6 0.5 0 1.1 0.7 0.5 0 0.4-1.2 0.6 0 0.6 1.8 0.7 1.5 1 1.4 1.3 1.3-0.3 1.1 0.2 1.9 1 4 0.3 3.3 0.2 0.9 0.9 1.2 1.4-0.1 0.4 0.6-0.1 1.6 1.1 4.1 0.6 1.6 1.3 1.2 2.7 1.9 2.2 2.1 5.3 7.6 0.9 0.8 1.6 0.2 1.1 0.4 1.2 0.9 2.1 1.9 1.8 2.5 1.1 1.2 2.7 0.9 3.4 3.3 2.5 1.4 8.9 2.7 8.3 1.9z" id="MAR1445" name="Tanger - Tétouan">
 </path>
 <path d="M869.7 163.9l2 1.1 1.2 1.2-0.6 2.8-3.2 4.6-6.7 6.4-1.1 2 1.4 2.3 7.8 5.5 6.7 7.3 2.7 5.6 0.8 4.2-3.2 2.7-3.5 1.9-17.8 3.5-7.1 0.4-3.7-0.4-3.4 0.3-3.3 0.8-4.9 4.3-11.5 15.4-2.9 5.2-3 4.3-1.5 2.7-1.2 3-4.3 0.3-2.4-0.4-5 0.5-3.1-1.2-2.7-1.8-1.3-2.4-6.1-8.7-6-6.1-3.9-1.3-5.1-0.4-5.1-1.3-2.2-1.9-0.5-2.5-1.1-3-5.2-7.7-8.1-21.6 0.9-3.2 5.1-6.1-0.4-4-1.8-3.3-2.7-2.1-8.9-2-1.9-1.9-0.2-2.3 3.1-4.8 0.9-1.8-1.2-3-5.3-9.4-2.6-6.5-0.9-1.6-1.4 0.4-1 0.8-1.7 0.2-1-0.9-0.1-1.9-0.5-2.7-0.8-2.6-1.6-2.4-2.6-3.9 1.1 0.6 1.2 0.2 3.9 0.1 2.3-0.4 5.6-2.4 1.2-0.3 1.2 0 1.2 0.6 1.2 1.6 0.6 0.4 1.1-1.1 1 0 5.2-0.2 1 0.1 1.9 2 0.5 0.1 1.5-0.1 1.4 2.6 0.9 0.8 2-0.1 2.3 2.2 1.6 2.1 1.8 3.5 2 2.3 4.1 2.5 3.6 1.4 2 2.1 0.4 2.3-0.1 1.9 1.5 1.3 3.7 2.3 1.8-0.1 4.6 0.6 0.9-0.6 1.7 0 3.3 0.5 2.2-0.9 2.4-0.3 1.3 0.8-0.4 1 0.3 1.6 3.3 4.7 1.6 3.2 2.7 4.2-1 3 0.3 3.2-0.4 2.1 0.6 2 1.3 1 1.5 0.7 1.6 0.3 1.8 0.6 4.1-1.3 1.4 0.2 0.9 1.7 0.4 1.2 0.9-0.2 2.4-4.4-0.3-1.9 0.3-1.8 0.9-1.5 4.8-6.1 0.8-1.1 1-0.9 7.2-8.1 2.4-2.2 2.5-1.4 2.4 0.1 2.1 0.8 1.6 1.3 1.2 1.5 2.4 1.5 15 4z" id="MAR1446" name="Fès - Boulemane">
 </path>
 <path d="M824.8 56.1l0.5 3.3-0.7 2.7 0.9 15.1 1.8 2.3 3.2 2.2 2.5 0.6 4.9 1.7 1 3.4-0.2 2.1-0.5 2.2-0.1 1.7-1.1 1.2-0.5 1.4 0.1 1.5 0.6 1.6 1.8 0.9 3.1 2.9 2.1-0.1 9.2-7.1 2.1-2.6 1.4-2 2.2-1.9 4.6-0.3 13.3 5.3 1 1.6 0.5 3.4 0.8 1.6-0.8 0.7-1-0.3-1.4-0.1-1.6 0.5-0.9 1.1 0 1.4-1.5 5.1-0.3 0.9-1 0.6-0.8 1.7-4.6 3.1-0.9 1-0.5 0.9-0.1 2.8 1.4 2.7 3.9 5.3 1 4.2 1.6 4.3-0.9 3.8-1.7 2.6-5.8 2.7-0.4 2.2 1 3.8 5.7 12.1-15-4-2.4-1.5-1.2-1.5-1.6-1.3-2.1-0.8-2.4-0.1-2.5 1.4-2.4 2.2-7.2 8.1-1 0.9-0.8 1.1-4.8 6.1-0.9 1.5-0.3 1.8 0.3 1.9-2.4 4.4-0.9 0.2-0.4-1.2-0.9-1.7-1.4-0.2-4.1 1.3-1.8-0.6-1.6-0.3-1.5-0.7-1.3-1-0.6-2 0.4-2.1-0.3-3.2 1-3-2.7-4.2-1.6-3.2-3.3-4.7-0.3-1.6 0.4-1-1.3-0.8-2.4 0.3-2.2 0.9-3.3-0.5-1.7 0-0.9 0.6-4.6-0.6-1.8 0.1-3.7-2.3-1.5-1.3 0.1-1.9-0.4-2.3-2-2.1-3.6-1.4-4.1-2.5-2-2.3-1.8-3.5-1.6-2.1-2.3-2.2-2 0.1-0.9-0.8-1.4-2.6-1.5 0.1-0.5-0.1-1.9-2-1-0.1-5.2 0.2-1 0-1.1 1.1-0.6-0.4-1.2-1.6-1.2-0.6-1.2 0-1.2 0.3-5.6 2.4-2.3 0.4-3.9-0.1-1.2-0.2-1.1-0.6-3.1-4.2-0.6-0.6-0.7-1.9 1.3-1.3 7.5-5.4 1.6-2.9 3.4-2.7 1.2-1.3 2-0.8 1.3-1.2 0.8-1.9 0.4-2.3-0.1-4-0.7-2.5 3.8-3.9 5.2-1.9 4.6-0.6 3.2-1.3 2.4-1.3 3.2-0.8 1.5-1.3 1.3-0.4 2.6-2.5 2.8-1.6 1-1.1 1.2-0.9 1.2-0.1 1.9-0.3 2.3-0.8 2.4-1.9 2.2-2.4 1.9-2.4 0.7-2.1-0.7-1.8-0.2-1.9-1.1-0.9 0-3.2 7.5 2.2 1.8 0.2 1.2-0.4 3.6-2.3 8.7-1.5 5.2-2.4 5.4-1.1 2.6-1.3 0.6 0.9-1.2 0.9 1.6 2.3 0.9 0.4 3 0.2 1.2-0.1z" id="MAR1447" name="Taza - Al Hoceima - Taounate">
 </path>
 <path d="M739.3 93.5l0.7 2.5 0.1 4-0.4 2.3-0.8 1.9-1.3 1.2-2 0.8-1.2 1.3-3.4 2.7-1.6 2.9-7.5 5.4-1.3 1.3 0.7 1.9 0.6 0.6 3.1 4.2-2.2 5.1 0.5 1.4-0.2 1.3-1.2 0.9-6.4 2.7-2.2-0.1-2.6 0.1-1.9-0.3-1.5-0.6-0.4-1.7-1.2-0.9-0.8-1.2-2.9-1.5-0.8 0.8-1.1 0.9-0.7 1.7-2 1.4-1.5 2.4-2 0.9-1.4-0.2-2 0.3-2.8-0.3-3.3-0.7-4-1.9-4.3-1.2-4.6-0.4-3.1 0.1-2.3-0.5-2.2 0.8-2.4-0.1-2.9 1.7-2.6 0.5-1.9 0.7-2-0.7-2.5-0.5-2.3-1.4-1.5-0.2-2.2-1.9 3.5-7.4 6.8-10.3 0.7-1.3 1-3 1.4-2.3 13.5-28.6 2.7-9.2 4 0.3 3.2-0.8 1.3-0.2 1.7 1 1.5 0.6 1.9 0.4 2.3 0.1 2.3 1.3 2.6 0.8 6.1 1.2 2.3 0.7 1.7 1.4 3.5 2.4 4.1 4.4 1.7 0.1 1.3 0.3 2.9-0.7 1.6 0.5 1.4 1.8 2.5 2.3 1.9 2.2 2.5 0.8 1.9 0.9 2.6-0.5 4.3-0.3 3 0.7z" id="MAR1448" name="Gharb - Chrarda - Béni Hssen">
 </path>
 <path d="M662.6 204.8l1 3.2 2.7 2.1 2.3 1.3 7.5 5.4 4.4 4.9-0.6 2.2-0.4 1.4-0.3 2.8 1 1.1 3.2 0.1 1.8 1 1.3 2.9-0.4 1.7 0.1 3.1-1.4 2.4-1.8 1-7.7 2.5-4.8 0.9-17.9-1.4-2 1-1.9 0.6-1.2 1-1.2-0.3-1.5-0.1-1.3-0.3-3.9-0.1-3.2 0.6-1.2-0.2-5.5 3.3-2.1 0.5-1 2.2-1.8 8-2.8 7-3.6 4.5-4.3-0.7-6.5-4.5-2.2-1.2-2.3-1.9-4.6-1.2-8.2-0.4-1.5-0.5-1.3-0.2-1.5-1.1-6.5-9-5-4.1-2.7-1.6-2.2-2.5-3.7-4.9-1.4-2.3-0.7-2.6-0.8-0.5-1.3-0.4-1.2-2.5 0-1.6-0.6-1.6 0-2.8-0.8-6.6-2.6-6.3 0.8-1.8 0.9-1.6 1.7-0.8 1.6-0.6 1.1-1 0.4-1.1 0.7-1.2 1.2-1.2 0.9-3.2 0-3.5-0.6-2.5-2-3.8 3-1.4 2.9-0.7 1.6-0.7 0.3-0.4 1.5 1 3.2 0.5 1.6 0.8 2.3 0.5 4.2 2.2 1.8-0.3 3.9 0 0.8 1-2.2 2.1-0.1 1.6 0.6 1.1 1.4 0.5 2-1.3 2-3 5.7-4 2-4 0-1.9-0.2-1.5-0.1-2.5 0.3-2.2 0.5-1.4 1.2-1.7 0.4-1.6 0.9-1.1 0.3-1.5 4.6-3.1 2.4-2.1 2.3-1.3 2.5-0.9 2.2-0.4 2.5 3 1.2 0.8 1.2 2.5 1.1 2.8 0.6 2.7 2.1 4.8 1.8 0.9 5.9 2.3 1.6 0.8 2.6 0.6 0.3 1.4-0.7 1.7-1 1.3-0.4 2.1 0.9 1.8 0 1.4-0.4 0.8-0.8 6.2 0.9 3.5 1.9 1.6 2.8 1.4 7.4 2.3 3.6 1.8 3.1-0.7 5.4-3.1z" id="MAR1449" name="Chaouia - Ouardigha">
 </path>
 <path d="M605 167.9l-0.3 1.5-0.9 1.1-0.4 1.6-1.2 1.7-0.5 1.4-0.3 2.2 0.1 2.5 0.2 1.5 0 1.9-2 4-5.7 4-2 3-2 1.3-1.4-0.5-0.6-1.1 0.1-1.6 2.2-2.1-0.8-1-3.9 0-1.8 0.3-4.2-2.2-2.3-0.5-1.6-0.8-3.2-0.5-1.5-1 1-1.3 1.6-0.7 4.1-1.3 2.5-1.3 1.2-0.3 1.1-0.6 1.1-1.3 1-1 1.3 0.3 0.7-0.4 1.9 0.4 1.6-0.9 1.9-0.3 1.3-0.6 2-1.3 2.1-2.7 1.8-0.9 1.7-2.2 2.1 0.6 1.3-0.4 0.7-0.5z" id="MAR1450" name="Grand Casablanca">
 </path>
 <path d="M695.9 138.9l2.3 1.2 0.7 1 1.5 2.8 0.1 1.6 1.1 1.8 1.4 1.9 0.8 1.9-1.7 5.2 0.5 1.3 1 1.4 0.5 1.6 1.2 1.2 0.7 1.9-1 5.2-1.7 3.1-1.4 4.3 0 1.6 0.2 2.4-0.2 2.6-0.9 2.3 0.3 1.9-0.4 2 0 1.7-0.1 1.9 0.1 1.3 0.4 1.4 0.7 1.1-1.2 1-1.8 0.7-7.1-0.4-1.8 0.4-1.2 0.8-1.6 0.1-3.5-1.1-1.2-0.9-1.6-0.5-1.6-0.3-3-1-0.7-1.1 0.1-1.4-0.3-2.9-1.4-1.2-4.1-1.4-1.8-0.2-1.5 0.5-0.9 2.7-2 3.8-0.1 1.4-0.4 2.1 0.3 1.6 0.6 3.4-1.6 2.2-5.4 3.1-3.1 0.7-3.6-1.8-7.4-2.3-2.8-1.4-1.9-1.6-0.9-3.5 0.8-6.2 0.4-0.8 0-1.4-0.9-1.8 0.4-2.1 1-1.3 0.7-1.7-0.3-1.4-2.6-0.6-1.6-0.8-5.9-2.3-1.8-0.9-2.1-4.8-0.6-2.7-1.1-2.8-1.2-2.5-1.2-0.8-2.5-3 1.1-0.4 2-1.7 2.2-0.8 6.6-5.3 6.5-7.2 5.5-9.3 0.7-1.5 2.2 1.9 1.5 0.2 2.3 1.4 2.5 0.5 2 0.7 1.9-0.7 2.6-0.5 2.9-1.7 2.4 0.1 2.2-0.8 2.3 0.5 3.1-0.1 4.6 0.4 4.3 1.2 4 1.9 3.3 0.7 2.8 0.3 2-0.3 1.4 0.2 2-0.9z" id="MAR1451" name="Rabat - Salé - Zemmour - Zaer">
 </path>
 <path d="M813.7 251l3.8 5.9 1.7 3.4 4.1 6.1 2.7 5.5 0.9 3.8 2.6 1.6 0.8 3.1 2.3 2.3 0.8 2.7 1.6 0.9 3.6-0.8 2.7-1.3 1.8-1.2 2.5 0 3 0.8 2.1 0.9 2.8 0.7 2.9-0.6 2.9-0.2 2.5 0.7-1.2 3.6-0.1 6.2 0.6 4.7 3 6.8 2.5 1.9-0.5 3.8-0.1 4-3.6 1.1-18.2 3.3-2.4 0.2-2.6-0.6-4.3 2.3-0.9 18.9-4.6 0.3-3.4 2.5-0.8 1-0.3 1.3 0.4 5.6-0.1 1.6-1.3 2.3-0.4 1.4 0.2 1.3 0.7 0.6 1.1 0.1 1.1-0.5 1.8-1.7 0.9-0.5 1.1 0.3 0.9 0.9 1.7 2.8 1.1 1 2.3 1.1 0.7 0.7 0.6 1.4 0.3 1.3 0.1 1.4 3.4 5.4-3.5 5.6-3.1 3.1 0.9 9.1-11.8 6.1-10.5 2.5-9.6 0.6-7.4 2-6.1 3.5-7 9.1-8.7 7.1-9.2 4.1-16.2-11-5-4.1-3.2-1.3-3.6-3.1-0.5-4.5 1.2-3.1 0.2-3.6-2.4-2.7-2.2-3.2-1.1-2.7-2.1-2.4-1.9-1.5-0.2-3.4 0.3-2.6 1.6-1.6 1.9-5.1-0.5-3.6 0.4-4.6 4.4-13.9 1.3-8.1-2.5-4.5-9.5-6.7-3-3.2-3.8-1.4-3.2-0.8-4.6 1.2-3.4-0.2-2.6-1 1.4-4.8 5.7-7 3.1-5.5-1-4.7-4.4-2.3-9.2 2.9-1.4-4-2-2.1 0.5-3.3 1.9-3.3 4.6-2.9 6.9-5.4 2.6-1.2 2.5-0.9 5-0.1 0.5-1.3-1.9-4.2-0.4-2.5-1.4-2.7 1.2-3.7 1.9-2.2 2.3-1.9 0.2-1-5.3-1.5-8.1-5.5-7.7-3-7.8-7.5-8.8-3.6-0.1-3.1 0.4-1.7-1.3-2.9-1.8-1-3.2-0.1-1-1.1 0.3-2.8 0.4-1.4 0.6-2.2-4.4-4.9-7.5-5.4-2.3-1.3-2.7-2.1-1-3.2 1.6-2.2-0.6-3.4-0.3-1.6 0.4-2.1 0.1-1.4 2-3.8 0.9-2.7 1.5-0.5 1.8 0.2 4.1 1.4 1.4 1.2 0.3 2.9-0.1 1.4 0.7 1.1 3 1 1.6 0.3 1.6 0.5 1.2 0.9 3.5 1.1 1.6-0.1 1.2-0.8 1.8-0.4 7.1 0.4 1.8-0.7 1.2-1-0.7-1.1-0.4-1.4-0.1-1.3 0.1-1.9 0-1.7 0.4-2-0.3-1.9 0.9-2.3 0.2-2.6-0.2-2.4 0-1.6 1.4-4.3 1.7-3.1 1-5.2-0.7-1.9-1.2-1.2-0.5-1.6-1-1.4-0.5-1.3 1.7-5.2-0.8-1.9-1.4-1.9-1.1-1.8-0.1-1.6-1.5-2.8-0.7-1-2.3-1.2 1.5-2.4 2-1.4 0.7-1.7 1.1-0.9 0.8-0.8 2.9 1.5 0.8 1.2 1.2 0.9 0.4 1.7 1.5 0.6 1.9 0.3 2.6-0.1 2.2 0.1 6.4-2.7 1.2-0.9 0.2-1.3-0.5-1.4 2.2-5.1 2.6 3.9 1.6 2.4 0.8 2.6 0.5 2.7 0.1 1.9 1 0.9 1.7-0.2 1-0.8 1.4-0.4 0.9 1.6 2.6 6.5 5.3 9.4 1.2 3-0.9 1.8-3.1 4.8 0.2 2.3 1.9 1.9 8.9 2 2.7 2.1 1.8 3.3 0.4 4-5.1 6.1-0.9 3.2 8.1 21.6 5.2 7.7 1.1 3 0.5 2.5 2.2 1.9 5.1 1.3 5.1 0.4 3.9 1.3 6 6.1 6.1 8.7 1.3 2.4 2.7 1.8 3.1 1.2 5-0.5 2.4 0.4 4.3-0.3z" id="MAR1452" name="Meknès - Tafilalet">
 </path>
 <path d="M700.9 301.8l-3.5 4.6-12.1 8.4-19.4 9.7-4.1 2.8-3.1 0.7-13.8 5.8-2.9 4.6-3.4 2.9-5.4 1.5-5.9-0.1-3.9-1.4-3.9-0.8-2.2-1.7-2.6-1.5 2.3-8.5-1.8-1.4-4.9-5.5-1.7-3 0.9-2.7 2.8-1.8 9-2 2.5-3.2 0.8-3.8-1.9-7.2-2.5-6.4-0.9-6.4 0.2-4.8-0.3-3.6 0.3-2.9-1.1-3 3.6-4.5 2.8-7 1.8-8 1-2.2 2.1-0.5 5.5-3.3 1.2 0.2 3.2-0.6 3.9 0.1 1.3 0.3 1.5 0.1 1.2 0.3 1.2-1 1.9-0.6 2-1 17.9 1.4 4.8-0.9 7.7-2.5 1.8-1 1.4-2.4 8.8 3.6 7.8 7.5 7.7 3 8.1 5.5 5.3 1.5-0.2 1-2.3 1.9-1.9 2.2-1.2 3.7 1.4 2.7 0.4 2.5 1.9 4.2-0.5 1.3-5 0.1-2.5 0.9-2.6 1.2-6.9 5.4-4.6 2.9-1.9 3.3-0.5 3.3 2 2.1 1.4 4z" id="MAR1453" name="Tadla - Azilal">
 </path>
 <path d="M866 316.3l0.1-4 0.5-3.8-2.5-1.9-3-6.8-0.6-4.7 0.1-6.2 1.2-3.6-2.5-0.7-2.9 0.2-2.9 0.6-2.8-0.7-2.1-0.9-3-0.8-2.5 0-1.8 1.2-2.7 1.3-3.6 0.8-1.6-0.9-0.8-2.7-2.3-2.3-0.8-3.1-2.6-1.6-0.9-3.8-2.7-5.5-4.1-6.1-1.7-3.4-3.8-5.9 1.2-3 1.5-2.7 3-4.3 2.9-5.2 11.5-15.4 4.9-4.3 3.3-0.8 3.4-0.3 3.7 0.4 7.1-0.4 17.8-3.5 3.5-1.9 3.2-2.7-0.8-4.2-2.7-5.6-6.7-7.3-7.8-5.5-1.4-2.3 1.1-2 6.7-6.4 3.2-4.6 0.6-2.8-1.2-1.2-2-1.1-5.7-12.1-1-3.8 0.4-2.2 5.8-2.7 1.7-2.6 0.9-3.8-1.6-4.3-1-4.2-3.9-5.3-1.4-2.7 0.1-2.8 0.5-0.9 0.9-1 4.6-3.1 0.8-1.7 1-0.6 0.3-0.9 1.5-5.1 0-1.4 0.9-1.1 1.6-0.5 1.4 0.1 1 0.3 0.8-0.7-0.8-1.6-0.5-3.4-1-1.6-13.3-5.3-4.6 0.3-2.2 1.9-1.4 2-2.1 2.6-9.2 7.1-2.1 0.1-3.1-2.9-1.8-0.9-0.6-1.6-0.1-1.5 0.5-1.4 1.1-1.2 0.1-1.7 0.5-2.2 0.2-2.1-1-3.4-4.9-1.7-2.5-0.6-3.2-2.2-1.8-2.3-0.9-15.1 0.7-2.7-0.5-3.3 2.1-0.2 1.4-0.7 0.6-1.3 0.5-2.1 1.4-1.4 1.6-0.7 1.6 0.2 1.3 0.9 2.6 2.4 1.3 0.9 4.7 0.7 1.6 1 2.3 0 2.5 1 3.2 0.3 2.7-0.6 7.7-2.8 1.3-0.8 2.9-3 1.2-0.4 1.2 0.5 0.8-0.1 2-2 2.4-6.1 1.6-2.3-0.1-0.8 0.3-0.7 0.6-0.2 0.7 0.4 0.3 0.6-0.3 1.3 0.2 0.9-0.6 2.4 1 3.3-1.2 1.2 0.2 2.2 1.3 1.4 1.8-0.7 0.9 1.3-0.5 0.6-0.3 1.2-0.1 1.3 0.2 2.5 0.3 1 1.5 2 1.6 1.2 2.2 0.7 4.5 0.5-2.7-2.3-4.8-5.5-0.9-1.6 0.3-0.6 0.8 0.7 3.1 3.3 0.5 0.8 2.9 3.1 2.7 1.5 3.2 1.2 6.5 0.9 2.8-0.3 1.5-0.4 1.1-0.6 1.3-1.5 1.2-1 1.2-0.3 6 2.3 1.4 0.3 1.5 0.5 1.6 0.9 1.7 0.6 0 3 0.6 2 1.2 1.5 1.9 0.8 2.3 1.7 1.9 1.8 2.1 1.4 2.8 0.2 0.8 0.6 0.4 2 0.3 1 0.8 1.1 3.3 2 2.1 2.1 6.6 4.1 1.1 1.2-0.2 0.6-0.8 0.6-1.5 3.4-3.3 5.1-0.5 1.3 7.5 7.8 2.3 0.7 0.7 0.4-6.7 8.1 2.4 2.8 1.6 3.4 4.5 13.9 0.3 2-0.2 1.5-2.9 12.2-0.2 3.5 0.6 3.7 0.6 2.2 0 0.8-0.5 1.1-2 2.2-0.2 1.2 0.3 1.2 1 0.6 2.2 0.8 1.1 0.8 0.6 0.9 2.8 6.8 0.3 2.5-0.8 2-0.9 1.4-1.2 4.2-0.8 1.9-0.7 1.9 0 7.3 0.6 2.5 3.2 3 1.1 2.2 0.8 2.3 1.3 1.9 1.6 1.5 1.9 1.3 1 1 0.4 1.6 0 1.7-0.4 2.4-0.6 1.3-0.4 0.5-2.7 1.9 8.5 14.3 2 1.7 4 1.5 17.4 13.5 1 1.7-3.6 4-2.1 1.6-2.3 1-2.6 0.3-1 0.6-1 1.3-0.6 1.3-0.9 2.7-1.1 7.6-0.1 1.3-0.4 0.7-1.4 1.3-0.2 0.4 0.2 1.2 1.1 0 2.3-0.9 1.2 0 1.3 0.4 1 0.9 0.3 1.5-1.2 2.7-2.5 0.5-25.1-1.1-41.4-2-12.6-0.6-11.2 3.2-11.6 0.9-3.6 2.1 4.3 11.5 2.7 7.2-11 1.5-9.9 3z" id="MAR1454" name="Oriental">
 </path>
 <path d="M765.5 425.9l-6.5 3.5-5.3 4-6.9 6.1-6.6 4.5-6.1 6.6-4.4 8.5-5.6 9.1-6.6 8.5-6.1 2-5.2-2-2.2-6.5-7.9 1-7.4 1.5-17 0-4.4 0.5-8.2-18.7-1.2-4.1 0.6-2.6 4.1-6.8 0.3-2.1-2.4-0.9-3.7-0.7-1.7-2.5-1.9-7.1-0.2-3.1 1.7-5.3 1.2-2.4-3.5-4.6-4.9-3.8-3.4-1.3-5.2 1.2-2.8 1.3-2 3.7-2.2 1.8-3.1 0.5-4.7 0.1-4-1.5-4.8-0.2-2.6 2.6-2.7 4.7-1.8 3.9-2.2 3.3-6.6-1.2-2.3-1.2-2.2 0-2.2-0.4-5.5 0.8-3.2 1.9-2.7 2-2.4 2.6-10.1 0-2.9 1-1.9 2.8-1.3 3.6-2.3 2.2-2.8 1.1-3.4-1.9-3.9-0.1-5.1 0.8-4.2 3-9.1 0.4-3.8-1.2-4.4 0.3-1.7 2.5-1 2.2 0.2 2.2 0.8 1.6-1.4 1.9-0.5 1.9 0.2 2 0.2 12.9 1 4.2 1.7 3.8 0.4 2.2-1.6 1.1-2 0.5-2.3 1.1-8.5-3.7-6.6 0.4-6 1.9-2.8 3.3-1.7 3.3-1.3-0.3-1.1-1.4-2 0.1-5.4 1.2-3.2 1.1-3.6 0.4-3-0.4-2.9 0.1-4.5 3.2-3.1 0.5-3-1-2.9-1.3-3.8 1.5-1.6 2-0.9 3-2.8 3.2-3.3-0.5-3.1 0.9-3.1 1.5-4.6 4.3-3 0.2-2.5-1.6-1.5-1.4-1.7-0.7-1.6-0.4-4.4 0.2-4.1-2.2 3.2-4.8 1.6-2.1 1.2-1 2.4-0.8 1-1.1 1.5-2.5 1.5-2 0.8-1.2 0.6-2 2.2-1.6 0.9-2 2.6-3.8 0.3-0.8 0.2-1.6 0.3-1.6 0.6-1.4 0.7-1.1 3-2.8 0.8-2 2.6-3.5 8.1-8.9 6.4-11.3 3.9-9.4 0.6-2.7 1.1-9.2 1.1-4.8 0.2-1.5-0.3-1.9-0.7-1-0.9-0.6-1.1-1.2-0.7-1.2-1.6-3.6-0.5-2.4-0.5-0.4-1.4-0.3-0.6-0.6-1.1-1.9-4.5-3.1-1.3 0-1.5-0.4-0.9-1 0.2-2.8 1.3-2.7 1.6-2.6 1.2-2.4 0.4-1.6 0.1-0.9-0.7-1.3 0.2-1.9-0.2-6.5 3.5 2.5 2.5 4.7 2.3 2.3 2.9 0 3.6-1.9 2.4-1.9 6.3 0.4 7.3-0.4 5.8 2.5 7.1 0.2 4.7-0.8 2.7-1.2 2.6-2.2 6.4-4 2.6-0.8 1.7 1.1 1.1 1.8 0.3 2.5 1.2 1.2 1.6-0.1 3.5-0.8 4.5-0.5 14.8-0.1 8.6-2.6 3.6-1.5 5.2 0.8 3-0.2 2.7-2.1 2.8-4.7 3.4-4 4.1-3.3 4.3-2.2 3.1-0.6 2.4-1.7 21.3-10.1 3.6-3 2.2-2.6 1.8-1.2 1.2-1 2.6 1.5 2.2 1.7 3.9 0.8 3.9 1.4 5.9 0.1 5.4-1.5 3.4-2.9 2.9-4.6 13.8-5.8 3.1-0.7 4.1-2.8 19.4-9.7 12.1-8.4 3.5-4.6 9.2-2.9 4.4 2.3 1 4.7-3.1 5.5-5.7 7-1.4 4.8 2.6 1 3.4 0.2 4.6-1.2 3.2 0.8 3.8 1.4 3 3.2 9.5 6.7 2.5 4.5-1.3 8.1-4.4 13.9-0.4 4.6 0.5 3.6-1.9 5.1-1.6 1.6-0.3 2.6 0.2 3.4 1.9 1.5 2.1 2.4 1.1 2.7 2.2 3.2 2.4 2.7-0.2 3.6-1.2 3.1 0.5 4.5 3.6 3.1 3.2 1.3 5 4.1 16.2 11z" id="MAR1455" name="Souss - Massa - Draâ">
 </path>
 <path d="M618.4 271.1l1.1 3-0.3 2.9 0.3 3.6-0.2 4.8 0.9 6.4 2.5 6.4 1.9 7.2-0.8 3.8-2.5 3.2-9 2-2.8 1.8-0.9 2.7 1.7 3 4.9 5.5 1.8 1.4-2.3 8.5-1.2 1-1.8 1.2-2.2 2.6-3.6 3-21.3 10.1-2.4 1.7-3.1 0.6-4.3 2.2-4.1 3.3-3.4 4-2.8 4.7-2.7 2.1-3 0.2-5.2-0.8-3.6 1.5-8.6 2.6-14.8 0.1-4.5 0.5-3.5 0.8-1.6 0.1-1.2-1.2-0.3-2.5-1.1-1.8-1.7-1.1-2.6 0.8-6.4 4-2.6 2.2-2.7 1.2-4.7 0.8-7.1-0.2-5.8-2.5-7.3 0.4-6.3-0.4-2.4 1.9-3.6 1.9-2.9 0-2.3-2.3-2.5-4.7-3.5-2.5-0.3-7.8-0.2-1.3-1-2.6 0.8-1.7 1.6-10.4 0.2-4.2-0.3-1.7-0.7-0.9-0.8-0.7-0.8-1 2-2.5 1.4-2.5 1.5-4.4 0.7-1.1 1.5-1.5 0.4-1.4 0.9-0.9 0.3-0.8 1.2-1.9 0.9-5.9 0.5-1.2 5.7-6.2 2.5-3.6 1.4-1.2 1-1.2 0.8-1.8 1.6-1.7 2.6 1.7 2.1 0.8 3.1 0.6 9.3-2 8.1 1.6 2 2.5 0.9 2.6 2.5 3 6.9 2.4 3.6-0.1 7.4 0.4 7.2 1.2 4-0.4 3.3-1.7 7.2-15.9 3.7-4.9 0.7-4.1-0.9-2.3-7.1-4.2-2-3.2-1.6-3.3-0.1-3.5 2.6-2.5 2.2-1.4 2.6-2.3 2.5-1.2 2.9-2.4 2.9-1.7 3.5-2.9 3.3-3.9 1.1-4.2-0.1-3.9 1.5-7.1 1.2-1.9 2.6-1.5 1.4 2.3 3.7 4.9 2.2 2.5 2.7 1.6 5 4.1 6.5 9 1.5 1.1 1.3 0.2 1.5 0.5 8.2 0.4 4.6 1.2 2.3 1.9 2.2 1.2 6.5 4.5 4.3 0.7z" id="MAR1456" name="Marrakech - Tensift - Al Haouz">
 </path>
 <path d="M564.5 235l-2.6 1.5-1.2 1.9-1.5 7.1 0.1 3.9-1.1 4.2-3.3 3.9-3.5 2.9-2.9 1.7-2.9 2.4-2.5 1.2-2.6 2.3-2.2 1.4-2.6 2.5 0.1 3.5 1.6 3.3 2 3.2 7.1 4.2 0.9 2.3-0.7 4.1-3.7 4.9-7.2 15.9-3.3 1.7-4 0.4-7.2-1.2-7.4-0.4-3.6 0.1-6.9-2.4-2.5-3-0.9-2.6-2-2.5-8.1-1.6-9.3 2-3.1-0.6-2.1-0.8-2.6-1.7 5.8-6 1.2-2.6 0.7-2.9 0.1-1.2 0.3-0.9 2.3-2.9 0.9-2 0.5-2.3 0.3-7.6-0.3-0.4-1.1-0.6-0.3-0.5 0.1-1.6 0.4-1.2 1.7-3.3 0.5-1.4 0.1-1.5-0.5-1.2-1.1-1.8-0.4-1.2 0-1.3 1.2-2.3 9.2-7.8 7.1-8.5 6.1-4.3 2.1-2 7-9.6 7.9-8.7 0.5-0.9 0-2.5 0.6-1 5.1-6.1 1.1-0.2 0.6 0.7 0.5 0.2 1.5-0.1 1.2-0.3 2.3-1.2 2.2-1.8 3.7-4.6 2.2-1.8 2.6-1.1 8.5-2 6-2.6 2 3.8 0.6 2.5 0 3.5-0.9 3.2-1.2 1.2-0.7 1.2-0.4 1.1-1.1 1-1.6 0.6-1.7 0.8-0.9 1.6-0.8 1.8 2.6 6.3 0.8 6.6 0 2.8 0.6 1.6 0 1.6 1.2 2.5 1.3 0.4 0.8 0.5 0.7 2.6z" id="MAR1457" name="Doukkala - Abda">
 </path>
 <path d="M310.6 725.7l-0.3 0.4-1.2 4.9 0 3.5-1.3 2.7-1.8 7-2.5 6.2-1.9 8.4-1.9 6.9-2.5 11-2.5 10.3-3.1 9.7-2.5 6.2-1.9 3.4-4.3 4.2-3.8 2.7-4.3 3.5-5 3.4-6.9 4.1-5.6 3.5-2.3 1.6-7.4-1.5-5.4-0.4-5.1 0.3-5.1 0.9-20.5 7.1-2.6 0.6-2.6-0.3-5.3-2-8.6-2.3-6.9-1.3-5.2-0.3-10.2 0.9-17.8 4.4-2.6 0.1-2.9-1-2.2-2.2-1.8-3-2.7-2-6.6-2.5-6.8-1.7-0.7-0.3 0.8-1.6 1.4-1.9 1.5-1.2 1.6-0.9 1.2-0.9 0.8-1.4 0.6-4.5 1.5-4 0.5-3.2 0.9-2 0.2-0.9-0.5-3.3 0.5-1.1-0.5-0.4 0.4-1 0.5-2.2-0.2-2.2-0.5-1.5-0.2-0.9 0.1-6.1-0.5-1.7 1.9-8 0.5-1.1 1.9-7 2.8-4.1 1.4-1.3 1.8-4.6 0.4-3.1 0.8-1.6 0.3-2.2 2.5-6.4 4.7-6.7 1.7-3.1 0.3-0.9 0.2-1.4 1-3.1 0.5-0.9-0.2-1.1 0.6-4-0.8-3.1 0.7-1.4 1-2.9 3.5-4.5 0.6-0.5 2.9-0.6 3.4-1.9 5.2-5.1 0.9-1.2 0.6-1.2 0.7-1 1.5-0.6 6.9-0.8 1.2-0.5 6.5-3.4 11.3-8.2 7.6-5 3.7-4.2 3.8-7.6 1.2-3.8 1.3-5.6 1.8-4.1 1.8-8.9 1.2-2.6 5.1-7.7-0.4-1.5 0.9-0.4 3.3-8 2.1-7.2 0.1-1.5 0.3-1.3 1.2-2.7 0.3-1.5 0.3-1.3 0.7-0.7 1.9-0.9 2-1.7 2.3-0.8 1-1.2 2.7-4.3 1.4-5.1 0.7-1.5 1-1 1.2-0.7 5.9-2.3 11.3-1.9 9 0.2 11.2-3.7 17.1-3 0.6-0.5 1.4-1.4 1.4-0.5 14-6.1 0.1 0.2 4.7 9.6 2.7 4.1 6.8 12.6 0.6 3.2-7.9 3.6-8.1 5.1-0.8 0.3-7.2 6.1-6.6 9.5-7.5 22.6-6.8 14.6-3.1 4.7-10.9 11.3-2.6 4.6-2 5.3-0.7 2.7-0.4 2.9 0.3 2.5 0.8 2.4 3.9 11 3.3 16.6 24.3-0.2z" id="MAR3456" name="Laâyoune - Boujdour - Sakia El Hamra">
 </path>
 <path d="M667.3 473.2l-4.3 0.5-9.2 2.5-8.7 1-5.3 5-10.9-4.5-7-0.5-4.8 0.5-6.9 3-5.7 6-7.1-0.4-1.3 0.5-1.4 0.2-1.4-0.1-2.7-0.5-3-0.1-2.1 1-3.8 3.9-1 0.7-3 1.6-3.8 3.6-6.6 4.5-5.7 5.4-2.1 1.5-7 3.1-4.3 2.9-4.1 4-1 0.6-2.2 1-1 0.8-2.1 3.8-0.8 0.8-2.8 1.6-2.8 2.3-8 4.3-1.2 1-0.7 1.4-0.2 1.9 0 71.2-8.4 0-0.1 0.1 0.3 3.2 1.8 5.9 0.7 4.9-0.9 3.1-0.9 4 0.4 3.7 1.4 4 1.3 4.2 0 2.8-2.6 2.1-5.9 1.2-7 1-5.2 0-7.7-0.7-4.8 0.1-4.3 0-3.7 0.7-4.6 2.7-5.2 4.1-6.5 5.7-3.8 3.4-5.2 0.8-5.1 0-5.1-2.8-3.2-1.4-2.1 0.1-3.5 2-4.2 1.3-3.9 0-6.4-2.8-7.8-4.1-4.5-2.2-6.4-0.6-6.5-1.4-4.5 0.7-5.8 0-7.7 2.8-6.5 2-7.1 2.2-8 1.9 1.9 6.3 2.8 3.4 0 4.2-1.3 3.6-3.9 3.4-4.4 4.5-2.6 3.4-2.5 4.9-2 2.8-3.3 4.5-2.9 5.7-1 3.6-1.2 4.1-2.2 1.2-7.9 1.1-5 1.4-4.4 1.3-1.6 2.4-24.3 0.2-3.3-16.6-3.9-11-0.8-2.4-0.3-2.5 0.4-2.9 0.7-2.7 2-5.3 2.6-4.6 10.9-11.3 3.1-4.7 6.8-14.6 7.5-22.6 6.6-9.5 7.2-6.1 0.8-0.3 8.1-5.1 7.9-3.6-0.6-3.2-6.8-12.6-2.7-4.1-4.7-9.6-0.1-0.2 18.5-8.2 2.1-1.6 1.5-2 2.4-4.2 2.1-2 0.9-1.2 0.4-1.4 0.6-1.1 3.7-2.6 2.9-3.6 0.5-1 2.6-1.6 0.5-0.6 0.8-1.4 2.2-1.8 1.4-2.4 1.8-1.9 1-0.6 17.8-9.2 4.2-2.9 5.1-2.6 2.5-1.6 7.6-7.3 3.3-5 4.1 2.2 4.4-0.2 1.6 0.4 1.7 0.7 1.5 1.4 2.5 1.6 3-0.2 4.6-4.3 3.1-1.5 3.1-0.9 3.3 0.5 2.8-3.2 0.9-3 1.6-2 3.8-1.5 2.9 1.3 3 1 3.1-0.5 4.5-3.2 2.9-0.1 3 0.4 3.6-0.4 3.2-1.1 5.4-1.2 2-0.1 1.1 1.4 1.3 0.3 1.7-3.3 2.8-3.3 6-1.9 6.6-0.4 8.5 3.7 2.3-1.1 2-0.5 1.6-1.1-0.4-2.2-1.7-3.8-1-4.2-0.2-12.9-0.2-2 0.5-1.9 1.4-1.9-0.8-1.6-0.2-2.2 1-2.2 1.7-2.5 4.4-0.3 3.8 1.2 9.1-0.4 4.2-3 5.1-0.8 3.9 0.1 3.4 1.9 2.8-1.1 2.3-2.2 1.3-3.6 1.9-2.8 2.9-1 10.1 0 2.4-2.6 2.7-2 3.2-1.9 5.5-0.8 2.2 0.4 2.2 0 2.3 1.2 6.6 1.2 2.2-3.3 1.8-3.9 2.7-4.7 2.6-2.6 4.8 0.2 4 1.5 4.7-0.1 3.1-0.5 2.2-1.8 2-3.7 2.8-1.3 5.2-1.2 3.4 1.3 4.9 3.8 3.5 4.6-1.2 2.4-1.7 5.3 0.2 3.1 1.9 7.1 1.7 2.5 3.7 0.7 2.4 0.9-0.3 2.1-4.1 6.8-0.6 2.6 1.2 4.1 8.2 18.7z" id="MAR3457" name="Guelmim - Es-Semara">
 </path>
 <path d="M255 829.3l-2.7 1.8-4.4 4.8-3.8 6.9-2.5 5.5-4.3 8.8-3.1 4.9-1.9 2.6-5 2.8-5.6 2-6.3 2.8-5 2.7-6.8 2.7-4.4 2.8-3.1 4-2.5 4.8-3.2 6.9-2.5 7.4-1.2 4.8-3.8 16.3-1.2 9.5-1.3 6.1-1.8 7.5-1.3 11.5 0 9.4-1.2 5.4-0.7 4.1-3.1 4.7-2.5 3.4-4.3 4.7-3.8 2.7-1.2 2.7-3.8 3.4-3.7 5.4-3.1 3.3 0.6 2.7 0.6 4.7-1.9 4.8-1.8 5.3-5 6.7-5.6 3.4-8.2 0.6-11.2 0-8.8-0.6-10.6 0-9.3-1.3-8.8-1.4-10.6-0.7-7.5 0-9.4 1.3-24.3 0-9.4 0.8-13.7 2.6-4 0.7 0.1-1.7 2.6-9.9 0.2-2.9-0.2-2.6 0.2-1.5 1-1.9 0.2-0.7 0.1-1.6-1.3-1.5 0.4-0.9 0.2-2.1 1.2-2.7 0.5-2.8 0.6-1.6 6.5-13.4 2.3-2.4 1.1-2.6 1.8-1.5 1-2.3 0.7-1 1.5-0.6 0.7-0.6 0.8-0.1 1 0.6 0.7 0.8 6.8-2.7 1.2-1 1.3-1.6 1-1.7 2.2-7.8 0.1-1.1 0.6-0.8 3.1-3.2 0.8-1 0.8-4.3 0.2-5.7 0.3-1.5 0.7-2.4 0.5-1.1 1.3-1.8 0-0.7-0.4-1 0.1-1.2 0.7-1.7 0.3-0.2 1.4-0.2 1.5-0.4 2-1.8 2.1-2.4 0.6-1.3 0.4-1.4 0.3-1.5 0.1-1.6-0.6-1.6-1.2-0.2-2.5 0.7 0.4-1.3 1.1-2.2 0.5-0.8 3-2.7 0.3-0.5 4.6-10.8 0.7-0.9 1.5-1.2 2.8-4.8 0.9-4.6 0.6-1.2 1-1.4 2.2-4 3-3.5 0.2-0.4 1.5-1.3 0.3-0.7 0.6-2.1 1-1.6 0.9-1.2 0.8-1.3 0.3-1.7 0.2-3-0.3-1.3-0.8-1.6-0.4 0.5 0.2 0.9-0.2 1-0.4 0.5-2.2 1.4-1.4-0.1-0.6 0.1-0.9 0.9-1.2 1.6-0.9 2.3-0.8 1.5-0.3 1.3-0.7 1.9-0.6 0.8-2.9 2.7-0.9-0.7 0.4-1.1 1.4-1.7 0.3-1 2.3-4.3 3.9-5.4 0.3-1.1 1.9-2.3 4.6-3.9 2-0.7 2.7-1.7 0.8-0.8 2.1-0.2 1.6-1.1 1.3-1.5 1-1.5 2.6-3 1.7-2.6 2.4-1.8 1-0.9 0.5-1.3 0.5-0.8 5.7-4.7 3.4-3.7 4.3-6.6 1.6-1.8 2-1.9 1.2-0.7 1.2-0.7 1.3-0.4 2.7-0.4 1.3-0.8 2.1-1.6 0-1.6 0.2-0.4 0.7 0.3 6.8 1.7 6.6 2.5 2.7 2 1.8 3 2.2 2.2 2.9 1 2.6-0.1 17.8-4.4 10.2-0.9 5.2 0.3 6.9 1.3 8.6 2.3 5.3 2 2.6 0.3 2.6-0.6 20.5-7.1 5.1-0.9 5.1-0.3 5.4 0.4 7.4 1.5z" id="MAR3469" name="Oued el Dahab">
 </path>
 <circle cx="747.9" cy="131.3" id="0">
 </circle>
 <circle cx="778.6" cy="58.8" id="1">
 </circle>
 <circle cx="682" cy="193.7" id="2">
 </circle>
</svg>