<?xml version="1.0"?>
<!--
************* Copyright (c) 2017 Pareto Softare, LLC DBA Simplemaps.com *******************		
************* Free for Commercial Use, full terms at  http://simplemaps.com/resources/svg-license ************
************* Attribution is appreciated! http://simplemaps.com ***************************
-->
<svg baseprofile="tiny" fill="#7c7c7c" height="643" stroke="#ffffff" stroke-linecap="round" stroke-linejoin="round" stroke-width="2" version="1.2" viewbox="0 0 1000 643" width="1000" xmlns="http://www.w3.org/2000/svg">
 <path d="M50.2 488.8l-0.2 0.2-3.6 10-1.5 12.1-1.6 1.5-1.3 2-0.9 2.2-0.6 2.7 11-10.9 9.1-17.9 0.7 2 0.1 1.3 2.1 5.3 1 1.4 2.3 1.2 3.7-1.7 1.6 0.6 1.1 7.4-5.7 6.1-14.2 9.4-11.3 13.3-7.1 3.7-7.6-3.4-10 0.4-10.1 2.4-5.3 3.2 2.9-7 1.7-3.2 0.7-2.7-3.9-4.9-2.3-4.4 0.8-3.9 5.4-3.4 13.3-6.5 1.1-0.2 1.8 0.6 1.3 0.2 1.3-0.2 4.8-1.5 1-2.1-0.2-3 0.1-3.5 1.6-9 0.7-2.5 3.2-7.3 12.3 10.2 0.7-0.2z" id="CHE159" name="Genève">
 </path>
 <path d="M306.7 122.3l0.6 1 0.6 0.5 9.3 4.7 6 4.8 1.5 2.5 0.3 2.6 1.5 1.1 2.4 0 10.7 2.8 4.3 0.4 1.6-0.1 1.8 0.7 1.9 1.3 2.1 3.5 3.5 3-3.6 3.4-0.5 2.1 0.2 1.1 0.8 0.5 4.1 0.5-0.6 0.8-13.2 3.8-24.2-2-2.1-0.9-1.3-2.8-0.6-0.2-0.5 0.6-0.4 1.4-0.9 1.1-1.2 1.2-1.8 0.8-3.7 3.1-2.5 1.6-5.7 2-3.4 0.7-4.2 0.3-18.6-3.8-0.6 3.3 0.4 1.5-0.4 1.2-0.9 1-2.2 1.6-0.4 1-0.1 1.8 0.4 2.3 0.5 1.4-1.2 1.1-10.9 2.1-6.9-0.7-1.4 0.3-0.9 0.9-0.4 1.8-0.6 1.3-1.6 2.4-1 2.2-1.6 2.1-2.4 2.4-3.5 1.8-2 1.6-2.4 2.4-2.3 0.5-5.1-0.2-2.5 1.4-8 6.2-2.4 1.4-1.7 0.5-1-0.5-0.7-0.9-2.1-1.7-6-0.4-2.6-1 0.5-0.5 4.2-7 6.4-6.6 15-11.1-0.9-8.1 1.4-6.7 4.2-4.3 2-0.2 1.2-0.5 3.2-4.4 2.3-1.3 2.3-0.6 2.1-1.4 1.7-3.6-2.3-3.3-3.3-3-3.3-2.7-4.1 2-26.3 2.6 1.1-4.2 2.7-5.1 3.3-4.3 5.7-3.4 0.3-6.2 5.8-1.3 3.6-2 3.3-2.9 1.7-2.7-1.1-3.9-2.3-4.6-0.5-3.6 4.1-1.3 2-1.5 2-0.5 2 0.5 2 1.5 5.7 0.9 11-2 5.3 1.1 2.8 1.7 3 0.5 6-0.6-4 9.3 1.2 5.3 4.8 2.9 6.5 2.1 0.9 0.7 0.7 1.2 0.8 1.1 1.8 0.8 1.4-0.3 8.4-3.7 5.9-1.2 6.1 0.2z" id="CHE160" name="Jura">
 </path>
 <path d="M199 209.5l4.5 2.5 2.5 3.3 1.4 2.9 0.7 3-0.2 2.2-0.9 4.1-0.4 1-1.1 1.1-0.6 2.4 0.1 2 0.6 0 33.7-10.5 1.5-0.4 0.2 4.4 3 0.8 6.5 3.7 1.7 1.5 0.8 1.4 0 0.5-1.2 1-0.2 0.9 0.6 1.9 0.4 2.6 0 1.7-0.6 1.9-2.1 1.1-2.3 1.9-4.9 2.1-0.8 1-0.7 1.5-1.2 5.4-1 2.3-2.1 5.8-16.7 13.8-8.5 7.1-7.1 5.9-24.2 20-3.6-8.1-0.8-3.4 0.1-3.1-0.2-1.8-0.6-1.7-1.8-1.5-1.2-1.6-0.6-2 0.5-3.1-0.7-4-13.1 7.9-5.8 4.9-3.4 2.3-6.7 2.3-10.8 5.7-3.1 2.4-2.2 1.2-1.9 0.3-11.4 0.6-4.1 0.7 0.8-2 0.4-4.5-0.7-3.6-3-5.6-0.9-2.9 3.3-11.4 10.7-6.3 23.8-7.5 14.8-11.3 5-7.3-2.6-6 3-5.2 2-2 5.6-2 0.8-2.1 0.8-0.6 3.2-1.6-0.3-5.6 6.7-2.3 14-13 2.6 1z" id="CHE161" name="Neuchâtel">
 </path>
 <path d="M546.5 73.4l-0.3 2-5.1 8.3-4.8 4.8-3.7 6-1.1 6.2-0.1 3.4 1.2 4.5 4.8 10.5 1.7 5 3 4 0.6 1.3-1 2.7-5.8 6-0.5 1.8 1.9 1.7 4.4 2.3 1 1.1-0.1 2.1-0.5 4.6 0.7 2.3 2.6 2.8 6.6-2-0.7 3.1-2 3.6-4.1 5.3-3.8 2.4-1.5 0.6-1.9 0.2 0.5 2.6 5 10.6-2.9 5.6-0.3 2.9 1.2 13.8 1.6 11.4-6.4-0.3-2.8-1.3-1.2-1.1-1.6-2-2.4-3.8-0.8-1.6-7.4-21.2-1.7-3.8-0.9-2.7-0.7-3.2-1.2-1.9-1.3-1.2-3.7-1.6-3.7 0.4-3.7 4.4-1 2.6-5 9-3.6 2.7-2 0.2-1.5-0.6-1-0.8-1.3-1.3-0.6-1.7 0.3-0.8 1.6-0.7-0.6-0.5-2-0.8-6-0.2-4.5-1.5-3.3-3.5-15.2 6-4.9-9.8-3.4-1.5-4.8 0.1-0.9 0.2-0.5 1.3 0 2.6 0.3 2.8-0.4 2-1.2 1.1-5.7 2-5 0-13.5 2.8-2.9-5-0.2-0.7-0.6-6.4 1.7-2.1 5.3-10.7 0.7-0.8 9.8-9.1 1.6 0.4 1.9 0.8 14.1 2.1 1.6-0.8 1.8-1.2 3-7.1 2.5-3.8 1.6-3.7-0.2-6.2-2.8-0.8-2.2-1.2-1.9-1.9-1-1.5-1-4.5-1.4-0.9-0.3-3 0.2-1.7-0.4-1.1-1.9-2.3-3.5-0.6-2.8-1.9-0.4-2 0-4.6-6.8-0.7-2-1.5-0.8-2.5-6.5-9.9-1-2.3-1.3-0.9-1.7-2.5-3.2-0.9-1.3 0.2-0.6 0.5-0.3 1.4-0.3 3.1-0.5 0.9-5.6 5.1-3 0.4-0.6-1.1-0.5-1.9-0.1-1.9 0.1-1.6-1.3-1.1-1-0.2-8.1-4-0.7-0.5 8.7-1.8 4.2-2.4 3.5-4.2 4-6.4 3.1 1.6 14.3 0.9 1.3 1.4 0.7 3.1 0.5 3.1 0.6 1.4 28.7 0 10-2.3 2.1-1.5 1-1.4 0.9-1.6 1.9-2.2 1.8-1.4 4.8-2.6 4-1.2 1.5-1.6 1.1-1.6 1.2-0.8 11.9-2 4 0 5.8 1.7 2.5 0.3 1.2 1.4 1.2 3.2 1.6 3.2 2.1 1.4 8.4 2.2 14.2 0.1 0.6-0.1z" id="CHE162" name="Aargau">
 </path>
 <path d="M543.1 216.9l2.7 4.4 1.9 0.5 2.3 1 1.2 3.5-6.8 4.2-1.2 1.1-0.6 1.2-0.3 1.2-0.1 1.7-0.3 1.2-0.8 1.1-1.9 2.1-0.4 1.1 0.4 1.8 1.2 1.6 2.4 1.3 3.4-1.6 8.9 2.4 8.5 7.8 0.8 1.2 0.7 1.6-0.8 2.5-0.7 1.7-7.3 3.8-1.2-2.2-3-3-3.2-0.6-1.9 1.9-0.2 1.5-2.2 0.7-7.3-0.1-0.6-1.4-2.4-1.4-3.4 1.7-4.7 1.6-2.8-0.5-2.5-0.1-2.8 0.5-5.4-0.1-3.8 0.8-4.2 1.5-1.3 0.9-0.7 1.6-0.1 1.3 1 2.5-12.3 1.2-3.7 2.4-0.5 0.9 0.9 2.8 0.2 1.7-0.3 1.6-4.5 4.1-5.3 6.8-0.9 0.3-0.5-0.4-0.8-1.1-1.9-0.1-1.1 0.5-0.9 0.7-1.6 2.4-0.8 1.6-0.8 2.3-0.8 4.7-3.8 8.8-0.5 1.7 0.7 3.3 1.1 2.4 1.2 5-3.6 5.8-4.5-0.3-3.9 1.5-3.3 1.9-1.7 0.3-1.4-0.4-2.9-3.5-2.6-4.1-14.6-11.7-3.5-3.8-0.1-2.5-2-6.4 0.4-1.6 2.1-2 0.7-1.9 0.2-2.4-0.5-3.9 0-1.9 0.4-1.4 0.8-0.6 1.9-0.8 1.7-1 0.5-0.2 1.8 0.5 1.1-0.2 1.1-0.8 0.7-1.2 0.8-1.9 1.2-0.9 0.4-0.6 0.5-3.1 0.4-0.8 1.3-2 0.7-2.9 0.6-1.4 1.5-7.5-4.8-1-1.5-1.3-5.9-0.6-0.8-5.2-1.1-1.4-1.5-2.7-1.9-2.6-0.6-2.2 0-2.1 0.7-6.6 0-6.4 0.5-3.4 0.6-2.2 1.8-3.2-1.9-9.8 0-3.3-0.7-2.6-1.2-2.9-1-1.9-5.7-13.2 13.5-2.8 5 0 5.7-2 1.2-1.1 0.4-2-0.3-2.8 0-2.6 0.5-1.3 0.9-0.2 4.8-0.1 3.4 1.5 4.9 9.8 15.2-6 3.3 3.5 4.5 1.5 6 0.2 2 0.8 0.6 0.5-1.6 0.7-0.3 0.8 0.6 1.7 1.3 1.3 1 0.8 1.5 0.6 2-0.2 3.6-2.7 5-9 1-2.6 3.7-4.4 3.7-0.4 3.7 1.6 1.3 1.2 1.2 1.9 0.7 3.2 0.9 2.7 1.7 3.8 7.4 21.2 0.8 1.6 2.4 3.8 1.6 2 1.2 1.1 2.8 1.3 6.4 0.3z" id="CHE163" name="Lucerne">
 </path>
 <path d="M556.3 265.3l5.4 3.8 15.9-2.1 0.4 2-0.3 1.7-3.1 9.6-0.6 1.3-1 1.1-2.5 2.3-11.3 5.9-3.7 2.5-0.5 0.7-0.1 1 1.6 2.5 0.6 1.4 0.3 2.1-0.4 2.3 0.9 6.6-10.7 0.4-2.3-1.9-0.8-1.9-1.1-0.5-1 0.1-4.2 2.8-1.2 0.1 0.1-1 0.1-2.2-1.2-1.7-0.8-0.2-0.9 0.6-0.8 1.6 0.1 1.1 0.7 1.5 0.4 3.8 0.4 1.6 1.2 4.1 0 3 2.2 1.6 0.3 0.7 0.3 1.9 1.2 1.6 0.9 1.5 1.5 1.6 3.5 1.5 0.6 0.6 0.4 1.1-0.5 0.6-6.3 2-5.2-4.6-4.6-2.8-4.5-6.3-0.6-7.6 0.4-3.1 0.2-6.5 1.1-3.7 0.3-1.5 0-8.7-0.4-1.3-1.1-1-5.2-2.5-1.4-1.2-1.1-1.5 0.3-2.2 0.6-1.1 1.3-2.1 0.6-1.5 0.7-3-0.5-0.9-0.8-0.5-8.4-2.6-0.9 0-1 0.4-2.4 1.3-3.8 0.9-1-2.5 0.1-1.3 0.7-1.6 1.3-0.9 4.2-1.5 3.8-0.8 5.4 0.1 2.8-0.5 2.5 0.1 2.8 0.5 4.7-1.6 3.4-1.7 2.4 1.4 0.6 1.4 7.3 0.1 2.2-0.7 0.2-1.5 1.9-1.9 3.2 0.6 3 3 1.2 2.2z" id="CHE164" name="Nidwalden">
 </path>
 <path d="M558.9 414.5l-6.5 8.8-3.7 2.5-5.1 0.6-1.9 0.6-0.7 0.7-0.1 0.8 0.3 1.3-0.1 0.7-1.2 2.1-0.9 2.3-0.5 2.1 0.3 3.8-9.4 2-6.1 3.3-4.7 5-1.8 4.1 0.8 1.4 1.5 1.1 0.1 3.2-1.3 3-2.2 2.6-2.6 2-6.2 3.2-10.9 14.4-4.6 3.2-9.6 2.1-4.8 2.3-4.3 4.4-2.2 3.1-0.9 2.7 0.7 1.2 5.2 4.5 6.5 12.7 0.7 11.7-4.8 10.4-9.7 8.4-2.4 0.8-4.6 0.5-2.2 1.7-1.6 3.3-0.5 3.7 0 3.6-1.2 9.1-0.4 0.6-2.1 4.7-0.2 0.7-2.7 3.6-1.6 1.4-2.1 0.6-15.7 3.6-3.2 2.6-2.4 4.6-0.6 6-4.6 0.2-0.2 0.6-0.7 3.2 0.2 1.7-0.6 1.1-2.7 1.5-1.3-0.1-4-1.2-6.1 0.1-10.6-3.9-2.2 0.3-1.6 0.8-1.9 0.4-2.7-0.9-0.3-0.8-4.2-6.1-3.3-3.1-3.5-2-22.5-5.7-3.7 1.9-2.2 3.6-2.4 3.2-4.6 0.6-6.6 2.9-13.1 9.6-7.1 2.5-16.6-1.8-2.9 1-6.2 3.9-13.7 5.6-6.6 1.3-7.3 0.1-6.8-1.4-5.1-3.1-9.9-11.2-1.6-2.5-1.1-3.2-1.6-5.9-2.5-6.6-0.8-3.4-1.1-0.7-15-17-5-2.2-1.9 0.8-1.5 1.6-1.7 1.3-2.1-0.3-2-1.5-0.1-1 0.4-1.3-0.1-2.5 0.4-0.3-0.1-3.4-0.4-3.1 0.4-1.4 1.8-2.1 1.5-2.5 0.3-2.4-3.4-3.3-17.6-3.9-1.9-5.4 2-10.9 3.8-11.5 7.9-15.3-5.1-8.7-7.8-8.4-4.2-7.3 1.2-3.7 5.8-6.9 1.6-5.3-0.3-3.2 4.2 0.3 10.5 2.1 2.7-1.6 1.5 2.3 3.2 3.9 1.5 2.7-0.1 1.7-0.5 2.1-0.3 2.4 0.9 2.4 2.7 1.9 3 0.6 2.3 1.9 1 5.7 1 2.9 14.1 24.6 5 6.7 1.6 3.1 2.5 3.3 8.5-4.8 7.3-4.8 5.2-6.5 2.5-1.1 4.2-4.3 3.1-4.4 2.6-4.5 0.9-2.5-0.4-4.2 0.1-1 3.8-4.2 2.7-3.1 7.7-4.5 1.7-2.9 0.2-2.1 1-0.9 7.2-2.4 1.3 0 0.6 0.7 0.2 2.2-0.3 2.6 0.3 0.8 1.3 0.4 1.3 0.7 8.3-2.8 5.1-3.6 2.1-2.5 1-0.8 3.2-0.7 9.6-0.1 5.3 1.6 1.9 0.7 1.4-0.1 1.9-0.5 7.9-3.3 3.2-2.9-2.8-1.7-1.3-1.7 5-3.2 7.5-2.2 0.7-0.8 2.4-1.9 0.4-0.7 0.7-2.1 1.7-1.2 4.6 0.6 14.6 7.1 2.6-0.2 27-19.7 2.6 0.8 3.3 0 2-0.4 4.7-1.8 8.1-5.7 6.1-4 0.7-0.9 0.8-1.6-0.3-2.1-1.4-2.7 0-0.5 1.2-1.1 7.2-4.5 5.7-0.3 18.8 3.6 1.9 1.6 5.3 2.4 6 0.6 0.3 0.2 0.2 2.5 0.8 0.5 1.1 0.4 1.3-0.1 11.5-2.3 5.3-1.9 10.2-5.8 2.3-2 3.5-2.2 2.3-2.4 1.1-1.6 1-1.8 1.1-7.1 1.3-5 0.9-2.6 1.3-2.7 4.3-5.3 2.4-0.4 1.8 0.9 0.5 0.8 0.4 1.5-0.1 2.7-0.5 4-0.8 3.5-1.5 5.2-0.3 1.6 0.3 1.8 0.6 2 2.4 5.9 3.3 5.3 8.8 4.7z" id="CHE165" name="Valais">
 </path>
 <path d="M809.2 116.5l-5.8 2.4-3.4 0.6-4.1-0.2 0 1.3 0.3 0.7 7 3.5 0.4 3-9.5 5.9-0.4-4.6 1.1-1.2 0.1-1.5-0.2-1.2-0.9-1.2-1.1-1.1-1.4-1.2-0.8 0.2-1.4 1.3-1.4 1-0.7 2.2 1 0.9 0.3 0.7-0.5 0.6-2.6 1.3-2.3 1.3-0.7 3.7-1.1 8.2 1.5 4.9-7.1-0.2-23.5-11.1-1.4 1.4 0 2.4-0.2 4-1.2 3.1-1.2 2.3-1.8 2.2-3.3 2.6-0.7 1.9-0.6 7.7 0.4 2.8 0.8 2 1.7 2.3 1.1 2 0.8 2.6 0.4 1.4 1.1 3.4-3.7 1-1.4-0.1-2.3-1.7-6.8-3.8-11-1.4-2-0.6-1-0.6-1.6-2 2.6-3-1.6-7.4 0.1-2 0.5-1.3 1.4-1.6 1.7-2.9-0.3-1.1-0.7-0.5-1 0-2.2 0.5-2.9-5.7 0.4-0.6 2.7-2.6 1.7-3 2.2-4.8 1.1-2 0.8-0.9 2 0.3 7.9-1.2 1.6 0 3.6 1.2 10-2 7.9-1.3 4.9 0 2.6-0.8 1.4-1.5 0.4-1.7 0.7-2 1.1-2 2.6-0.6 1.9-0.8 11.1-5 4.6-4.2 1.2-0.6 0.9-0.1 1 0.6 1.9 0.4 0.6 0.4 2.2 1.8 3.5 1.3 9 1.6z" id="CHE166" name="Appenzell Ausserrhoden">
 </path>
 <path d="M779.7 100.1l4.3 3.8 5.1-1.5 7.8-6.4 0.4 0.4 6.6 9.9 8.2 3.8 6.3 5.6-0.1 13.9-2.2 5-8.6 10.8-1 3-1.1 5.7-0.9 2.3-7.5 9.1-10.8 18.3-3.8 11-0.5 11 1.7 5.4 2.4 4.7 1.8 5.2 0.1 6.9-2.1 4.4-3.4 3.5-2.5 3.5 0.2 3 0 1.3 1.7 5.4 2.5 5.4 6.7 11.5 1.3 2.6-1.7 0.4-1.3 0.8-1.1 1.2-0.8 3-0.6 1.3-2.1 1.7-1.1 1.4-1.5 2.7-1.1 2.5-0.7 3.9 0.1 1.5-0.3 1.7-0.6 1.8-2.9 5.1-2.8 0.9-0.6 2.7-0.7 0.3-1.6-0.2-2.5-1.9-4.5-2.2-29.6-4.4-1 0.6-1.9-0.2-3.5-4.2 0.4-3-0.2-1.3-1.7-3.8-0.8-2.9-0.1-1.2 0.7-1.8 1-9.3-0.4-2.3-0.9-2.9-2.9-6-1.9-2.5-1.8-1.4-1.6 0.2-1.6 0.5-2.5 1.3-4.1 0.4-1.4-0.4-4.1-2.4-0.2-0.6 0.6-0.8 7.6-5.3 1.3-4.6 1.1-15.5-23.3-4.5-3.4-2-11.6-10.6-1.3 0-3.5 1.9-5.9-6-1.4-2.7 0.1-2.8 0.6-3.1-6.9-2.2-20.8 2.1-12.1-2.1 3-7.6 4.1-3.2 9.1 1.3 2.9-0.3 13.1-6.1 2-1.8 1-1.6-0.1-2.7 1.2-2 1.7-2.2 2.8-2.5 1.4-1.6 0.7-1.3-0.7-2.5-1.3-7-5.2-9.6-1-1.4 2.3-0.1 1.8-2.5 3-5.5 2.2-2.6 2.5-5.6 0.8-1.2 1-0.3 0.8 0.3 1.6-0.2 2.2-1.1 1.2-0.3 1.5-0.2 0.8-0.5 0.4-0.8 0.1-1.1-0.3-3.3 0-1.2-6.1-4.4-0.5-1.1-0.2-1.6 0.7-1.5 1.3-0.5 2.2-0.6 1.8-2 0.8-0.2 1.7 0.6 1.4 0.1 3.8-0.6 0.7 0.1 1.6 2 0.6 0.2 2.8-0.3 2.8 0.7 2.8 0 3.6-0.6 1.8-1 1-1.2 2-3.7 3.3 4 7.2 3.4 8.6 2 4 0.5 0.8-0.7 2-1.1 1.3-0.1 1.9 0.4 1.5-0.4 1.2-0.9 1.3-2.3 0.8-2.5-1.1-4.9-1.6-0.3-1.2 0.5-1.4 0.3-2.4-0.4-0.8-0.5 0-0.9 0.8-0.5 0.8 0.2 2.1-1.8 2.7-0.8 1.8-0.1 0.6-0.2 1.1-1.1 2.2-0.8 3.1-0.1 2.1 3.3-0.1 2.5-0.8 1.8 0.6 1.6 4.9 6.4 1.9 1.6 1.5 0.5 1.5-3 11.3-8.6 2.2 1.5-1 3.1 0.4 0.9 2.2 1.1 1.9-0.1 2.4-0.9z m-31.8 80.7l2.9 2.1 1.9 0.8 1.6 1 1.9 0.4 1.5 0 6.2-2.4 4.3-2.2 3.2-2.3 3.1-3.4 4.3-8.2 3.8-18.6-1.5-4.9 1.1-8.2 6-2.4 2.8-0.4 3.1 1.6 9.5-5.9-0.4-3 0.4-2.4 0.5-0.8 5.1-5.1-9-1.6-3.5-1.3-2.2-1.8-0.6-0.4-1.9-0.4-1-0.6-0.9 0.1-1.2 0.6-4.6 4.2-11.1 5-1.9 0.8-2.6 0.6-1.1 2-0.7 2-0.4 1.7-1.4 1.5-2.6 0.8-4.9 0-7.9 1.3-10 2-3.6-1.2-1.6 0-7.9 1.2-2-0.3-0.8 0.9-1.1 2-2.2 4.8-1.7 3-2.7 2.6-0.4 0.6 2.9 5.7 2.2-0.5 1 0 0.7 0.5 0.3 1.1-1.7 2.9-1.4 1.6-0.5 1.3-0.1 2 1.6 7.4-2.6 3 1.6 2 1 0.6 2 0.6 11 1.4 6.8 3.8 2.3 1.7 1.4 0.1 3.7-1z" id="CHE167" name="Sankt Gallen">
 </path>
 <path d="M710.8 529.7l-0.1 0.2-16.1 10.9-4.1 6.2-0.8 4.1 0.4 7.2-0.7 3.9-1.7 3-2.1 1.3-4.9 1.5-5.6 4.4-1 3.6 3.9 11.1-7.2 6.8-0.7 1.6 0.7 1.6 2.3 2.4 1.9 5.8 2 3 2.1 1.2 4.8 1 2.1 1.3 2.5 5.3-0.8 5.4-5.5 10.8-7.1 8.7-6.6-1.2-7.3-3.3-8.7 2.7 0.8-4.9 1.3-3.8 0.9-3.9-0.4-5.5-1.2-4.2-1.8-4.2-3.9-6.8-2.2-5.1-1.4-2-1.5-1.2-12.7-6.8-3.4-1.2-3.7-0.3 1.2-2.4 3.8-8.9 6.4-7.8 3.3-7.4-5.7-7.5-3.3-1.2-6.8 0.2-3.5-0.5-1.7-1.2-1.7-3-1.8-0.6-1.4 0.6-3.4 3.1-1.6 0.9-3.9-0.2-10.3-6.1-4.2-1.5-2.2-1.1-14-20.7-6.2-6.5-6.1-3.1-5.8-2.3-4.1-3.4-2.4-5.1-0.9-7.8 0.8-8.3 3.6-16.6 0.7-9.2-0.1-9.7-0.9-7.3-3.1-4.4-6.3-1.1-2.9 0.6-0.3-3.8 0.5-2.1 0.9-2.3 1.2-2.1 0.1-0.7-0.3-1.3 0.1-0.8 0.7-0.7 1.9-0.6 5.1-0.6 3.7-2.5 6.5-8.8 7.3-6.1 0.5-1.7 0.8-2.1 1.8-5.1 1.3-1.5 1.6-0.4 2.6-0.2 19.3 4.5 9.2-4 7.4 3.4 17.1 1.5 13-2.2 11.2-4.6 2.2-1.5 0.5-1.1-0.2-1.1-0.5-1-0.2-1.4 0.3-1.6 1.6-2.3 1.6-0.8 1.7-0.7 2.1-0.5 1.9-1.8 1.2 0 0.6 0.5 0.3 1.7 0.6 1.6 1.1 1.8 7.5 0.7 1.1 0.5 1.6 1 2.5 1 2.9 2.8 0.5 0.8 0.2 1-0.4 1.2-1.7 3.1-0.7 1.9-0.7 2.4-0.3 2-0.5 3.8-0.8 4 1.3 6.2 1.3 3.2 2.3 4 2.4 3.5 1.6 0.7 1.5-0.6 3.3-0.5 2.5 4.8 0.1 1.9-0.1 2.6-0.5 3.5 0.4 2.7 0.8 2.3 1.1 2.1 0.2 1.3-0.5 1.5-0.7 3.1-0.9 2.6 0.2 9.7-0.8 2.2-3.4 6.4-0.4 2.2 0.2 2.1 0.4 2-0.4 1.6-0.9 2.1-1.8 2.1-0.1 1.3 0.3 1.6 1.8 4.5 2.3 4.6 0.2 2.8-0.6 4.1 0.4 1.7 0.7 1.7 1.8 2.9 1.4 1.3 3.7 2.5 4.6 5.7 1.9 1.9 5.2 3.8z" id="CHE168" name="Ticino">
 </path>
 <path d="M727.9 289l-6.2 5.5-3.8 5.3-1.1 0.7-1.8 0.8-4.2 0.1-3.2 0.7-7.6 5.2-2.2 0.6-1.8-0.7-1-1.4-1.6-1.1-2.1-0.8-3.7-0.3-2.2 0.4-1.4 0.8-0.6 0.7-0.1 1.2 0 2.5-0.3 1.1-0.6 1-2.3 5.2-1.7 2.2-3.1 2.9-5 2.4-12.3 3.8-2 0.1-0.9-0.6-0.5-2.2-0.4-0.8-1.1-0.2-2.3-0.9-4.6-0.2-0.1-6.2-0.2-1.6 0.3-2.1 5.8-4.3 1.7-1.6 2.3-0.3 4.7-1.9 1.5-1.3 0.9-1.8 0.1-3.2-0.1-1.9-0.9-3-3-5.4 4.7-2.4 1.1-3.9 0.8-4.3-0.4-2.1-0.8-1.4-3.6-2.5-1-1.1-1-1.7-0.1-1 0.7-1.1-0.1-0.5-6.2-9-3.1-2.8 1.1-3.7 2.5-1.8 5.5-2.6 1.9-2.2 1.8-2.7 2.2-4.5 0.2-2.4-0.6-4.2 1.1-1.8 0.5-1.3 0.6-3.6 0-1.9 4.3-13.7 3.5-1.9 1.3 0 11.6 10.6 3.4 2 23.3 4.5-1.1 15.5-1.3 4.6-7.6 5.3-0.6 0.8 0.2 0.6 4.1 2.4 1.4 0.4 4.1-0.4 2.5-1.3 1.6-0.5 1.6-0.2 1.8 1.4 1.9 2.5 2.9 6 0.9 2.9 0.4 2.3-1 9.3-0.7 1.8 0.1 1.2 0.8 2.9 1.7 3.8 0.2 1.3-0.4 3z" id="CHE169" name="Glarus">
 </path>
 <path d="M710.8 529.7l-5.2-3.8-1.9-1.9-4.6-5.7-3.7-2.5-1.4-1.3-1.8-2.9-0.7-1.7-0.4-1.7 0.6-4.1-0.2-2.8-2.3-4.6-1.8-4.5-0.3-1.6 0.1-1.3 1.8-2.1 0.9-2.1 0.4-1.6-0.4-2-0.2-2.1 0.4-2.2 3.4-6.4 0.8-2.2-0.2-9.7 0.9-2.6 0.7-3.1 0.5-1.5-0.2-1.3-1.1-2.1-0.8-2.3-0.4-2.7 0.5-3.5 0.1-2.6-0.1-1.9-2.5-4.8-3.3 0.5-1.5 0.6-1.6-0.7-2.4-3.5-2.3-4-1.3-3.2-1.3-6.2 0.8-4 0.5-3.8 0.3-2 0.7-2.4 0.7-1.9 1.7-3.1 0.4-1.2-0.2-1-0.5-0.8-2.9-2.8-2.5-1-1.6-1-1.1-0.5-7.5-0.7-1.1-1.8-0.6-1.6-0.3-1.7-0.6-0.5-1.2 0-1.9 1.8-2.1 0.5-1.7 0.7-1.6 0.8-1.6 2.3-0.3 1.6 0.2 1.4 0.5 1 0.2 1.1-0.5 1.1-2.2 1.5-11.2 4.6-13 2.2-17.1-1.5-7.4-3.4 0.7-4.4-0.5-2.6-1.2-4-0.5-1-2.6-1.7-0.7-1-0.5-1.3-0.2-1.8 0.1-1.8 1.6-5.1 1.6-3.6 0.4-1.7 0.1-1.3-0.2-1.9 0.8-1.3 1.5-1.4 3.6-1.6 2.2-0.4 2.2-1.3 5.1-6.7 2.2-2.3 3.9-1.4 3.3 1.2 0.9 0.1 3.3-0.8 0.8-0.5 0.7-1.1-0.2-2.9 0.3-1.2 1.8-3 2-2.6 0.4-2.7-0.2-3.8 0.6-0.8 1.7-0.4 1.5-0.6 1.5-1.6 2.5-1.4 2.4-3.2 4.6 0.2 2.3 0.9 1.1 0.2 0.4 0.8 0.5 2.2 0.9 0.6 2-0.1 12.3-3.8 5-2.4 3.1-2.9 1.7-2.2 2.3-5.2 0.6-1 0.3-1.1 0-2.5 0.1-1.2 0.6-0.7 1.4-0.8 2.2-0.4 3.7 0.3 2.1 0.8 1.6 1.1 1 1.4 1.8 0.7 2.2-0.6 7.6-5.2 3.2-0.7 4.2-0.1 1.8-0.8 1.1-0.7 3.8-5.3 6.2-5.5 3.5 4.2 1.9 0.2 1-0.6 29.6 4.4 4.5 2.2 2.5 1.9 1.6 0.2 0.7-0.3 0.6-2.7 2.8-0.9 2.9-5.1 0.6-1.8 0.3-1.7-0.1-1.5 0.7-3.9 1.1-2.5 1.5-2.7 1.1-1.4 2.1-1.7 0.6-1.3 0.8-3 1.1-1.2 1.3-0.8 1.7-0.4-1.3-2.6-6.7-11.5-2.5-5.4-1.7-5.4 0-1.3 5 1.5 13.5 2.2 4.5-1.4 4.2 1.1 11.6-1.5 3.7 0.6 41.8 13.2-0.4 3.7 0.9 0.8 1.4-0.1 0.9 1 0 2-1 3.1-0.5 7.6-0.7 3.5 0.4 3 2.8 4 5.5 4.2 23.6 7.7 8.6 8.2 4.9 2.9 9.6 3 4.6 0.2 5.7-1.6 9.6-4.9 2.3-3.4 0.6-2.4 0.2-2.8 1-4.1 3.4-5.7 3.6-0.6 4.3 1.1 5.5-0.3 0.1-6 3.9-7.5 5.5-6.4 6.5-3.7 1.2-0.2 1.2 0.2 1.2 0.8 2.3 2.5 4.6 7.5 7.5 6 2 2.3 1.2 5.5-2.8 11 0.6 6.9-1.2 10.5-0.8 2.9-1.3 2-4.8 5.9 0.4 4.8 1.6 4.7 0.5 4.4-2.7 4.1-3.7 2.4-0.9 3 0.2 3.7-0.5 4.6-2.1 3.8-2.4 2.3-1.1 3 1.9 6.2 4 4.7 9.4 1 4.6 3.9 1.7 6.2-0.2 8.3-1.7 8-3.1 5.1-4 0.8-15.9-4.2-7.7 0.8-2.8-0.5-2.5-1.2-1.4-1.4-1.1-1.7-1.8-1.5-9.1-3.2-1-3.5 1.2-6.6-0.4-3.6-3.5-2.9-5.7 0-21 6.1-2.1 1.2-0.9 2.3-2.8 10.6-1.8 2.4-4.8 4.8-1.9 2.9-0.3 2.3 0 7.1-1 3.4 0.3 3 0.5 2.3 1.1 1.8 1.9 1.3-3.9 6.7 3.5 4.3 6.5 2.6 9.9 1.9 3.8 1.5 1.6 3.6-1.7 7-1.6 2.2-4.6 4.1-1.7 3.2-1.1 4.3-0.1 2.9 0.9 2.7 2 3.6 9.1 9.3 2.8 5.8-2.9 6.1-6.1 3.9-9.4 3.5-7.3-0.1-0.2-7.2-2.2-5.5-8.7-7.8-3.3-4.4-1.4-7-0.1-6.3-1.5-5.3-5.5-3.6-4.6-1.2-4.3-0.3-9.6 1.6-14.7 7.6-4.6 1.5-2.9-0.6-5.3-3.2-2.4-0.1-2.4 2.7-0.5 3.7 0.4 3.6-0.1 2.6-3.4 4.7-4.2 1.6-25.3-0.3-5.2-1.8-4.6-3.2-2.9-3.9-4.4-11.6-1.9-1.6-4.9-2.8-1.6-1.5-0.5-1.8 0.4-4.9-1.4-30.9-0.7-2-1.7 0.4-3.6 2.7-1.5 2-0.8 2.3-1 1.9-2.4 1-1.7-0.7-5.7-5.4-0.1-4-4.4-1.2-10.8 1.3-4.2 4-3.8 7.7-1.8 7.9 2.2 4.3 2.9 2.1 0.4 3.2-0.5 4.1 0 4.5 3 11.4 0.3 4.2-1.4 7-6.5 13.6-3.3 11.5-2 3.2-2.6 2.4-2.6 1.3-2.4 1.7-1.2 3.2-1.1 3.7-1.6 3.1z" id="CHE170" name="Graubünden">
 </path>
 <path d="M575.4 68.2l2 2.5 3-1 0.5-0.9 0 1.2-2.8 7.5-1.7 2.6-1.6-0.2-1.9-2.6-1.5-1.4-0.9-0.6 0.2-2.5 4.7-4.6z m66.4-24.4l-6.7-3.6-2.6 1.1-2.1-1-2.6 6.3-1.5 1.7-0.9 0.7-1 0.3-0.9-0.1-1.2 0.6-0.9 1-1.1 0.7-1.3 0.5-9-0.3-2-0.7-1.5-1-1.4-2.1-0.9-1.8-0.4-5.3 0.7-5-9.5-0.3-1.9 1.9-1.5 3-3.8 3.5-3.1 4.2-2.5-1.1-3.1-0.5-10.8 1.9-3.3 1.6-3 2.2-3.3 1.7-3.9 0.2-4.6-2.6-5.7-4.4-1.1-0.1-3.5-1.3 1.5-3.6-0.6-2.8-0.9-2.4 0.2-2.4 2.2-2.5 5.6-3.1 2.4-2.2 1.6-6.6 1.1-2.4 2.9-4.4 1.8-1.1 2.5 0.1 11.9-2.4 3.3-1.7-2.1-5.2 3.6-2 5.5 0.3 4.1 1.9 0.3 2.4 0.2 4.2 0.8 4 2.2 1.7 2.7-1.9 1.2-7.1 2-2.2 2.8 1 2.1 3.2 1.8 3.9 1.6 2.6 2.3 0.5 2.5-0.5 2.1 0.4 1.5 3.3-0.6 1.3-2.9 4.4-0.8 2.2 1 2.7 1.7 2.2 1 4.6 11.7-0.2-1.8-2 2-6.4 5.9 0.2 7.2 4.3 5.8 5.4-4.1 0.9 0 2.3 3.1 3.2z" id="CHE171" name="Schaffhausen">
 </path>
 <path d="M671.3 208.2l-4.3 13.7 0 1.9-0.6 3.6-0.5 1.3-1.1 1.8 0.6 4.2-0.2 2.4-2.2 4.5-1.8 2.7-1.9 2.2-5.5 2.6-2.5 1.8-1.1 3.7 3.1 2.8 6.2 9 0.1 0.5-0.7 1.1 0.1 1 1 1.7 1 1.1 3.6 2.5 0.8 1.4 0.4 2.1-0.8 4.3-1.1 3.9-4.7 2.4-10 5.7-1 0.3-5.5 2.6-1.5 1.5-0.9 0.3-0.9-0.6-0.5-2-0.2-3.5-0.6-1-1.3-0.1-1.3-1.4-0.7-1.2-0.1-1.5 0.2-1.4-0.7-1.2-1.5-0.7-6.3 0.2-2-0.4-1.5-1.2-1.1-0.6-1.6 0.4-2.6 1.4-1.7 0.6-2.1 1.1-2.3 1.9-1.4 0.6-1.3-0.5-1.7-2.4-1-3.6-0.7-0.9-1.1-0.5-5 0.4-1.6-0.3-4.7-1.7-1.9-0.5-1.3-0.6-1.7-1.3-0.9-2.9-0.8-4.6-0.3-1.1-2-1-6.5 0.3-15.9 2.1-5.4-3.8 7.3-3.8 0.7-1.7 0.8-2.5-0.7-1.6-0.8-1.2-8.5-7.8-8.9-2.4-3.4 1.6-2.4-1.3-1.2-1.6-0.4-1.8 0.4-1.1 1.9-2.1 0.8-1.1 0.3-1.2 0.1-1.7 0.3-1.2 0.6-1.2 1.2-1.1 6.8-4.2 2.3-1.7 2.3-1.1 1.5 0.6 2.3 0.2 3.9 8.8 11.4-1 1.2 0.2 0.9 0.7 1.8 1.8 2 0 2.6-0.6 5-1.8 3-0.6 3-1.2 2.4-1.9 6.2-7.5 1.7-4.8 4-4.2-4.1-2.8-0.4-1.8-1.2-1.8-0.3-1.5 0.5-1.9 1.3-1.5 2.2-2 8.6-5.6 9.6-1.9 12.1 2.1 20.8-2.1 6.9 2.2-0.6 3.1-0.1 2.8 1.4 2.7 5.9 6z" id="CHE173" name="Schwyz">
 </path>
 <path d="M641.8 43.8l6.6 5 5.4 1.4 8.7-0.8 8.1-2.6 3.5-3.9 4.2-1.6 24.6 2.8 12.2 0 3 4.7 0.2 0 2 2.8 36.4 21.8 2.1 2.2 0.4 1.6 3.4 8.4 0.9 0.2 16.2 14.3-2.4 0.9-1.9 0.1-2.2-1.1-0.4-0.9 1-3.1-2.2-1.5-11.3 8.6-1.5 3-1.5-0.5-1.9-1.6-4.9-6.4-0.6-1.6 0.8-1.8 0.1-2.5-2.1-3.3-3.1 0.1-2.2 0.8-1.1 1.1-0.6 0.2-1.8 0.1-2.7 0.8-2.1 1.8-0.8-0.2-0.8 0.5 0 0.9 0.8 0.5 2.4 0.4 1.4-0.3 1.2-0.5 1.6 0.3 1.1 4.9-0.8 2.5-1.3 2.3-1.2 0.9-1.5 0.4-1.9-0.4-1.3 0.1-2 1.1-0.8 0.7-4-0.5-8.6-2-7.2-3.4-3.3-4-2 3.7-1 1.2-1.8 1-3.6 0.6-2.8 0-2.8-0.7-2.8 0.3-0.6-0.2-1.6-2-0.7-0.1-3.8 0.6-1.4-0.1-1.7-0.6-0.8 0.2-1.8 2-2.2 0.6-1.3 0.5-0.7 1.5 0.2 1.6 0.5 1.1 6.1 4.4 0 1.2 0.3 3.3-0.1 1.1-0.4 0.8-0.8 0.5-1.5 0.2-1.2 0.3-2.2 1.1-1.6 0.2-0.8-0.3-1 0.3-0.8 1.2-2.5 5.6-2.2 2.6-3 5.5-1.8 2.5-2.3 0.1-8.8-9.3 1.7-2.3 0.9-2.6 0.3-2.3 1.3-1.5 0-0.5-1.8-1-2.2-2.1-1-6.7-2.2-1.4-0.5-1-0.5-1.9 0.2-1.6 1.4-1.1 0.9-1.4-0.3-2.1 0.1-0.8 1.3-6.9 0.1-0.9-0.6-1.1-1.5-1.3-6.6-2.7-2.2-1.3-1.3-1.5-0.9-2.9 1.1-2.2 0.4-0.6-1.2-1.7-1.3-1.4-14.1-7-2.6-0.8-2-2.5-0.8-1.2 0-0.7 0.4-0.7 1.4-1.1 1.6-0.6 1.5 0.3 3.2 1.6 1.2 1.3 1 0.8 1.7 0.1 1.3-2.5 2-2.2 1.6-3.3 1-1.4 0.4-1.6-0.4-1.4-2.5-2.9-0.9-4.4-3.6 1.6 2.6-6.3 2.1 1 2.6-1.1 6.7 3.6z" id="CHE174" name="Thurgau">
 </path>
 <path d="M659.2 288.4l3 5.4 0.9 3 0.1 1.9-0.1 3.2-0.9 1.8-1.5 1.3-4.7 1.9-2.3 0.3-1.7 1.6-5.8 4.3-0.3 2.1 0.2 1.6 0.1 6.2-2.4 3.2-2.5 1.4-1.5 1.6-1.5 0.6-1.7 0.4-0.6 0.8 0.2 3.8-0.4 2.7-2 2.6-1.8 3-0.3 1.2 0.2 2.9-0.7 1.1-0.8 0.5-3.3 0.8-0.9-0.1-3.3-1.2-3.9 1.4-2.2 2.3-5.1 6.7-2.2 1.3-2.2 0.4-3.6 1.6-1.5 1.4-0.8 1.3 0.2 1.9-0.1 1.3-0.4 1.7-1.6 3.6-1.6 5.1-0.1 1.8 0.2 1.8 0.5 1.3 0.7 1 2.6 1.7 0.5 1 1.2 4 0.5 2.6-0.7 4.4-9.2 4-19.3-4.5-2.6 0.2-1.6 0.4-1.3 1.5-1.8 5.1-0.8 2.1-0.5 1.7-7.3 6.1-8.8-4.7-3.3-5.3-2.4-5.9-0.6-2-0.3-1.8 0.3-1.6 1.5-5.2 0.8-3.5 0.5-4 0.1-2.7-0.4-1.5-0.5-0.8-1.8-0.9-0.7-4.1-1-2.7-0.1-3.8 1.1-1.3 1.4-0.2 3.7 1 1.7 0.1 1.7-0.4 0.7-1.2 0.6-3.4 0-1.4-0.6-2.6 0-1.8-0.4-1.3-1.2-2.6-0.7-1.9-0.2-3 0.2-1.6 1.9-4.5 7.2-2.2 0.4-1.5 0.2-1.6-0.7-3.5-1.2-1-0.5-1.3 0.9-1.9 0.6-2.3 1.2-4.2 1.2-2.2 1.7-1.9 0.9-1.7-0.5-1.3-0.6-0.6-1.9-0.4-0.7-0.6-2.4 0.3-0.9-6.6 0.4-2.3-0.3-2.1-0.6-1.4-1.6-2.5 0.1-1 0.5-0.7 3.7-2.5 11.3-5.9 2.5-2.3 1-1.1 0.6-1.3 3.1-9.6 0.3-1.7-0.4-2 6.5-0.3 2 1 0.3 1.1 0.8 4.6 0.9 2.9 1.7 1.3 1.3 0.6 1.9 0.5 4.7 1.7 1.6 0.3 5-0.4 1.1 0.5 0.7 0.9 1 3.6 1.7 2.4 1.3 0.5 1.4-0.6 2.3-1.9 2.1-1.1 1.7-0.6 2.6-1.4 1.6-0.4 1.1 0.6 1.5 1.2 2 0.4 6.3-0.2 1.5 0.7 0.7 1.2-0.2 1.4 0.1 1.5 0.7 1.2 1.3 1.4 1.3 0.1 0.6 1 0.2 3.5 0.5 2 0.9 0.6 0.9-0.3 1.5-1.5 5.5-2.6 1-0.3 10-5.7z" id="CHE175" name="Uri">
 </path>
 <path d="M627.8 46.6l3.6-1.6 0.9 4.4 2.5 2.9 0.4 1.4-0.4 1.6-1 1.4-1.6 3.3-2 2.2-1.3 2.5-1.7-0.1-1-0.8-1.2-1.3-3.2-1.6-1.5-0.3-1.6 0.6-1.4 1.1-0.4 0.7 0 0.7 0.8 1.2 2 2.5 2.6 0.8 14.1 7 1.3 1.4 1.2 1.7-0.4 0.6-1.1 2.2 0.9 2.9 1.3 1.5 2.2 1.3 6.6 2.7 1.5 1.3 0.6 1.1-0.1 0.9-1.3 6.9-0.1 0.8 0.3 2.1-0.9 1.4-1.4 1.1-0.2 1.6 0.5 1.9 0.5 1 2.2 1.4 1 6.7 2.2 2.1 1.8 1 0 0.5-1.3 1.5-0.3 2.3-0.9 2.6-1.7 2.3 8.8 9.3 1 1.4 5.2 9.6 1.3 7 0.7 2.5-0.7 1.3-1.4 1.6-2.8 2.5-1.7 2.2-1.2 2 0.1 2.7-1 1.6-2 1.8-13.1 6.1-2.9 0.3-9.1-1.3-4.1 3.2-3 7.6-9.6 1.9-8.6 5.6-2.2 2-1.3 1.5-0.5 1.9 0.3 1.5 1.2 1.8 0.4 1.8-5 0.6-6.5-2.8-1.6-1.3-0.9-1.4-0.6-1.2-2.5-3.1-3.8-3.3-4-4.5-8.7-1.4-6.3 1.2-4.1 1.5-2.3 0-2.6-0.4-8.8-2.9-1.5-1-0.6-1.3-0.3-1.4-1-3.5-5-10.6-0.5-2.6 1.9-0.2 1.5-0.6 3.8-2.4 4.1-5.3 2-3.6 0.7-3.1-6.6 2-2.6-2.8-0.7-2.3 0.5-4.6 0.1-2.1-1-1.1-4.4-2.3-1.9-1.7 0.5-1.8 5.8-6 1-2.7-0.6-1.3-3-4-1.7-5-4.8-10.5-1.2-4.5 0.1-3.4 1.1-6.2 3.7-6 4.8-4.8 5.1-8.3 0.3-2 6.2-1 0.3-1.6 2.5-5.6 6.8-4.5 6.6-0.7 3.4 3.2 2.7 4.5 0.4 0.5-4.7 4.6-0.2 2.5 0.9 0.6 1.5 1.4 1.9 2.6 1.6 0.2 1.7-2.6 2.8-7.5 0-1.2 0.9-1.7 0.3-2.4-0.1-2.3 0.2-2.3-0.1-1.1-0.5-1.3-0.3-1.5 0.5-1.8 0.8-0.7 1.1-0.5 1 0 0.2 0.5 0.1 2.1 1.5 0.7 1.2-7.8-2-0.2-1-0.4 3.1-4.2 3.8-3.5 1.5-3 1.9-1.9 9.5 0.3-0.7 5 0.4 5.3 0.9 1.8 1.4 2.1 1.5 1 2 0.7 9 0.3 1.3-0.5 1.1-0.7 0.9-1 1.2-0.6 0.9 0.1 1-0.3 0.9-0.7 1.5-1.7z" id="CHE176" name="Zürich">
 </path>
 <path d="M604.6 209.4l4.1 2.8-4 4.2-1.7 4.8-6.2 7.5-2.4 1.9-3 1.2-3 0.6-5 1.8-2.6 0.6-2 0-1.8-1.8-0.9-0.7-1.2-0.2-11.4 1-3.9-8.8-2.3-0.2-1.5-0.6-2.3 1.1-2.3 1.7-1.2-3.5-2.3-1-1.9-0.5-2.7-4.4-1.6-11.4-1.2-13.8 0.3-2.9 2.9-5.6 1 3.5 0.3 1.4 0.6 1.3 1.5 1 8.8 2.9 2.6 0.4 2.3 0 4.1-1.5 6.3-1.2 8.7 1.4 4 4.5 3.8 3.3 2.5 3.1 0.6 1.2 0.9 1.4 1.6 1.3 6.5 2.8 5-0.6z" id="CHE177" name="Zug">
 </path>
 <path d="M183.4 352.9l-1.5 1.3-1.1-0.5-0.5-2.1-1.1-1.1-0.9-1.6 0.5-1.6 1.5 0 1.4-1.9 1.9-1.9 1.4 0 1.3 1.4 0.2 2.4-0.4 2.4-1.6 2.1-1.1 1.1z m23.4-7l-1.6 3.3-1.7 1.6-1.6 0.8-3.9-1.6-2.5-1.4-1.7 0.6-2.5 2.4-1.9 0.2-1.4 0-0.6-1.3 2-1.9 4-1.9 1-2.1 2-2.7 1.3-1 2.3-3.5 1.1-0.8 1.3 1.3 0.7 1.6 1.5 0.6 1.8 1 1.1 2.4-0.7 2.4z m-26.4-32.6l24.2-20 9.3 9.2 0.8 1.1-0.2 0.5-0.9-0.4-1.5 0.6-1.4 1.1-0.4 0.9 2.1 0.3 1.3 0.6 2.3 1.9 0.7 1-0.1 1-1.3 2.2-1.4 3.2-0.5 2.1-0.8 6.7 0.7 1.2 1.7-0.8 1.3 0.2 0.4 1.2-0.9 1.5-1.6 3.9-1.2 1-1.7 0.5-1.2 0.2-3.1-0.1-1-0.1-3-1.9-1.6 0.5-1 0-1.5 0.6-1.3 0.9-1.8 0.3-1.7-0.4-2.3-1.1-2.5-0.5-2.8-1.3-0.1-1.1 1-1.5 0.1-0.6-0.7-0.9-0.9 0.2-1.1-0.5-2.5-2.5-0.8-2.4-1.1-8.5z m103.6-28.9l-1.8 0.4-0.8-1.6 3.3-1 0.1 1.2-0.8 1z m1.8 122.3l-6.6 5.3-12.7 3.9-2.2 1.9-1.6 2.2-3.5 4.2-2.3 1.9-1.9 1.2-6.5 0.8-1.6 0.7-1.5 0.8-3.8 3.3-2.2 2.5-1.1 1.9-0.9 2.8-5.1 2.5-1-0.9-0.4-1.2-0.8-1.1-0.7-1.5-0.6-3-0.7-3.3-1.5-3.7-12.3-9.2-3-1.2-2.4 0-3.2 3.5-1.6 1.2-1.9 0.9-3.2 0.5-1.7-0.4-1-0.5-2.5-3.5-1.5-4.4 1.9-3.8 0.5-0.2 2.9-0.1 2.4 0.4 2.7 1.8 0.7-0.6 0.6-1 5.5-6.3 1.2-1.6 0.4-0.9-1.2-0.2-1.7 0.5-1-0.3-1.5-1-2.5-2.6-2-0.9-2.5 0.7-3.2 0.3-1.8-1.3-1.3 0-1 0.3-1.9 0.8-0.2-1.5 0.2-1.4-0.2-2.9 0.8-0.6 0.1-0.7-0.6-3.5-0.3-3.6 0-3.7 0.2-1.5 0.5-3.4 2.6-0.3 3.6-2.5 2.5-0.5 3.4-0.1 1.3-0.3 0.5-0.5-0.3-1.3 1.2-3.3 7.7-11.3 6.4-8.8 0.8-2.7-0.2-0.3-2.8-0.7-1.6-0.9-0.6-1.2 0.3-0.6 2.9-0.8 0.9-0.7 0.8-1 6-8.6-0.4-4.5 1.3-3.3 0.8-1.3 2.3-1.8 2.2-2.7 0.7-1.3 0.2-1.1-0.5-0.3-1.1 0.3-0.6-0.5-0.8-1.2-0.6-2.9 0-1.5 0.4-1.4 0.7-1.4-0.3-1.3-0.4-1.1-1-0.9-1.4 0.3-1 0.7-0.1 1.3-0.5 0.8-1.1-0.6-3.6-4.9-2.1-2-6.8-9.6 8.5-7.1 13.9 19.4 1.1 2.2 2.5 1.4 3.1 4.6 0.3 2.4 0.3 0.7 3.8-2 1.9-2.3 1.2-2.3 0.5-1.7 0.5-2.9 0.7-1.5 0.9-1.1 1.3 0.1 1 1 0.6-0.2 1.6-1.9 0.4-0.9-0.1-0.6-1.4-0.6-1.3-1-4.6-9.6-0.9-2.3-1.5-11 17.8-1.7 11-4.5 5.1-2.2 2.1 0.6 0.8 1.2 0.3 2.1 1.4 2.1-0.5 1.2-2.3 2.9-1.2 1-2.8 1.4-0.5 0.5 0.1 0.9 1.2 2.1 0.6 1.3 0.2 1.4 0.1 2.1 0.6 3.4-0.3 1.6-0.5 1.9-1.6 3.3 0.1 0.8 0.8 0.4 1 0 2.3-0.4 11.4 3.3 17.7 1.5 1 7.3-1 2.7-2.1 1.7-1.3 0.7-1.3 0-1.1-0.9 0.1-0.8-1.7-0.6-1.7 1.4-0.2 1 0.7 1.5 0.6 3.3-0.1 4.8-2.6 10.7-0.5 5.1-0.2 8.4 0.5 4.8 0.9 2.4 0.5 1.1 0.7 0.6 3.8 1.5 1.1 0.7 1.9 1.5 0.9 1.7 0.7 0.6 0.8 0.3 1.7 0 1.1 1.3 2.4 1.5 0.3 0.6-0.5 2.2-0.9 7.9 0.4 1.2-0.8 1.2-1.9 2-1.7-0.1-1.9-0.7-3.2-0.7-1 0.7-2.4 2.8 0.8 9.5-0.4 4.5-0.5 2.8-1 1.3-1 0.4-2.1 0.1-3.9 0.4-9 7.9z" id="CHE3421" name="Fribourg">
 </path>
 <path d="M202.7 456.1l-2.7 1.6-10.5-2.1-4.2-0.3-0.2-2.3 17.6 3.1z m1.9-162.8l7.1-5.9 6.8 9.6 2.1 2 3.6 4.9 1.1 0.6 0.5-0.8 0.1-1.3 1-0.7 1.4-0.3 1 0.9 0.4 1.1 0.3 1.3-0.7 1.4-0.4 1.4 0 1.5 0.6 2.9 0.8 1.2 0.6 0.5 1.1-0.3 0.5 0.3-0.2 1.1-0.7 1.3-2.2 2.7-2.3 1.8-0.8 1.3-1.3 3.3 0.4 4.5-6 8.6-0.8 1-0.9 0.7-2.9 0.8-0.3 0.6 0.6 1.2 1.6 0.9 2.8 0.7 0.2 0.3-0.8 2.7-6.4 8.8-7.7 11.3-1.2 3.3 0.3 1.3-0.5 0.5-1.3 0.3-3.4 0.1-2.5 0.5-3.6 2.5-2.6 0.3-0.5 3.4-0.2 1.5 0 3.7 0.3 3.6 0.6 3.5-0.1 0.7-0.8 0.6 0.2 2.9-0.2 1.4 0.2 1.5 1.9-0.8 1-0.3 1.3 0 1.8 1.3 3.2-0.3 2.5-0.7 2 0.9 2.5 2.6 1.5 1 1 0.3 1.7-0.5 1.2 0.2-0.4 0.9-1.2 1.6-5.5 6.3-0.6 1-0.7 0.6-2.7-1.8-2.4-0.4-2.9 0.1-0.5 0.2-1.9 3.8 1.5 4.4 2.5 3.5 1 0.5 1.7 0.4 3.2-0.5 1.9-0.9 1.6-1.2 3.2-3.5 2.4 0 3 1.2 12.3 9.2 1.5 3.7 0.7 3.3 0.6 3 0.7 1.5 0.8 1.1 0.4 1.2 1 0.9 5.1-2.5 0.9-2.8 1.1-1.9 2.2-2.5 3.8-3.3 1.5-0.8 1.6-0.7 6.5-0.8 1.9-1.2 2.3-1.9 3.5-4.2 1.6-2.2 2.2-1.9 12.7-3.9 6.6-5.3 1 2.8 1.2 1.9 0.3 1 0.1 1.3-0.1 2.3 0 2.1-0.2 2.6-0.7 2.6-1.7 3.2-1.1 1.5-0.6 1.3-0.2 1.2 0.5 4.3-0.1 2-0.8 2.2-2 2.7-3.6 2.2-0.7 1.1 0.7 2.8 0.7 1.9 0.5 2.6 0 1.7-2.5 7.9 2.2 1.7 3.2 3.3 1.3 0.6 0.6 0.9 0.1 1.1-1.1 1.8-0.5 1.2 0.3 6.4-2.7 3.1-3.8 4.2-0.1 1 0.4 4.2-0.9 2.5-2.6 4.5-3.1 4.4-4.2 4.3-2.5 1.1-5.2 6.5-7.3 4.8-8.5 4.8-2.5-3.3-1.6-3.1-5-6.7-14.1-24.6-1-2.9-1-5.7-2.3-1.9-3-0.6-2.7-1.9-0.9-2.4 0.3-2.4 0.5-2.1 0.1-1.7-1.5-2.7-3.2-3.9-1.5-2.3 0.2 0 10.2-0.5 4.8-6.1-4.2-6-10-5.4-19.2-6.4-36.3-13.1-5-1-19.2 1.5-3.5 1.4-13.1 10.8-3.7 2.1-14.7 1.9-4 1.9-3.6 3.3-31.2 48.3-0.7 0.2-12.3-10.2 4-8.8-0.3-3.6-2.7-4.8-3.3-3.5-11.9-7.4 2.5-2.4 0.4-2.2-0.4-2.1 0-2.5-0.2-1-1-2.8 0-1.7 0.9-1.9 2.5-2.7 7.7-13.3 7.8-9.9-5.3-6-0.7-4.3 3-3.9 29.7-27.3 15.8-8.8 2.2-1.8 5.9-6.6 7.3-3.9 2.3-1.8 2.5-3.1 0.9-2.7-0.1-5.5-1.7-1.8-1.1-1.6-0.6-1.8 0.3-1.6 3.5-10.5 1.5-2.8 0.4-1.1 4.1-0.7 11.4-0.6 1.9-0.3 2.2-1.2 3.1-2.4 10.8-5.7 6.7-2.3 3.4-2.3 5.8-4.9 13.1-7.9 0.7 4-0.5 3.1 0.6 2 1.2 1.6 1.8 1.5 0.6 1.7 0.2 1.8-0.1 3.1 0.8 3.4 3.6 8.1 1.1 8.5 0.8 2.4 2.5 2.5 1.1 0.5 0.9-0.2 0.7 0.9-0.1 0.6-1 1.5 0.1 1.1 2.8 1.3 2.5 0.5 2.3 1.1 1.7 0.4 1.8-0.3 1.3-0.9 1.5-0.6 1 0 1.6-0.5 3 1.9 1 0.1 3.1 0.1 1.2-0.2 1.7-0.5 1.2-1 1.6-3.9 0.9-1.5-0.4-1.2-1.3-0.2-1.7 0.8-0.7-1.2 0.8-6.7 0.5-2.1 1.4-3.2 1.3-2.2 0.1-1-0.7-1-2.3-1.9-1.3-0.6-2.1-0.3 0.4-0.9 1.4-1.1 1.5-0.6 0.9 0.4 0.2-0.5-0.8-1.1-9.3-9.2z m2.2 52.6l0.7-2.4-1.1-2.4-1.8-1-1.5-0.6-0.7-1.6-1.3-1.3-1.1 0.8-2.3 3.5-1.3 1-2 2.7-1 2.1-4 1.9-2 1.9 0.6 1.3 1.4 0 1.9-0.2 2.5-2.4 1.7-0.6 2.5 1.4 3.9 1.6 1.6-0.8 1.7-1.6 1.6-3.3z m-23.4 7l1.1-1.1 1.6-2.1 0.4-2.4-0.2-2.4-1.3-1.4-1.4 0-1.9 1.9-1.4 1.9-1.5 0-0.5 1.6 0.9 1.6 1.1 1.1 0.5 2.1 1.1 0.5 1.5-1.3z m36.8-72.6l16.7-13.8 9.1 3.7 1.5 11 0.9 2.3 4.6 9.6 1.3 1 1.4 0.6 0.1 0.6-0.4 0.9-1.6 1.9-0.6 0.2-1-1-1.3-0.1-0.9 1.1-0.7 1.5-0.5 2.9-0.5 1.7-1.2 2.3-1.9 2.3-3.8 2-0.3-0.7-0.3-2.4-3.1-4.6-2.5-1.4-1.1-2.2-13.9-19.4z" id="CHE3422" name="Vaud">
 </path>
 <path d="M317.2 128.5l-9.3-4.7-0.6-0.5-0.6-1 9.2 0.4 2.2-0.8-0.9 6.6z m0 0l12.4-0.5 3.3-2.2 0.1-1.2-0.2-1-2-3.6-1-0.8-1.5 0.1-1.2-0.5-0.7-0.9-1.2-1.8 1.2-1.6 0.8-3-0.4-1.9-1.8-2.3-1.1-2-0.1-2.1 2.6-0.7 3.4 1.2 1 0.6 0.3 7.3 0.8 2.6 0.8 1.5 3.6 0.1 14-2.9-0.1-8.7-1-2.2-1.8-0.4-4.2-1.6-3.6 0.4-0.1-0.7-1.6-2.2-0.5-1.3 0.3-1.1 1.3-0.7 2.3 0.5 1.7-0.6 1-1.8-0.1-3.3-0.7 0-3.7-2.8-0.5-0.2 8.4-7 1.3 0.7 6.7 4.8 2 0.5 2.2 0.3 0.6 1.2 2.2 1.9 3.9-2.6 1.2-0.4 1.1 0.5 1.3 1.5 1.7 1.4 2.2 1.3 1.5-1.7 0-5.5 3.2 1.8 4.9 0.6 9.7-2 0.7 0.5 8.1 4 1 0.2 1.3 1.1-0.1 1.6 0.1 1.9 0.5 1.9 0.6 1.1 3-0.4 5.6-5.1 0.5-0.9 0.3-3.1 0.3-1.4 0.6-0.5 1.3-0.2 3.2 0.9 1.7 2.5 1.3 0.9 1 2.3 6.5 9.9 0.8 2.5 2 1.5 6.8 0.7 0 4.6 0.4 2 2.8 1.9-1.1 3.5-1.1 2.1 0.4 2 1.4 2.4 0.1 1.6-1.3 1.7-4.1 3-4.7 1.3-2.9 0.3-1.7-0.2-1.1 0.4-1.2 3.5-0.8 1.5-0.6 0.8-5.4 2.5-1.6 1.2-4.6 1.3-2.8 1.9-3.4 5.9-0.8 2.3-4.7-1.4-1.3-0.6-1.5-1-1.7-2-2.1-1.6-4.7-2.5-5.5-1.3-7.8 0.7-1.2-0.5-0.7-0.8-1.2-4.2-0.4-1.9-0.2-2.4 0.2-2.7 7.3-2.2 1-0.5 1.9-2.3 0.6-2.7 0.1-4.2 0.7-1.8 2.4-1.9 0.7-1 1-2 1-1.4-0.7-1.2-0.7-0.8-9.5-5.9-1.7-0.1-0.1 1.3-0.5 0.8-0.9 0.7-6-0.7-1.8 0.4-1.4 3.7 3.4 1.7 0.7 1.9-2.5 7.3-2.8 2.8-5 0.4-1.2 0.5-0.1 1.8 0.2 1.3 0.5 1.1-0.3 0.7-1.1 0.3-6.4 0.5-0.8 0.4-0.9 0.7-0.6 1.7-1.8 2.9-1.6 1-2.1 0.6-3.6-0.6-3.8-2.1-1.6-0.3-3 0.7-3.4 5.3-2.4 0-1.5-1.1-0.3-2.6-1.5-2.5-6-4.8z" id="CHE3423" name="Basel-Landschaft">
 </path>
 <path d="M355.2 159.5l-1.6 5-1.3 1.6-2.1 1.5-7.2 2.3-1.6 0.9-1.9 1.6-2.5 2.7-2 1.8-5 2-4.7 4 0.6 2.3-16.5 7.5-0.6 1.5 1.1 2.7 0.8 1.2 0.6 1.9 0.7 0.9 1.1 0.6 2.4 0.9 1.1 0.8 0.5 1 1.5 3.8 0.2 0.9-0.3 1.4 0.5 0.4 1.4 0.3 2.3-0.4 1.8-0.9 1.7-2.2 2-1.9 1.2-1.4 1.8-0.4 1.7-1.4 1.1-0.7 3.5-0.7 0.5 4.2 0.3 1.6 1.7 1.7 0.8 1.1-0.8 1.8-2.4 1.6-1.5 0.4-1.3-0.4-1.1-0.6-0.8 0-2.4 2-1.4 2.1-0.4 1.6 0.5 3.1-0.2 1.6-1.7 1-3.9 1-1 0.1-2.3-0.6-1.4 0.1-2.5-0.5-0.7 0.3-0.4 1.4 0.3 1 1.3 2.5 1.4 2.8 1.2 1.1 0.8 0.3 6.4-1.8 1.8-0.3 0.5 0.1 0.2 3 1.9 4.3 4.1-1.3 1.4-0.9 0.8-1.1 0.2-1.9-0.4-1.5-1.1-2.9 0-1.4 0.7-0.9 5.9-2.8 3.2-2.9 5.8-8.5 3.1-3 2.5-0.4 5.9 4.1 10.2 0.4 1.3-0.3 2.3-2.3 1.4-2.1 2.1-1.1 0.7-0.7 0.9-2.1-0.4-1.9-1.1-2.6-3.1-5.7-3.6-5.3-4-1.8-4.2-5-0.1-2.5-1-3.6-3.2-3.8 14.8-1.9 8-3.6 7.5 9.1 2.6 1.6 6.1 0.3 4.3-1.6 2.1 0.8 7.6-1.9 0.6 6.4 0.2 0.7 2.9 5 5.7 13.2 1 1.9 1.2 2.9 0.7 2.6 0 3.3 1.9 9.8-1.8 3.2-0.6 2.2-0.5 3.4 0 6.4-0.7 6.6 0 2.1 0.6 2.2 1.9 2.6 1.5 2.7 1.1 1.4 0.8 5.2 5.9 0.6 1.5 1.3 4.8 1-1.5 7.5-0.6 1.4-0.7 2.9-1.3 2-0.4 0.8-0.5 3.1-0.4 0.6-1.2 0.9-0.8 1.9-0.7 1.2-1.1 0.8-1.1 0.2-1.8-0.5-0.5 0.2-1.7 1-1.9 0.8-0.8 0.6-0.4 1.4 0 1.9 0.5 3.9-0.2 2.4-0.7 1.9-2.1 2-0.4 1.6 2 6.4 0.1 2.5 3.5 3.8 14.6 11.7 2.6 4.1 2.9 3.5 1.4 0.4 1.7-0.3 3.3-1.9 3.9-1.5 4.5 0.3 7 0.3 4.2 1 7.5 4.9 2.3 1.6 2.6 1.2 1.7 0.4 1.1-0.2 5.2-2 2.6-0.5 11.6 1.4 4.3 1.3 2.1 0.1 2.4-0.9 7.5-5.2 9.6-3.8 5.2 4.6 2.1 1.8 1.5-0.8 3-0.6 1.1 0 4.4 1.5-1.9 4.5-0.2 1.6 0.2 3 0.7 1.9 1.2 2.6 0.4 1.3 0 1.8 0.6 2.6 0 1.4-0.6 3.4-0.7 1.2-1.7 0.4-1.7-0.1-3.7-1-1.4 0.2-1.1 1.3 0.1 3.8 1 2.7 0.7 4.1-2.4 0.4-4.3 5.3-1.3 2.7-0.9 2.6-1.3 5-1.1 7.1-1 1.8-1.1 1.6-2.3 2.4-3.5 2.2-2.3 2-10.2 5.8-5.3 1.9-11.5 2.3-1.3 0.1-1.1-0.4-0.8-0.5-0.2-2.5-0.3-0.2-6-0.6-5.3-2.4-1.9-1.6-18.8-3.6-5.7 0.3-7.2 4.5-1.2 1.1 0 0.5 1.4 2.7 0.3 2.1-0.8 1.6-0.7 0.9-6.1 4-8.1 5.7-4.7 1.8-2 0.4-3.3 0-2.6-0.8-27 19.7-2.6 0.2-14.6-7.1-4.6-0.6-1.7 1.2-0.7 2.1-0.4 0.7-2.4 1.9-0.7 0.8-7.5 2.2-5 3.2 1.3 1.7 2.8 1.7-3.2 2.9-7.9 3.3-1.9 0.5-1.4 0.1-1.9-0.7-5.3-1.6-9.6 0.1-3.2 0.7-1 0.8-2.1 2.5-5.1 3.6-8.3 2.8-1.3-0.7-1.3-0.4-0.3-0.8 0.3-2.6-0.2-2.2-0.6-0.7-1.3 0-7.2 2.4-1 0.9-0.2 2.1-1.7 2.9-7.7 4.5-0.3-6.4 0.5-1.2 1.1-1.8-0.1-1.1-0.6-0.9-1.3-0.6-3.2-3.3-2.2-1.7 2.5-7.9 0-1.7-0.5-2.6-0.7-1.9-0.7-2.8 0.7-1.1 3.6-2.2 2-2.7 0.8-2.2 0.1-2-0.5-4.3 0.2-1.2 0.6-1.3 1.1-1.5 1.7-3.2 0.7-2.6 0.2-2.6 0-2.1 0.1-2.3-0.1-1.3-0.3-1-1.2-1.9-1-2.8 9-7.9 3.9-0.4 2.1-0.1 1-0.4 1-1.3 0.5-2.8 0.4-4.5-0.8-9.5 2.4-2.8 1-0.7 3.2 0.7 1.9 0.7 1.7 0.1 1.9-2 0.8-1.2-0.4-1.2 0.9-7.9 0.5-2.2-0.3-0.6-2.4-1.5-1.1-1.3-1.7 0-0.8-0.3-0.7-0.6-0.9-1.7-1.9-1.5-1.1-0.7-3.8-1.5-0.7-0.6-0.5-1.1-0.9-2.4-0.5-4.8 0.2-8.4 0.5-5.1 2.6-10.7 0.1-4.8-0.6-3.3-0.7-1.5 0.2-1 1.7-1.4 1.7 0.6-0.1 0.8 1.1 0.9 1.3 0 1.3-0.7 2.1-1.7 1-2.7-1-7.3-17.7-1.5-11.4-3.3-2.3 0.4-1 0-0.8-0.4-0.1-0.8 1.6-3.3 0.5-1.9 0.3-1.6-0.6-3.4-0.1-2.1-0.2-1.4-0.6-1.3-1.2-2.1-0.1-0.9 0.5-0.5 2.8-1.4 1.2-1 2.3-2.9 0.5-1.2-1.4-2.1-0.3-2.1-0.8-1.2-2.1-0.6-5.1 2.2-11 4.5-17.8 1.7-9.1-3.7 2.1-5.8 1-2.3 1.2-5.4 0.7-1.5 0.8-1 4.9-2.1 2.3-1.9 2.1-1.1 0.6-1.9 0-1.7-0.4-2.6-0.6-1.9 0.2-0.9 1.2-1 0-0.5-0.8-1.4-1.7-1.5-6.5-3.7-3-0.8-0.2-4.4-1.5 0.4-33.7 10.5-0.6 0-0.1-2 0.6-2.4 1.1-1.1 0.4-1 0.9-4.1 0.2-2.2-0.7-3-1.4-2.9-2.5-3.3-4.5-2.5 6 0.4 2.1 1.7 0.7 0.9 1 0.5 1.7-0.5 2.4-1.4 8-6.2 2.5-1.4 5.1 0.2 2.3-0.5 2.4-2.4 2-1.6 3.5-1.8 2.4-2.4 1.6-2.1 1-2.2 1.6-2.4 0.6-1.3 0.4-1.8 0.9-0.9 1.4-0.3 6.9 0.7 10.9-2.1 1.2-1.1-0.5-1.4-0.4-2.3 0.1-1.8 0.4-1 2.2-1.6 0.9-1 0.4-1.2-0.4-1.5 0.6-3.3 18.6 3.8 4.2-0.3 3.4-0.7 5.7-2 2.5-1.6 3.7-3.1 1.8-0.8 1.2-1.2 0.9-1.1 0.4-1.4 0.5-0.6 0.6 0.2 1.3 2.8 2.1 0.9 24.2 2 13.2-3.8z m-71.2 124.9l0.8-1-0.1-1.2-3.3 1 0.8 1.6 1.8-0.4z m71.8-125.7l-4.1-0.5-0.8-0.5-0.2-1.1 0.5-2.1 3.6-3.4 1.7 0.4 1.2 1.6 0.4 1.4 0.2 1.4-0.3 1.7-0.3 1-1.9 0.1z" id="CHE3424" name="Bern">
 </path>
 <path d="M375.3 83.1l0 5.5-1.5 1.7-2.2-1.3-1.7-1.4-1.3-1.5-1.1-0.5-1.2 0.4-3.9 2.6-2.2-1.9-0.6-1.2-2.2-0.3-2-0.5-6.7-4.8-1.3-0.7 1.2-1 5.3-2.9 7.9-3 11.3-3.4 5-0.6-2.9 8.2-2.3 2.3-5.8 0 8.2 4.3z" id="CHE3425" name="Basel-Stadt">
 </path>
 <path d="M317.2 128.5l0.9-6.6 4-1.6 3.1-4.2 1.2 1.8 0.7 0.9 1.2 0.5 1.5-0.1 1 0.8 2 3.6 0.2 1-0.1 1.2-3.3 2.2-12.4 0.5z m126.2-14.6l3.5 0.6 1.9 2.3 0.4 1.1-0.2 1.7 0.3 3 1.4 0.9 1 4.5 1 1.5 1.9 1.9 2.2 1.2 2.8 0.8 0.2 6.2-1.6 3.7-2.5 3.8-3 7.1-1.8 1.2-1.6 0.8-14.1-2.1-1.9-0.8-1.6-0.4-9.8 9.1-0.7 0.8-5.3 10.7-1.7 2.1-7.6 1.9-2.1-0.8-4.3 1.6-6.1-0.3-2.6-1.6-7.5-9.1-8 3.6-14.8 1.9 3.2 3.8 1 3.6 0.1 2.5 4.2 5 4 1.8 3.6 5.3 3.1 5.7 1.1 2.6 0.4 1.9-0.9 2.1-0.7 0.7-2.1 1.1-1.4 2.1-2.3 2.3-1.3 0.3-10.2-0.4-5.9-4.1-2.5 0.4-3.1 3-5.8 8.5-3.2 2.9-5.9 2.8-0.7 0.9 0 1.4 1.1 2.9 0.4 1.5-0.2 1.9-0.8 1.1-1.4 0.9-4.1 1.3-1.9-4.3-0.2-3-0.5-0.1-1.8 0.3-6.4 1.8-0.8-0.3-1.2-1.1-1.4-2.8-1.3-2.5-0.3-1 0.4-1.4 0.7-0.3 2.5 0.5 1.4-0.1 2.3 0.6 1-0.1 3.9-1 1.7-1 0.2-1.6-0.5-3.1 0.4-1.6 1.4-2.1 2.4-2 0.8 0 1.1 0.6 1.3 0.4 1.5-0.4 2.4-1.6 0.8-1.8-0.8-1.1-1.7-1.7-0.3-1.6-0.5-4.2-3.5 0.7-1.1 0.7-1.7 1.4-1.8 0.4-1.2 1.4-2 1.9-1.7 2.2-1.8 0.9-2.3 0.4-1.4-0.3-0.5-0.4 0.3-1.4-0.2-0.9-1.5-3.8-0.5-1-1.1-0.8-2.4-0.9-1.1-0.6-0.7-0.9-0.6-1.9-0.8-1.2-1.1-2.7 0.6-1.5 16.5-7.5-0.6-2.3 4.7-4 5-2 2-1.8 2.5-2.7 1.9-1.6 1.6-0.9 7.2-2.3 2.1-1.5 1.3-1.6 1.6-5 0.6-0.8 1.9-0.1 0.3-1 0.3-1.7-0.2-1.4-0.4-1.4-1.2-1.6-1.7-0.4-3.5-3-2.1-3.5-1.9-1.3-1.8-0.7-1.6 0.1-4.3-0.4-10.7-2.8 3.4-5.3 3-0.7 1.6 0.3 3.8 2.1 3.6 0.6 2.1-0.6 1.6-1 1.8-2.9 0.6-1.7 0.9-0.7 0.8-0.4 6.4-0.5 1.1-0.3 0.3-0.7-0.5-1.1-0.2-1.3 0.1-1.8 1.2-0.5 5-0.4 2.8-2.8 2.5-7.3-0.7-1.9-3.4-1.7 1.4-3.7 1.8-0.4 6 0.7 0.9-0.7 0.5-0.8 0.1-1.3 1.7 0.1 9.5 5.9 0.7 0.8 0.7 1.2-1 1.4-1 2-0.7 1-2.4 1.9-0.7 1.8-0.1 4.2-0.6 2.7-1.9 2.3-1 0.5-7.3 2.2-0.2 2.7 0.2 2.4 0.4 1.9 1.2 4.2 0.7 0.8 1.2 0.5 7.8-0.7 5.5 1.3 4.7 2.5 2.1 1.6 1.7 2 1.5 1 1.3 0.6 4.7 1.4 0.8-2.3 3.4-5.9 2.8-1.9 4.6-1.3 1.6-1.2 5.4-2.5 0.6-0.8 0.8-1.5 1.2-3.5 1.1-0.4 1.7 0.2 2.9-0.3 4.7-1.3 4.1-3 1.3-1.7-0.1-1.6-1.4-2.4-0.4-2 1.1-2.1 1.1-3.5z m-112.6-9.6l1.9 1.2 2.9 0.4 3.4-3 0.7-1.5-0.1-1 3.6-0.4 4.2 1.6 1.8 0.4 1 2.2 0.1 8.7-14 2.9-3.6-0.1-0.8-1.5-0.8-2.6-0.3-7.3z" id="CHE3426" name="Solothurn">
 </path>
 <path d="M557.9 310l2.4-0.3 0.7 0.6 1.9 0.4 0.6 0.6 0.5 1.3-0.9 1.7-1.7 1.9-1.2 2.2-1.2 4.2-0.6 2.3-0.9 1.9 0.5 1.3 1.2 1 0.7 3.5-0.2 1.6-0.4 1.5-7.2 2.2-4.4-1.5-1.1 0-3 0.6-1.5 0.8-2.1-1.8 6.3-2 0.5-0.6-0.4-1.1-0.6-0.6-3.5-1.5-1.5-1.6-0.9-1.5-1.2-1.6-0.3-1.9-0.3-0.7-2.2-1.6 0-3-1.2-4.1-0.4-1.6-0.4-3.8-0.7-1.5-0.1-1.1 0.8-1.6 0.9-0.6 0.8 0.2 1.2 1.7-0.1 2.2-0.1 1 1.2-0.1 4.2-2.8 1-0.1 1.1 0.5 0.8 1.9 2.3 1.9 10.7-0.4z m-23.1 21.4l-9.6 3.8-7.5 5.2-2.4 0.9-2.1-0.1-4.3-1.3-11.6-1.4-2.6 0.5-5.2 2-1.1 0.2-1.7-0.4-2.6-1.2-2.3-1.6-7.5-4.9-4.2-1-7-0.3 3.6-5.8-1.2-5-1.1-2.4-0.7-3.3 0.5-1.7 3.8-8.8 0.8-4.7 0.8-2.3 0.8-1.6 1.6-2.4 0.9-0.7 1.1-0.5 1.9 0.1 0.8 1.1 0.5 0.4 0.9-0.3 5.3-6.8 4.5-4.1 0.3-1.6-0.2-1.7-0.9-2.8 0.5-0.9 3.7-2.4 12.3-1.2 3.8-0.9 2.4-1.3 1-0.4 0.9 0 8.4 2.6 0.8 0.5 0.5 0.9-0.7 3-0.6 1.5-1.3 2.1-0.6 1.1-0.3 2.2 1.1 1.5 1.4 1.2 5.2 2.5 1.1 1 0.4 1.3 0 8.7-0.3 1.5-1.1 3.7-0.2 6.5-0.4 3.1 0.6 7.6 4.5 6.3 4.6 2.8z" id="CHE3427" name="Obwalden">
 </path>
 <path d="M747.9 180.8l-1.1-3.4-0.4-1.4-0.8-2.6-1.1-2-1.7-2.3-0.8-2-0.4-2.8 0.6-7.7 0.7-1.9 3.3-2.6 1.8-2.2 1.2-2.3 1.2-3.1 0.2-4 0-2.4 1.4-1.4 23.5 11.1 7.1 0.2-3.8 18.6-4.3 8.2-3.1 3.4-3.2 2.3-4.3 2.2-6.2 2.4-1.5 0-1.9-0.4-1.6-1-1.9-0.8-2.9-2.1z m46.2-47.1l-3.1-1.6-2.8 0.4-6 2.4 0.7-3.7 2.3-1.3 2.6-1.3 0.5-0.6-0.3-0.7-1-0.9 0.7-2.2 1.4-1 1.4-1.3 0.8-0.2 1.4 1.2 1.1 1.1 0.9 1.2 0.2 1.2-0.1 1.5-1.1 1.2 0.4 4.6z m15.1-17.2l-5.1 5.1-0.5 0.8-0.4 2.4-7-3.5-0.3-0.7 0-1.3 4.1 0.2 3.4-0.6 5.8-2.4z" id="CHE3473" name="Appenzell Innerrhoden">
 </path>
 <circle cx="202.8" cy="392.3" id="0">
 </circle>
 <circle cx="760" cy="112.8" id="1">
 </circle>
 <circle cx="859.2" cy="344.4" id="2">
 </circle>
</svg>