<?xml version="1.0"?>
<svg xmlns="http://www.w3.org/2000/svg" id="Capa_1" enable-background="new 0 0 512.004 512.004" height="512px" viewBox="0 0 512.004 512.004" width="512px" class=""><g><g><path d="m497.004 321.849c-.14 0-10.756.004-10.9.005v-14.905c0-24.813-20.187-45-45-45h-23.825c-16.119-73.944-66.195-136.158-135.443-167.565-.325-.147-.654-.274-.985-.397-4.348-18.798-18.656-33.492-36.961-38.551l-33.511-36.479c-5.699-6.204-15.535-6.565-21.641-.472l-56.113 55.985c-7.114 7.099-5.364 19.075 3.496 23.833l44.01 23.643c5.647 17.476 20.125 30.984 38.59 34.998l-45.104 58.144c-4.12 5.311-6.512 11.733-6.966 18.35-9.729-3.468-21.493-13.251-40.748-9.921-5.256-21.008-24.286-36.617-46.9-36.617-27.578 0-49.851 23.221-48.261 51.124l-9.501-4.345c-7.536-3.448-16.435-.131-19.879 7.403-3.445 7.534-.131 16.435 7.403 19.88 9.29 4.248 161.494 73.849 171.857 78.588v128.349h-44.668c-8.284 0-15 6.716-15 15s6.716 15 15 15c19.211-.033 209.834-.14 229.05 0 7.785 0 14.275-5.955 14.944-13.711l8.818-102.239h32.238c4.44 0 8.652-1.967 11.502-5.372 6.648-7.94 1.775-16.066 1.042-24.701l63.463-.027c8.284-.004 14.997-6.722 14.994-15.006-.005-8.282-6.72-14.994-15.001-14.994zm-298.143-271.085 16.364 17.814-24.865 24.809-22.243-11.949zm11.214 65.332 30.121-30.053c13.519 7.036 16.067 25.062 5.485 35.62-10.596 10.573-28.613 7.946-35.606-5.567zm91.167 265.853 7.413 85.95h-37.37v-85.95zm-35.751-120h-36.186l-5.056-2.301 50.958-39.148zm-125.437-7.655c84.739 38.052 80.222 37.655 85.999 37.655h32.406l-7.027 29.977-37.165.021-86.944-39.759c-3.952-1.809-6.866-5.081-8.204-9.217-4.059-12.529 8.692-24.246 20.935-18.677zm-61.05-37.395c10.116 0 18.346 8.229 18.346 18.346s-8.23 18.347-18.346 18.347-18.346-8.23-18.346-18.347 8.229-18.346 18.346-18.346zm131.618 135.03c1.433.038 11.265.003 30.663.003v115.967h-30.663zm140.619 115.97h-12.476l-7.413-85.95h27.302zm-76.033-115.95 38.803-165.531c3.206-13.678-12.581-23.896-23.742-15.319l-87.854 67.493c-3.356 2.579-7.705-1.747-5.093-5.116l82.702-106.611c57.445 30.027 98.025 85.03 109.509 149.275l13.551 75.81c-27.001-.001-95.985-.001-127.876-.001zm147.627-60h18.268c8.271 0 15 6.729 15 15v14.917l-27.919.012z" data-original="#000000" class="active-path" data-old_color="#000000" fill="#7BED9F"/></g><script xmlns="" class="active-path"/></g> </svg>
