<?xml version="1.0"?>
<!--
************* Copyright (c) 2017 Pareto Softare, LLC DBA Simplemaps.com *******************		
************* Free for Commercial Use, full terms at  http://simplemaps.com/resources/svg-license ************
************* Attribution is appreciated! http://simplemaps.com ***************************
-->
<svg baseprofile="tiny" fill="#7c7c7c" height="1001" stroke="#ffffff" stroke-linecap="round" stroke-linejoin="round" stroke-width="2" version="1.2" viewbox="0 0 1000 1001" width="1000" xmlns="http://www.w3.org/2000/svg">
 <path id="DZA2143" name="Adrar" fill="#e17055" d="M521.1 466.6l2.6 30-0.6 11.1-2.7 11.9-6.1 68.9-0.4 1.3-0.5 1.3-0.9 1.3-2.1 2.3-1.5 1.3-3.1 3.3-0.6 0.2-5 0.8-0.9 0.3-0.4 0.4-3 4.2-1.3 1.4-0.8 0.6-1.4 0.7-3.9 1.2-0.5 0.1-6.7-0.1-0.4 0.1-1.8 0.6-0.7 0-2.7-0.3-3.5 0.2-0.4 0.2-0.4 0.2-3.3 2.4-3.5 1.3-2.2 1.1-0.5 0.4-0.9 1.2-0.5 1.1 0.1 0.8 0.5 0.7 4.1 3.9 7.6 10.5 0.5 0.9 0.4 1 0.3 1.1 0.2 1.1 0.1 3.1-0.7 5.3 0.4 1.5 0.6 1.1 8.1 6.3 0.7 0.6 0.3 0.5 0.1 0.7-0.4 173.1 0.9 1.7 2.4 3.1 106.6 62.8 5 4.7 3.6 5.2 1.5 11.8 0.4 76.4 0 0.1-11.9 2.4-5.1 1-3.9 0.9-1.2 0.1-0.7-0.1-0.5-0.2-1.2-0.7-2.8-2.9-2.2-0.9-1.1-0.6-0.9-0.8-0.9-0.8-0.8-1.2-0.1-0.9 0.5-0.9 0.7-1.1 0.4-1 0.2-0.5 0.6-0.4 1.1-1.1 0.2-0.9 0.3-2 0.4-0.9 0.9-0.8 1-0.6 0.9-0.7 0.5-1.1-0.2-1.2-0.5-0.8-0.6-0.7-0.4-1 0-0.5 0.3-1 0-0.3-0.2-0.5-0.5-0.3-0.3-0.3-0.6-1.9-0.1-2 0.9-10.4-0.2-0.7-0.6-0.6-0.8-0.4-1.7-0.5-0.8-0.4-2.8-2.2-6.1-2.7-13.3-2.8-2.6-0.2-4.5-0.8-0.5-0.1-0.9-0.2-1.8-0.9-0.9-0.4-1.2-0.3-0.7-0.3-0.6-0.5-1.9-3.6-1.6-2.2-1.7-2-3-2.3-0.9-0.5-0.8-0.3-1.1 0.2-1.1 0.7-1.9 1.9-1.3 0.6-0.7-0.1-3.1-1.1-0.5-0.3-0.3-0.3-0.4-0.3-0.6-0.1-0.7 0.2-0.8 0.8-0.5 0.3-1.1-0.1-0.4-0.6-0.1-1-0.5-1-0.8-0.6-0.7-0.1-0.9 0.1-1.1 0-1-0.5-5.7-4.8-0.5-0.8 0-3.8-0.3-1.9-0.9-1.5-3.1-2.3-1.9-1-1.8-0.3-0.9-0.6-0.9-0.3-1.9-0.3-2.1-0.7-0.8-0.5-0.8-1-1-1.8-0.6-0.6-1.2-0.3-1 0-1.9 0.5-1 0-1.1-0.2-0.7-0.2-0.4-0.7-0.1-1.3 0-1 1.1-4.7 0.6-5.6-0.1-1.2-0.9-3.3-0.6-1-9.9-6.9-8.3-5.9-4.2-3-21-14.7-8.3-5.9-16.8-11.8-8.4-5.9-12.5-8.9-12.6-8.9-12.5-8.9-4.2-2.9-8.4-6-4.2-2.9-12.6-9-8.3-5.9-12.6-9-12.6-8.9-20.9-15-8.4-6-3.8-2.7-7.7-5.5-11.6-8.3-19.2-13.8-7.7-5.6-11.6-8.3-5.4-3.9-7.3-5-7.4-5.1-8.4-5.8-16.8-11.4-8.4-5.7-7-4.6 0.6-0.6 129.3-90.8-37.6-74.6 9.6-0.9 8.6 4.4 5.1 3.5 11.9 5.9 10.1 2 11.8-4.7 6.8-4.3 15.2-11.9 6-3.6 5.5-2.1 44.4-8 6.4-4.7 30.3-40.9 28.9-53.9 16.9-18.1 4.5-3.8 9.2-5.9 50.9-25.9-0.7 45.2-6.2 42.9 6.6 58.9z">
  </path>
 <path id="DZA2144" name="Aïn Témouchent" fill="#e17055" d="M388.3 106.6l-4.1 0.8-0.7 0.6-1.5 2-0.8 0.5-0.8 0.1-0.7 0-1.1 0.2-0.6 0.4-0.3 0.7 0.1 0.7 0.3 0.8 0.2 1-0.1 1.2-0.6 1.2-0.8 0.5-0.8 0.2-0.8 0.1-1 0.5-0.7 0.7-1.3 2.3-2.3-0.6-10.8-5.8-0.6 0-0.6 0.1-0.6 0.3-0.4 0-0.6 0-0.4-0.1-0.2-0.3-0.1-0.3 0-0.6-0.1-0.5 0.1-0.3 0.6-0.5 0.2-0.2 0.1-0.4 0.1-1.4 0.2-1.1-0.1-0.3-0.3-0.5-0.2-0.2-0.4-0.2-0.7 0.1-0.2-0.1-0.1-0.9 0.1-0.1 1.3-1.6 0.9-0.3 0.9-0.6 0.8-0.8 0.5-0.8 0.4-1.2 0.6-2.8 0.5-1 0.6-1 1.7-4.4 0.3-0.6 0.6-0.3 1.1-0.1 0.3-0.2 1.2-1.8 0.5-0.4 1.4 3.4 1.6 1.4 1.4 0.6 0.4 0.4 0.1 0.5-0.3 0.5-0.4 0.5-1.7 1.4-0.4 0.6-0.3 0.7-0.1 1.1 0 0.7 0.2 0.5 0.4 0.3 0.5-0.2 0.5-0.7 0.4-1 0.3-0.6 0.3-0.2 0.5 0.2 1.1 0.7 0.6 0.2 0.9 0 10.3-2.6 1.2 0 1.3 0.3 0.8 0.9 1.8 2.3 0.3 0.8-0.2 0.7-1.1 0.7-0.3 0.3-0.1 0.3 0.2 0.3 0.3 0.5 0.1 0.5 0 0.5-0.8 0.8z">
 </path>
 <path id="DZA2145" name="Oran" fill="#e17055" d="M415.1 79.4l0 0.3-2 2.2-2.3 3.1-0.9 0.7-0.8 0.4-1.1-0.1-0.5 0-0.7 0.1-0.8 0.5-0.5 0.5-0.5 1.4-0.6 0.9-0.7 0.7-2.8 2.1-0.5 0.7-0.3 0.7-0.3 1.1-0.4 0.9-0.3 0.6-0.5 0.4-1.2 0.4-0.6 0.2-0.4 0.5 0 1.6-0.4 0.9-0.5 0.4-1.1 0.7-0.2 0.5-0.5 0-0.6 0.4-0.3 0.6-0.3 0.7-0.4 2.4-0.2 0.7-0.4 0.7-0.5 0.6-0.5 0.4-0.5 0.3-0.6 0.2-0.5-0.1-0.4-0.3-0.2-1.8 0.8-0.8 0-0.5-0.1-0.5-0.3-0.5-0.2-0.3 0.1-0.3 0.3-0.3 1.1-0.7 0.2-0.7-0.3-0.8-1.8-2.3-0.8-0.9-1.3-0.3-1.2 0-10.3 2.6-0.9 0-0.6-0.2-1.1-0.7-0.5-0.2-0.3 0.2-0.3 0.6-0.4 1-0.5 0.7-0.5 0.2-0.4-0.3-0.2-0.5 0-0.7 0.1-1.1 0.3-0.7 0.4-0.6 1.7-1.4 0.4-0.5 0.3-0.5-0.1-0.5-0.4-0.4-1.4-0.6-1.6-1.4-1.4-3.4 1.2-0.8 1.4-1.4 0.6-1 0.4-0.3 1.7-0.4 0.9-0.7 0.8-0.6 0.8-0.5 1.1-0.4 0.6 0.1 0.3 0.5 0.2 0.2 0.6-0.2 1.8-1.1 1.2-2.1 1.1-0.3 0.4 0.3 0.4 0.4 0.4 0.4 0.7 0.2 0.4 0 1 0.3 0.5 0.1 0.6 0.2 0.3 0.4 0.2 0.5 0.4 0.5 0.5 0.1 1.8-0.1 0.9-0.2 1-0.5 0.8-0.7 0.6-1.7 0.6-0.1 0.6 0.2 0.5 0.1 0.6-0.3 0.3-0.4 2.2-4.8 0.1-0.6-0.2-0.5 0-0.7 0.3-0.1 0.7 0.5 0.5-0.1 1 0.1 0.5 0 2-1 1.3-0.4 0.6 0.4 0.3 0.6 0.5 0.4 0.5 0.1 0.4 0.2 0.2 0.7-0.3 0.8 0.1 0.6 0.8 0.9 1.3 0.6 3.4 0.8 2.1 0.9 1 0.2 0.5-0.2z">
 </path>
 <path id="DZA2146" name="Sidi Bel Abbès" fill="#e17055" d="M412.6 119l-0.8-0.1-0.4 0-0.4 0.3-0.4 0.4-0.5 0.3-0.7 0.1-0.3 0-0.4 0.4-0.4 0.7 0 0.8 0 0.5 0.2 1 0.1 0.4 0.5 0.4 0.1 0.3 0 0.3-0.3 0.5-0.3 0.2-0.3 0.1-0.3 0-0.5-0.2-0.4-0.1-0.2 0.1-0.2 0.2-0.2 0.3-0.1 0.6-0.2 0.4-0.1 0.4 0.3 0.4 0.1 0.4-0.2 1.6 0.1 0.5 0.2 0.4 0.4 0.3 0.4 0.4 0.1 0.3-0.1 0.3-0.3 0.2-0.3 0.2-1.2 0.3-1 0.5-0.3 0-0.4-0.3-0.3 0-0.5 0.3-0.3 0.5 0 0.3 0.2 0.3 0.3 0.2 1.9 0.8 0.7 0.5 0.3 0.6 0 0.8 0 0.4 0.2 0.3 0.3 0.2 0.9 0.3 0.4 0.3 0.2 0.4 0.2 0.1 1.2 0 0.5 0.2 0.2 0.3 0.1 0.4 0 0.7 0.2 0.3 0.8 0.6 0.4 0.4 1.7 1.3 1.6 1.6 2.5 3.8 0.3 0.8 0.1 1-0.1 1.2-0.3 1-0.3 0.9-0.2 0.3-20 17.6-0.7-2.1-0.4-0.6-0.7-0.9-0.7-0.5-0.9-0.5-1.1-0.3-0.9 0-0.9 0.1-1 0.4-2 1.3-3 2.4-1.2 0.7-1.2 0.5-2.2 0.3-3.7-0.3-1.1-0.3-0.9-0.5-0.8-0.6-0.9-0.6-0.6-0.2-0.5 0-1.5 0.4-1 0.1-0.8-0.2-0.7-0.3-1.3-0.8 1.2-1.9 1.9-2 7.8-6.6 0.8-1 0.3-0.9 0-0.4-0.1-0.6-0.4-0.7-0.7-0.8-0.2-0.3-0.2-0.4 0.1-0.5 0.4-0.5 0.6-0.3 2.1-0.7 0.3-0.2 0.4-0.4 0.8-2.3 0.9-2 0.7-1.2 0.7-1.5 0.1-0.6 0-0.4-0.4-0.8-0.4-0.3-3.1 0.3-1.2-0.1-1-0.5-0.5-1.1-0.1-1.4 0.4-1.9 0.1-1.1-0.1-0.5-0.6 0-0.6 0.1-0.7 0.2-0.3 0-0.3-0.2-0.1-0.5 0.2-0.5 0.7-1 0-0.3-0.2-0.3-0.9-0.2-0.3-0.4-0.3-0.6-0.3-0.9-0.1-0.4 0-0.8 0.1-1.1 0.6-2.3 0.2-0.4 0.5-0.8 0.5-1.2 0-0.4-0.2-0.2-2.8-1.9-0.5-0.2 1.3-2.3 0.7-0.7 1-0.5 0.8-0.1 0.8-0.2 0.8-0.5 0.6-1.2 0.1-1.2-0.2-1-0.3-0.8-0.1-0.7 0.3-0.7 0.6-0.4 1.1-0.2 0.7 0 0.8-0.1 0.8-0.5 1.5-2 0.7-0.6 4.1-0.8 0.2 1.8 0.4 0.3 0.5 0.1 0.6-0.2 0.5-0.3 0.5-0.4 0.5-0.6 0.4-0.7 0.2-0.7 0.4-2.4 0.3-0.7 0.3-0.6 0.6-0.4 0.5 0 1-0.1 1.1-0.3 1-0.4 0.8-0.2 0.3 0.1 0.3 0.4-0.1 0.9-0.5 0.8-0.8 1.1 0.2 0.4 0.7 0.5 1.6 0.7 1 0.3 0.7 0 0.7-0.8 0.4-0.2 0.5 0 7.5 2.9 0.8 0.6 0.1 0.8-0.3 1.1-0.2 1-0.2 0.5-0.2 0.9 0 0.8-0.1 0.6-0.4 0.4 0 0.3 0.1 0.5 1 0.9 0.6 0.9 0.8 1.8z">
 </path>
 <path id="DZA2147" name="Tlemcen" fill="#e17055" d="M372.2 121.1l0.5 0.2 2.8 1.9 0.2 0.2 0 0.4-0.5 1.2-0.5 0.8-0.2 0.4-0.6 2.3-0.1 1.1 0 0.8 0.1 0.4 0.3 0.9 0.3 0.6 0.3 0.4 0.9 0.2 0.2 0.3 0 0.3-0.7 1-0.2 0.5 0.1 0.5 0.3 0.2 0.3 0 0.7-0.2 0.6-0.1 0.6 0 0.1 0.5-0.1 1.1-0.4 1.9 0.1 1.4 0.5 1.1 1 0.5 1.2 0.1 3.1-0.3 0.4 0.3 0.4 0.8 0 0.4-0.1 0.6-0.7 1.5-0.7 1.2-0.9 2-0.8 2.3-0.4 0.4-0.3 0.2-2.1 0.7-0.6 0.3-0.4 0.5-0.1 0.5 0.2 0.4 0.2 0.3 0.7 0.8 0.4 0.7 0.1 0.6 0 0.4-0.3 0.9-0.8 1-7.8 6.6-1.9 2-1.2 1.9-0.8 0.7-0.6 0.4-2.9 1.3-0.3 0.2-0.6 0.6-0.6 0.5-0.4 0.2-0.5 0.1-3.3 0.3-1.1-0.1-2.3 0.1-1.5-0.1-0.7 0.1-1.7 0.5-8.6 5.3-0.7 0.4-0.1-0.8-3.5-10.8-1.2-2.6-1.9-2.2 5.2-6.3-0.6-0.3-1.7-0.5-5.8-6 0.4-1 2.5-4 1.2-2.6 0.6-0.5 0.2-0.4-0.9-0.9-5.1-3.3-1.6-1.5-2.6-1.6-0.6-0.8-0.3-0.8 0-0.8-0.2-0.7-0.7-0.5-2.1-0.2-1.7-1.1-1.5-1.4-1.8-1.3-1.4-0.6-0.9-1.2-0.5-1.5 0-2.3 1.1-0.5 0.5 0.2 0.1 0.3 1.5-0.7 1.6 0.3 1.8 0.8 1.6 0.4 3.1-0.4 1.1 0.3 0.4 0.1 0.4-0.1 0.8-0.7 4.5-1.3 1.3-0.9 0.4-0.1 1.4 0 0.7-0.1 0.7-0.6 1.6-1.9 3.1-1 0.5-0.4 0.4-1 5.8-4.9 0.9-0.4 4.6-0.5 1.3-0.4 0.4-0.2 0.1 0.9 0.2 0.1 0.7-0.1 0.4 0.2 0.2 0.2 0.3 0.5 0.1 0.3-0.2 1.1-0.1 1.4-0.1 0.4-0.2 0.2-0.6 0.5-0.1 0.3 0.1 0.5 0 0.6 0.1 0.3 0.2 0.3 0.4 0.1 0.6 0 0.4 0 0.6-0.3 0.6-0.1 0.6 0 10.8 5.8 2.3 0.6z">
 </path>
 <path id="DZA2148" name="Béchar" fill="" d="M439.9 373.3l-28.9 53.9-30.3 40.9-6.4 4.7-44.4 8-5.5 2.1-6 3.6-15.2 11.9-6.8 4.3-11.8 4.7-10.1-2-11.9-5.9-5.1-3.5-8.6-4.4-9.6 0.9-73.2 19.7-35.5-75.7 5.7-1.2 6.1-0.8 1.7 5.1 4.1 1.5 4.7-1.5 5.1-6.6 4.3-7 3.4-6.7 4.7-5 5.1-3.5 5.4-4.7 4.1-3.1 5-2.8 7.1-3.1 6.8-5.5 5.4-7 4.7-2.8 5.8-1.6 7.4-0.4 8.1-1.9 9.1-4.7-0.7-7.1 2.4-2.4 2.7-4.3-2.6-4.2-0.1-1.1-0.2-1-0.5-1.1-0.5-0.5-1.8-0.8-0.8-0.9-1.3-2.1-0.7-0.7-0.9-0.3-0.7 0.4-1.4 1.4-0.9 0.3-0.8 0-0.6-0.5-0.1-1 0.3-1.1 1-1.7 0.1-1.3-0.3-4.3 0.2-1 0.6-0.8 2.7-2 3.6-0.2 0.6-14.7 3.3-1.7 2.1 0.5 1.8-0.2 14.1-2.5 10.5-3.2 8.4-1.2-2-5.6-3.3-8.9 2.8-1.5 8.9-0.8 8.7-2.4 9.7 0.4 19.7 0.9 12.3 0.6 10 0.5 4.3 0.2 5.2 0.2 1.9-0.4 1-2-0.3-1.2-0.8-0.7-1-0.3-0.9 0-1.8 0.7-0.8 0-0.2-1 0.2-0.3 0.8-0.6 0.3-0.4 0.3-0.6 0.1-0.4-0.1-0.5 0.1-0.7 0.8 0 6.9-0.8 3.2 0.1 1 0.2 0.9 0.4 0.8 0.4 0.5 0.5 0.5 0.6 0.5 0.8 0.6 1.1 1.5 3.7 1.1 0.1 2.4-0.3 39-12.4-17.5 51.1 0 2.2 1.5 3.1 10.4 12 26.8 23.4z">
 </path>
 <path id="DZA2149" name="Naâma" fill="" d="M397.1 171.5l-0.6 1.4-0.1 0.7 0.3 1.1 0.3 1 3.6 7.2 1.3 3.5 0.1 0.7-0.1 0.4 0 0.5 0.1 0.5 0.9 1 0.5 0.3 0.3-0.3 0-0.4 0-0.7 0-0.5 0.1-0.4 0.4-0.3 0.6-0.1 0.7 0.1 0.4-0.4 0.4-0.8 1.7-2.5 1.5-1.8 0.4-0.3 0.5-0.2 0.9-0.3 1.7-0.6 0.4-0.4 0.6-0.1 1.2 0 1.4 0.3 0.4 0.3 0.3 0.3 0.3 1.1 0.1 1.7 0.1 0.9-0.2 0.6 0.1 0.5 0.2 0.2 0.6-0.1 2.1-1.1 2.3-1.7 1-0.6 0.8-0.1 0 2.4-1.7 11.9-0.2 10.4 1.1 14.3-0.2 4-0.5 2.1-2.6 9-0.9 3.2-0.4 2.3-0.1 1.2 1.2 10.4-0.1 0.8-0.4 1.2-4.1 11.1-0.1 1.4 0.1 1.2 0.7 1.2 0.8 0.5 0.7 0.3 0.8 0.1 0.6 0.2 0.5 0.3 0.4 0.8 0.1 0.6 0 0.8 0 1-0.4 2.5-1.3 4.2-39 12.4-2.4 0.3-1.1-0.1-1.5-3.7-0.6-1.1-0.5-0.8-0.5-0.6-0.5-0.5-0.8-0.4-0.9-0.4-1-0.2-3.2-0.1-6.9 0.8-0.8 0 0.8-5.2 0.7-2.1 0.4-1 0.8-1 0.8-0.4 2-0.3 1.8-0.8 1.6-1.2 2.8-3.2-0.7-1.3-13.5-10.4-3.1-1.1-1.6-1.4-6.5-11 2-1.5 0.4-0.4 0.3-0.5 0.2-0.5 0.1-0.6 0.1-1.3 0-1.3-0.3-1.2-0.8-0.8-1.4-1-1.3-1.2-1-1.4-0.6-1.8-0.9-1.7-2.4-2.4-0.5-1.9 0-5.7 0.5-1.4 0.7-1.5 0.9-3.2 0.7-1.1 0.7-1.6-0.3-1.9-2.1-5.2-0.6-0.7-0.8-0.6-1.7-0.6-0.7-0.6-0.3-0.9 0.2-0.9 0.5-0.6 0.5-0.5 0.5-0.6 0.4-0.8 0-0.7-0.5-1.7-0.4-2.8 0.1-2.8 2.3-9.4 0.1-1.1-0.1-0.8 0.7-0.4 8.6-5.3 1.7-0.5 0.7-0.1 1.5 0.1 2.3-0.1 1.1 0.1 3.3-0.3 0.5-0.1 0.4-0.2 0.6-0.5 0.6-0.6 0.3-0.2 2.9-1.3 0.6-0.4 0.8-0.7 1.3 0.8 0.7 0.3 0.8 0.2 1-0.1 1.5-0.4 0.5 0 0.6 0.2 0.9 0.6 0.8 0.6 0.9 0.5 1.1 0.3 3.7 0.3 2.2-0.3 1.2-0.5 1.2-0.7 3-2.4 2-1.3 1-0.4 0.9-0.1 0.9 0 1.1 0.3 0.9 0.5 0.7 0.5 0.7 0.9 0.4 0.6 0.7 2.1z">
 </path>
 <path id="DZA2150" name="Tindouf" fill="" d="M239.3 492.5l37.6 74.6-129.3 90.8-0.6 0.6-6.9-4.5-16.2-10.6-17.7-11.6-9.6-6.2-9.5-6.3-9.6-6.3-9.6-6.3-19.1-12.5-9.5-6.3-9.6-6.3-9.6-6.4-9.5-6.3-9.6-6.3 0-75.6 0.2-1.5 0.5-1 0.9-0.8 6.2-3.4 2.2-1.7 2.2-1.2 0.6-0.7 1.6-2.9 0.8-0.6 1.7-0.8 0.8-0.5 3.2-3 3.3-2.3 5.4-2.4 1.6-1.2 4.4-4.2 5.2-3.5 2.9-2.7 2.3-1.3 0.8-0.5 2.9-3.1 1.7-0.7 2.2 0.1 2.2 0.4 1 0 1.1-0.1 1-0.4 5.5 0.3 4.4-4.6 5.4-2.3 3.7-0.4 5.4 0.4 8.5 3.4 4-3.8 6.8-0.8 7.1-2 6.7-0.7 13.2 0 35.5 75.7 73.2-19.7z">
 </path>
 <path id="DZA2163" name="Annaba" fill="#e17055" d="M796.3 13.4l-0.6 0.2-0.2 0.5-0.1 5.7-0.2 0.7-0.2 0.4-1 0.4-0.5 0.3-0.3 0.5-0.9 1.9-1.3 1.7-0.7 1.3-1 1.6-0.4 0.5-0.4 0.4-0.5 0.2-0.5 0.2-1.4 0.2-0.7 0-0.7-0.2-0.7-0.3-1.1-0.6-0.8-0.2-0.2-0.3-0.2-0.6 0-1.3-0.4-0.8-0.3-0.6-3.6-2-0.6-3.8-0.9-2.8 0-0.7 0.1-0.7 0.3-0.5 0.2-0.8-0.3-0.6-0.5-0.5-1.3-0.7-0.7-1.1-2.1-8.6 0-0.3 0.6 0.4 0.3-0.2 0.3-0.5 0.5-0.1 0.4 0.1 0.9 0.6 0.5 0.1 0.4-0.1 1.3-0.7 0.6 0 0.5 0.8 0.2 0.7 0.3 0.4 0.7 0.1 1 0 0.4 0.2 0.4 0.2 0.8-0.4 0.9-0.3 1.7 1.3 1.4 1.5 1.6 1.2 2.2 0.5 0.5-0.2 0.4-0.2 0.5-0.1 0.6 0.1 0.5 0.3 0.5 0.3 0.4 0.4 0.4 0.4 2.3-0.2 0.5-0.2 0.9-1 0.5-0.4-0.4 1.2-0.6 1.3-0.2 1.2 0.8 0.8-0.8 1.8z">
 </path>
 <path id="DZA2164" name="El Tarf" fill="#e17055" d="M815.3 37.3l-0.4 0.3-0.9 0.7-0.6 0.7-1 1.5-0.5 0.5-0.7 0.5-0.7 0.4-0.6 0.3-0.8 0.3-0.8 0.1-0.5-0.1-0.3-0.4-0.2-2.8-0.7-1.5-0.2-0.5-0.2-0.5-0.2-0.4-0.5-0.3-8.7-3.7-0.6-0.5-0.4-0.6-0.3-0.9-0.3-0.6-0.5-0.7-1.6-1.4-0.5-0.3-2.3-0.4 0.7-1.3 1.3-1.7 0.9-1.9 0.3-0.5 0.5-0.3 1-0.4 0.2-0.4 0.2-0.7 0.1-5.7 0.2-0.5 0.6-0.2 1.7 1.3 2.7 0.8 2.1 0.3 6.8-1.7 1.1-0.6 1-0.9 6.8-3.4 0.8 0.6 0.9 0.9 0.9 0.5 2.2-0.1 1.1 0.1 0.9 0.4 0.7-0.3 0.6 0.3 0.6 0.5 0.7 0.4 1.7 0.1 1.6-0.1 5.1-2.1 0.2 1.6-0.1 0.7 0.2 0.6 1.7 2.6-0.1 0.7-0.9 0.6-3.3 1.4-1.7 0.3-1.8-0.1-1.8 0.2-1.5 0.8-0.3 0.9 1.6 0.9 1 1.2-0.4 2.2-1.1 2.1-1.1 1.2-5.8 3.5-3.2 1.2-1.4 0.9-1.1 1.4-0.1 2z">
 </path>
 <path id="DZA2165" name="Jijel" fill="#e17055" d="M732.6 32.1l-6.2-1.3-0.4-0.2-0.2-0.3-0.3-0.8-0.3-0.1-0.4 0-1.3 0.8-1.1 0.4-0.3 0.4-0.6 0.7-0.5 0.2-0.9 0-1.5-0.1-1.9-0.5-2.6-0.2-1.7-0.5-0.7-0.1-1 0.1-1.8 0.8-0.7 0.5-0.5 0.7-0.3 0.7-0.5 0.5-1 0.3-1.7 0.2-1.1-0.1-1.2-0.4-0.7-0.4-0.9-0.2-0.6-0.1-1.9 0.4-2.9 1.2-0.6-0.1-0.7-0.1-1.2-0.9-0.5-0.1-0.7 0.3-0.4 0.3-0.8 0.8-0.4 0.3-0.6 0.2-0.5 0-0.6-0.1-0.5-0.3-0.5-0.5-0.3-0.9 0-0.7-0.3-1.1-1.1-0.4-0.9-0.7-1.2-0.4-0.2-0.2 0-0.3 0.2-0.3 0.2-0.6-0.4-1.9 0.3-0.1 1.5 0 0.2-0.1 0.6-0.8 0.4-0.3 1.9-0.7 1-0.8 0.6-2.2 0.7-0.9 0.8-0.7 0.9-0.5 2.1-0.6 0.9-0.5 1.8-1.6 1.1-0.4 1.2 0 3.3 0.7 2-0.1 8.1-1.9 7.8-2.9 1.8-1.1 0.6-0.9 0.3 0.2 0.8 0.8 0.2 0.4 0.1 0.3 0 0.6-0.3 1.1 0.1 0.5 0.1 0.2 1 0.1 0.5 0.1 0.5 0.2 0.4 0.4 0.4 0.5 0.3 0.5 0.2 0.7 0.2 0.9 0 1.7 0.3 1 0.6 1.5 2.6 2.8 2.3 1.2 0.4 0.4 0.2 0.5-1 2.3-0.1 2.6z">
 </path>
 <path id="DZA2166" name="Skikda" fill="#e17055" d="M771.6 2.1l0 0.3 2.1 8.6 0.7 1.1 1.3 0.7 0.5 0.5 0.3 0.6-0.2 0.8-0.3 0.5-0.1 0.7 0 0.7 0.9 2.8 0.6 3.8-0.8 0.3-0.9 0.6-0.4 0.3-0.6 0.8-0.1 0.7-0.2 1.4-0.3 0.4-0.5 0.3-0.8 0-1.2 0.3-1.3 0.5-5.4 2.9-1.1 0.9-1.2 1.5-0.3 0.8 0 0.6 0.2 0.4 0.1 0.5-0.1 0.3-0.2 0.2-0.4 0.2-3.7 1.1-1.2 0.7-1.1 2-3.6-0.9-0.8-0.4-0.7-0.1-0.5-0.2-0.2-0.4 0.1-0.4 0.3-0.4 0.6-0.5 0.1-0.3 0-0.5-0.1-1.2 0.1-0.4 0.2-0.2 0.7-0.3 0.5-0.1 0.6 0.1 0.6 0.3 0.4 0.1 0.4-0.2 0.3-0.5 0.1-0.6 0-0.4-0.4-0.2-0.9 0-5.6 0.3-2.1-0.6-2.6-1.2-0.3-0.5-0.2-0.5-0.3-0.3-0.5 0-2.6 2-0.9 0.2-2-0.4-1.7 0-2.3-0.1 0.1-2.6 1-2.3-0.2-0.5-0.4-0.4-2.3-1.2-2.6-2.8-0.6-1.5-0.3-1 0-1.7-0.2-0.9-0.2-0.7-0.3-0.5-0.4-0.5-0.4-0.4-0.5-0.2-0.5-0.1-1-0.1-0.1-0.2-0.1-0.5 0.3-1.1 0-0.6-0.1-0.3-0.2-0.4-0.8-0.8-0.3-0.2 0.5-0.6 0-1.3-0.1-1-0.1-0.9 0.6-1.2 0.4-0.4 2-1.5 0.6-0.8 0.5-0.4 1.6-0.9 2.1-0.5 2.3-0.1 1.9 0.7 1.8 1.3 0.2 0.1 0.1 0.6 0.1 0.5 0.2 0.3 0.5 0.1 0.5 0.4 0.5 2.3 0.8 1 0.7-0.3 0.9 0.4 0.9 0.5 1 0.2 7.3 0.5 0.6 0.2 0.9 0.5 0.8 0.7 0.5 0.6 0 1 1.4 0.6 1.9 0.1 1.3 0 4.3-1.4 1.3-0.7 0.8 0.3 1.2 0.3 1.2 0.1 0.5-0.5 0.4-0.6 2-1.7 0.7-0.4 0.3-0.3 0.4-0.6 0.4-0.8 0.1-0.6-0.1-0.6-0.2-0.5-1.9-2.1-1.4-1.2 0-0.3 0.5-0.1 0.9-0.3 0.5 0 0.5 0.1 0.9 0.5 0.6 0.2z">
 </path>
 <path id="DZA2188" name="Illizi" fill="" d="M986.5 738.8l-144.9-0.1-0.6-0.1-0.4-0.1-0.5-0.4-1.3-1.4-1.3-1.6-1.2-1.7-2.1-4.6-0.5-0.8-0.6-0.7-0.7-0.6-0.6-0.1-0.5-0.1-1.2 0.1-3.9-0.5-4.5-1.3-0.3-0.2-1.5-1.4-0.5-0.2-1-0.1-0.3 0-0.8-0.3-1.8-1.2-3.6-1.1-1.2-0.2-2.4-0.1-3.2-0.6-0.4-0.2-1.5-0.9-0.5-0.5-1.1-1.2-0.4-0.3-1-0.5-0.6-0.4-3-3.1-0.4-0.2-1.1-0.4-0.2-0.1-2.1-1.2-0.5-0.6-0.5-0.6-1.2-1.2-0.4-0.3-0.9-0.6-0.5-0.1-1 0.1-0.6-0.3-0.6-0.6-0.6-0.2-0.5-0.2-0.6-0.3-0.9-0.8-0.4-0.3-0.6-0.2-0.3 0-2 0.2-1.9-0.3-2.1-0.8-0.6-0.4-0.9-0.8-0.9-0.6-0.6-0.6-0.5-0.9-1.5-1.8-1.3-2.4-0.7-0.8-0.8-0.8-3.1-2.1-0.9-0.8-0.5-0.8-0.4-0.7-1-4.2 0-5.7 0.2-1 1-2.5 0.2-0.4 2.2-3.1 0.4-1 0.1-0.4 0-1.1-0.1-0.6-0.2-0.6-0.5-0.9-0.7-1.1-1.5-1.4-5.4-6.9-0.6-10.1-0.5-2.4-0.7-1.4-12-3.3-1.5-0.7-1.2-0.7-5.2-2.2-0.8-0.6-0.6-0.6-10.2-13.7-0.4-0.3-5-2.5-0.6-0.4-0.2-0.3-0.2-0.7-0.1-0.8 0.1-1.7 0.2-1.2 0.4-1.2 4-9.6 0.2-0.9 0.1-0.5-0.1-0.7-0.1-1-0.5-1.6-0.9-1.5-1.8-1.8-9.5-7.3-2-2.1-0.5-0.7-0.3-0.8-5.4-18.5-1.2-6.5 1.1-4.6 1.7-2.7 3-2.7 3.6-2.7 12-11.5 13-5 1.9-1.7-1-6.6-1.7-4.4-2.9-2.9-24-19.1 22.6-13.3 17.7-7.6 7.2 0 10.1 1.6 107.5-65.7 2.5 3.1 6.2 9.2 5.7 10.8 3.8 13.4 3.9 13.3 1 8.4 0.2 10.5-1.2 9.2-2.4 19.3 0.6 3.2 7.1 18.8-0.1 2.1-3.5 11.4-0.8 1.1-1.3 0.7-1.2 0.9 0.1 1.1 0.8 1.3 0.4 1.1-0.4 1-2 2.3-0.7 1.2-0.7 3.2-0.8 2.2-0.2 0.8 0 0.9 4.1 14.5 0.9 5.7 0.5 1.1 0.5 0.5 2.2 1.2 0.7 0.6 0.2 0.8-1.2 5.8-0.1 1.9 0.5 1.5 0.1 1.1-2 7-0.9 1-17.1 8.2 0 1.1-0.2 0.9-0.4 0.8-1.7 1.6-0.8 2.1-0.7 0.9-1.2 2.5 1.1 3 6.8 9.5 7.4 10.4 13.3 18.7 1.8 3.4 0.7 3.4 0.4 14.6 0.1 7.3 0.6 1.5 7.2 4.2 0.9 1.5 0.9 4.9 0.6 1.9 0.8 0.9 6.4 5.2 0.9 0.3 1.9-0.2 11-4.1 1-0.1 1.1 0.2 9.2 3.1 28.9 9.6 1.5 0.9 1.3 1.6 6.9 14.1z">
 </path>
 <path id="DZA2189" name="Tamanghasset" fill="" d="M708.3 496.7l24 19.1 2.9 2.9 1.7 4.4 1 6.6-1.9 1.7-13 5-12 11.5-3.6 2.7-3 2.7-1.7 2.7-1.1 4.6 1.2 6.5 5.4 18.5 0.3 0.8 0.5 0.7 2 2.1 9.5 7.3 1.8 1.8 0.9 1.5 0.5 1.6 0.1 1 0.1 0.7-0.1 0.5-0.2 0.9-4 9.6-0.4 1.2-0.2 1.2-0.1 1.7 0.1 0.8 0.2 0.7 0.2 0.3 0.6 0.4 5 2.5 0.4 0.3 10.2 13.7 0.6 0.6 0.8 0.6 5.2 2.2 1.2 0.7 1.5 0.7 12 3.3 0.7 1.4 0.5 2.4 0.6 10.1 5.4 6.9 1.5 1.4 0.7 1.1 0.5 0.9 0.2 0.6 0.1 0.6 0 1.1-0.1 0.4-0.4 1-2.2 3.1-0.2 0.4-1 2.5-0.2 1 0 5.7 1 4.2 0.4 0.7 0.5 0.8 0.9 0.8 3.1 2.1 0.8 0.8 0.7 0.8 1.3 2.4 1.5 1.8 0.5 0.9 0.6 0.6 0.9 0.6 0.9 0.8 0.6 0.4 2.1 0.8 1.9 0.3 2-0.2 0.3 0 0.6 0.2 0.4 0.3 0.9 0.8 0.6 0.3 0.5 0.2 0.6 0.2 0.6 0.6 0.6 0.3 1-0.1 0.5 0.1 0.9 0.6 0.4 0.3 1.2 1.2 0.5 0.6 0.5 0.6 2.1 1.2 0.2 0.1 1.1 0.4 0.4 0.2 3 3.1 0.6 0.4 1 0.5 0.4 0.3 1.1 1.2 0.5 0.5 1.5 0.9 0.4 0.2 3.2 0.6 2.4 0.1 1.2 0.2 3.6 1.1 1.8 1.2 0.8 0.3 0.3 0 1 0.1 0.5 0.2 1.5 1.4 0.3 0.2 4.5 1.3 3.9 0.5 1.2-0.1 0.5 0.1 0.6 0.1 0.7 0.6 0.6 0.7 0.5 0.8 2.1 4.6 1.2 1.7 1.3 1.6 1.3 1.4 0.5 0.4 0.4 0.1 0.6 0.1 144.9 0.1 5.4 11.1 7.1 14.4-3.3 2.1-9.9 6.4-9.8 6.3-13.2 8.4-6.5 4.3-9.9 6.3-13.2 8.4-9.8 6.3-13.2 8.4-9.9 6.3-9.8 6.3-16.5 10.5-6.5 4.1-13.2 8.4-3.3 2.1-13.1 8.3-16.5 10.4-6.6 4.2-3.2 2.1-6.6 4.1-3.3 2.1-6.6 4.2-3.3 2.1-9.6 6-11.7 10.2-10.6 9.3-1.9 1.7-11.9 10.9-6.1 5.6-6.1 5.6-3 2.8-12.2 11.1-6.1 5.6-9.9 9-2.1 1.5-2.2 0.8-11 2.3-26 5.3-36.5 7.4-21.1 4.1 0-0.1-0.4-76.4-1.5-11.8-3.6-5.2-5-4.7-106.6-62.8-2.4-3.1-0.9-1.7 0.4-173.1-0.1-0.7-0.3-0.5-0.7-0.6-8.1-6.3-0.6-1.1-0.4-1.5 0.7-5.3-0.1-3.1-0.2-1.1-0.3-1.1-0.4-1-0.5-0.9-7.6-10.5-4.1-3.9-0.5-0.7-0.1-0.8 0.5-1.1 0.9-1.2 0.5-0.4 2.2-1.1 3.5-1.3 3.3-2.4 0.4-0.2 0.4-0.2 3.5-0.2 2.7 0.3 0.7 0 1.8-0.6 0.4-0.1 6.7 0.1 0.5-0.1 3.9-1.2 1.4-0.7 0.8-0.6 1.3-1.4 3-4.2 0.4-0.4 0.9-0.3 5-0.8 0.6-0.2 3.1-3.3 1.5-1.3 2.1-2.3 0.9-1.3 0.5-1.3 0.4-1.3 6.1-68.9 2.7-11.9 0.6-11.1-2.6-30 43.8-4.9 40.1 31.9 45.2 4.6 58.1-1.5z">
 </path>
 <path id="DZA2190" name="El Bayadh" fill="" d="M485.2 180.9l2.6 5.3 0.9 0.9 0.9 0.6 2.6 1.2 2.1 1.2 7.4 2.1 2.3 0.9 1.6 1 0.9 0.6 0.8 0.9 0.8 1.2 3.5 7.2 6.6 10 0.6 1.8 0.2 2.5-0.2 1.9-0.6 1.5-1.8 2.1-0.3 0.6-0.2 0.7 0.1 0.9 0.6 1 0.9 1.4 0.5 0.8 0.3 0.8 0.5 3.6 0.4 1.3 0.7 1.7 1.1 1.9 4.7 5.8 1.5 3.4 2.7 9.9 1.4 2.8 0.4 1.8 0.3 2.6-0.4 13.8 0.3 2.1 1.5 5.6 0.3 2 0.2 2-0.1 2.3-0.5 2.1-0.8 2-4.2 6.3-0.7 1.6-0.1 2 0.3 1.6 0.9 2.7 0.2 1.2-0.1 1-0.8 1.2-1.1 1-4.1 2.9-1.4 1.4-50.9 25.9-9.2 5.9-4.5 3.8-16.9 18.1-26.8-23.4-10.4-12-1.5-3.1 0-2.2 17.5-51.1 1.3-4.2 0.4-2.5 0-1 0-0.8-0.1-0.6-0.4-0.8-0.5-0.3-0.6-0.2-0.8-0.1-0.7-0.3-0.8-0.5-0.7-1.2-0.1-1.2 0.1-1.4 4.1-11.1 0.4-1.2 0.1-0.8-1.2-10.4 0.1-1.2 0.4-2.3 0.9-3.2 2.6-9 0.5-2.1 0.2-4-1.1-14.3 0.2-10.4 1.7-11.9 0-2.4 0.6-1.6 0.5-1 0.4-0.7 1.4-1.5 1.8-1.5 0.7-0.8 0.4-0.5 0.3-0.9 0.4-0.9 0.5-0.8 0.7-0.4 0.8-0.3 1-0.1 2.9 0.1 0.5-0.2 2-1.7 0.4-0.4 10.5-6.5 0.2-0.1 3.5-2.2 1.6-0.7 1.4-0.1 10.4 3.3 2 1.5 0.9 1-0.7 7 0 1 0.3 0.6 0.7 0.2 7.4-0.5 1.9 0.3 0.9 0.5 0.6 1 1 2.4 2.6 3.3z">
 </path>
 <path id="DZA2191" name="El Oued" fill="" d="M744.2 162.9l0.9 2.9 1.4 1.6 10.5 6.2 2.7 0.9 5.7 1 3.3 1.7 3.3 1.1 2.7 0.3 10.2-0.3-1 1-0.7 1.6-0.1 4.3-1 5.9 0.2 2.2 0.7 3.2 0.3 1 1.4 2.8 0.5 3 0.4 1.5 6.8 11.8 0.7 2.3 0.1 7.9 0.7 2.7 1.3 1.4 1.7 0.5 2.3 0.2 1.8 0.6 5.4 3.9 0.9 0.5 1 0.3 1 0.1 1-0.2 1.1 0.6 4.6 7.2 4.9 7.7 0.6 1.8 0.7 8.1 0.4 5.9 0.6 1.9 1.4 1.6 5.9 3.8 7.7 5.6 10.2 7.3 8.1 5.9 0.7 0.8 0.5 1.1 0.9 4.1-84.6-0.1-6.9-0.8-6.7-2.1-4.9-5.1-3.8-5.6-6-10.8-2.1-4.8-10.6-37.1-4.2-9.3-8.9-3.4-57.3-3.8 5.5-7.5 4.7-8 2.5-3.3 2.1-2.2 0.6-1.1 0.4-1.3 1.9-12.4-0.1-2.9-0.1-1.3-0.5-2.1-0.8-2-0.5-1-1.5-2.2-1.8-2.2-3.4-3-0.2-0.3-0.2-0.4 0.1-0.8 0.2-0.7 0.3-0.7 0.4-0.6 0.5-0.5 0.6-0.3 2-0.8 0.8-0.5 0.6-0.6 0.1-0.8-0.1-0.9 0.3-0.8 0.3-0.3 0.4-0.1 3 1.4 4.6 1.5 25.2 3.2 9.4-2 0.9 0 7.7 2.2 2.8 1.3 0.4 0.5 0.4 0.6 0.5 0.6 0.7 0.6 1 0.4 0.7 0.2 1 0.2 1.5 0 1.6-0.3 1.7-0.7 1.7-1 1.7-1.5z">
 </path>
 <path id="DZA2192" name="Ghardaïa" fill="#e17055" d="M661.2 252l-11.6 17.8-9.5 8.9-6.9 4.6-1.2 1.3-0.8 1-1.7 3.2-1.9 5.4-4 7.5-4.3 10.4-3 13.5-11.9 88-4 7-5.9 5.4-3.5 4.1-2.3 3.2-3.9 15.1-2.6 3.2-17.3 10.1-43.8 4.9-6.6-58.9 6.2-42.9 0.7-45.2 1.4-1.4 4.1-2.9 1.1-1 0.8-1.2 0.1-1-0.2-1.2-0.9-2.7-0.3-1.6 0.1-2 0.7-1.6 4.2-6.3 0.8-2 0.5-2.1 0.1-2.3-0.2-2-0.3-2-1.5-5.6-0.3-2.1 0.4-13.8-0.3-2.6-0.4-1.8 17.4-3.3 5.5-2.1 5.9-1.3 10.3-1.1 2.8 0.4 1.2 0.5 4 2 1.4 0.2 1.3-0.2 1.3-0.8 0.9-1.1 1.9-2.5 1-1.1 14.9-7 0.2-0.2 1.2-0.1 2.4 0.1 0.5 0.2 1.3 0.7 1.6 0.2 14.1-2.7 38.8 10.8z">
 </path>
 <path id="DZA2193" name="Laghouat" fill="#e17055" d="M622.4 241.2l-14.1 2.7-1.6-0.2-1.3-0.7-0.5-0.2-2.4-0.1-1.2 0.1-0.2 0.2-14.9 7-1 1.1-1.9 2.5-0.9 1.1-1.3 0.8-1.3 0.2-1.4-0.2-4-2-1.2-0.5-2.8-0.4-10.3 1.1-5.9 1.3-5.5 2.1-17.4 3.3-1.4-2.8-2.7-9.9-1.5-3.4-4.7-5.8-1.1-1.9-0.7-1.7-0.4-1.3-0.5-3.6-0.3-0.8-0.5-0.8-0.9-1.4-0.6-1-0.1-0.9 0.2-0.7 0.3-0.6 1.8-2.1 0.6-1.5 0.2-1.9-0.2-2.5-0.6-1.8-6.6-10-3.5-7.2-0.8-1.2-0.8-0.9-0.9-0.6-1.6-1-2.3-0.9-7.4-2.1-2.1-1.2-2.6-1.2-0.9-0.6-0.9-0.9-2.6-5.3 14.7-11 0.8-0.9 0.5-1.5 0.3-1.2 0.8-1.6 1.2-1.7 2.6-2.9 1.8-1.5 1.3-0.9 6-1.8 1.1-0.7 5.2-4.5 4.5-2.6 0.7-0.8 0.4-0.7 0.4-0.8 0.4-0.4 0.9-0.3 3.7-0.7 2-0.1 0.4 3.2-0.3 0.7-0.4 0.9-1.3 1.5-0.7 1.3-0.4 1.9-0.4 3.3 0.1 2.1 0.5 1.6 0.6 0.8 1 1 0.6 0.7 0.5 1 0.4 1.4 0.8 5.1 0.4 0.9 0.6 1 1.8 2 0.7 1 0.6 1.2 0.6 1.4 0.2 0.9-0.1 1-1 3.1-0.3 1.4 0 0.6 0.4 3.3 0.4 0.7 0.7 0.4 1.4 0 3.8 0.5 1.7 0 0.3-0.1 0.2-0.3 0.2-1.4 0.1-1.8-0.2-6.3 0.1-0.6 0.2-0.5 0.2-0.3 0.6-0.2 4.3-0.7 2.3-0.8 0.7-0.4 0.5-0.5 0.4-1.4 0.4-0.8 0.6-0.7 3.6-3.4 0.8-0.5 0.7-0.1 0.6 0.1 1.1 0.7 0.4 0.2 0.8 0 2.3 0 1.1 0.5 0.5 0.6 1.2 3.4 0.6 4.3 0.4 1.3 0.5 1.4 3.5 6.1 19.7 22.2 18.8 16.5 1.4 1.6 1.3 1.6 1.6 3.2 2.3 6.2 0.5 1.9z">
 </path>
 <path id="DZA2194" name="Ouargla" fill="" d="M858.6 300.2l1.5 6.9 1.4 6.2 1.3 6.3 2.8 12.5 1.3 6.2 1.4 6.2 1.4 6.2 2.7 12.5 1.4 6.1 2.7 12.4 4.1 18.5-11.2 6.3 1.1 1.8 2.9 3.4-107.5 65.7-10.1-1.6-7.2 0-17.7 7.6-22.6 13.3-58.1 1.5-45.2-4.6-40.1-31.9 17.3-10.1 2.6-3.2 3.9-15.1 2.3-3.2 3.5-4.1 5.9-5.4 4-7 11.9-88 3-13.5 4.3-10.4 4-7.5 1.9-5.4 1.7-3.2 0.8-1 1.2-1.3 6.9-4.6 9.5-8.9 11.6-17.8-1.2-23.1 1.5-5.5 1.1-6.1 57.3 3.8 8.9 3.4 4.2 9.3 10.6 37.1 2.1 4.8 6 10.8 3.8 5.6 4.9 5.1 6.7 2.1 6.9 0.8 84.6 0.1z">
 </path>
 <path id="DZA2195" name="Alger" fill="#e17055" d="M573.9 22.2l2.8 3.5-2.3 1.2-2.3 0.4-0.6 0.3-0.6 0.2-0.6 0-0.7-0.2-0.6-0.4-0.4-0.9 0-1-0.4-0.7-1.4-0.4 0.1-1.4-0.5-0.4-1.9-0.1-0.4-0.1-0.2-0.3 0.2-0.3 0.3-0.6 0.1-1.3 0.3-1.4 0-0.4 1.5 0.2 1.6 1 1.2 1.4 1.4 1.2 1.8 0.6 1.6-0.1z">
 </path>
 <path id="DZA2196" name="Boumerdès" fill="#e17055" d="M615.8 12.9l-0.1 2.1-0.2 0.8-0.4 0.8-1.4 1.9-1.2 1.4-0.8 0.4-0.6 0.1-0.5 0.3-0.1 0.4 0.2 0.5 0.2 0.5 0.4 0.6 0.9 1 0 0.4-0.3 0.5-0.8 0.8-0.5 0.7-0.5 0.5-0.6 0.2-1-0.1-1.5-0.5-0.5-0.2-0.5 0.2-0.5 0.6-0.2 0.6-0.4 0.5-0.5 0.1-0.4 0-0.5-0.6-0.3-0.2-0.4-0.1-0.9 0.2-0.3 0.2-0.4 0.5-0.1 0.4-0.1 2-3.2 0.6-0.8 0-0.4-0.2-0.2-0.4 0.2-0.5 0.3-0.7 1.4-1.8 0.2-0.6-0.1-0.4-0.2-0.4-0.4-0.3-0.9-0.4-0.6-0.1-0.6-0.1-0.8 0.2-1.9 0.8-1.4 0.1-3-0.7-1 0.6-0.4 0.2-0.5-0.1-2.3-1-0.4-0.6-0.5-0.4-0.8-0.2-1.5 0.1-1.7 0.3-2.8 1.3-2.8-3.5 0.3 0 1.5-0.8 0.6-0.9 0.2-0.9 0.1-1.6 0.5 0 3.1 1.5 1.8 0.4 5.8 0.4 1-0.1 1.9-0.6 1-0.1 0.5-0.2 0.3-0.4 0.3-0.4 0.3-0.2 0.5-0.1 1.1 0.1 0.4 0 1.9-1 2.9-2.9 1.5-1.1 4.2-1.3 2.2-0.3 1.9 0.3 1.7 1.1 0.8 0.2 0.5-0.1 1-0.3 1.7 0 0.4 0z">
 </path>
 <path id="DZA2197" name="Tizi Ouzou" fill="#e17055" d="M642.5 13l0.1 0.4 0.1 1 0.3 0.7 2 3 0.1 0.4 0.1 0.6-0.1 0.6-0.3 1.3-0.2 0.6-0.5 0.3-0.5-0.1-1.2-0.5-0.5-0.1-0.7 0.1-0.6 0.4-0.4 0.4-0.2 0.8 0.1 0.4 0.3 0.5 0.4 0.3 1 0.4 0.5 0.2 0.3 0.3 0.3 0.5-0.1 0.8-0.3 0.8-2 3.2-0.6 1.7-0.5 0.7-3.6 4.1-1.3 0.8-2.7 0.9-0.9-0.3-2.1 0.5-0.8 0-2.1-0.6-0.7-0.1-1.5 0.7-0.8 0.2-12.1-0.5-2.3-0.8-1.8-1.1-1.6-1.6-1.2-0.9-1.5-1.2-1.4-2.4 0.1-2 0.1-0.4 0.4-0.5 0.3-0.2 0.9-0.2 0.4 0.1 0.3 0.2 0.5 0.6 0.4 0 0.5-0.1 0.4-0.5 0.2-0.6 0.5-0.6 0.5-0.2 0.5 0.2 1.5 0.5 1 0.1 0.6-0.2 0.5-0.5 0.5-0.7 0.8-0.8 0.3-0.5 0-0.4-0.9-1-0.4-0.6-0.2-0.5-0.2-0.5 0.1-0.4 0.5-0.3 0.6-0.1 0.8-0.4 1.2-1.4 1.4-1.9 0.4-0.8 0.2-0.8 0.1-2.1 2.2 0.3 1 0.5 2-1.1 0.6-0.1 0.6 0.1 1.2 0.5 0.7 0.2 0.6-0.2 1.2-0.8 0.7-0.3 0.8 0.1 1.3 0.6 0.7 0.2 5.8-0.9 0.6 0.1 0.7 0.3 0.7 0.3 0.5 0.4 0.6 0.3 1.5 0 0.7 0.3 1.5-0.7 0.5 0z">
 </path>
 <path id="DZA2198" name="Tipaza" fill="#e17055" d="M564.8 17.9l0 0.4-0.3 1.4-0.1 1.3-0.3 0.6-0.2 0.3 0.2 0.3 0.4 0.1 1.9 0.1 0.5 0.4-0.1 1.4 0 0.8 0.4 1.2 0.1 0.4-0.1 0.3-0.2 0.2-0.3 0.2-1 0.2-0.6 0.3-0.3 0.4-0.4 0.2-0.7 0.2-5.5-0.2-0.5 0.2-0.2 0.4-0.1 0.4-0.2 0.5-0.7 0.6-3 1.5-0.9 0.3-0.8 0.5-0.9 0.7-2.2 2.1-0.8 0.5-0.4 0.7-0.2 1-0.4 0.6-0.5 0.4-1 0.2-1.8 0.1-0.4-0.1-1.4-0.4-0.4 0-0.4 0.4-0.3 0.3-0.4 2.3-9.3 0.4-6.8-1.4-1.2 0-3.2 1.1-1.8 0.4-0.6 0.2-1.2-0.1-1.5-0.5-6.7-0.8-0.8 0.1-0.5 0.4-0.3 1.4-0.3 0.5-0.5 0.5-0.5 0.3-1.1 0.6-0.4 0.2-0.5-0.1-1.3-2.7-1.6-1.8 0.2-1.1 1.3-2.1 0.5-1.1 0.6-2 0.7 0 0.5-0.1 1.2-0.6 0.5-0.1 0.4 0 1.1 0.3 0.5 0 2.7-0.7 2.7-0.2 2.2 0.5 0.6 0.1 4.2-0.6 12.1-3.6 1-0.4 1-0.1 1.1 0.3 0.9 0.6 0.3 0.5 0.1 0.6 0.2 0.4 0.5 0.2 0.6 0 1 0.3 0.4 0.1 7-0.4 1.5-0.6 4.6-3.6 3.2-1.7 1.2-1 1.2-1.8 0.3-0.8 1.3-1.3 2.7-2 2.2-0.5 0.3 0.1z">
 </path>
 <path id="DZA2199" name="Aïn Defla" fill="#e17055" d="M540.3 41.6l0.5 1.2 0.5 0.6 0.5 0.2 0.2 0.3 0.1 0.7 0.4 0.4 0.9-0.1 2.3-0.9 1.4-0.3 1.2-0.7 0.3 0.1 0.2 0.2 0.4 1.8-0.1 0.7-0.1 0.5-0.4 0.6-0.9 0.9-0.8 0.5-0.8 0.3-3 0.1-0.4 0.2-0.3 0.3-0.5 0.6-0.6 0.7-0.3 0.4-0.2 0.5 0 1 0.2 0.7 0.8 0.7 0.3 0.5 0.2 0.5 0.4 0.5 0.2 0.2 0.5-0.2 1.1-0.9 0.3-0.2 0.3 0 0.9 0.4 1.6 0 0.4 0.1 0.3 0.2 0 0.5-0.2 0.6-1.5 1.5-0.7 1.1-0.6 1.5-0.4 0.8-5.1 3.3-0.4 0.4-0.3 0.6-0.3 0.7-0.3 1.4-0.4 0.8-0.6 0.9-3.1 2.9-2.1 2.9-3.3-1.3-2.3-1.4-1.2-0.3-1.2-0.1-2.3 0.4-2.6-0.1-1.7-0.3-1.1 0.4-0.5 0.6-0.2 0.9-0.4 0.4-0.8 0.2-2.4-0.7-0.7 0.2-0.8 1.1-0.6 0.4-0.6-0.3-0.3-0.6-1.5-1.6-4.4-1.3-0.2-1.1 0.2-0.8 0.3-0.6-0.1-0.5-0.3-0.5-1.2-1.2-1.5-3.1-0.4-1.1 0-1.5-0.3-0.3-1.1-0.6-0.7-0.6-0.7-1.2-0.2-0.7 0.2-0.6 0.4-0.3 0.7-0.2 0.5-0.3 0.3-0.6 0-1.4-0.2-0.6-0.5-0.4-0.5-0.1-0.4-0.3 0-0.5 0.5-1.6-0.1-0.6-1-1.3-0.7-1.1-0.7-1.9-0.1-1 0.4-0.8 3.4-2.6 0.8-1.1 1.6 1.8 1.3 2.7 0.5 0.1 0.4-0.2 1.1-0.6 0.5-0.3 0.5-0.5 0.3-0.5 0.3-1.4 0.5-0.4 0.8-0.1 6.7 0.8 1.5 0.5 1.2 0.1 0.6-0.2 1.8-0.4 3.2-1.1 1.2 0 6.8 1.4 9.3-0.4z">
 </path>
 <path id="DZA2200" name="Chlef" fill="#e17055" d="M502.8 34l-0.6 2-0.5 1.1-1.3 2.1-0.2 1.1-0.8 1.1-3.4 2.6-0.4 0.8 0.1 1 0.7 1.9 0.7 1.1 1 1.3 0.1 0.6-0.5 1.6 0 0.5 0.4 0.3 0.5 0.1 0.5 0.4 0.2 0.6 0 1.4-0.3 0.6-0.5 0.3-0.7 0.2-0.4 0.3-0.2 0.6 0.2 0.7 0.7 1.2 0.7 0.6 1.1 0.6 0.3 0.3 0 1.5 0.4 1.1 1.5 3.1 1.2 1.2 0.3 0.5 0.1 0.5-0.3 0.6-0.2 0.8 0.2 1.1-1.3 0.3-0.6-0.1-1.7-0.8-1.3-0.8-0.3-0.3-0.3-0.5-0.2-0.9-0.1-0.4-0.3-0.3-1.2-1.1-0.4 0-0.3 0.1-0.6 1.1-0.8 0.8-0.2 0.3-0.1 1.1-0.2 0.5-0.2 0.3-0.3 0.2-2.1 0.8-0.3 0.3-0.1 0.3 0.4 0.9-0.2 0.4-1.5 1-0.4 0.3-0.2 0.7 0.2 0.7-1.7-0.7-0.4-0.3-0.6-0.6-0.4-1-0.3-0.4-0.8-1-0.4-0.7-1-2.4-0.3-0.3-0.4-0.2-0.5 0.1-4.6 1.4-0.8-0.1-0.9-0.3-1.8-1.2-0.7-0.4-0.5-0.3-0.3-0.5-0.3-0.6-0.6-1-0.3-0.3-0.3-0.2-1.8-0.1-1.8 0.1-0.5-0.1-0.4-0.3-1.3-2-0.1-0.5 0-0.4 0.4-0.9 0-0.4 0-0.4-0.9-2.5-0.2-0.6-0.2-1.7-0.1-0.5-0.6-0.2-0.8 0-2.8 0.8-2 0.8-0.8 0-0.9-0.1-1.5-0.6-0.1-1.2 1.6-4.8 0.2-0.8 0.1-1.1 0-1.2 0.6 0 0.7-0.4 1.7-1.1 3-0.9 0.7-0.6 0.5-0.5 1.2-0.8 0.5-0.5 0.2-0.5 0.1-0.5 0.2-0.5 0.5-0.6 0.8-0.3 2.2-0.5 1.8-1.2 3.5-0.1 1-0.3 2-1.1 1.1-0.2 2.1 0 0.9-0.1 1.1-0.3 2.9-1.4 1-0.2 0.9 0.1 2.1 0.8 1.1 0.3 1.1-0.1 2-0.6 8.9-0.5z">
 </path>
 <path id="DZA2201" name="Mascara" fill="#e17055" d="M431.7 85l1.8 1.6 0.5 1.6 0.4 2.3 0.4 1.1 0.5 1 0.7 0.6 1.2 0.2 0.7-0.1 1.7-0.4 0.9-0.1 1.1 0.1 1.1 0.3 1.2 0.9 1.5 1.4 0.9 0.5 0.9 0.1 1-0.3 0.8-0.1 0.8 0.1 1 0.7 0.4 0.5 0.5 0.5 0.8 0.4 3.2 0.5 2.6 1.2 2.3 0.4-0.3 1.1 0.3 0.4 0.5 0.5 1.7 1 0.3 0.4-0.1 0.7-0.5 0.9-2.3 3.1-0.8 1-1.2 0.6-0.7 0.1-0.6-0.2-0.7-0.3-1.8-0.7-0.7-0.1-0.5 0-0.7 0.2-0.7 0.3-0.7 0.4-0.7 0.5-0.6 0.9-0.6 1-1.3 3.1-2.5 3.4-1 2.8-0.7 0.5-1.4 1.1-0.9 0.5-1 0.3-1-0.1-2-0.5-0.8 0.1-1.8 0.8-1.5 0.3-0.8 0.3-0.8 0.3-1 0.3-0.9-0.2-1.2-0.8-0.6-0.8-0.8-1.6-0.6-0.7-0.6-0.3-0.5 0.1-0.7 0.3-0.8 0-1.3-0.3-0.9 0.1-0.6 0.5-0.4 0.9-0.4 0.3-0.5 0-1-0.7-0.8-0.8-0.4-0.3-0.7-0.1-0.5-0.4-0.3-0.3-0.1-0.7 0-0.8 0-0.6-0.3-0.6-0.3-0.4-0.3-0.1-0.4 0.2-0.3 0.5-0.2 0.8-0.3 0.5-1.4 0.3-0.8-1.8-0.6-0.9-1-0.9-0.1-0.5 0-0.3 0.4-0.4 0.1-0.6 0-0.8 0.2-0.9 0.2-0.5 0.2-1 0.3-1.1-0.1-0.8-0.8-0.6-7.5-2.9-0.5 0-0.4 0.2-0.7 0.8-0.7 0-1-0.3-1.6-0.7-0.7-0.5-0.2-0.4 0.8-1.1 0.5-0.8 0.1-0.9-0.3-0.4-0.3-0.1-0.8 0.2-1 0.4-1.1 0.3-1 0.1 0.2-0.5 1.1-0.7 0.5-0.4 0.4-0.9 0-1.6 0.4-0.5 0.6-0.2 1.2-0.4 0.5-0.4 0.3-0.6 0.4-0.9 0.3-1.1 0.3-0.7 0.5-0.7 2.8-2.1 0.7-0.7 0.6-0.9 0.5-1.4 0.5-0.5 0.8-0.5 0.7-0.1 0.5 0 1.1 0.1 0.8-0.4 0.9-0.7 2.3-3.1 2-2.2 0.1 0.7 0.6 0.9-0.1 0.6 0.1 0.4 0.4 0.3 1.8 1 0.5 0.3 0.7 0.1 0.9-0.2 2.3-0.6 1.4-0.6 1.4-1 0.4-0.2 0.3 0 0.4 0.3 0.4 0.8 0.3 0.5 0.8 2.5 0.3 0.3 0.7-0.5 1-0.3 1.9 0z">
 </path>
 <path id="DZA2202" name="Mostaganem" fill="#e17055" d="M454.6 55.7l-1.1 1.2-0.5 1-0.6 0.7-1.7 1.7-0.3 0.5-0.6 1.3-0.4 0.4-0.6 0.4-1.3 0.4-0.4 0.3-0.3 0.3-0.1 0.7 0 1.4-0.1 0.9-0.1 1.1-0.1 0.5-0.2 0.2-0.6 0.3-0.4 0.1-1.4 0.2-0.4-0.1-0.5 0.2-0.5 0.3-0.6 1.2-0.3 0.7-0.1 0.7 0 0.3 0.2 0.2 0.4 0.2 0.3 0.3 0 0.4-0.7 3-0.2 0.5-0.3 0.5-0.6 0.7-0.9 0.9-0.7 0.5-0.8 0.2-0.8-0.1-0.4 0-0.4 0.1-0.5 0.3-0.6 0.5-1.5 1.3-0.5 0.7-0.6 0.5-0.8 0.7-0.3 1-1.9 0-1 0.3-0.7 0.5-0.3-0.3-0.8-2.5-0.3-0.5-0.4-0.8-0.4-0.3-0.3 0-0.4 0.2-1.4 1-1.4 0.6-2.3 0.6-0.9 0.2-0.7-0.1-0.5-0.3-1.8-1-0.4-0.3-0.1-0.4 0.1-0.6-0.6-0.9-0.1-0.7 0-0.3 1.5-0.3 2.1-1.1 2-1.5 1.6-1.5 1.7-3.5 0.5-1.5 1.6-3.8 0.4-1.4 0.1-0.6 0.1-0.4 0.4-0.3 0.5-0.2 0.4-0.3 2.4-2.5 0.8-0.6 3.1-1.1 0.5-0.4 0.2-0.4 1.1-0.7 0.4-0.3 0.2-0.6 0.2-1.4 0.2-0.5 0.9-0.5 1.2-0.2 2.1-0.1 1.1-0.2 0.8-0.6 0.7-0.6 3.6-2.5 1.8-0.5 0.9-0.8 0.7-0.8 0.8-0.6 0.9-0.2 3.8-0.3 0 1.2-0.1 1.1-0.2 0.8-1.6 4.8 0.1 1.2z">
 </path>
 <path id="DZA2203" name="Relizane" fill="#e17055" d="M488.8 76.3l-0.4 1.5-1.3 1.7-0.7 0.7-0.7 0.4-0.7 0-1.3-0.5-0.7-0.1-0.8 0.2-0.3 0.7-0.2 0.9-0.1 1.9-0.1 1.1-0.7 3.1-1.9 0.1-1 0.3-2.6 1.5-1.8 0.6-2.3 1.5-1.4 0.1-0.4 0.2 0 0.4 0.2 0.4 0.4 0.4 0.1 0.5-0.5 0.1-0.5-0.5-0.7-0.3-0.5 0.1-0.4 0.1-0.5 0.4-3.4 3.7-0.3 0.5-0.1 0.4 0.2 0.9-0.2 0.7-0.4 0.3-0.4 0.1-0.8-0.1-1-0.3-2.3-0.4-2.6-1.2-3.2-0.5-0.8-0.4-0.5-0.5-0.4-0.5-1-0.7-0.8-0.1-0.8 0.1-1 0.3-0.9-0.1-0.9-0.5-1.5-1.4-1.2-0.9-1.1-0.3-1.1-0.1-0.9 0.1-1.7 0.4-0.7 0.1-1.2-0.2-0.7-0.6-0.5-1-0.4-1.1-0.4-2.3-0.5-1.6-1.8-1.6 0.3-1 0.8-0.7 0.6-0.5 0.5-0.7 1.5-1.3 0.6-0.5 0.5-0.3 0.4-0.1 0.4 0 0.8 0.1 0.8-0.2 0.7-0.5 0.9-0.9 0.6-0.7 0.3-0.5 0.2-0.5 0.7-3 0-0.4-0.3-0.3-0.4-0.2-0.2-0.2 0-0.3 0.1-0.7 0.3-0.7 0.6-1.2 0.5-0.3 0.5-0.2 0.4 0.1 1.4-0.2 0.4-0.1 0.6-0.3 0.2-0.2 0.1-0.5 0.1-1.1 0.1-0.9 0-1.4 0.1-0.7 0.3-0.3 0.4-0.3 1.3-0.4 0.6-0.4 0.4-0.4 0.6-1.3 0.3-0.5 1.7-1.7 0.6-0.7 0.5-1 1.1-1.2 1.5 0.6 0.9 0.1 0.8 0 2-0.8 2.8-0.8 0.8 0 0.6 0.2 0.1 0.5 0.2 1.7 0.2 0.6 0.9 2.5 0 0.4 0 0.4-0.4 0.9 0 0.4 0.1 0.5 1.3 2 0.4 0.3 0.5 0.1 1.8-0.1 1.8 0.1 0.3 0.2 0.3 0.3 0.6 1 0.3 0.6 0.3 0.5 0.5 0.3 0.7 0.4 1.8 1.2 0.9 0.3 0.8 0.1 4.6-1.4 0.5-0.1 0.4 0.2 0.3 0.3 1 2.4 0.4 0.7 0.8 1 0.3 0.4 0.4 1 0.6 0.6 0.4 0.3 1.7 0.7z">
 </path>
 <path id="DZA2204" name="Saïda" fill="" d="M444.4 121.1l6.4-0.5 1.3 0.3 0.1 1.3 0.3 0.6 1.1 0.7 1.7 0.8 1 0.7 0.7 0.8 1 1.3 0.4 0.7 0.1 0.9-0.1 0.6-0.4 0.8-4.5 4-0.5 0.6-0.2 0.8 0.1 1.3 0.2 1.8 1 3.2 7.9 13.7-0.1 0.6-0.3 0.5-0.5 0.4-3 1.6-0.9 0.7-1.4 0.1-1.6 0.7-3.5 2.2-0.2 0.1-10.5 6.5-0.4 0.4-2 1.7-0.5 0.2-2.9-0.1-1 0.1-0.8 0.3-0.7 0.4-0.5 0.8-0.4 0.9-0.3 0.9-0.4 0.5-0.7 0.8-1.8 1.5-1.4 1.5-0.4 0.7-0.5 1-0.6 1.6-0.8 0.1-1 0.6-2.3 1.7-2.1 1.1-0.6 0.1-0.2-0.2-0.1-0.5 0.2-0.6-0.1-0.9-0.1-1.7-0.3-1.1-0.3-0.3-0.4-0.3-1.4-0.3-1.2 0-0.6 0.1-0.4 0.4-1.7 0.6-0.9 0.3-0.5 0.2-0.4 0.3-1.5 1.8-1.7 2.5-0.4 0.8-0.4 0.4-0.7-0.1-0.6 0.1-0.4 0.3-0.1 0.4 0 0.5 0 0.7 0 0.4-0.3 0.3-0.5-0.3-0.9-1-0.1-0.5 0-0.5 0.1-0.4-0.1-0.7-1.3-3.5-3.6-7.2-0.3-1-0.3-1.1 0.1-0.7 0.6-1.4 20-17.6 0.2-0.3 0.3-0.9 0.3-1 0.1-1.2-0.1-1-0.3-0.8-2.5-3.8-1.6-1.6-1.7-1.3-0.4-0.4-0.8-0.6-0.2-0.3 0-0.7-0.1-0.4-0.2-0.3-0.5-0.2-1.2 0-0.2-0.1-0.2-0.4-0.4-0.3-0.9-0.3-0.3-0.2-0.2-0.3 0-0.4 0-0.8-0.3-0.6-0.7-0.5-1.9-0.8-0.3-0.2-0.2-0.3 0-0.3 0.3-0.5 0.5-0.3 0.3 0 0.4 0.3 0.3 0 1-0.5 1.2-0.3 0.3-0.2 0.3-0.2 0.1-0.3-0.1-0.3-0.4-0.4-0.4-0.3-0.2-0.4-0.1-0.5 0.2-1.6-0.1-0.4-0.3-0.4 0.1-0.4 0.2-0.4 0.1-0.6 0.2-0.3 0.2-0.2 0.2-0.1 0.4 0.1 0.5 0.2 0.3 0 0.3-0.1 0.3-0.2 0.3-0.5 0-0.3-0.1-0.3-0.5-0.4-0.1-0.4-0.2-1 0-0.5 0-0.8 0.4-0.7 0.4-0.4 0.3 0 0.7-0.1 0.5-0.3 0.4-0.4 0.4-0.3 0.4 0 0.8 0.1 1.4-0.3 0.3-0.5 0.2-0.8 0.3-0.5 0.4-0.2 0.3 0.1 0.3 0.4 0.3 0.6 0 0.6 0 0.8 0.1 0.7 0.3 0.3 0.5 0.4 0.7 0.1 0.4 0.3 0.8 0.8 1 0.7 0.5 0 0.4-0.3 0.4-0.9 0.6-0.5 0.9-0.1 1.3 0.3 0.8 0 0.7-0.3 0.5-0.1 0.6 0.3 0.6 0.7 0.8 1.6 0.6 0.8 1.2 0.8 0.9 0.2 1-0.3 0.8-0.3 0.8-0.3 1.5-0.3 1.8-0.8 0.8-0.1 2 0.5 1 0.1 1-0.3 0.9-0.5 1.4-1.1 0.7-0.5z">
 </path>
 <path id="DZA2205" name="Tiaret" fill="" d="M529.3 93.1l1.7 7.1 0.1 6.6 0.3 0.4 0.4 0.4 0.8 0.5 0.5 0.1 0.9 0.2 0.3 0.3 0.3 0.5 0.7 1.4 0.3 0.8 0.1 0.9-0.3 0.7 0 0.7 0.2 0.4 0.3 0.4 10.5 8.5 0.6 0.7 0.2 0.7-0.4 0.5-0.7 0.3-3.4 1-0.2 0.1-0.8 1.6-2.2 6-1 1.7-3.4 3.8-0.6 4.9-2 0.1-3.7 0.7-0.9 0.3-0.4 0.4-0.4 0.8-0.4 0.7-0.7 0.8-4.5 2.6-5.2 4.5-1.1 0.7-6 1.8-1.3 0.9-1.8 1.5-2.6 2.9-1.2 1.7-0.8 1.6-0.3 1.2-0.5 1.5-0.8 0.9-14.7 11-2.6-3.3-1-2.4-0.6-1-0.9-0.5-1.9-0.3-7.4 0.5-0.7-0.2-0.3-0.6 0-1 0.7-7-0.9-1-2-1.5-10.4-3.3 0.9-0.7 3-1.6 0.5-0.4 0.3-0.5 0.1-0.6-7.9-13.7-1-3.2-0.2-1.8-0.1-1.3 0.2-0.8 0.5-0.6 4.5-4 0.4-0.8 0.1-0.6-0.1-0.9-0.4-0.7-1-1.3-0.7-0.8-1-0.7-1.7-0.8-1.1-0.7-0.3-0.6-0.1-1.3-1.3-0.3-6.4 0.5 1-2.8 2.5-3.4 1.3-3.1 0.6-1 0.6-0.9 0.7-0.5 0.7-0.4 0.7-0.3 0.7-0.2 0.5 0 0.7 0.1 1.8 0.7 0.7 0.3 0.6 0.2 0.7-0.1 1.2-0.6 0.8-1 2.3-3.1 0.5-0.9 0.1-0.7-0.3-0.4-1.7-1-0.5-0.5-0.3-0.4 0.3-1.1 1 0.3 0.8 0.1 0.4-0.1 0.4-0.3 0.2-0.7-0.2-0.9 0.1-0.4 0.3-0.5 3.4-3.7 0.5-0.4 0.4-0.1 0.5-0.1 0.7 0.3 0.5 0.5 0.5-0.1-0.1-0.5-0.4-0.4-0.2-0.4 0-0.4 0.4-0.2 1.4-0.1 2.3-1.5 1.8-0.6 2.6-1.5 1-0.3 1.9-0.1 1.1 1.4 0.5 0.2 0.6 0.1 0.6-0.3 0.3-0.6 0.4-1.8 0.3-0.8 0.4-0.7 0.7-0.1 0.6 0.2 0.7 0.4 1.3 0.2 2.7 1.3 0.6 0.4 0.4 0.5 0.2 0.7 0.2 1.3 0.3 0.7 0.4 0.1 0.7-0.2 0.9-0.4 1.2-0.2 0.9 0.6 1.5 1.8 1.3 0.9 1.1 0.2 0.7-0.4 0.5-1.2 0.5-0.4 0.3 0.1 0.3 0.4 0.3 0.5 0.3 0.3 0.5 0.3 0.8 0.1 5.5-0.2 4.4-1 4.9-0.2 0.5 0.3 0.2 0.6 0.1 0.6 0.1 0.4 0.5 0 1.6-0.6 2.3-0.4 4.3 0.1z">
 </path>
 <path id="DZA2206" name="Tissemsilt" fill="#e17055" d="M503.4 71.4l4.4 1.3 1.5 1.6 0.3 0.6 0.6 0.3 0.6-0.4 0.8-1.1 0.7-0.2 2.4 0.7 0.8-0.2 0.4-0.4 0.2-0.9 0.5-0.6 1.1-0.4 1.7 0.3 2.6 0.1 2.3-0.4 1.2 0.1 1.2 0.3 2.3 1.4 3.3 1.3-3.4 7.3-0.7 0.7-0.9 0.4-0.9 0.1-0.8 0.3-0.5 0.6-0.2 0.6 0.1 0.9 0.4 1 1 1.2 0.8 0.5 1.8 0.8 0.5 0.6 0.4 0.6-0.6 2.7-4.3-0.1-2.3 0.4-1.6 0.6-0.5 0-0.1-0.4-0.1-0.6-0.2-0.6-0.5-0.3-4.9 0.2-4.4 1-5.5 0.2-0.8-0.1-0.5-0.3-0.3-0.3-0.3-0.5-0.3-0.4-0.3-0.1-0.5 0.4-0.5 1.2-0.7 0.4-1.1-0.2-1.3-0.9-1.5-1.8-0.9-0.6-1.2 0.2-0.9 0.4-0.7 0.2-0.4-0.1-0.3-0.7-0.2-1.3-0.2-0.7-0.4-0.5-0.6-0.4-2.7-1.3-1.3-0.2-0.7-0.4-0.6-0.2-0.7 0.1-0.4 0.7-0.3 0.8-0.4 1.8-0.3 0.6-0.6 0.3-0.6-0.1-0.5-0.2-1.1-1.4 0.7-3.1 0.1-1.1 0.1-1.9 0.2-0.9 0.3-0.7 0.8-0.2 0.7 0.1 1.3 0.5 0.7 0 0.7-0.4 0.7-0.7 1.3-1.7 0.4-1.5-0.2-0.7 0.2-0.7 0.4-0.3 1.5-1 0.2-0.4-0.4-0.9 0.1-0.3 0.3-0.3 2.1-0.8 0.3-0.2 0.2-0.3 0.2-0.5 0.1-1.1 0.2-0.3 0.8-0.8 0.6-1.1 0.3-0.1 0.4 0 1.2 1.1 0.3 0.3 0.1 0.4 0.2 0.9 0.3 0.5 0.3 0.3 1.3 0.8 1.7 0.8 0.6 0.1 1.3-0.3z">
 </path>
 <path id="DZA2207" name="Bordj Bou Arréridj" fill="#e17055" d="M652.6 44.1l-0.6 0.8-0.1 0.5-0.1 0.7 0.3 0.7 0.7 1 0.8 0.7 0.8 0.1 0.7 0 2.2 0.3 0.7 0 1.5-0.2 2.3-0.8 0.7 0 1.4 0.3 1.4 0.6 0.5 0.4 0.5 0.8 1.1 2.1 0.9 0.8 0.9 0.2 0.8-0.3 0.7-0.5 0.6-0.2 0.5 0.3 0.2 0.4 0.2 0.8 0.1 0.8 0.2 0.7 0.4 0.1 0.3-0.2 0.5-0.5 0.5 0.1 0.3 0.4 0 1-0.1 0.7-0.4 0.9-0.8 1-0.8 0.4-0.7 0.2-0.4 0.3-0.2 0.4 0.2 0.8 0.4 1.2 0 0.5-0.5 0.8-0.2 0.5-0.1 1.2-0.2 1-1.1 2-0.4 1.1-0.3 1.7-0.1 1.4 0.2 2.5 0 0.8-0.3 0.5-0.6 0.2-2.1 0.1-0.6 0.2-0.3 0.6-0.2 0.5 0 2.6-1.9-0.1-0.8-0.3-1.1-0.7-1.1-1-0.4-0.3-0.8-0.2-0.5-0.1-0.6-0.4-0.4-0.4-1.1-1.5-0.5-0.5-0.5-0.2-0.8 0-1.7 0.4-1.9 0.1-0.7 0.1-1.5 0.4-3.7 1.7-1 0.3-1 0.1-4.9-0.1-0.8-0.2-0.8-0.3-0.8-1-0.2-0.7 0.2-0.6 1.5-1.3 0.4-0.6 0.2-0.6 0.3-0.9 0.3-0.4 1-0.1 0.5-0.2 0.2-0.2 0-0.4-0.2-0.4-0.5-0.7-0.2-0.6-0.4-1.1-0.2-1-0.2-0.4-0.2-0.4-0.3-0.2-0.6 0-1 0.4-1.8 1.3-1 0.5-1.2 0.1-1.6-0.2-6.3-1.4-1.5 0.2-0.7 0.3-0.3 0.3-0.1 0.2-0.2 0.3-0.4 0-0.6 0-1.2-0.3-0.4-1-0.2-0.3-0.7-0.4 0.4-1 0.3-0.3 1.5-1.3 0.7-0.9 0.5-1.2 0.6-2.2 0.4-1 0.7-0.9 2.2-1.9 1.1-1.3 2.3-3.6 2.4-3.1 1 1.3 0.7 3.1 0.8 1.8 0.8 0.7 1 0.2 3.2-0.2 0.7-0.1 1.7-0.7 2.9-0.5 0.4-0.3 0.2-0.6-0.2-0.7-0.1-0.7 0-0.8 0.2-1.8 0.2-0.5 0.4-0.4 1.7-0.8 0.7-0.5 0.6-0.6 1.3-2.1 0.7-0.6 0.5-0.2 0.5 0 0.3 0.2 0.3 0.4 0.7 1.6 0.3 0.5z">
 </path>
 <path id="DZA2208" name="Béjaïa" fill="#e17055" d="M682.9 27l0.4 1.9-0.2 0.6-0.2 0.3 0 0.3 0.2 0.2 1.2 0.4 0.9 0.7-0.7 1.1-0.2 0.7 0 0.8 0.1 0.9 0.2 1 0 0.4-0.1 0.4-0.4 0.4-1.3 0.9-0.9 0.4-1.8 0.4-1.6 0.8-0.4 0.3-0.3 0.3-0.3 0.6-0.2 0.7 0.1 0.7-0.2 0.8-0.3 0.5-1.3 0.5-1 0.1-1.6-0.3-0.8-0.5-0.9-0.9 0-0.5 0.3-1.4 0-0.6-0.2-0.7-0.3-0.6-0.8-1.1-0.1-0.3 0.3-0.3 0.5-0.4 0.4-0.4 0.2-0.5 0-0.4-0.3-0.4-1.5-1.2-0.7-0.6-0.3-0.3-0.5-0.2-1.2-0.3-0.5 0-0.7 0.2-0.6 0.7-0.1 0.6-0.1 0.8-0.2 0.5-0.5 0.4-0.8 0.1-1.4-0.4-2.1 1.2-0.3 0.4-0.1 0.2 0.3 0.5 1.2 0.9 0.4 0.4 0 0.4-0.3 0.4-0.9 0.5-0.5 0.6-0.2 0.6 0 0.6-0.2 0.6-0.3 0.5-0.7 0.6-0.7 0.4-1 0.3-0.8 0.1-3.4-0.2-0.3-0.5-0.7-1.6-0.3-0.4-0.3-0.2-0.5 0-0.5 0.2-0.7 0.6-1.3 2.1-0.6 0.6-0.7 0.5-1.7 0.8-0.4 0.4-0.2 0.5-0.2 1.8 0 0.8 0.1 0.7 0.2 0.7-0.2 0.6-0.4 0.3-2.9 0.5-1.7 0.7-0.7 0.1-3.2 0.2-1-0.2-0.8-0.7-0.8-1.8-0.7-3.1-1-1.3 0.5-0.5 0.6-0.4 0.6-0.3 0.3-0.3 0.1-0.4-0.2-0.9 0.1-0.8 0.1-0.6 0.2-0.4 0-0.5-0.1-0.6-1-1.2-0.5-1 2.7-0.9 1.3-0.8 3.6-4.1 0.5-0.7 0.6-1.7 2-3.2 0.3-0.8 0.1-0.8-0.3-0.5-0.3-0.3-0.5-0.2-1-0.4-0.4-0.3-0.3-0.5-0.1-0.4 0.2-0.8 0.4-0.4 0.6-0.4 0.7-0.1 0.5 0.1 1.2 0.5 0.5 0.1 0.5-0.3 0.2-0.6 0.3-1.3 0.1-0.6-0.1-0.6-0.1-0.4-2-3-0.3-0.7-0.1-1-0.1-0.4 1.5 0 3.6 0.3 3.5-0.4 0.8 0.1 7.9 3.4 0.9 0.8 0.2 0.4 0.6 0.2 0.7-0.1 0.5 0.1 0.3 0.3 0.4 0.8 0.2 0.2 0.8 0.4 1 0.3 1 0.1 0.9 0-1 2.9 0.3 1 1.3 1.1 5.7 2.9 1.6 0.4 1.7 0.1 3.3-0.5 2.7-0.8z">
 </path>
 <path id="DZA2209" name="Blida" fill="#e17055" d="M588.6 25.5l1.5 2.8 0.1 0.6 0 0.5-0.5 0.4-0.3 0.3-0.8 1.3-0.4 0.5-0.6 0.3-0.6 0.3-5.2 1-0.7 0.3-0.5 0.5-0.3 0.5-0.5 1.2-0.6 1.5-1.8 0.4-1.2 0.1-0.8 0.4-0.4 0.4-0.3 0.7-0.3 0.7-1 0.9-1.2 0.7-1.7 0.6-2.4 1.5-1.3 1.1-0.8 0.5-0.6 0.2-0.7-0.1-0.7-0.4-0.8-0.7-0.5-0.9-0.4-0.9-0.4-0.6-0.7-0.1-0.5 0.4-1.1 1.2-0.7 0.6-0.8 0.5-1 0.3-0.9 0-1.1-0.2-4.8 0.4-1.1-0.1-0.4-1.8-0.2-0.2-0.3-0.1-1.2 0.7-1.4 0.3-2.3 0.9-0.9 0.1-0.4-0.4-0.1-0.7-0.2-0.3-0.5-0.2-0.5-0.6-0.5-1.2 0.4-2.3 0.3-0.3 0.4-0.4 0.4 0 1.4 0.4 0.4 0.1 1.8-0.1 1-0.2 0.5-0.4 0.4-0.6 0.2-1 0.4-0.7 0.8-0.5 2.2-2.1 0.9-0.7 0.8-0.5 0.9-0.3 3-1.5 0.7-0.6 0.2-0.5 0.1-0.4 0.2-0.4 0.5-0.2 5.5 0.2 0.7-0.2 0.4-0.2 0.3-0.4 0.6-0.3 1-0.2 0.3-0.2 0.2-0.2 0.1-0.3-0.1-0.4-0.4-1.2 0-0.8 1.4 0.4 0.4 0.7 0 1 0.4 0.9 0.6 0.4 0.7 0.2 0.6 0 0.6-0.2 0.6-0.3 2.3-0.4 2.3-1.2 2.8-1.3 1.7-0.3 1.5-0.1 0.8 0.2 0.5 0.4 0.4 0.6 2.3 1 0.5 0.1 0.4-0.2 1-0.6z">
 </path>
 <path id="DZA2210" name="Bouira" fill="#e17055" d="M601 30.4l1.4 2.4 1.5 1.2 1.2 0.9 1.6 1.6 1.8 1.1 2.3 0.8 12.1 0.5 0.8-0.2 1.5-0.7 0.7 0.1 2.1 0.6 0.8 0 2.1-0.5 0.9 0.3 0.5 1 1 1.2 0.1 0.6 0 0.5-0.2 0.4-0.1 0.6-0.1 0.8 0.2 0.9-0.1 0.4-0.3 0.3-0.6 0.3-0.6 0.4-0.5 0.5-2.4 3.1-2.3 3.6-1.1 1.3-2.2 1.9-0.7 0.9-0.4 1-0.6 2.2-0.5 1.2-0.7 0.9-1.5 1.3-0.3 0.3-0.4 1-1.9 4.9-0.3 2.3 0.1 0.8 0 0.9-0.3 0.6-0.6 0.2-0.8-0.3-1.9-1-0.6-0.1-0.7 0-0.7 0.4-1.6 1-1 0.3-1 0-1-0.4-0.7-0.7-0.5-0.6-0.5-0.5-0.5-0.3-0.6-0.2-0.6-0.3-1-1-0.2-0.1-1.4-0.1-3.8 0.5-2.4-4.5-0.7-3.1-0.1-1.7 0-1.6 0.6-5.2 0-1.7-0.2-1.1-0.8-2.5-0.1-1 0.1-0.6 0.2-0.4 0.9-0.8 0.3-0.6-0.1-0.7-0.8-1.5-0.1-1 0-1.3-0.3-0.6-0.5-0.4-0.6-0.1-1.1-0.5-0.5 0-0.4 0.2-1.6 0.6-0.5 0.4-0.6 0.8-0.6-0.1-0.9-0.6-1.1-1.5-0.9-1-1-0.6-2.9-1.2 0.6-1.5 0.5-1.2 0.3-0.5 0.5-0.5 0.7-0.3 5.2-1 0.6-0.3 0.6-0.3 0.4-0.5 0.8-1.3 0.3-0.3 0.5-0.4 0-0.5-0.1-0.6-1.5-2.8 3 0.7 1.4-0.1 1.9-0.8 0.8-0.2 0.6 0.1 0.6 0.1 0.9 0.4 0.4 0.3 0.2 0.4 0.1 0.4-0.2 0.6-1.4 1.8-0.3 0.7-0.2 0.5 0.2 0.4 0.4 0.2 0.8 0 3.2-0.6z">
 </path>
 <path id="DZA2211" name="Biskra" fill="#e17055" d="M739 139.3l0.8 0 0.6 0 2.4-0.7 0.8-0.1 0.7 0 0.4 0 0.4 0.2 0.2 0.2 0.4 0.6 0.7 1.9 0.3 1 0.1 0.8-0.4 2.4-0.1 2-0.2 2.1-0.8 3.7-0.7 2.4-0.2 0.5-0.2 0.8 0 0.6 0.4 3.1-0.4 2.1-1.7 1.5-1.7 1-1.7 0.7-1.6 0.3-1.5 0-1-0.2-0.7-0.2-1-0.4-0.7-0.6-0.5-0.6-0.4-0.6-0.4-0.5-2.8-1.3-7.7-2.2-0.9 0-9.4 2-25.2-3.2-4.6-1.5-3-1.4-0.4 0.1-0.3 0.3-0.3 0.8 0.1 0.9-0.1 0.8-0.6 0.6-0.8 0.5-2 0.8-0.6 0.3-0.5 0.5-0.4 0.6-0.3 0.7-0.2 0.7-0.1 0.8 0.2 0.4 0.2 0.3 3.4 3 1.8 2.2 1.5 2.2 0.5 1 0.8 2 0.5 2.1 0.1 1.3 0.1 2.9-1.9 12.4-0.4 1.3-0.6 1.1-2.1 2.2-2.5 3.3-4.7 8-34.6-20.7-2.1-1.7-1-1.1-0.3-0.6-0.4-1.5-0.9-6-0.2-0.6-0.3-0.6-0.5-0.4-1.6-0.4-1-0.4-0.8-0.6-0.3-0.5-0.1-0.4 0.3-0.9 0-0.6-0.1-1.5 3.5-0.2 0.6-0.2 0.7-0.3 0.2-0.4-0.1-0.7-0.4-0.6-0.6-0.7-0.6-0.7-0.7-1.8-1.2-1.7-0.6-1.1-1.1-5.2-0.3-0.7-0.4-0.4-0.3-0.5-0.1-0.9 0.6-1.1 1.8-2.1 0.6-1.1 0.6-1.5 0.7-1.1 3.6-3.8 0.8-1.1 1.5-2.2 0.9-1 1-0.6 0.9-0.1 0.8 0 1.5 0.3 0.6 0 0.7-0.2 2-0.6 2.2-0.3 4.2-1.5 0.7-0.1 1.3 0.2 0.8-0.1 1.3-0.4 0.6-0.1 0.8 0.2 0.8 0 4.9-1.2 1.3-0.6 2-1.5 1.3-1.5 0.6-1.1 0.1-1.1-0.2-8.6 1.7 0.1 3.3 1.7 2.1 1.3 2.4 0.6 1.8 0.1 1.6-0.1 1.2-0.6 1.3-0.8 1-0.5 1-0.3 5.6-0.3 1.1-0.2 0.7-0.3 0.7-0.5 0.5-0.3 1-0.4 0.5-0.4 0.3-0.5-0.1-0.7-0.1-0.4-0.3-0.6-0.2-0.4-2-1.8-0.4-0.7 0.2-0.4 3.5-0.9 4.2-2.6 2.2-1.1 3-1.1 0.5 0 0.5 0.2 1.7 1.5 4.1 1.7 1.1 0 0.7 0.1 0.3 0.2 0.1 0.6-0.4 0.7-0.5 0.6-1.9 1.7-0.6 0.7-0.2 0.5 0.6 2.2-0.1 0.9-0.8 1.8 0 1 0.6 0.9 1.2 1 0.5 0.6 0.9 0.8 0.9 0 0.6-0.4 0.3-0.2 0.7-2.2 0.4-0.8 0.4-0.4 0.5-0.1 0.6 0.1 0.6 0.3 0.5 0.5 0.3 0.7 0.2 0.7 0.4 1.1 0.4 0.2 0.7 0.3 0.9 0 1.1-0.5 0.2 0 0.9 0.1 0.2-0.3 0.4-1 0.5-0.6 1.4-0.8 0.7-0.3 0.8-0.1 1.2 0 2.5-0.5 1.1-0.4 0.9-0.1 0.8 0.2 0.9 1.1 0.5 0.8 0.1 0.9-0.2 0.5-0.4 1-0.1 0.6-0.1 0.9 0 2.4-0.6 3.2 0 1 0.4 1 0.6 0.8 0.8 0.7 1.5 1.8 0.4 0.4 0.7 0.3 0.9 0.2 0.8 0.1 1.1-0.3 0.4-0.5z">
 </path>
 <path id="DZA2212" name="Djelfa" fill="#e17055" d="M583.9 81.7l2.8 4.7 0.6 0.8 3.5 2.9 0.7 0.4 1.1 0.9 5.8 5.5 0.5 0.6 0.3 0.8 0.1 1.1-0.1 1-0.3 0.9-0.3 0.7-0.4 0.5-0.4 0.5-0.3 0.5-0.2 0.6 0.2 0.9 0.4 2.3 0 0.8-0.2 0.7-0.5 0.6-8.7 7.5 0.1 0.6 2.2 4.7 0.5 0.8 0.4 0.1 0.5 0 1.8-0.9 0.6-0.1 0.4 0.2 0 0.6-0.2 0.5-0.4 0.6-0.5 0.5-0.4 0.6-0.3 0.5 0 0.6 0.3 0.7 0.6 1.5 0.2 0.6 0.1 0.6-0.3 1.2 0 0.6 0.2 0.8 0.2 0.7 0.5 0.9 0.7 0.6 1 0.6 0.3 0.5 0.1 0.6 0.1 0.7 0.2 0.9 0.6 0.9 0.8 0.4 0.9 0 1.6-0.4 0.8 0 7.3 1.6 0.4 0.3 0.2 0.3 0.1 0.7-0.2 1.8 0.1 1.1 0.1 1.1 2.1 7.5 0.7 1.7 2.4 3.4 0.4 1 0.1 1 0 1.1-0.1 1.1 0.1 0.9 0.4 1 1 1.1 4.2 2.8 0.7 0.8 1.3 1.9 0.8 0.5 0.1 1.5 0 0.6-0.3 0.9 0.1 0.4 0.3 0.5 0.8 0.6 1 0.4 1.6 0.4 0.5 0.4 0.3 0.6 0.2 0.6 0.9 6 0.4 1.5 0.3 0.6 1 1.1 2.1 1.7 34.6 20.7-5.5 7.5-1.1 6.1-1.5 5.5 1.2 23.1-38.8-10.8-0.5-1.9-2.3-6.2-1.6-3.2-1.3-1.6-1.4-1.6-18.8-16.5-19.7-22.2-3.5-6.1-0.5-1.4-0.4-1.3-0.6-4.3-1.2-3.4-0.5-0.6-1.1-0.5-2.3 0-0.8 0-0.4-0.2-1.1-0.7-0.6-0.1-0.7 0.1-0.8 0.5-3.6 3.4-0.6 0.7-0.4 0.8-0.4 1.4-0.5 0.5-0.7 0.4-2.3 0.8-4.3 0.7-0.6 0.2-0.2 0.3-0.2 0.5-0.1 0.6 0.2 6.3-0.1 1.8-0.2 1.4-0.2 0.3-0.3 0.1-1.7 0-3.8-0.5-1.4 0-0.7-0.4-0.4-0.7-0.4-3.3 0-0.6 0.3-1.4 1-3.1 0.1-1-0.2-0.9-0.6-1.4-0.6-1.2-0.7-1-1.8-2-0.6-1-0.4-0.9-0.8-5.1-0.4-1.4-0.5-1-0.6-0.7-1-1-0.6-0.8-0.5-1.6-0.1-2.1 0.4-3.3 0.4-1.9 0.7-1.3 1.3-1.5 0.4-0.9 0.3-0.7-0.4-3.2 0.6-4.9 3.4-3.8 1-1.7 2.2-6 0.8-1.6 0.2-0.1 3.4-1 0.7-0.3 0.4-0.5-0.2-0.7-0.6-0.7-10.5-8.5-0.3-0.4-0.2-0.4 0-0.7 0.3-0.7-0.1-0.9-0.3-0.8-0.7-1.4-0.3-0.5-0.3-0.3-0.9-0.2-0.5-0.1-0.8-0.5-0.4-0.4-0.3-0.4-0.1-6.6 9.3-3.2 2.4-0.4 0.1 0 3.7 2.9 0.7 0.3 0.8 0.3 0.8-0.1 0.9-0.2 0.7-0.4 0.8-0.7 0.5-0.8 0.9-1.4 0.2-0.4 0.5-0.7 0.9-0.8 5.7-4.6 0.5-0.6 0.3-0.5 0.1-0.7 0-0.8-0.2-1.8 0-0.5 0.1-1.2-0.1-0.5-0.4-1.7-0.2-0.9 0-0.9 0.3-0.6 0.4-0.3 0.6-0.1 0.9-0.1 1.4-0.3 1.1 0.2 0.6 0.6 0.3 0.6 0.3 1.4 0.3 0.7 0.3 0.6 1 0.6 0.2 0.4 0.2 0.5 0.4 1.6 0.4 0.5 0.8 0.2 4.7-0.8 0.9-0.5 0.5-0.5 0.4-0.9 0.7-3.1 0.5-1 0.7-0.7 0.5-0.1 0.4 0.3 0.6 1.2 0.4 0.7 0.6 0.5 0.7 0.3 0.7 0.1 2.1-0.2z">
 </path>
 <path id="DZA2213" name="Médéa" fill="#e17055" d="M595.9 71.4l0.1 0.8 0.2 1.2-0.1 0.6-0.3 0.5-0.7 1-0.1 1-0.3 0.4-1.9 0.7-1.1 0.9-0.2 0.7 0.1 0.9 0.6 1.4 0.2 0.9 0.1 0.9-0.1 1.9-0.2 0.8-0.4 0.4-0.9-0.8-0.6-0.6-0.4-0.8-0.5-1-0.6-1.1-2.3-3.1-0.6-0.4-0.5-0.2-0.5 0.4-0.3 0.3-0.7 2.6-2.1 0.2-0.7-0.1-0.7-0.3-0.6-0.5-0.4-0.7-0.6-1.2-0.4-0.3-0.5 0.1-0.7 0.7-0.5 1-0.7 3.1-0.4 0.9-0.5 0.5-0.9 0.5-4.7 0.8-0.8-0.2-0.4-0.5-0.4-1.6-0.2-0.5-0.2-0.4-1-0.6-0.3-0.6-0.3-0.7-0.3-1.4-0.3-0.6-0.6-0.6-1.1-0.2-1.4 0.3-0.9 0.1-0.6 0.1-0.4 0.3-0.3 0.6 0 0.9 0.2 0.9 0.4 1.7 0.1 0.5-0.1 1.2 0 0.5 0.2 1.8 0 0.8-0.1 0.7-0.3 0.5-0.5 0.6-5.7 4.6-0.9 0.8-0.5 0.7-0.2 0.4-0.9 1.4-0.5 0.8-0.8 0.7-0.7 0.4-0.9 0.2-0.8 0.1-0.8-0.3-0.7-0.3-3.7-2.9-0.1 0-2.4 0.4-9.3 3.2-1.7-7.1 0.6-2.7-0.4-0.6-0.5-0.6-1.8-0.8-0.8-0.5-1-1.2-0.4-1-0.1-0.9 0.2-0.6 0.5-0.6 0.8-0.3 0.9-0.1 0.9-0.4 0.7-0.7 3.4-7.3 2.1-2.9 3.1-2.9 0.6-0.9 0.4-0.8 0.3-1.4 0.3-0.7 0.3-0.6 0.4-0.4 5.1-3.3 0.4-0.8 0.6-1.5 0.7-1.1 1.5-1.5 0.2-0.6 0-0.5-0.3-0.2-0.4-0.1-1.6 0-0.9-0.4-0.3 0-0.3 0.2-1.1 0.9-0.5 0.2-0.2-0.2-0.4-0.5-0.2-0.5-0.3-0.5-0.8-0.7-0.2-0.7 0-1 0.2-0.5 0.3-0.4 0.6-0.7 0.5-0.6 0.3-0.3 0.4-0.2 3-0.1 0.8-0.3 0.8-0.5 0.9-0.9 0.4-0.6 0.1-0.5 0.1-0.7 1.1 0.1 4.8-0.4 1.1 0.2 0.9 0 1-0.3 0.8-0.5 0.7-0.6 1.1-1.2 0.5-0.4 0.7 0.1 0.4 0.6 0.4 0.9 0.5 0.9 0.8 0.7 0.7 0.4 0.7 0.1 0.6-0.2 0.8-0.5 1.3-1.1 2.4-1.5 1.7-0.6 1.2-0.7 1-0.9 0.3-0.7 0.3-0.7 0.4-0.4 0.8-0.4 1.2-0.1 1.8-0.4 2.9 1.2 1 0.6 0.9 1 1.1 1.5 0.9 0.6 0.6 0.1 0.6-0.8 0.5-0.4 1.6-0.6 0.4-0.2 0.5 0 1.1 0.5 0.6 0.1 0.5 0.4 0.3 0.6 0 1.3 0.1 1 0.8 1.5 0.1 0.7-0.3 0.6-0.9 0.8-0.2 0.4-0.1 0.6 0.1 1 0.8 2.5 0.2 1.1 0 1.7-0.6 5.2 0 1.6 0.1 1.7 0.7 3.1 2.4 4.5z">
 </path>
 <path id="DZA2214" name="M'Sila" fill="" d="M664.9 80.1l0.2 0.6 0.3 0.3 0.7 0.6 1 0.7 3.4 1.4 0.3 0.4 0.3 1.2 0.8 0.8 1.3 0.8 7.4 1.8-5.6 5-1.4 0.8-1.2 0.4-1.8 1.1-0.8 0.2-0.8-0.3-0.8-0.4-0.9-0.2-2.9 0-1.1 0.1-0.8 0.3-0.3 0.3-0.6 0.7-1.2 0.6-0.7-0.1-0.6-0.3-0.2-0.2-0.9-1.1-0.4-0.3-0.4-0.3-0.4 0-0.4 0.1-0.1 0.4 0 0.5 0.9 3.5 0.3 2.1 0 2.2-0.1 1.5-0.5 3.2-0.4 1-0.8 1.2-1.4 1.7-1.8 1.6-0.8 0.9-0.3 0.7 0.1 0.4 0.2 0.4 0.3 0.3 0.5 0.2 3.6 0.3 1.3 0.2 1.2 0.4 1 0.5 1.1 0.7 0.7 0.9 0.6 0.9 0.4 0.4 0.5 0.1 0.7 0.1 0.5-0.1 0.2 8.6-0.1 1.1-0.6 1.1-1.3 1.5-2 1.5-1.3 0.6-4.9 1.2-0.8 0-0.8-0.2-0.6 0.1-1.3 0.4-0.8 0.1-1.3-0.2-0.7 0.1-4.2 1.5-2.2 0.3-2 0.6-0.7 0.2-0.6 0-1.5-0.3-0.8 0-0.9 0.1-1 0.6-0.9 1-1.5 2.2-0.8 1.1-3.6 3.8-0.7 1.1-0.6 1.5-0.6 1.1-1.8 2.1-0.6 1.1 0.1 0.9 0.3 0.5 0.4 0.4 0.3 0.7 1.1 5.2 0.6 1.1 1.2 1.7 0.7 1.8 0.6 0.7 0.6 0.7 0.4 0.6 0.1 0.7-0.2 0.4-0.7 0.3-0.6 0.2-3.5 0.2-0.8-0.5-1.3-1.9-0.7-0.8-4.2-2.8-1-1.1-0.4-1-0.1-0.9 0.1-1.1 0-1.1-0.1-1-0.4-1-2.4-3.4-0.7-1.7-2.1-7.5-0.1-1.1-0.1-1.1 0.2-1.8-0.1-0.7-0.2-0.3-0.4-0.3-7.3-1.6-0.8 0-1.6 0.4-0.9 0-0.8-0.4-0.6-0.9-0.2-0.9-0.1-0.7-0.1-0.6-0.3-0.5-1-0.6-0.7-0.6-0.5-0.9-0.2-0.7-0.2-0.8 0-0.6 0.3-1.2-0.1-0.6-0.2-0.6-0.6-1.5-0.3-0.7 0-0.6 0.3-0.5 0.4-0.6 0.5-0.5 0.4-0.6 0.2-0.5 0-0.6-0.4-0.2-0.6 0.1-1.8 0.9-0.5 0-0.4-0.1-0.5-0.8-2.2-4.7-0.1-0.6 8.7-7.5 0.5-0.6 0.2-0.7 0-0.8-0.4-2.3-0.2-0.9 0.2-0.6 0.3-0.5 0.4-0.5 0.4-0.5 0.3-0.7 0.3-0.9 0.1-1-0.1-1.1-0.3-0.8-0.5-0.6-5.8-5.5-1.1-0.9-0.7-0.4-3.5-2.9-0.6-0.8-2.8-4.7 0.7-2.6 0.3-0.3 0.5-0.4 0.5 0.2 0.6 0.4 2.3 3.1 0.6 1.1 0.5 1 0.4 0.8 0.6 0.6 0.9 0.8 0.4-0.4 0.2-0.8 0.1-1.9-0.1-0.9-0.2-0.9-0.6-1.4-0.1-0.9 0.2-0.7 1.1-0.9 1.9-0.7 0.3-0.4 0.1-1 0.7-1 0.3-0.5 0.1-0.6-0.2-1.2-0.1-0.8 3.8-0.5 1.4 0.1 0.2 0.1 1 1 0.6 0.3 0.6 0.2 0.5 0.3 0.5 0.5 0.5 0.6 0.7 0.7 1 0.4 1 0 1-0.3 1.6-1 0.7-0.4 0.7 0 0.6 0.1 1.9 1 0.8 0.3 0.6-0.2 0.3-0.6 0-0.9-0.1-0.8 0.3-2.3 1.9-4.9 0.7 0.4 0.2 0.3 0.4 1 1.2 0.3 0.6 0 0.4 0 0.2-0.3 0.1-0.2 0.3-0.3 0.7-0.3 1.5-0.2 6.3 1.4 1.6 0.2 1.2-0.1 1-0.5 1.8-1.3 1-0.4 0.6 0 0.3 0.2 0.2 0.4 0.2 0.4 0.2 1 0.4 1.1 0.2 0.6 0.5 0.7 0.2 0.4 0 0.4-0.2 0.2-0.5 0.2-1 0.1-0.3 0.4-0.3 0.9-0.2 0.6-0.4 0.6-1.5 1.3-0.2 0.6 0.2 0.7 0.8 1 0.8 0.3 0.8 0.2 4.9 0.1 1-0.1 1-0.3 3.7-1.7 1.5-0.4 0.7-0.1 1.9-0.1 1.7-0.4 0.8 0 0.5 0.2 0.5 0.5 1.1 1.5 0.4 0.4 0.6 0.4 0.5 0.1 0.8 0.2 0.4 0.3 1.1 1 1.1 0.7 0.8 0.3 1.9 0.1z">
 </path>
 <path id="DZA2215" name="Sétif" fill="#e17055" d="M697.8 33.5l0.8 0.8 0.2 0.4 0.4 0.6 0.2 0.7 0 1-0.2 1.8 0 0.9 0.5 0.8 0.7 0.4 1 0.1 0.9 0 0.9 0.1 0.7 0.6 0.5 1.1 0.1 2.3-0.1 3.8-0.3 1.5 0 1.1 0.6 1 0.7 0.2 0.9 0 0.6 0.1 0.4 0.6-0.2 1-0.4 0.7-0.6 0.4-0.4 0.5 0 0.7 0.5 0.9 0.6 0.6 0.3 0.5 0.1 0.4 0 0.7 0.2 0.4 0.6 0.7 0.8 0.4 0.6 0.8 0.3 1.2-0.5 5.8 0.3 0.9-0.1 1.9-1.4 1-0.1 0.2 0 0.5 0.2 0.5 0 0.8-0.4 0.2-0.9-0.3-2.1-1.6-1.1-0.8-1.6-0.5-1.1 0.1-1.1 0.4-1.5 1-0.7 0.5-0.5 0.6-0.4 0.7-0.1 0.6 0.2 0.6 0.5 0.3 0.8 0.3 0.6 0.5 0.3 0.6-0.7 1.7-0.5 0.7-0.7 0.1-1.9-0.8-0.6-0.4-0.5-0.5-0.5-0.3-1.2-0.5-0.9-0.5-0.8-0.2-0.7 0.3-0.4 0.6-0.3 0.8-0.3 0.8-0.9 0.4-2.5 1.8-0.3 0.5-0.3 0.5-0.1 0.7-0.1 1.8-0.3 0.9-0.4 0.8-0.7 0.9-0.7 0.4-0.7 0.2-1.4-0.1-7.4-1.8-1.3-0.8-0.8-0.8-0.3-1.2-0.3-0.4-3.4-1.4-1-0.7-0.7-0.6-0.3-0.3-0.2-0.6 0-2.6 0.2-0.5 0.3-0.6 0.6-0.2 2.1-0.1 0.6-0.2 0.3-0.5 0-0.8-0.2-2.5 0.1-1.4 0.3-1.7 0.4-1.1 1.1-2 0.2-1 0.1-1.2 0.2-0.5 0.5-0.8 0-0.5-0.4-1.2-0.2-0.8 0.2-0.4 0.4-0.3 0.7-0.2 0.8-0.4 0.8-1 0.4-0.9 0.1-0.7 0-1-0.3-0.4-0.5-0.1-0.5 0.5-0.3 0.2-0.4-0.1-0.2-0.7-0.1-0.8-0.2-0.8-0.2-0.4-0.5-0.3-0.6 0.2-0.7 0.5-0.8 0.3-0.9-0.2-0.9-0.8-1.1-2.1-0.5-0.8-0.5-0.4-1.4-0.6-1.4-0.3-0.7 0-2.3 0.8-1.5 0.2-0.7 0-2.2-0.3-0.7 0-0.8-0.1-0.8-0.7-0.7-1-0.3-0.7 0.1-0.7 0.1-0.5 0.6-0.8 3.4 0.2 0.8-0.1 1-0.3 0.7-0.4 0.7-0.6 0.3-0.5 0.2-0.6 0-0.6 0.2-0.6 0.5-0.6 0.9-0.5 0.3-0.4 0-0.4-0.4-0.4-1.2-0.9-0.3-0.5 0.1-0.2 0.3-0.4 2.1-1.2 1.4 0.4 0.8-0.1 0.5-0.4 0.2-0.5 0.1-0.8 0.1-0.6 0.6-0.7 0.7-0.2 0.5 0 1.2 0.3 0.5 0.2 0.3 0.3 0.7 0.6 1.5 1.2 0.3 0.4 0 0.4-0.2 0.5-0.4 0.4-0.5 0.4-0.3 0.3 0.1 0.3 0.8 1.1 0.3 0.6 0.2 0.7 0 0.6-0.3 1.4 0 0.5 0.9 0.9 0.8 0.5 1.6 0.3 1-0.1 1.3-0.5 0.3-0.5 0.2-0.8-0.1-0.7 0.2-0.7 0.3-0.6 0.3-0.3 0.4-0.3 1.6-0.8 1.8-0.4 0.9-0.4 1.3-0.9 0.4-0.4 0.1-0.4 0-0.4-0.2-1-0.1-0.9 0-0.8 0.2-0.7 0.7-1.1 1.1 0.4 0.3 1.1 0 0.7 0.3 0.9 0.5 0.5 0.5 0.3 0.6 0.1 0.5 0 0.6-0.2 0.4-0.3 0.8-0.8 0.4-0.3 0.7-0.3 0.5 0.1 1.2 0.9 0.7 0.1 0.6 0.1 2.9-1.2z">
 </path>
 <path id="DZA2216" name="Batna" fill="#e17055" d="M717.8 72.8l6.1 2 0.9 0 1-0.1 0.7-0.9 0.5-0.2 0.5 0.1 1.3 1.3 0.7 0.4 0.8 0.2 2.4 0.2 0.4 0.2 0.5 0.4 0.2 0.7 0 0.6-0.1 0.7 0 0.7 0.4 0.8 0.7 0.1 0.9-0.2 2.9-1.1 1.1-0.1 1.1 0 1.1 0.4 2.4 1.8 3.4 4.9 0.3 2.9 0.6 2.6-0.1 0.9-0.2 0.8-0.7 1.5-0.5 0.7-0.7 0.7-1 0.5-2.6 0.9-0.9 0.4-1 0.7-0.8 0.8-0.9 1.3-0.3 0.8 0.1 1.8-0.2 2 0 0.9 0.2 0.6 0.5 0.3 0.7-0.2 0.4 0 0.3 0.2 0 0.7-0.4 0.8-1.8 1.9-0.6 1-0.6 4-1.8 3.2-0.3 0.8-0.1 0.7-0.1 2.2 0.1 1 0.3 0.9 1.4 2.3 1.8 3.9 0.3 0.9 0.4 1-0.2 0.5-1 2.1-0.2 1 0 0.8 0.2 0.8 0.4 1.4 0.3 0.6-0.4 0.5-1.1 0.3-0.8-0.1-0.9-0.2-0.7-0.3-0.4-0.4-1.5-1.8-0.8-0.7-0.6-0.8-0.4-1 0-1 0.6-3.2 0-2.4 0.1-0.9 0.1-0.6 0.4-1 0.2-0.5-0.1-0.9-0.5-0.8-0.9-1.1-0.8-0.2-0.9 0.1-1.1 0.4-2.5 0.5-1.2 0-0.8 0.1-0.7 0.3-1.4 0.8-0.5 0.6-0.4 1-0.2 0.3-0.9-0.1-0.2 0-1.1 0.5-0.9 0-0.7-0.3-0.4-0.2-0.4-1.1-0.2-0.7-0.3-0.7-0.5-0.5-0.6-0.3-0.6-0.1-0.5 0.1-0.4 0.4-0.4 0.8-0.7 2.2-0.3 0.2-0.6 0.4-0.9 0-0.9-0.8-0.5-0.6-1.2-1-0.6-0.9 0-1 0.8-1.8 0.1-0.9-0.6-2.2 0.2-0.5 0.6-0.7 1.9-1.7 0.5-0.6 0.4-0.7-0.1-0.6-0.3-0.2-0.7-0.1-1.1 0-4.1-1.7-1.7-1.5-0.5-0.2-0.5 0-3 1.1-2.2 1.1-4.2 2.6-3.5 0.9-0.2 0.4 0.4 0.7 2 1.8 0.2 0.4 0.3 0.6 0.1 0.4 0.1 0.7-0.3 0.5-0.5 0.4-1 0.4-0.5 0.3-0.7 0.5-0.7 0.3-1.1 0.2-5.6 0.3-1 0.3-1 0.5-1.3 0.8-1.2 0.6-1.6 0.1-1.8-0.1-2.4-0.6-2.1-1.3-3.3-1.7-1.7-0.1-0.5 0.1-0.7-0.1-0.5-0.1-0.4-0.4-0.6-0.9-0.7-0.9-1.1-0.7-1-0.5-1.2-0.4-1.3-0.2-3.6-0.3-0.5-0.2-0.3-0.3-0.2-0.4-0.1-0.4 0.3-0.7 0.8-0.9 1.8-1.6 1.4-1.7 0.8-1.2 0.4-1 0.5-3.2 0.1-1.5 0-2.2-0.3-2.1-0.9-3.5 0-0.5 0.1-0.4 0.4-0.1 0.4 0 0.4 0.3 0.4 0.3 0.9 1.1 0.2 0.2 0.6 0.3 0.7 0.1 1.2-0.6 0.6-0.7 0.3-0.3 0.8-0.3 1.1-0.1 2.9 0 0.9 0.2 0.8 0.4 0.8 0.3 0.8-0.2 1.8-1.1 1.2-0.4 1.4-0.8 5.6-5 1.4 0.1 0.7-0.2 0.7-0.4 0.7-0.9 0.4-0.8 0.3-0.9 0.1-1.8 0.1-0.7 0.3-0.5 0.3-0.5 2.5-1.8 0.9-0.4 0.3-0.8 0.3-0.8 0.4-0.6 0.7-0.3 0.8 0.2 0.9 0.5 1.2 0.5 0.5 0.3 0.5 0.5 0.6 0.4 1.9 0.8 0.7-0.1 0.5-0.7 0.7-1.7-0.3-0.6-0.6-0.5-0.8-0.3-0.5-0.3-0.2-0.6 0.1-0.6 0.4-0.7 0.5-0.6 0.7-0.5 1.5-1 1.1-0.4 1.1-0.1 1.6 0.5 1.1 0.8 2.1 1.6 0.9 0.3 0.4-0.2 0-0.8-0.2-0.5 0-0.5 0.1-0.2 1.4-1 1.9 0.6 0.6 0.3 1.9 0.4 4-0.4z">
 </path>
 <path id="DZA2217" name="Constantine" fill="#e17055" d="M755.9 40.9l0.5 0.5 0.6 1.4 0.3 0.9 0.1 0.7 0.4 0.6 0.9 0.6 0.2 0.3 0.1 0.6 0 1 0 0.6 0.4 0.8 1 0.4 0.4 0.4 0.3 0.6 0.1 2.3-0.2 1.5-0.2 1.1-1.4 2.4-1.3 0.3-1 0.1-0.7 0.3-1.4 1.4-1 0.7-0.5-0.1-0.2-0.5 0.1-0.9-0.3-0.8-4.5-2.7-0.7-0.1-0.6 0.3-0.4 0.4-0.6 0.3-0.5 0.3-2.4 0.6-0.8 0.4-0.9 0.6-2.3 1-0.3 0.8-0.3 0.3-0.4 0-0.2-0.1-1.2-1.6-1.5-1.7 0.4-2.3-0.2-0.6-2.5-3.6-4.4-4.5-0.7-0.3-1.4 0.1-0.6-0.3-0.2-0.6 0.2-0.7 0.4-0.5 0.9-0.7 1-0.5 0.4-0.1 1.1-0.4 3.2-0.4 0.6-0.4 0.2-0.7-0.2-0.9-0.6-1.6-0.1-0.5 0.1-0.3 0.2-0.2 0.7-0.4 0.4-0.6 0.2-1 0.3-2.7 1.7 0 2 0.4 0.9-0.2 2.6-2 0.5 0 0.3 0.3 0.2 0.5 0.3 0.5 2.6 1.2 2.1 0.6 5.6-0.3 0.9 0 0.4 0.2 0 0.4-0.1 0.6-0.3 0.5-0.4 0.2-0.4-0.1-0.6-0.3-0.6-0.1-0.5 0.1-0.7 0.3-0.2 0.2-0.1 0.4 0.1 1.2 0 0.5-0.1 0.3-0.6 0.5-0.3 0.4-0.1 0.4 0.2 0.4 0.5 0.2 0.7 0.1 0.8 0.4 3.6 0.9z">
 </path>
 <path id="DZA2218" name="Guelma" fill="#e17055" d="M790.3 27l2.3 0.4 0.5 0.3 1.6 1.4 0.5 0.7 0.3 0.6 0.3 0.9 0.4 0.6 0.6 0.5 8.7 3.7 0.5 0.3 0.2 0.4 0.2 0.5 0.2 0.5-5.6 3.1-1.4 0.1-2-0.6-0.3 0-0.1 0.4 0.7 1.8 0.1 0.5 0.1 1.3 0.3 0.6 0.6 0.9 0.2 0.9-0.2 1.2-0.8 0.6-0.9 0.4-0.8 0.2-1.7 0.1-4.8 2.5-4.8 1.6-0.5 0.4-0.7 1-0.6 0.3-0.6 0.2-1 0-3.1 0.7-0.6 0.4-0.5 0.6-0.6 1.3-0.3 0.5-0.5 0.3-0.6 0.1-1 0-1.7-0.9-2.4-0.3-0.8 0.2-0.5 0.3-0.2 0.6-0.1 1.8-0.6 1.1-1 0.7-2 1-1.3 0.4-1.3 0.2-0.6-0.3-0.3-0.5-0.1-0.5-0.2-0.5-0.5-0.5-0.6-0.5-0.4-0.6-0.2-0.8-0.2-0.8-0.1-1.3-0.1-0.4 1.4-2.4 0.2-1.1 0.2-1.5-0.1-2.3-0.3-0.6-0.4-0.4-1-0.4-0.4-0.8 0-0.6 0-1-0.1-0.6-0.2-0.3-0.9-0.6-0.4-0.6-0.1-0.7-0.3-0.9-0.6-1.4-0.5-0.5 1.1-2 1.2-0.7 3.7-1.1 0.4-0.2 0.2-0.2 0.1-0.3-0.1-0.5-0.2-0.4 0-0.6 0.3-0.8 1.2-1.5 1.1-0.9 5.4-2.9 1.3-0.5 1.2-0.3 0.8 0 0.5-0.3 0.3-0.4 0.2-1.4 0.1-0.7 0.6-0.8 0.4-0.3 0.9-0.6 0.8-0.3 3.6 2 0.3 0.6 0.4 0.8 0 1.3 0.2 0.6 0.2 0.3 0.8 0.2 1.1 0.6 0.7 0.3 0.7 0.2 0.7 0 1.4-0.2 0.5-0.2 0.5-0.2 0.4-0.4 0.4-0.5 1-1.6z">
 </path>
 <path id="DZA2219" name="Khenchela" fill="#e17055" d="M785.2 99.7l-1.2 1.2-4.5 1.8-0.7 0.7 0 0.6 0.3 0.7 0 0.9-0.3 2 0.1 0.8 0.1 0.9 0 1-0.6 1.2-0.1 0.9 0.2 0.9 0.3 1 0.2 1.1-0.2 1.6-0.5 1.2-0.7 1.1-2.9 3.2-1.7 2.4-1.5 1.4-1.6 2.4-0.3 0.7-0.1 0.5 0.1 0.6 0.1 0.6 0 0.7 0.1 0.6 0.3 0.5 0.4 0.8 0.1 0.6 0.2 0.5 0.4 1.1 0.2 0.2 0.3 0 0.4-0.2 0.1-0.3 0-0.3-0.3-0.8 0-1-0.2-0.6-0.1-0.2-0.4-0.7 0-0.4 0.1-1.1 0.4-0.8 0.1-0.2 0.9-0.4 0.3-0.3 0.5-1 0.3-0.2 0.2-0.1 0.8 0.4 0.9 0.1 0.6 0.2 0.4 0.5 0.2 0.6-0.1 1.3 0.1 0.7 0.1 0.5 0.4 0.8 0.2 0.8-0.2 3.2 0.1 0.6 0.7 2.2 0.1 0.9 0 0.9-0.2 1.1-1.1 2.7-0.9 1.7-1.8 2.6-0.9 2.2-0.2 0.3-0.6 0.6-0.5 0.9-0.9 2.7-0.5 1.9-0.8 5.4-1.1 4.3-3.4 7.9-5.7-1-2.7-0.9-10.5-6.2-1.4-1.6-0.9-2.9 0.4-2.1-0.4-3.1 0-0.6 0.2-0.8 0.2-0.5 0.7-2.4 0.8-3.7 0.2-2.1 0.1-2 0.4-2.4-0.1-0.8-0.3-1-0.7-1.9-0.4-0.6-0.2-0.2-0.4-0.2-0.4 0-0.7 0-0.8 0.1-2.4 0.7-0.6 0-0.8 0-0.3-0.6-0.4-1.4-0.2-0.8 0-0.8 0.2-1 1-2.1 0.2-0.5-0.4-1-0.3-0.9-1.8-3.9-1.4-2.3-0.3-0.9-0.1-1 0.1-2.2 0.1-0.7 0.3-0.8 1.8-3.2 0.6-4 0.6-1 1.8-1.9 0.4-0.8 0-0.7-0.3-0.2-0.4 0-0.7 0.2-0.5-0.3-0.2-0.6 0-0.9 0.2-2-0.1-1.8 0.3-0.8 0.9-1.3 0.8-0.8 1-0.7 0.9-0.4 2.6-0.9 1-0.5 0.7-0.7 0.5-0.7 0.7-1.5 0.2-0.8 0.1-0.9-0.6-2.6-0.3-2.9 0.9 1.4 0.6 1.2 0.5 0.5 0.7 0.5 1.3 0.2 1 0.1 5.8-0.8 0.5 0.1 0.6 0.4 1 2 0.7 0.7 1.6 0.1 0.9-0.5 0.8-0.8 0.5-0.8 0.6-0.4 0.5-0.1 2.7 0.4 0.3 0 0.2-0.2 0.2-0.6 0.3 0 1 0.1 0.9 0.2 1 0.5 0.7 0.7 0.4 1.2-0.1 2.1 0.3 0.6 0.8-0.1 0.5-0.5 0.5-0.9 0.4-0.6 0.5-0.3 0.7 0.3 0.7 0.5 1.2 1.7 0.6 0.2 0.4-0.2 0.4-0.3 0.4 0 0.4 0.4 0.5 1.7 0.2 0.5 0.4 0.5 1.4 0.9 1.1 1.4z">
 </path>
 <path id="DZA2220" name="Mila" fill="" d="M732.6 32.1l2.3 0.1-0.3 2.7-0.2 1-0.4 0.6-0.7 0.4-0.2 0.2-0.1 0.3 0.1 0.5 0.6 1.6 0.2 0.9-0.2 0.7-0.6 0.4-3.2 0.4-1.1 0.4-0.4 0.1-1 0.5-0.9 0.7-0.4 0.5-0.2 0.7 0.2 0.6 0.6 0.3 1.4-0.1 0.7 0.3 4.4 4.5 2.5 3.6 0.2 0.6-0.4 2.3-0.4 0-0.8 0.2-0.7 0.2-1.5 0.9-1.2 1.1-0.7 0.9-0.3 1.2 0.1 1.9-0.1 0.9-0.2 0.9-0.9 0.9-1.3 1-2.5 1.1-3.1 0.9-2.2 0.5-0.9 0.3-0.6 0.3-0.3 0.6-0.2 0.5 0.1 1.6-4 0.4-1.9-0.4-0.6-0.3-1.9-0.6 0.1-1.9-0.3-0.9 0.5-5.8-0.3-1.2-0.6-0.8-0.8-0.4-0.6-0.7-0.2-0.4 0-0.7-0.1-0.4-0.3-0.5-0.6-0.6-0.5-0.9 0-0.7 0.4-0.5 0.6-0.4 0.4-0.7 0.2-1-0.4-0.6-0.6-0.1-0.9 0-0.7-0.2-0.6-1 0-1.1 0.3-1.5 0.1-3.8-0.1-2.3-0.5-1.1-0.7-0.6-0.9-0.1-0.9 0-1-0.1-0.7-0.4-0.5-0.8 0-0.9 0.2-1.8 0-1-0.2-0.7-0.4-0.6-0.2-0.4-0.8-0.8 1.9-0.4 0.6 0.1 0.9 0.2 0.7 0.4 1.2 0.4 1.1 0.1 1.7-0.2 1-0.3 0.5-0.5 0.3-0.7 0.5-0.7 0.7-0.5 1.8-0.8 1-0.1 0.7 0.1 1.7 0.5 2.6 0.2 1.9 0.5 1.5 0.1 0.9 0 0.5-0.2 0.6-0.7 0.3-0.4 1.1-0.4 1.3-0.8 0.4 0 0.3 0.1 0.3 0.8 0.2 0.3 0.4 0.2 6.2 1.3z">
 </path>
 <path  id="DZA2221" name="Oum el Bouaghi" fill="#e17055" d="M759.4 57.6l0.1 0.4 0.1 1.3 0.2 0.8 0.2 0.8 0.4 0.6 0.6 0.5 0.5 0.5 0.2 0.5 0.1 0.5 0.3 0.5 0.6 0.3 1.3-0.2 1.3-0.4 2-1 1-0.7 0.6-1.1 0.1-1.8 0.2-0.6 0.5-0.3 0.8-0.2 2.4 0.3 1.7 0.9 0 2.9 2.1 4.6 1.4 2.1 0.9 0.9 1.7 2 0.8 0.6 0.7 0.4 2 0.5 0.7 0.5 0.5 0.7 0.7 2 0.7 0.4 3.1 0.1 0.9-0.2 0.4-0.5 0.1-0.7 0-0.7 0.3-0.5 0.8-0.8 0.4-0.7 0.3-0.9 0.5-0.7 0.8-0.4 1.2 0 0.9 0.5 0.9 0.5 3.3 3.5-0.2 0.9 0 0.6 0.2 0.7-0.2 0.5-1.8 4.4-0.1 1.6 0.1 1.3 0.8 2.5 0.2 1.1-0.2 0.9-0.8 0.5-0.8 0.3-0.8 0.2-0.8 0.3-11.1 8.6-1.1-1.4-1.4-0.9-0.4-0.5-0.2-0.5-0.5-1.7-0.4-0.4-0.4 0-0.4 0.3-0.4 0.2-0.6-0.2-1.2-1.7-0.7-0.5-0.7-0.3-0.5 0.3-0.4 0.6-0.5 0.9-0.5 0.5-0.8 0.1-0.3-0.6 0.1-2.1-0.4-1.2-0.7-0.7-1-0.5-0.9-0.2-1-0.1-0.3 0-0.2 0.6-0.2 0.2-0.3 0-2.7-0.4-0.5 0.1-0.6 0.4-0.5 0.8-0.8 0.8-0.9 0.5-1.6-0.1-0.7-0.7-1-2-0.6-0.4-0.5-0.1-5.8 0.8-1-0.1-1.3-0.2-0.7-0.5-0.5-0.5-0.6-1.2-0.9-1.4-3.4-4.9-2.4-1.8-1.1-0.4-1.1 0-1.1 0.1-2.9 1.1-0.9 0.2-0.7-0.1-0.4-0.8 0-0.7 0.1-0.7 0-0.6-0.2-0.7-0.5-0.4-0.4-0.2-2.4-0.2-0.8-0.2-0.7-0.4-1.3-1.3-0.5-0.1-0.5 0.2-0.7 0.9-1 0.1-0.9 0-6.1-2-0.1-1.6 0.2-0.5 0.3-0.6 0.6-0.3 0.9-0.3 2.2-0.5 3.1-0.9 2.5-1.1 1.3-1 0.9-0.9 0.2-0.9 0.1-0.9-0.1-1.9 0.3-1.2 0.7-0.9 1.2-1.1 1.5-0.9 0.7-0.2 0.8-0.2 0.4 0 1.5 1.7 1.2 1.6 0.2 0.1 0.4 0 0.3-0.3 0.3-0.8 2.3-1 0.9-0.6 0.8-0.4 2.4-0.6 0.5-0.3 0.6-0.3 0.4-0.4 0.6-0.3 0.7 0.1 4.5 2.7 0.3 0.8-0.1 0.9 0.2 0.5 0.5 0.1 1-0.7 1.4-1.4 0.7-0.3 1-0.1 1.3-0.3z">
 </path>
 <path id="DZA2222" name="Souk Ahras" fill="#e17055" d="M820.2 68.6l-1.9-0.7-0.8-0.6-0.6-0.6-0.5-0.1-0.4 0.3-0.4 0.3-0.3 0.1-1.8 0.1-0.9 0.3-1.5 0.3-2.1 0.2-1.7 0.4-0.5 0.2-0.6 0.4-0.3 1-0.2 0.5-0.7 0.6-1.8 0.9-0.5 0.4-0.5 0.6-0.5 0.8-1 1.3-3.3-3.5-0.9-0.5-0.9-0.5-1.2 0-0.8 0.4-0.5 0.7-0.3 0.9-0.4 0.7-0.8 0.8-0.3 0.5 0 0.7-0.1 0.7-0.4 0.5-0.9 0.2-3.1-0.1-0.7-0.4-0.7-2-0.5-0.7-0.7-0.5-2-0.5-0.7-0.4-0.8-0.6-1.7-2-0.9-0.9-1.4-2.1-2.1-4.6 0-2.9 1 0 0.6-0.1 0.5-0.3 0.3-0.5 0.6-1.3 0.5-0.6 0.6-0.4 3.1-0.7 1 0 0.6-0.2 0.6-0.3 0.7-1 0.5-0.4 4.8-1.6 4.8-2.5 1.7-0.1 0.8-0.2 0.9-0.4 0.8-0.6 0.2-1.2-0.2-0.9-0.6-0.9-0.3-0.6-0.1-1.3-0.1-0.5-0.7-1.8 0.1-0.4 0.3 0 2 0.6 1.4-0.1 5.6-3.1 0.7 1.5 0.2 2.8 0.3 0.4 0.5 0.1 0.8-0.1 0.8-0.3 0.6-0.3 0.7-0.4 0.7-0.5 0.5-0.5 1-1.5 0.6-0.7 0.9-0.7 0.4-0.3 0 0.1 2 0.8 4.2 0.5 0.9 0.5 0.9 0.3 0.8 0.4 0.4 1.1 0.1 1.2-0.1 2.5-0.2 1.1-2.3 6.5-0.2 2.4 0.2 1.2 0.4 1.1 0.1 1.1-0.4 1.1-0.6 1-1 4.4-0.1 3.3-0.2 0.7z">
 </path>
 <path id="DZA2223" name="Tébessa" fill=" " d="M820.2 68.6l-1.1 3.8-0.2 4.7 0.2 2.6 0.6 2 2.3 3.9 0.8 2 0.7 6.8 0 1.7-1.8 4.2-0.5 2.1-0.1 2.2 0.3 2.4 1.1 2.1 1.9 0.9 2 0.6 1.6 1.3-0.4 1.2-3 4.5-2.2 2.5-0.7 2.1-0.8 4.4-1.2 3.1-0.5 2.3 0.1 2.2 0.9 5.9-0.1 0.8-0.5 0.7-1.5 1.6-0.6 0.9-0.1 0.9 1.2 2-0.3 0.6-1.8 1.1-0.3 0.5-0.3 1-0.2 0.4-0.4 0.4-1.2 0.7-2.4 2.2-4.5 2.1-2.1 1.4-4.2 1.9-1.8 1.4-1 2-1.8 7-0.4 0.9-0.6 0.7-1 0.5-3 0.5-1.9 1-1.3 1.3-1.2 1.6-2 2.1-10.2 0.3-2.7-0.3-3.3-1.1-3.3-1.7 3.4-7.9 1.1-4.3 0.8-5.4 0.5-1.9 0.9-2.7 0.5-0.9 0.6-0.6 0.2-0.3 0.9-2.2 1.8-2.6 0.9-1.7 1.1-2.7 0.2-1.1 0-0.9-0.1-0.9-0.7-2.2-0.1-0.6 0.2-3.2-0.2-0.8-0.4-0.8-0.1-0.5-0.1-0.7 0.1-1.3-0.2-0.6-0.4-0.5-0.6-0.2-0.9-0.1-0.8-0.4-0.2 0.1-0.3 0.2-0.5 1-0.3 0.3-0.9 0.4-0.1 0.2-0.4 0.8-0.1 1.1 0 0.4 0.4 0.7 0.1 0.2 0.2 0.6 0 1 0.3 0.8 0 0.3-0.1 0.3-0.4 0.2-0.3 0-0.2-0.2-0.4-1.1-0.2-0.5-0.1-0.6-0.4-0.8-0.3-0.5-0.1-0.6 0-0.7-0.1-0.6-0.1-0.6 0.1-0.5 0.3-0.7 1.6-2.4 1.5-1.4 1.7-2.4 2.9-3.2 0.7-1.1 0.5-1.2 0.2-1.6-0.2-1.1-0.3-1-0.2-0.9 0.1-0.9 0.6-1.2 0-1-0.1-0.9-0.1-0.8 0.3-2 0-0.9-0.3-0.7 0-0.6 0.7-0.7 4.5-1.8 1.2-1.2 11.1-8.6 0.8-0.3 0.8-0.2 0.8-0.3 0.8-0.5 0.2-0.9-0.2-1.1-0.8-2.5-0.1-1.3 0.1-1.6 1.8-4.4 0.2-0.5-0.2-0.7 0-0.6 0.2-0.9 1-1.3 0.5-0.8 0.5-0.6 0.5-0.4 1.8-0.9 0.7-0.6 0.2-0.5 0.3-1 0.6-0.4 0.5-0.2 1.7-0.4 2.1-0.2 1.5-0.3 0.9-0.3 1.8-0.1 0.3-0.1 0.4-0.3 0.4-0.3 0.5 0.1 0.6 0.6 0.8 0.6 1.9 0.7z">
 </path>
 <circle cx="664.1" cy="28.9" id="0">
 </circle>
 <circle cx="646.5" cy="28" id="1">
 </circle>
 <circle cx="688.5" cy="146.9" id="2">
 </circle>
</svg>