<svg id="Layer_1" enable-background="new 0 0 512 512" height="512" viewBox="0 0 512 512" width="512" xmlns="http://www.w3.org/2000/svg" xmlns:xlink="http://www.w3.org/1999/xlink"><linearGradient id="SVGID_1_" gradientUnits="userSpaceOnUse" x1="256" x2="256" y1="0" y2="512"><stop offset="0" stop-color="#2af598"/><stop offset="1" stop-color="#009efd"/></linearGradient><path d="m482 402c-3.408 0-6.68.576-9.733 1.623l-17.076-9.089c.481-3.054.736-6.181.736-9.368 0-2.865-.215-5.679-.605-8.438l17.328-9.223c2.943.965 6.084 1.494 9.349 1.494 16.569 0 30-13.431 30-30s-13.431-30-30-30c-14.459 0-26.527 10.23-29.366 23.846l-15.85 8.436c-5.955-5.548-13.034-9.901-20.857-12.675v-18.19c6.179-5.494 10.074-13.498 10.074-22.416 0-16.569-13.431-30-30-30s-30 13.431-30 30c0 8.849 3.833 16.801 9.928 22.292v18.315c-7.606 2.698-14.516 6.878-20.366 12.208l-15.234-8.135c-2.903-13.532-14.928-23.68-29.328-23.68-16.569 0-30 13.431-30 30s13.431 30 30 30c3.329 0 6.527-.55 9.519-1.551l16.101 8.597c-.456 2.975-.692 6.021-.692 9.121 0 3.419.303 6.768.855 10.032l-15.882 8.481c-3.101-1.084-6.43-1.68-9.901-1.68-16.569 0-30 13.431-30 30s13.431 30 30 30c14.264 0 26.194-9.958 29.24-23.3l16.033-8.562c5.698 5.031 12.352 8.998 19.655 11.588v17.981c-6.095 5.492-9.928 13.444-9.928 22.293 0 16.569 13.431 30 30 30s30-13.431 30-30c0-8.918-3.895-16.922-10.072-22.417v-17.856c7.524-2.669 14.366-6.791 20.176-12.039l16.618 8.845c2.983 13.425 14.954 23.467 29.278 23.467 16.569 0 30-13.431 30-30s-13.431-30-30-30zm-86.072 3.167c-11.028 0-20-8.972-20-20s8.972-20 20-20 20 8.972 20 20-8.972 20-20 20zm-91.928-221.503v85.687c2.303-.23 4.637-.351 7-.351 11.927 0 23.162 3.005 33 8.287v-198.446c0-1.558.607-3.022 1.708-4.124 1.579-1.581 3.863-2.122 5.962-1.415 9.123 3.075 41.149 16.818 70.208 64.552 21.386 35.128 35.98 79.701 43.683 133.114 5.277-1.275 10.777-1.968 16.439-1.968 8.515 0 16.678 1.533 24.233 4.329-8.153-62.443-24.931-114.789-50.186-156.276-35.107-57.667-75.754-76.315-91.6-81.656-16.603-5.596-34.621-1.367-47.022 11.034-8.657 8.658-13.425 20.168-13.425 32.41v52.572c-16.553-15.92-28-33.049-28-53.272v-78.141h-40v78.141c0 19.433-10.227 36.063-28 53.163v-52.463c0-12.242-4.768-23.752-13.424-32.409-12.403-12.402-30.42-16.63-47.022-11.034-15.846 5.341-56.493 23.989-91.6 81.656-37.128 60.988-55.954 145.419-55.954 250.946 0 15.67 1.723 38.489 5.121 67.823 1.58 13.637 9.997 25.139 22.518 30.77 5.122 2.304 10.521 3.439 15.886 3.439 7.736 0 15.397-2.365 22.032-7.005 40.426-28.271 90.478-47.916 116.714-57.109 15.39-5.392 25.73-20.015 25.73-36.387v-185.856c17.587-13.507 35.109-28.597 47.968-46.521 12.59 17.508 29.855 32.531 48.031 46.51zm-136 184.871c-28.024 9.876-79.992 30.456-123.413 60.356-3.003-26.329-4.587-47.35-4.587-60.891 0-98.084 16.863-175.517 50.121-230.146 29.059-47.733 61.085-61.477 70.208-64.552.609-.205 3.671-1.302 5.962 1.415 1.004 1.191 1.708 2.566 1.708 4.124v289.694z" fill="url(#SVGID_1_)"/></svg>