<svg width="502" height="105" viewBox="0 0 502 105" fill="none" xmlns="http://www.w3.org/2000/svg">
<g clip-path="url(#clip0)">
<path d="M0 2.15996V101.84H104.366V2.15996H0ZM16.5551 85.2398L32.3853 70.0708L16.5551 54.9027L19.5067 52.0746L38.2884 70.0708L19.5067 88.0679L16.5551 85.2398ZM60.7851 88.6538H35.3369V84.6537H60.7851V88.6538Z" fill="#FDFCFC"/>
</g>
<path d="M124.065 42.9688V59H114.69V13.5H132.44C135.857 13.5 138.857 14.125 141.44 15.375C144.044 16.625 146.044 18.4062 147.44 20.7188C148.836 23.0104 149.534 25.625 149.534 28.5625C149.534 33.0208 148.003 36.5417 144.94 39.125C141.899 41.6875 137.68 42.9688 132.284 42.9688H124.065ZM124.065 35.375H132.44C134.919 35.375 136.805 34.7917 138.097 33.625C139.409 32.4583 140.065 30.7917 140.065 28.625C140.065 26.3958 139.409 24.5938 138.097 23.2188C136.784 21.8438 134.972 21.1354 132.659 21.0938H124.065V35.375ZM174.409 33.6562C173.18 33.4896 172.097 33.4062 171.159 33.4062C167.742 33.4062 165.503 34.5625 164.44 36.875V59H155.409V25.1875H163.94L164.19 29.2188C166.003 26.1146 168.513 24.5625 171.722 24.5625C172.722 24.5625 173.659 24.6979 174.534 24.9688L174.409 33.6562ZM193.722 59.625C188.763 59.625 184.722 58.1042 181.597 55.0625C178.492 52.0208 176.94 47.9688 176.94 42.9062V42.0312C176.94 38.6354 177.597 35.6042 178.909 32.9375C180.222 30.25 182.076 28.1875 184.472 26.75C186.888 25.2917 189.638 24.5625 192.722 24.5625C197.347 24.5625 200.982 26.0208 203.628 28.9375C206.294 31.8542 207.628 35.9896 207.628 41.3438V45.0312H186.097C186.388 47.2396 187.263 49.0104 188.722 50.3438C190.201 51.6771 192.065 52.3438 194.315 52.3438C197.794 52.3438 200.513 51.0833 202.472 48.5625L206.909 53.5312C205.555 55.4479 203.722 56.9479 201.409 58.0312C199.097 59.0938 196.534 59.625 193.722 59.625ZM192.69 31.875C190.899 31.875 189.44 32.4792 188.315 33.6875C187.211 34.8958 186.503 36.625 186.19 38.875H198.753V38.1562C198.711 36.1562 198.169 34.6146 197.128 33.5312C196.086 32.4271 194.607 31.875 192.69 31.875ZM225.003 47.9688L231.284 25.1875H240.722L229.315 59H220.69L209.284 25.1875H218.722L225.003 47.9688ZM254.253 59H245.19V25.1875H254.253V59ZM244.659 16.4375C244.659 15.0833 245.107 13.9688 246.003 13.0938C246.919 12.2188 248.159 11.7812 249.722 11.7812C251.263 11.7812 252.492 12.2188 253.409 13.0938C254.326 13.9688 254.784 15.0833 254.784 16.4375C254.784 17.8125 254.315 18.9375 253.378 19.8125C252.461 20.6875 251.242 21.125 249.722 21.125C248.201 21.125 246.972 20.6875 246.034 19.8125C245.117 18.9375 244.659 17.8125 244.659 16.4375ZM277.284 59.625C272.326 59.625 268.284 58.1042 265.159 55.0625C262.055 52.0208 260.503 47.9688 260.503 42.9062V42.0312C260.503 38.6354 261.159 35.6042 262.472 32.9375C263.784 30.25 265.638 28.1875 268.034 26.75C270.451 25.2917 273.201 24.5625 276.284 24.5625C280.909 24.5625 284.544 26.0208 287.19 28.9375C289.857 31.8542 291.19 35.9896 291.19 41.3438V45.0312H269.659C269.951 47.2396 270.826 49.0104 272.284 50.3438C273.763 51.6771 275.628 52.3438 277.878 52.3438C281.357 52.3438 284.076 51.0833 286.034 48.5625L290.472 53.5312C289.117 55.4479 287.284 56.9479 284.972 58.0312C282.659 59.0938 280.097 59.625 277.284 59.625ZM276.253 31.875C274.461 31.875 273.003 32.4792 271.878 33.6875C270.774 34.8958 270.065 36.625 269.753 38.875H282.315V38.1562C282.274 36.1562 281.732 34.6146 280.69 33.5312C279.649 32.4271 278.169 31.875 276.253 31.875ZM325.753 46.7188L330.19 25.1875H338.909L330.284 59H322.722L316.315 37.7188L309.909 59H302.378L293.753 25.1875H302.472L306.878 46.6875L313.065 25.1875H319.597L325.753 46.7188ZM360.972 43.1562H343.378V35.875H360.972V43.1562ZM378.19 51.4688H398.097V59H368.815V13.5H378.19V51.4688ZM422.503 59C422.086 58.1875 421.784 57.1771 421.597 55.9688C419.409 58.4062 416.565 59.625 413.065 59.625C409.753 59.625 407.003 58.6667 404.815 56.75C402.649 54.8333 401.565 52.4167 401.565 49.5C401.565 45.9167 402.888 43.1667 405.534 41.25C408.201 39.3333 412.044 38.3646 417.065 38.3438H421.222V36.4062C421.222 34.8438 420.815 33.5938 420.003 32.6562C419.211 31.7188 417.951 31.25 416.222 31.25C414.701 31.25 413.503 31.6146 412.628 32.3438C411.774 33.0729 411.347 34.0729 411.347 35.3438H402.315C402.315 33.3854 402.919 31.5729 404.128 29.9062C405.336 28.2396 407.044 26.9375 409.253 26C411.461 25.0417 413.94 24.5625 416.69 24.5625C420.857 24.5625 424.159 25.6146 426.597 27.7188C429.055 29.8021 430.284 32.7396 430.284 36.5312V51.1875C430.305 54.3958 430.753 56.8229 431.628 58.4688V59H422.503ZM415.034 52.7188C416.367 52.7188 417.597 52.4271 418.722 51.8438C419.847 51.2396 420.68 50.4375 421.222 49.4375V43.625H417.847C413.326 43.625 410.919 45.1875 410.628 48.3125L410.597 48.8438C410.597 49.9688 410.992 50.8958 411.784 51.625C412.576 52.3542 413.659 52.7188 415.034 52.7188ZM467.69 42.4062C467.69 47.8229 466.534 52.0521 464.222 55.0938C461.909 58.1146 458.68 59.625 454.534 59.625C450.867 59.625 447.94 58.2188 445.753 55.4062L445.347 59H437.222V11H446.253V28.2188C448.336 25.7812 451.076 24.5625 454.472 24.5625C458.597 24.5625 461.826 26.0833 464.159 29.125C466.513 32.1458 467.69 36.4062 467.69 41.9062V42.4062ZM458.659 41.75C458.659 38.3333 458.117 35.8438 457.034 34.2812C455.951 32.6979 454.336 31.9062 452.19 31.9062C449.315 31.9062 447.336 33.0833 446.253 35.4375V48.7812C447.357 51.1562 449.357 52.3438 452.253 52.3438C455.169 52.3438 457.086 50.9062 458.003 48.0312C458.44 46.6562 458.659 44.5625 458.659 41.75Z" fill="white"/>
<path d="M251.589 93.1602H259.675V95H249.328V77.9375H251.589V93.1602ZM267.164 95.2344C265.445 95.2344 264.046 94.6719 262.968 93.5469C261.89 92.4141 261.351 90.9023 261.351 89.0117V88.6133C261.351 87.3555 261.589 86.2344 262.066 85.25C262.55 84.2578 263.222 83.4844 264.082 82.9297C264.949 82.3672 265.886 82.0859 266.894 82.0859C268.542 82.0859 269.824 82.6289 270.738 83.7148C271.652 84.8008 272.109 86.3555 272.109 88.3789V89.2812H263.519C263.55 90.5312 263.914 91.543 264.609 92.3164C265.312 93.082 266.203 93.4648 267.281 93.4648C268.046 93.4648 268.695 93.3086 269.226 92.9961C269.757 92.6836 270.222 92.2695 270.621 91.7539L271.945 92.7852C270.882 94.418 269.289 95.2344 267.164 95.2344ZM266.894 83.8672C266.019 83.8672 265.285 84.1875 264.691 84.8281C264.097 85.4609 263.73 86.3516 263.589 87.5H269.941V87.3359C269.878 86.2344 269.582 85.3828 269.05 84.7812C268.519 84.1719 267.8 83.8672 266.894 83.8672ZM277.57 79.25V82.3203H279.937V83.9961H277.57V91.8594C277.57 92.3672 277.675 92.75 277.886 93.0078C278.097 93.2578 278.457 93.3828 278.964 93.3828C279.214 93.3828 279.558 93.3359 279.996 93.2422V95C279.425 95.1562 278.871 95.2344 278.332 95.2344C277.363 95.2344 276.632 94.9414 276.14 94.3555C275.648 93.7695 275.402 92.9375 275.402 91.8594V83.9961H273.093V82.3203H275.402V79.25H277.57ZM282.632 82.7422L281.402 81.8984C282.128 80.8828 282.503 79.8125 282.527 78.6875V77H284.671V78.5234C284.664 79.3047 284.468 80.0859 284.085 80.8672C283.71 81.6406 283.226 82.2656 282.632 82.7422ZM293.355 91.6367C293.355 91.0508 293.132 90.5977 292.687 90.2773C292.25 89.9492 291.48 89.668 290.378 89.4336C289.285 89.1992 288.414 88.918 287.765 88.5898C287.125 88.2617 286.648 87.8711 286.335 87.418C286.031 86.9648 285.878 86.4258 285.878 85.8008C285.878 84.7617 286.316 83.8828 287.191 83.1641C288.074 82.4453 289.199 82.0859 290.566 82.0859C292.003 82.0859 293.167 82.457 294.058 83.1992C294.957 83.9414 295.406 84.8906 295.406 86.0469H293.226C293.226 85.4531 292.972 84.9414 292.464 84.5117C291.964 84.082 291.332 83.8672 290.566 83.8672C289.777 83.8672 289.16 84.0391 288.714 84.3828C288.269 84.7266 288.046 85.1758 288.046 85.7305C288.046 86.2539 288.253 86.6484 288.667 86.9141C289.082 87.1797 289.828 87.4336 290.906 87.6758C291.992 87.918 292.871 88.207 293.542 88.543C294.214 88.8789 294.71 89.2852 295.031 89.7617C295.359 90.2305 295.523 90.8047 295.523 91.4844C295.523 92.6172 295.07 93.5273 294.164 94.2148C293.257 94.8945 292.082 95.2344 290.636 95.2344C289.621 95.2344 288.722 95.0547 287.941 94.6953C287.16 94.3359 286.546 93.8359 286.101 93.1953C285.664 92.5469 285.445 91.8477 285.445 91.0977H287.613C287.652 91.8242 287.941 92.4023 288.48 92.832C289.027 93.2539 289.746 93.4648 290.636 93.4648C291.457 93.4648 292.113 93.3008 292.605 92.9727C293.105 92.6367 293.355 92.1914 293.355 91.6367ZM317.238 92.7617C316.66 93.5898 315.851 94.2109 314.812 94.625C313.781 95.0312 312.578 95.2344 311.203 95.2344C309.812 95.2344 308.578 94.9102 307.5 94.2617C306.421 93.6055 305.585 92.6758 304.992 91.4727C304.406 90.2695 304.105 88.875 304.089 87.2891V85.8008C304.089 83.2305 304.687 81.2383 305.882 79.8242C307.085 78.4102 308.773 77.7031 310.945 77.7031C312.726 77.7031 314.16 78.1602 315.246 79.0742C316.332 79.9805 316.996 81.2695 317.238 82.9414H314.988C314.566 80.6836 313.222 79.5547 310.957 79.5547C309.449 79.5547 308.304 80.0859 307.523 81.1484C306.75 82.2031 306.359 83.7344 306.351 85.7422V87.1367C306.351 89.0508 306.789 90.5742 307.664 91.707C308.539 92.832 309.722 93.3945 311.214 93.3945C312.058 93.3945 312.796 93.3008 313.429 93.1133C314.062 92.9258 314.585 92.6094 315 92.1641V88.332H311.05V86.5039H317.238V92.7617ZM320.085 88.543C320.085 87.3008 320.328 86.1836 320.812 85.1914C321.304 84.1992 321.984 83.4336 322.851 82.8945C323.726 82.3555 324.722 82.0859 325.839 82.0859C327.566 82.0859 328.96 82.6836 330.023 83.8789C331.093 85.0742 331.628 86.6641 331.628 88.6484V88.8008C331.628 90.0352 331.39 91.1445 330.914 92.1289C330.445 93.1055 329.769 93.8672 328.886 94.4141C328.011 94.9609 327.003 95.2344 325.863 95.2344C324.144 95.2344 322.75 94.6367 321.679 93.4414C320.617 92.2461 320.085 90.6641 320.085 88.6953V88.543ZM322.265 88.8008C322.265 90.207 322.589 91.3359 323.238 92.1875C323.894 93.0391 324.769 93.4648 325.863 93.4648C326.964 93.4648 327.839 93.0352 328.488 92.1758C329.136 91.3086 329.46 90.0977 329.46 88.543C329.46 87.1523 329.128 86.0273 328.464 85.168C327.808 84.3008 326.933 83.8672 325.839 83.8672C324.769 83.8672 323.906 84.293 323.25 85.1445C322.593 85.9961 322.265 87.2148 322.265 88.8008ZM334.277 98.3984L333.046 97.5547C333.781 96.5312 334.164 95.4766 334.195 94.3906V92.4336H336.316V94.1328C336.316 94.9219 336.121 95.7109 335.73 96.5C335.347 97.2891 334.863 97.9219 334.277 98.3984ZM347.601 88.3203V95H345.351V77.9375H351.644C353.511 77.9375 354.972 78.4141 356.027 79.3672C357.089 80.3203 357.621 81.582 357.621 83.1523C357.621 84.8086 357.101 86.0859 356.062 86.9844C355.031 87.875 353.55 88.3203 351.621 88.3203H347.601ZM347.601 86.4805H351.644C352.847 86.4805 353.769 86.1992 354.41 85.6367C355.05 85.0664 355.371 84.2461 355.371 83.1758C355.371 82.1602 355.05 81.3477 354.41 80.7383C353.769 80.1289 352.89 79.8125 351.773 79.7891H347.601V86.4805ZM366.281 84.2656C365.953 84.2109 365.597 84.1836 365.214 84.1836C363.792 84.1836 362.828 84.7891 362.32 86V95H360.152V82.3203H362.261L362.296 83.7852C363.007 82.6523 364.015 82.0859 365.32 82.0859C365.742 82.0859 366.062 82.1406 366.281 82.25V84.2656ZM367.476 88.543C367.476 87.3008 367.718 86.1836 368.203 85.1914C368.695 84.1992 369.375 83.4336 370.242 82.8945C371.117 82.3555 372.113 82.0859 373.23 82.0859C374.957 82.0859 376.351 82.6836 377.414 83.8789C378.484 85.0742 379.019 86.6641 379.019 88.6484V88.8008C379.019 90.0352 378.781 91.1445 378.304 92.1289C377.835 93.1055 377.16 93.8672 376.277 94.4141C375.402 94.9609 374.394 95.2344 373.253 95.2344C371.535 95.2344 370.14 94.6367 369.07 93.4414C368.007 92.2461 367.476 90.6641 367.476 88.6953V88.543ZM369.656 88.8008C369.656 90.207 369.98 91.3359 370.628 92.1875C371.285 93.0391 372.16 93.4648 373.253 93.4648C374.355 93.4648 375.23 93.0352 375.878 92.1758C376.527 91.3086 376.851 90.0977 376.851 88.543C376.851 87.1523 376.519 86.0273 375.855 85.168C375.199 84.3008 374.324 83.8672 373.23 83.8672C372.16 83.8672 371.296 84.293 370.64 85.1445C369.984 85.9961 369.656 87.2148 369.656 88.8008ZM382.804 95V83.9961H380.8V82.3203H382.804V81.0195C382.804 79.6602 383.167 78.6094 383.894 77.8672C384.621 77.125 385.648 76.7539 386.976 76.7539C387.476 76.7539 387.972 76.8203 388.464 76.9531L388.347 78.7109C387.98 78.6406 387.589 78.6055 387.175 78.6055C386.472 78.6055 385.929 78.8125 385.546 79.2266C385.164 79.6328 384.972 80.2188 384.972 80.9844V82.3203H387.679V83.9961H384.972V95H382.804ZM395.062 95.2344C393.343 95.2344 391.945 94.6719 390.867 93.5469C389.789 92.4141 389.25 90.9023 389.25 89.0117V88.6133C389.25 87.3555 389.488 86.2344 389.964 85.25C390.449 84.2578 391.121 83.4844 391.98 82.9297C392.847 82.3672 393.785 82.0859 394.792 82.0859C396.441 82.0859 397.722 82.6289 398.636 83.7148C399.55 84.8008 400.007 86.3555 400.007 88.3789V89.2812H391.417C391.449 90.5312 391.812 91.543 392.507 92.3164C393.21 93.082 394.101 93.4648 395.179 93.4648C395.945 93.4648 396.593 93.3086 397.125 92.9961C397.656 92.6836 398.121 92.2695 398.519 91.7539L399.843 92.7852C398.781 94.418 397.187 95.2344 395.062 95.2344ZM394.792 83.8672C393.917 83.8672 393.183 84.1875 392.589 84.8281C391.996 85.4609 391.628 86.3516 391.488 87.5H397.839V87.3359C397.777 86.2344 397.48 85.3828 396.949 84.7812C396.417 84.1719 395.699 83.8672 394.792 83.8672ZM409.91 91.6367C409.91 91.0508 409.687 90.5977 409.242 90.2773C408.804 89.9492 408.035 89.668 406.933 89.4336C405.839 89.1992 404.968 88.918 404.32 88.5898C403.679 88.2617 403.203 87.8711 402.89 87.418C402.585 86.9648 402.433 86.4258 402.433 85.8008C402.433 84.7617 402.871 83.8828 403.746 83.1641C404.628 82.4453 405.753 82.0859 407.121 82.0859C408.558 82.0859 409.722 82.457 410.613 83.1992C411.511 83.9414 411.96 84.8906 411.96 86.0469H409.781C409.781 85.4531 409.527 84.9414 409.019 84.5117C408.519 84.082 407.886 83.8672 407.121 83.8672C406.332 83.8672 405.714 84.0391 405.269 84.3828C404.824 84.7266 404.601 85.1758 404.601 85.7305C404.601 86.2539 404.808 86.6484 405.222 86.9141C405.636 87.1797 406.382 87.4336 407.46 87.6758C408.546 87.918 409.425 88.207 410.097 88.543C410.769 88.8789 411.265 89.2852 411.585 89.7617C411.914 90.2305 412.078 90.8047 412.078 91.4844C412.078 92.6172 411.625 93.5273 410.718 94.2148C409.812 94.8945 408.636 95.2344 407.191 95.2344C406.175 95.2344 405.277 95.0547 404.496 94.6953C403.714 94.3359 403.101 93.8359 402.656 93.1953C402.218 92.5469 402 91.8477 402 91.0977H404.167C404.207 91.8242 404.496 92.4023 405.035 92.832C405.582 93.2539 406.3 93.4648 407.191 93.4648C408.011 93.4648 408.667 93.3008 409.16 92.9727C409.66 92.6367 409.91 92.1914 409.91 91.6367ZM422.285 91.6367C422.285 91.0508 422.062 90.5977 421.617 90.2773C421.179 89.9492 420.41 89.668 419.308 89.4336C418.214 89.1992 417.343 88.918 416.695 88.5898C416.054 88.2617 415.578 87.8711 415.265 87.418C414.96 86.9648 414.808 86.4258 414.808 85.8008C414.808 84.7617 415.246 83.8828 416.121 83.1641C417.003 82.4453 418.128 82.0859 419.496 82.0859C420.933 82.0859 422.097 82.457 422.988 83.1992C423.886 83.9414 424.335 84.8906 424.335 86.0469H422.156C422.156 85.4531 421.902 84.9414 421.394 84.5117C420.894 84.082 420.261 83.8672 419.496 83.8672C418.707 83.8672 418.089 84.0391 417.644 84.3828C417.199 84.7266 416.976 85.1758 416.976 85.7305C416.976 86.2539 417.183 86.6484 417.597 86.9141C418.011 87.1797 418.757 87.4336 419.835 87.6758C420.921 87.918 421.8 88.207 422.472 88.543C423.144 88.8789 423.64 89.2852 423.96 89.7617C424.289 90.2305 424.453 90.8047 424.453 91.4844C424.453 92.6172 424 93.5273 423.093 94.2148C422.187 94.8945 421.011 95.2344 419.566 95.2344C418.55 95.2344 417.652 95.0547 416.871 94.6953C416.089 94.3359 415.476 93.8359 415.031 93.1953C414.593 92.5469 414.375 91.8477 414.375 91.0977H416.542C416.582 91.8242 416.871 92.4023 417.41 92.832C417.957 93.2539 418.675 93.4648 419.566 93.4648C420.386 93.4648 421.042 93.3008 421.535 92.9727C422.035 92.6367 422.285 92.1914 422.285 91.6367ZM429.632 95H427.464V82.3203H429.632V95ZM427.289 78.957C427.289 78.6055 427.394 78.3086 427.605 78.0664C427.824 77.8242 428.144 77.7031 428.566 77.7031C428.988 77.7031 429.308 77.8242 429.527 78.0664C429.746 78.3086 429.855 78.6055 429.855 78.957C429.855 79.3086 429.746 79.6016 429.527 79.8359C429.308 80.0703 428.988 80.1875 428.566 80.1875C428.144 80.1875 427.824 80.0703 427.605 79.8359C427.394 79.6016 427.289 79.3086 427.289 78.957ZM432.539 88.543C432.539 87.3008 432.781 86.1836 433.265 85.1914C433.757 84.1992 434.437 83.4336 435.304 82.8945C436.179 82.3555 437.175 82.0859 438.292 82.0859C440.019 82.0859 441.414 82.6836 442.476 83.8789C443.546 85.0742 444.082 86.6641 444.082 88.6484V88.8008C444.082 90.0352 443.843 91.1445 443.367 92.1289C442.898 93.1055 442.222 93.8672 441.339 94.4141C440.464 94.9609 439.457 95.2344 438.316 95.2344C436.597 95.2344 435.203 94.6367 434.132 93.4414C433.07 92.2461 432.539 90.6641 432.539 88.6953V88.543ZM434.718 88.8008C434.718 90.207 435.042 91.3359 435.691 92.1875C436.347 93.0391 437.222 93.4648 438.316 93.4648C439.417 93.4648 440.292 93.0352 440.941 92.1758C441.589 91.3086 441.914 90.0977 441.914 88.543C441.914 87.1523 441.582 86.0273 440.917 85.168C440.261 84.3008 439.386 83.8672 438.292 83.8672C437.222 83.8672 436.359 84.293 435.703 85.1445C435.046 85.9961 434.718 87.2148 434.718 88.8008ZM448.851 82.3203L448.921 83.9141C449.89 82.6953 451.156 82.0859 452.718 82.0859C455.398 82.0859 456.75 83.5977 456.773 86.6211V95H454.605V86.6094C454.597 85.6953 454.386 85.0195 453.972 84.582C453.566 84.1445 452.929 83.9258 452.062 83.9258C451.359 83.9258 450.742 84.1133 450.21 84.4883C449.679 84.8633 449.265 85.3555 448.968 85.9648V95H446.8V82.3203H448.851ZM467.871 95C467.746 94.75 467.644 94.3047 467.566 93.6641C466.558 94.7109 465.355 95.2344 463.957 95.2344C462.707 95.2344 461.679 94.8828 460.875 94.1797C460.078 93.4688 459.679 92.5703 459.679 91.4844C459.679 90.1641 460.179 89.1406 461.179 88.4141C462.187 87.6797 463.601 87.3125 465.421 87.3125H467.531V86.3164C467.531 85.5586 467.304 84.957 466.851 84.5117C466.398 84.0586 465.73 83.832 464.847 83.832C464.074 83.832 463.425 84.0273 462.902 84.418C462.378 84.8086 462.117 85.2812 462.117 85.8359H459.937C459.937 85.2031 460.16 84.5938 460.605 84.0078C461.058 83.4141 461.667 82.9453 462.433 82.6016C463.207 82.2578 464.054 82.0859 464.976 82.0859C466.437 82.0859 467.582 82.4531 468.41 83.1875C469.238 83.9141 469.667 84.918 469.699 86.1992V92.0352C469.699 93.1992 469.847 94.125 470.144 94.8125V95H467.871ZM464.273 93.3477C464.953 93.3477 465.597 93.1719 466.207 92.8203C466.816 92.4688 467.257 92.0117 467.531 91.4492V88.8477H465.832C463.175 88.8477 461.847 89.625 461.847 91.1797C461.847 91.8594 462.074 92.3906 462.527 92.7734C462.98 93.1562 463.562 93.3477 464.273 93.3477ZM475.453 95H473.285V77H475.453V95Z" fill="white"/>
<defs>
<clipPath id="clip0">
<rect y="2" width="104.366" height="100" rx="13" fill="white"/>
</clipPath>
</defs>
</svg>
