<?xml version="1.0"?>
<svg xmlns="http://www.w3.org/2000/svg" id="Layer_1" data-name="Layer 1" viewBox="0 0 512 512" width="512px" height="512px"><g><title class="active-path" style="">recovered heart patient </title><path d="M255.667,312.678,245.86,290.6c-10.175,4.867-22.024,7.336-35.341,7.336-13.664,0-25.787-2.664-36.146-7.911L163.99,312.409a6,6,0,0,1-3.586,3.182c-1.356.441-2.748.877-4.156,1.311,2.99,14.76,20.035,42.219,54.271,42.219,25.813,0,43.756-16.25,51.465-30.407q1.389-5.523,3.3-10.828c-2.18-.682-4.17-1.326-6.045-1.958A6,6,0,0,1,255.667,312.678Z" data-original="#000000" class="active-path" fill="#01C29C"/><path d="M125.338,127.694a32.54,32.54,0,0,0,16.755,19.326c12.277,5.776,28.971,3.97,49.616-5.366,28.807-13.028,44.6-26.954,52.782-36.342,8.765-10.059,10.85-17.158,10.87-17.229a5.963,5.963,0,0,1,8.676-3.679,91.158,91.158,0,0,1,24.144,20.375,70.882,70.882,0,0,0-12.314-26.394c-14.06-18.538-36.573-27.939-66.912-27.939-30.111,0-53.041,8.869-68.155,26.359-14.4,16.659-17.7,36.933-16.4,45.8.163,1.108.486,2.862.925,5.047C125.328,127.665,125.334,127.679,125.338,127.694Z" data-original="#000000" class="active-path" fill="#00b894"/><path d="M275.978,221.251a5.88,5.88,0,0,1,3.308-.921l.185,0c9.955,0,21.547-14.913,25.916-33.4,1.554-6.6-.6-11.589-3.537-13.1-3-1.545-5.952,1.072-7.443,2.771a6,6,0,0,1-9.541-7.227c1.463-3.468,3.111-18.833,4.168-31.732-.061-18.631-16.359-32.787-25.213-39.1-6.073,11.406-22.975,34.063-67.167,54.049-14.328,6.479-27.259,9.724-38.673,9.724a48.654,48.654,0,0,1-21.215-4.538,42.291,42.291,0,0,1-5.173-2.937c1.777,6.888,3.447,12.585,4.428,14.309a6,6,0,0,1-9.234,7.619c-2.66-2.8-5.514-3.693-7.825-2.445-2.686,1.452-4.868,6.018-3.312,12.613,4.368,18.485,15.961,33.4,25.917,33.4.1,0,.2,0,.3,0a5.985,5.985,0,0,1,6,5.787c.4,5.819,3.608,35.613,27.644,50.787,9.486,5.994,21.264,9.033,35.009,9.033,13.788,0,25.593-2.972,35.086-8.834,24.483-15.135,27.259-45.072,27.566-50.919A6,6,0,0,1,275.978,221.251Z" data-original="#000000" class="active-path" fill="#00b894"/><path d="M258.46,357.226c0-1.7.045-3.4.117-5.086a70.071,70.071,0,0,1-48.058,18.981c-38.788,0-61.191-29.817-65.835-50.828q-4.645,1.309-9.514,2.648C111.838,329.392,85.394,336.7,65.123,348.9,42.834,362.312,32,379.511,32,401.479v43.2C32,451.154,44.024,462,51.2,462H323.579A117.014,117.014,0,0,1,258.46,357.226Z" data-original="#000000" class="active-path" fill="#00b894"/><path d="M404.679,305.931a23.362,23.362,0,0,0-23.339,23.332,6,6,0,0,1-12,0A23.374,23.374,0,0,0,346,305.907c-3.9,0-23.338,1.4-23.338,28.917,0,32.545,40.691,63.9,52.666,72.427,11.969-8.563,52.687-40.08,52.687-72.433C428.017,323.649,421.681,305.931,404.679,305.931Z" data-original="#000000" class="active-path" fill="#00b894"/><path d="M375.342,252.343A104.88,104.88,0,0,0,370.7,462H374a6.052,6.052,0,0,1,1.1.105c.08,0,.16,0,.241,0a104.883,104.883,0,1,0,0-209.765Zm33.59,142.131a206.986,206.986,0,0,1-30.317,25.1,6,6,0,0,1-6.535.01,204.846,204.846,0,0,1-30.327-25.007c-20.629-20.689-31.089-40.793-31.089-59.75,0-10.227,2.736-19.8,7.7-26.955,6.342-9.134,15.9-13.962,27.634-13.962a35.326,35.326,0,0,1,29.342,15.673,35.335,35.335,0,0,1,29.335-15.649c22.953,0,35.338,21.066,35.338,40.887C440.017,353.67,429.559,373.741,408.932,394.474Z" data-original="#000000" class="active-path" fill="#00b894"/><script xmlns="" class="active-path"/></g> </svg>
